<?xml version="1.0" encoding="UTF-8" standalone="no"?>
<!-- Created with Inkscape (http://www.inkscape.org/) -->

<svg
   xmlns:dc="http://purl.org/dc/elements/1.1/"
   xmlns:cc="http://creativecommons.org/ns#"
   xmlns:rdf="http://www.w3.org/1999/02/22-rdf-syntax-ns#"
   xmlns:svg="http://www.w3.org/2000/svg"
   xmlns="http://www.w3.org/2000/svg"
   xmlns:xlink="http://www.w3.org/1999/xlink"
   xmlns:sodipodi="http://sodipodi.sourceforge.net/DTD/sodipodi-0.dtd"
   xmlns:inkscape="http://www.inkscape.org/namespaces/inkscape"
   width="95.553642mm"
   height="95.552124mm"
   viewBox="0 0 95.553642 95.552124"
   version="1.1"
   id="svg16346"
   inkscape:version="0.92.4 (5da689c313, 2019-01-14)"
   sodipodi:docname="delete.svg"
   inkscape:export-xdpi="68.050819"
   inkscape:export-ydpi="68.050819">
  <defs
     id="defs16340">
    <radialGradient
       inkscape:collect="always"
       xlink:href="#XMLID_2_"
       id="radialGradient2976"
       gradientUnits="userSpaceOnUse"
       cx="66.347702"
       cy="21.809099"
       r="91.945702" />
    <radialGradient
       r="91.945702"
       id="XMLID_2_"
       gradientUnits="userSpaceOnUse"
       cy="21.809099"
       cx="66.347702">
      <stop
         style="stop-color:#F28888"
         offset="0"
         id="stop6" />
      <stop
         style="stop-color:#D82A2A"
         offset="1"
         id="stop8" />
    </radialGradient>
  </defs>
  <sodipodi:namedview
     id="base"
     pagecolor="#ffffff"
     bordercolor="#666666"
     borderopacity="1.0"
     inkscape:pageopacity="0.0"
     inkscape:pageshadow="2"
     inkscape:zoom="0.35"
     inkscape:cx="-328.00031"
     inkscape:cy="416.28523"
     inkscape:document-units="mm"
     inkscape:current-layer="layer1"
     showgrid="false"
     fit-margin-top="0"
     fit-margin-left="0"
     fit-margin-right="0"
     fit-margin-bottom="0"
     inkscape:window-width="1024"
     inkscape:window-height="705"
     inkscape:window-x="-8"
     inkscape:window-y="-8"
     inkscape:window-maximized="1" />
  <metadata
     id="metadata16343">
    <rdf:RDF>
      <cc:Work
         rdf:about="">
        <dc:format>image/svg+xml</dc:format>
        <dc:type
           rdf:resource="http://purl.org/dc/dcmitype/StillImage" />
        <dc:title></dc:title>
      </cc:Work>
    </rdf:RDF>
  </metadata>
  <g
     inkscape:label="Layer 1"
     inkscape:groupmode="layer"
     id="layer1"
     transform="translate(-69.774487,-163.42334)">
    <g
       style="display:inline"
       id="g3"
       transform="matrix(0.69782389,0,0,0.69782389,69.774162,163.42424)">
      <radialGradient
         r="91.945702"
         id="radialGradient16325"
         gradientUnits="userSpaceOnUse"
         cy="21.809099"
         cx="66.347702">
        <stop
           style="stop-color:#F28888"
           offset="0"
           id="stop16321" />
        <stop
           style="stop-color:#D82A2A"
           offset="1"
           id="stop16323" />
      </radialGradient>
      <path
         inkscape:connector-curvature="0"
         style="fill:url(#radialGradient2976)"
         id="path10"
         d="m 132.99,99.316 c -6.597,-6.595 -13.189,-13.188 -19.785,-19.783 -3.288,-3.288 -6.576,-6.577 -9.864,-9.865 -1.915,-1.915 -0.106,-2.309 1.725,-4.14 8.093,-8.095 16.188,-16.19 24.281,-24.283 2.697,-2.7 5.927,-5.249 6.376,-9.333 0.617,-5.644 -4.11,-9.153 -7.651,-12.693 C 122.299,13.446 110.746,-3.438 101.049,2.576 93.391,7.326 86.929,16.34 80.617,22.652 77.138,26.131 73.66,29.609 70.181,33.086 68.031,35.236 68.354,34.677 66.185,32.51 58.134,24.459 50.081,16.408 42.028,8.357 39.7,6.029 37.183,2.765 33.971,1.665 27.844,-0.43 23.96,4.135 20.145,7.946 14.543,13.548 -1.539,24.544 1.678,33.958 c 1.098,3.213 4.361,5.729 6.688,8.059 4.404,4.404 8.807,8.807 13.212,13.212 3.648,3.648 7.296,7.296 10.945,10.947 2.167,2.167 2.726,1.845 0.576,3.996 -7.969,7.967 -15.936,15.936 -23.905,23.904 -2.152,2.152 -4.979,4.335 -6.608,6.962 -3.749,6.042 0.466,10.843 4.523,14.898 5.48,5.48 15.905,20.748 24.816,19.772 8.071,-0.884 17.021,-14.063 22.218,-19.261 4.016,-4.012 8.029,-8.025 12.043,-12.039 2.167,-2.167 1.845,-2.726 3.994,-0.575 8.245,8.242 16.489,16.485 24.732,24.729 2.883,2.883 5.76,6.67 10.104,7.146 5.642,0.617 9.15,-4.11 12.691,-7.65 5.942,-5.942 24.881,-19.152 15.283,-28.742" />
      <path
         inkscape:connector-curvature="0"
         style="fill:#ef5656"
         id="path12"
         d="M 32.108,5.382 C 34.234,7.512 9.882,29.862 7.021,31.804 2.273,35.027 11.877,21.857 12.801,20.845 14.289,19.217 29.448,2.722 32.108,5.382" />
      <path
         inkscape:connector-curvature="0"
         style="fill:#ef5656"
         id="path14"
         d="m 38.985,73.616 c 2.172,2.18 -28.186,30.286 -31.196,32.637 -1.428,1.116 -3.703,2.102 -2.241,-0.648 2.541,-4.777 6.725,-8.94 10.396,-12.841 1.652,-1.754 20.405,-21.785 23.041,-19.148" />
      <path
         inkscape:connector-curvature="0"
         style="fill:#ef5656"
         id="path16"
         d="m 99.911,73.616 c -2.167,2.172 28.184,30.286 31.193,32.637 1.429,1.116 3.705,2.102 2.243,-0.648 -2.539,-4.777 -6.724,-8.94 -10.394,-12.841 -1.65,-1.754 -20.405,-21.785 -23.042,-19.148" />
      <path
         inkscape:connector-curvature="0"
         style="fill:#ef5656"
         id="path18"
         d="M 32.108,5.382 C 33.949,3.544 68.296,38.657 66.839,40.115 65.281,41.677 27.561,9.945 32.108,5.382" />
      <path
         inkscape:connector-curvature="0"
         style="fill:#ef5656"
         id="path20"
         d="m 105.076,5.382 c -2.129,2.132 22.224,24.48 25.086,26.422 4.746,3.223 -4.855,-9.947 -5.781,-10.959 C 122.896,19.219 107.732,2.722 105.076,5.382" />
      <path
         inkscape:connector-curvature="0"
         style="fill:#ef5656"
         id="path22"
         d="M 105.076,5.382 C 103.24,3.548 69.136,38.39 70.6,39.855 72.179,41.439 109.615,9.929 105.076,5.382" />
      <path
         inkscape:connector-curvature="0"
         style="fill:#b20d0d"
         id="path24"
         d="m 132.569,31.309 c -1.838,-1.838 -20.787,18.733 -22.4,20.36 -3.009,3.038 -7.01,6.294 -9.028,10.148 -1.559,2.978 5.516,-1.839 5.892,-2.13 3.065,-2.374 29.68,-24.242 25.536,-28.378" />
      <path
         inkscape:connector-curvature="0"
         style="fill:#b20d0d"
         id="path26"
         d="m 68.087,95.791 c -1.589,-1.594 -19.854,17.809 -21.491,19.445 -4.685,4.684 -9.672,9.238 -13.859,14.391 -2.32,2.854 -1.628,4.019 1.6,1.941 3.205,-2.06 37.682,-31.851 33.75,-35.777" />
      <path
         inkscape:connector-curvature="0"
         style="fill:#b20d0d"
         id="path28"
         d="m 6.914,31.309 c 1.829,-1.833 20.79,18.735 22.399,20.36 3.011,3.04 7.008,6.294 9.029,10.148 1.56,2.978 -5.514,-1.839 -5.89,-2.13 C 29.388,57.316 2.769,35.432 6.914,31.309" />
      <path
         inkscape:connector-curvature="0"
         style="fill:#b20d0d"
         id="path30"
         d="m 71.536,95.937 c 1.603,-1.607 19.133,17.082 20.689,18.639 4.686,4.684 9.672,9.24 13.857,14.39 2.317,2.855 1.627,4.018 -1.599,1.942 C 101.277,128.847 67.55,99.91 71.536,95.937" />
      <path
         inkscape:connector-curvature="0"
         style="fill:#970f00"
         id="path32"
         d="m 30.881,0.022 c -7.374,0 -14.027,9.615 -18.709,14.297 -5.675,5.674 -16.408,13.272 -10.383,22.412 3.84,5.826 10.373,10.68 15.26,15.567 5.387,5.388 10.777,10.771 16.161,16.163 -8.732,8.721 -17.454,17.452 -26.181,26.179 -4.257,4.257 -8.981,8.757 -6.191,15.486 2.154,5.201 8.574,9.712 12.414,13.552 3.698,3.698 7.337,8.499 11.725,11.435 6.522,4.365 12.054,0.048 16.563,-4.459 8.978,-8.978 17.962,-17.951 26.934,-26.934 8.722,8.732 17.454,17.454 26.181,26.179 4.257,4.255 8.753,8.979 15.485,6.191 5.199,-2.153 9.711,-8.571 13.552,-12.412 3.697,-3.697 8.499,-7.335 11.434,-11.723 4.325,-6.462 0.058,-12.045 -4.458,-16.563 -8.979,-8.978 -17.952,-17.96 -26.935,-26.932 8.722,-8.732 17.454,-17.456 26.182,-26.183 4.242,-4.242 8.927,-8.711 6.212,-15.419 -2.119,-5.23 -8.59,-9.774 -12.435,-13.62 C 119.991,9.539 116.337,4.69 111.924,1.778 105.407,-2.523 99.903,1.765 95.403,6.263 86.425,15.241 77.443,24.214 68.471,33.197 62.344,27.062 56.211,20.937 50.081,14.805 45.346,10.073 38.364,0.018 30.881,0.022 m -5.93,132.153 C 18.232,125.458 -4.776,109.644 5.522,99.346 15.818,89.052 26.112,78.755 36.409,68.46 29.856,61.908 23.303,55.353 16.748,48.8 11.567,43.619 -3.434,33.12 4.826,24.862 11.435,18.254 18.047,11.645 24.657,5.037 c 8.307,-8.303 17.728,5.276 23.09,10.636 6.891,6.891 13.782,13.782 20.673,20.671 0.104,0.104 17.34,-17.238 18.626,-18.522 5.156,-5.156 16.596,-21.437 24.944,-13.079 7.122,5.452 13.205,13.201 19.557,19.548 8.67,8.668 -4.56,17.713 -10.288,23.443 -6.909,6.909 -13.817,13.818 -20.727,20.728 10.312,10.309 22.737,20.149 31.657,31.657 8.243,8.24 -7.113,18.976 -12.248,24.109 -5.53,5.527 -12.562,15.199 -20.584,7.178 -6.651,-6.65 -13.301,-13.302 -19.953,-19.952 -2.148,-2.147 -9.521,-12.34 -12.118,-9.746 -6.862,6.862 -13.724,13.722 -20.585,20.584 -4.958,4.954 -13.975,17.677 -21.75,9.883" />
    </g>
  </g>
</svg>
