<?xml version="1.0" encoding="UTF-8" standalone="no"?>
<!-- Created with Inkscape (http://www.inkscape.org/) -->

<svg
   xmlns:dc="http://purl.org/dc/elements/1.1/"
   xmlns:cc="http://creativecommons.org/ns#"
   xmlns:rdf="http://www.w3.org/1999/02/22-rdf-syntax-ns#"
   xmlns:svg="http://www.w3.org/2000/svg"
   xmlns="http://www.w3.org/2000/svg"
   xmlns:xlink="http://www.w3.org/1999/xlink"
   xmlns:sodipodi="http://sodipodi.sourceforge.net/DTD/sodipodi-0.dtd"
   xmlns:inkscape="http://www.inkscape.org/namespaces/inkscape"
   width="240mm"
   height="240mm"
   viewBox="0 0 240 239.99999"
   version="1.1"
   id="svg4832"
   inkscape:version="0.92.4 (5da689c313, 2019-01-14)"
   sodipodi:docname="image.svg"
   inkscape:export-xdpi="27.309303"
   inkscape:export-ydpi="27.309303">
  <defs
     id="defs4826">
    <linearGradient
       x1="353.16473"
       y1="-23.266455"
       x2="358.54288"
       y2="-403.3219"
       id="linearGradient11785"
       xlink:href="#linearGradient10071"
       gradientUnits="userSpaceOnUse"
       gradientTransform="matrix(0.97216699,-0.10517485,0.10517485,0.97216699,316.09082,525.30395)" />
    <linearGradient
       id="linearGradient10071">
      <stop
         id="stop10073"
         style="stop-color:#ffd42a;stop-opacity:1"
         offset="0" />
      <stop
         id="stop10075"
         style="stop-color:#ffd42a;stop-opacity:0"
         offset="1" />
    </linearGradient>
    <linearGradient
       x1="335.23761"
       y1="1.8315464"
       x2="333.44489"
       y2="111.18713"
       id="linearGradient10089"
       xlink:href="#linearGradient10083"
       gradientUnits="userSpaceOnUse"
       gradientTransform="matrix(0.97216699,-0.10517485,0.10517485,0.97216699,316.09082,525.30395)" />
    <linearGradient
       id="linearGradient10083">
      <stop
         id="stop10085"
         style="stop-color:#ddc20f;stop-opacity:1"
         offset="0" />
      <stop
         id="stop10087"
         style="stop-color:#ddc20f;stop-opacity:0"
         offset="1" />
    </linearGradient>
    <filter
       id="filter10126"
       style="color-interpolation-filters:sRGB">
      <feGaussianBlur
         id="feGaussianBlur10128"
         stdDeviation="2.366383" />
    </filter>
    <filter
       id="filter10170"
       style="color-interpolation-filters:sRGB">
      <feGaussianBlur
         id="feGaussianBlur10172"
         stdDeviation="4.7555765" />
    </filter>
    <filter
       id="filter10174"
       style="color-interpolation-filters:sRGB">
      <feGaussianBlur
         id="feGaussianBlur10176"
         stdDeviation="2.1624988" />
    </filter>
    <filter
       id="filter10410"
       style="color-interpolation-filters:sRGB">
      <feGaussianBlur
         id="feGaussianBlur10412"
         stdDeviation="0.78338777" />
    </filter>
    <filter
       x="-0.2339492"
       y="-0.070204571"
       width="1.4678984"
       height="1.1404091"
       id="filter10258"
       style="color-interpolation-filters:sRGB">
      <feGaussianBlur
         id="feGaussianBlur10260"
         stdDeviation="8.4258266" />
    </filter>
    <filter
       id="filter10396"
       style="color-interpolation-filters:sRGB">
      <feGaussianBlur
         id="feGaussianBlur10398"
         stdDeviation="1.1866749" />
    </filter>
    <filter
       x="-0.11490296"
       y="-0.12557022"
       width="1.2298059"
       height="1.2511405"
       id="filter10308"
       style="color-interpolation-filters:sRGB">
      <feGaussianBlur
         id="feGaussianBlur10310"
         stdDeviation="5.8395781" />
    </filter>
    <filter
       id="filter10386"
       style="color-interpolation-filters:sRGB">
      <feGaussianBlur
         id="feGaussianBlur10388"
         stdDeviation="0.84202752" />
    </filter>
    <filter
       id="filter10326"
       style="color-interpolation-filters:sRGB">
      <feGaussianBlur
         id="feGaussianBlur10328"
         stdDeviation="0.32374702" />
    </filter>
  </defs>
  <sodipodi:namedview
     id="base"
     pagecolor="#ffffff"
     bordercolor="#666666"
     borderopacity="1.0"
     inkscape:pageopacity="0.0"
     inkscape:pageshadow="2"
     inkscape:zoom="0.35"
     inkscape:cx="199.69493"
     inkscape:cy="455.816"
     inkscape:document-units="mm"
     inkscape:current-layer="layer1"
     showgrid="false"
     fit-margin-top="0"
     fit-margin-left="0"
     fit-margin-right="0"
     fit-margin-bottom="0"
     inkscape:window-width="1024"
     inkscape:window-height="705"
     inkscape:window-x="-8"
     inkscape:window-y="-8"
     inkscape:window-maximized="1" />
  <metadata
     id="metadata4829">
    <rdf:RDF>
      <cc:Work
         rdf:about="">
        <dc:format>image/svg+xml</dc:format>
        <dc:type
           rdf:resource="http://purl.org/dc/dcmitype/StillImage" />
        <dc:title></dc:title>
      </cc:Work>
    </rdf:RDF>
  </metadata>
  <g
     inkscape:label="Layer 1"
     inkscape:groupmode="layer"
     id="layer1"
     transform="translate(8.0274058,61.279628)">
    <g
       id="g3159"
       transform="matrix(0.26298452,0.02904272,-0.02904272,0.26298452,-47.377029,-59.11947)">
      <path
         inkscape:connector-curvature="0"
         style="fill:#ec9411;fill-opacity:1;stroke:none;stroke-width:0.97783965"
         id="rect10067"
         d="m 190.44424,195.10822 860.95196,-93.14294 47.3257,437.44726 -860.95199,93.14294 z" />
      <path
         inkscape:connector-curvature="0"
         style="fill:url(#linearGradient11785);fill-opacity:1;stroke:none;stroke-width:0.97783965"
         id="rect10069"
         d="m 190.44424,195.10822 860.95196,-93.14294 47.3257,437.44726 -860.95199,93.14294 z" />
      <path
         inkscape:connector-curvature="0"
         style="fill:#b79c09;fill-opacity:1;stroke:none;stroke-width:0.97783965"
         id="path10079"
         d="m 225.4225,551.02013 c 0,0 61.13627,-54.22092 170.55669,-69.58511 109.42042,-15.36419 224.07432,33.94443 304.62103,28.75683 80.54671,-5.18759 201.92741,-72.97898 267.58883,-85.37227 65.66145,-12.3933 120.39705,4.60688 120.39705,4.60688 l 11.8786,109.79752 -864.8147,90.0344 z" />
      <path
         inkscape:connector-curvature="0"
         style="fill:url(#linearGradient10089);fill-opacity:1;stroke:none;stroke-width:0.97783965"
         id="path10081"
         d="m 225.4225,551.02013 c 0,0 61.13627,-54.22092 170.55669,-69.58511 109.42042,-15.36419 224.07432,33.94443 304.62103,28.75683 80.54671,-5.18759 201.92741,-72.97898 267.58883,-85.37227 65.66145,-12.3933 120.39705,4.60688 120.39705,4.60688 l 11.8786,109.79752 -864.8147,90.0344 z" />
      <path
         transform="matrix(0.97216699,-0.10517485,0.10517485,0.97216699,316.09082,525.30395)"
         inkscape:connector-curvature="0"
         style="fill:#000000;fill-opacity:1;stroke:none;filter:url(#filter10126)"
         id="path10120"
         d="m 372.54609,-302.95032 c 0,10.89097 -22.47352,19.71986 -50.196,19.71986 -27.72249,0 -50.19601,-8.82889 -50.19601,-19.71986 0,-10.89098 22.47352,-19.71986 50.19601,-19.71986 27.72248,0 50.196,8.82888 50.196,19.71986 z m 55.57415,26.89071 c 0,19.80178 -37.7234,35.85429 -84.25758,35.85429 -46.53417,0 -84.25757,-16.05251 -84.25757,-35.85429 0,-19.80177 37.7234,-35.85428 84.25757,-35.85428 46.53418,0 84.25758,16.05251 84.25758,35.85428 z m -105.77014,20.61623 c 0,20.29682 -32.90765,36.75065 -73.50129,36.75065 -40.59364,0 -73.50129,-16.45383 -73.50129,-36.75065 0,-20.29682 32.90765,-36.75064 73.50129,-36.75064 40.59364,0 73.50129,16.45382 73.50129,36.75064 z m -125.49001,6.27451 c 0,14.85133 -17.65776,26.89071 -39.43972,26.89071 -21.78195,0 -39.43971,-12.03938 -39.43971,-26.89071 0,-14.85134 17.65776,-26.89072 39.43971,-26.89072 21.78196,0 39.43972,12.03938 39.43972,26.89072 z m 114.73372,-58.26323 c 0,18.31664 -25.68402,33.16521 -57.36686,33.16521 -31.68284,0 -57.36686,-14.84857 -57.36686,-33.16521 0,-18.31665 25.68402,-33.16522 57.36686,-33.16522 31.68284,0 57.36686,14.84857 57.36686,33.16522 z m -51.98872,22.40893 c 0,24.75222 -40.9339,44.81786 -91.42843,44.81786 -50.49453,0 -91.428437,-20.06564 -91.428437,-44.81786 0,-24.75222 40.933907,-44.81786 91.428437,-44.81786 50.49453,0 91.42843,20.06564 91.42843,44.81786 z" />
      <path
         inkscape:connector-curvature="0"
         style="fill:#ffffff;fill-opacity:1;stroke:none;stroke-width:0.97783965"
         id="path10111"
         d="m 645.98438,187.7145 c 1.14545,10.58784 -19.77398,21.53465 -46.72486,24.45036 -26.95089,2.9157 -49.72748,-3.3038 -50.87294,-13.89164 -1.14546,-10.58785 19.77398,-21.53465 46.72487,-24.45036 26.95088,-2.91571 49.72747,3.30379 50.87293,13.89164 z m 56.85558,20.29726 c 2.08265,19.25064 -32.90248,38.82391 -78.14147,43.71814 -45.23898,4.89422 -83.60075,-6.74395 -85.6834,-25.99458 -2.08265,-19.25063 32.90248,-38.8239 78.14146,-43.71813 45.23899,-4.89422 83.60076,6.74394 85.68341,25.99457 z m -100.65793,31.16678 c 2.13471,19.7319 -28.12649,39.18882 -67.59029,43.45825 -39.46379,4.26943 -73.18605,-8.26538 -75.32077,-27.99728 -2.13471,-19.7319 28.12649,-39.18882 67.59029,-43.45825 39.46379,-4.26943 73.18605,8.26538 75.32077,27.99728 z M 480.8447,258.4768 c 1.56199,14.43797 -14.33806,27.99941 -35.51376,30.29033 -21.1757,2.29091 -39.60823,-7.55622 -41.17021,-21.9942 -1.56199,-14.43798 14.33806,-27.99942 35.51375,-30.29033 21.1757,-2.29092 39.60824,7.55622 41.17022,21.9942 z m 105.41251,-68.70869 c 1.92645,17.80683 -21.48101,34.94344 -52.28202,38.27567 -30.80101,3.33224 -57.33186,-8.40173 -59.25831,-26.20857 -1.92645,-17.80684 21.48101,-34.94344 52.28202,-38.27568 30.80101,-3.33224 57.33186,8.40174 59.25831,26.20858 z m -48.18486,27.25313 c 2.60331,24.06329 -35.08087,47.87566 -84.16999,53.18641 -49.08911,5.31076 -90.99411,-9.89118 -93.59742,-33.95447 -2.60331,-24.06329 35.08088,-47.87566 84.17,-53.18641 49.08911,-5.31076 90.9941,9.89118 93.59741,33.95447 z" />
      <path
         inkscape:connector-curvature="0"
         style="fill:#000000;fill-opacity:1;stroke:none;filter:url(#filter10126)"
         id="path10130"
         transform="matrix(-0.76556421,0.08282332,0.10517485,0.97216699,1373.3599,370.36827)"
         d="m 688.40232,-211.0869 c 0,10.89097 -22.47352,19.71986 -50.196,19.71986 -27.72249,0 -50.19601,-8.82889 -50.19601,-19.71986 0,-10.89098 22.47352,-19.71986 50.19601,-19.71986 27.72248,0 50.196,8.82888 50.196,19.71986 z m 55.57415,26.89071 c 0,19.80178 -37.7234,35.85429 -84.25758,35.85429 -46.53417,0 -84.25757,-16.05251 -84.25757,-35.85429 0,-19.80177 37.7234,-35.85428 84.25757,-35.85428 46.53418,0 84.25758,16.05251 84.25758,35.85428 z m -105.77014,20.61623 c 0,20.29682 -32.90765,36.75065 -73.50129,36.75065 -40.59364,0 -73.50129,-16.45383 -73.50129,-36.75065 0,-20.29682 32.90765,-36.75064 73.50129,-36.75064 40.59364,0 73.50129,16.45382 73.50129,36.75064 z m -125.49001,6.27451 c 0,14.85133 -17.65776,26.89071 -39.43972,26.89071 -21.78195,0 -39.43972,-12.03938 -39.43972,-26.89071 0,-14.85134 17.65777,-26.89072 39.43972,-26.89072 21.78196,0 39.43972,12.03938 39.43972,26.89072 z m 114.73372,-58.26323 c 0,18.31664 -25.68402,33.16521 -57.36686,33.16521 -31.68284,0 -57.36686,-14.84857 -57.36686,-33.16521 0,-18.31665 25.68402,-33.16522 57.36686,-33.16522 31.68284,0 57.36686,14.84857 57.36686,33.16522 z m -51.98872,22.40893 c 0,24.75222 -40.9339,44.81786 -91.42843,44.81786 -50.49453,0 -91.42844,-20.06564 -91.42844,-44.81786 0,-24.75222 40.93391,-44.81786 91.42844,-44.81786 50.49453,0 91.42843,20.06564 91.42843,44.81786 z" />
      <path
         inkscape:connector-curvature="0"
         style="fill:#ffffff;fill-opacity:1;stroke:none;stroke-width:0.97783965"
         id="path10132"
         d="m 823.7221,218.28365 c 1.14546,10.58784 19.27896,17.30966 40.5023,15.0136 21.22335,-2.29607 37.4997,-12.74056 36.35424,-23.3284 -1.14546,-10.58785 -19.27896,-17.30967 -40.50231,-15.0136 -21.22333,2.29607 -37.49968,12.74055 -36.35423,23.3284 z m -39.71735,30.74509 c 2.08265,19.25064 32.65066,31.73198 68.27556,27.87787 35.6249,-3.85412 62.81626,-22.58421 60.73361,-41.83485 -2.08265,-19.25063 -32.65065,-31.73197 -68.27555,-27.87785 -35.6249,3.85411 -62.81626,22.58421 -60.73362,41.83483 z m 83.14214,11.28219 c 2.13472,19.7319 29.05817,33.00225 60.13521,29.64015 31.07703,-3.3621 54.53943,-22.0835 52.40471,-41.81539 -2.13471,-19.7319 -29.05816,-33.00224 -60.1352,-29.64014 -31.07704,3.3621 -54.53943,22.08348 -52.40472,41.81538 z m 96.73058,-4.29363 c 1.56199,14.43797 16.34638,24.67979 33.02187,22.87573 16.67546,-1.80405 28.92736,-14.97081 27.36536,-29.40879 -1.5619,-14.43798 -16.3463,-24.67979 -33.02181,-22.87574 -16.6755,1.80406 -28.9274,14.97082 -27.36542,29.4088 z m -93.96385,-47.13896 c 1.92645,17.80683 23.15091,30.11489 47.40616,27.49081 24.25525,-2.62408 42.35632,-19.18661 40.42987,-36.99344 -1.92645,-17.80684 -23.15092,-30.11489 -47.40616,-27.49082 -24.25525,2.62408 -42.35632,19.18661 -40.42987,36.99345 z m 42.15756,17.47934 c 2.60331,24.06329 36.05124,40.18017 74.70804,35.99804 38.65678,-4.18212 67.88398,-27.07956 65.28058,-51.14285 -2.6033,-24.06329 -36.0512,-40.18016 -74.708,-35.99804 -38.6568,4.18213 -67.88393,27.07956 -65.28062,51.14285 z" />
      <path
         inkscape:connector-curvature="0"
         style="fill:#000000;fill-opacity:1;stroke:none;filter:url(#filter10170)"
         id="path10134"
         transform="matrix(0.46212462,-0.04999541,0.04575084,0.4228906,604.1515,380.73456)"
         d="m 397.98259,-173.4399 c 0,10.89097 -22.47352,19.71986 -50.196,19.71986 -27.72249,0 -50.19601,-8.82889 -50.19601,-19.71986 0,-10.89098 22.47352,-19.71986 50.19601,-19.71986 27.72248,0 50.196,8.82888 50.196,19.71986 z m 55.57415,26.89071 c 0,19.80178 -37.7234,35.85429 -84.25758,35.85429 -46.53417,0 -84.25757,-16.05251 -84.25757,-35.85429 0,-19.80177 37.7234,-35.85428 84.25757,-35.85428 46.53418,0 84.25758,16.05251 84.25758,35.85428 z m -105.77014,20.61623 c 0,20.29682 -32.90765,36.750649 -73.50129,36.750649 -40.59365,0 -73.50129,-16.453829 -73.50129,-36.750649 0,-20.29682 32.90764,-36.75064 73.50129,-36.75064 40.59364,0 73.50129,16.45382 73.50129,36.75064 z m -125.49001,6.27451 c 0,14.85133 -17.65777,26.890709 -39.43972,26.890709 -21.78195,0 -39.43972,-12.039379 -39.43972,-26.890709 0,-14.85134 17.65777,-26.89072 39.43972,-26.89072 21.78195,0 39.43972,12.03938 39.43972,26.89072 z m 114.73372,-58.26323 c 0,18.31664 -25.68402,33.16521 -57.36686,33.16521 -31.68284,0 -57.36686,-14.84857 -57.36686,-33.16521 0,-18.31665 25.68402,-33.16522 57.36686,-33.16522 31.68284,0 57.36686,14.84857 57.36686,33.16522 z m -51.98872,22.40893 c 0,24.75222 -40.9339,44.81786 -91.42843,44.81786 -50.49454,0 -91.42844,-20.06564 -91.42844,-44.81786 0,-24.75222 40.9339,-44.81786 91.42844,-44.81786 50.49453,0 91.42843,20.06564 91.42843,44.81786 z" />
      <path
         transform="matrix(0.97216699,-0.10517485,0.10517485,0.97216699,316.09082,525.30395)"
         inkscape:connector-curvature="0"
         style="fill:#ffffff;fill-opacity:1;stroke:none;filter:url(#filter10174)"
         id="path10136"
         d="m 497.96502,-192.4885 c 0,4.73755 -10.68291,8.5781 -23.86093,8.5781 -13.17803,0 -23.86094,-3.84055 -23.86094,-8.5781 0,-4.73755 10.68291,-8.5781 23.86094,-8.5781 13.17802,0 23.86093,3.84055 23.86093,8.5781 z m 26.41746,11.6974 c 0,8.61374 -17.93202,15.59655 -40.05228,15.59655 -22.12026,0 -40.05227,-6.98281 -40.05227,-15.59655 0,-8.61372 17.93201,-15.59654 40.05227,-15.59654 22.12026,0 40.05228,6.98282 40.05228,15.59654 z m -50.27839,8.96802 c 0,8.82908 -15.64282,15.98646 -34.93922,15.98646 -19.2964,0 -34.93922,-7.15738 -34.93922,-15.98646 0,-8.82908 15.64282,-15.98646 34.93922,-15.98646 19.2964,0 34.93922,7.15738 34.93922,15.98646 z m -59.65233,2.7294 c 0,6.4603 -8.39371,11.6974 -18.74787,11.6974 -10.35416,0 -18.74788,-5.2371 -18.74788,-11.6974 0,-6.4603 8.39372,-11.69741 18.74788,-11.69741 10.35416,0 18.74787,5.23711 18.74787,11.69741 z m 54.53927,-25.34439 c 0,7.9677 -12.20903,14.4268 -27.26963,14.4268 -15.0606,0 -27.26964,-6.4591 -27.26964,-14.4268 0,-7.9677 12.20904,-14.42679 27.26964,-14.42679 15.0606,0 27.26963,6.45909 27.26963,14.42679 z m -24.7131,9.74785 c 0,10.76716 -19.45815,19.49567 -43.46098,19.49567 -24.00284,0 -43.46099,-8.72851 -43.46099,-19.49567 0,-10.76717 19.45815,-19.49568 43.46099,-19.49568 24.00283,0 43.46098,8.72851 43.46098,19.49568 z" />
      <path
         inkscape:connector-curvature="0"
         style="fill:#000000;fill-opacity:1;stroke:none;filter:url(#filter10170)"
         id="path10178"
         transform="matrix(-0.33451849,0.03619021,0.03311769,0.30611813,493.4044,365.46829)"
         d="m 397.98259,-173.4399 c 0,10.89097 -22.47352,19.71986 -50.196,19.71986 -27.72249,0 -50.19601,-8.82889 -50.19601,-19.71986 0,-10.89098 22.47352,-19.71986 50.19601,-19.71986 27.72248,0 50.196,8.82888 50.196,19.71986 z m 55.57415,26.89071 c 0,19.80178 -37.7234,35.85429 -84.25758,35.85429 -46.53417,0 -84.25757,-16.05251 -84.25757,-35.85429 0,-19.80177 37.7234,-35.85428 84.25757,-35.85428 46.53418,0 84.25758,16.05251 84.25758,35.85428 z m -105.77014,20.61623 c 0,20.29682 -32.90765,36.750649 -73.50129,36.750649 -40.59365,0 -73.50129,-16.453829 -73.50129,-36.750649 0,-20.29682 32.90764,-36.75064 73.50129,-36.75064 40.59364,0 73.50129,16.45382 73.50129,36.75064 z m -125.49001,6.27451 c 0,14.85133 -17.65777,26.890709 -39.43972,26.890709 -21.78195,0 -39.43972,-12.039379 -39.43972,-26.890709 0,-14.85134 17.65777,-26.89072 39.43972,-26.89072 21.78195,0 39.43972,12.03938 39.43972,26.89072 z m 114.73372,-58.26323 c 0,18.31664 -25.68402,33.16521 -57.36686,33.16521 -31.68284,0 -57.36686,-14.84857 -57.36686,-33.16521 0,-18.31665 25.68402,-33.16522 57.36686,-33.16522 31.68284,0 57.36686,14.84857 57.36686,33.16522 z m -51.98872,22.40893 c 0,24.75222 -40.9339,44.81786 -91.42843,44.81786 -50.49454,0 -91.42844,-20.06564 -91.42844,-44.81786 0,-24.75222 40.9339,-44.81786 91.42844,-44.81786 50.49453,0 91.42843,20.06564 91.42843,44.81786 z" />
      <path
         inkscape:connector-curvature="0"
         style="fill:#ffffff;fill-opacity:1;stroke:none;filter:url(#filter10174)"
         id="path10180"
         transform="matrix(-0.70372323,0.076133,0.076133,0.70372323,619.91497,399.41118)"
         d="m 361.71873,-144.08521 c 0,4.73755 -10.68291,8.5781 -23.86093,8.5781 -13.17803,0 -23.86094,-3.84055 -23.86094,-8.5781 0,-4.73755 10.68291,-8.5781 23.86094,-8.5781 13.17802,0 23.86093,3.84055 23.86093,8.5781 z m 26.41746,11.6974 c 0,8.61374 -17.93202,15.59655 -40.05228,15.59655 -22.12026,0 -40.05227,-6.98281 -40.05227,-15.59655 0,-8.61372 17.93201,-15.59654 40.05227,-15.59654 22.12026,0 40.05228,6.98282 40.05228,15.59654 z m -50.27839,8.96802 c 0,8.82908 -15.64282,15.98646 -34.93922,15.98646 -19.2964,0 -34.93922,-7.15738 -34.93922,-15.98646 0,-8.82908 15.64282,-15.98646 34.93922,-15.98646 19.2964,0 34.93922,7.15738 34.93922,15.98646 z m -59.65233,2.7294 c 0,6.4603 -8.39371,11.6974 -18.74787,11.6974 -10.35416,0 -18.74788,-5.2371 -18.74788,-11.6974 0,-6.4603 8.39372,-11.69741 18.74788,-11.69741 10.35416,0 18.74787,5.23711 18.74787,11.69741 z m 54.53927,-25.34439 c 0,7.9677 -12.20903,14.4268 -27.26963,14.4268 -15.0606,0 -27.26964,-6.4591 -27.26964,-14.4268 0,-7.9677 12.20904,-14.42679 27.26964,-14.42679 15.0606,0 27.26963,6.45909 27.26963,14.42679 z m -24.7131,9.74785 c 0,10.76716 -19.45815,19.49567 -43.46098,19.49567 -24.00284,0 -43.46099,-8.72851 -43.46099,-19.49567 0,-10.76717 19.45815,-19.49568 43.46099,-19.49568 24.00283,0 43.46098,8.72851 43.46098,19.49568 z" />
      <path
         inkscape:connector-curvature="0"
         style="fill:#000000;fill-opacity:1;stroke:none;filter:url(#filter10170)"
         id="path10182"
         transform="matrix(-0.21967298,0.02376554,0.02174786,0.20102291,860.30438,178.63981)"
         d="m 397.98259,-173.4399 c 0,10.89097 -22.47352,19.71986 -50.196,19.71986 -27.72249,0 -50.19601,-8.82889 -50.19601,-19.71986 0,-10.89098 22.47352,-19.71986 50.19601,-19.71986 27.72248,0 50.196,8.82888 50.196,19.71986 z m 55.57415,26.89071 c 0,19.80178 -37.7234,35.85429 -84.25758,35.85429 -46.53417,0 -84.25757,-16.05251 -84.25757,-35.85429 0,-19.80177 37.7234,-35.85428 84.25757,-35.85428 46.53418,0 84.25758,16.05251 84.25758,35.85428 z m -105.77014,20.61623 c 0,20.29682 -32.90765,36.750649 -73.50129,36.750649 -40.59365,0 -73.50129,-16.453829 -73.50129,-36.750649 0,-20.29682 32.90764,-36.75064 73.50129,-36.75064 40.59364,0 73.50129,16.45382 73.50129,36.75064 z m -125.49001,6.27451 c 0,14.85133 -17.65777,26.890709 -39.43972,26.890709 -21.78195,0 -39.43972,-12.039379 -39.43972,-26.890709 0,-14.85134 17.65777,-26.89072 39.43972,-26.89072 21.78195,0 39.43972,12.03938 39.43972,26.89072 z m 114.73372,-58.26323 c 0,18.31664 -25.68402,33.16521 -57.36686,33.16521 -31.68284,0 -57.36686,-14.84857 -57.36686,-33.16521 0,-18.31665 25.68402,-33.16522 57.36686,-33.16522 31.68284,0 57.36686,14.84857 57.36686,33.16522 z m -51.98872,22.40893 c 0,24.75222 -40.9339,44.81786 -91.42843,44.81786 -50.49454,0 -91.42844,-20.06564 -91.42844,-44.81786 0,-24.75222 40.9339,-44.81786 91.42844,-44.81786 50.49453,0 91.42843,20.06564 91.42843,44.81786 z" />
      <path
         inkscape:connector-curvature="0"
         style="fill:#ffffff;fill-opacity:1;stroke:none;filter:url(#filter10174)"
         id="path10184"
         transform="matrix(-0.46212388,0.04999533,0.04999533,0.46212388,943.38187,200.92957)"
         d="m 361.71873,-144.08521 c 0,4.73755 -10.68291,8.5781 -23.86093,8.5781 -13.17803,0 -23.86094,-3.84055 -23.86094,-8.5781 0,-4.73755 10.68291,-8.5781 23.86094,-8.5781 13.17802,0 23.86093,3.84055 23.86093,8.5781 z m 26.41746,11.6974 c 0,8.61374 -17.93202,15.59655 -40.05228,15.59655 -22.12026,0 -40.05227,-6.98281 -40.05227,-15.59655 0,-8.61372 17.93201,-15.59654 40.05227,-15.59654 22.12026,0 40.05228,6.98282 40.05228,15.59654 z m -50.27839,8.96802 c 0,8.82908 -15.64282,15.98646 -34.93922,15.98646 -19.2964,0 -34.93922,-7.15738 -34.93922,-15.98646 0,-8.82908 15.64282,-15.98646 34.93922,-15.98646 19.2964,0 34.93922,7.15738 34.93922,15.98646 z m -59.65233,2.7294 c 0,6.4603 -8.39371,11.6974 -18.74787,11.6974 -10.35416,0 -18.74788,-5.2371 -18.74788,-11.6974 0,-6.4603 8.39372,-11.69741 18.74788,-11.69741 10.35416,0 18.74787,5.23711 18.74787,11.69741 z m 54.53927,-25.34439 c 0,7.9677 -12.20903,14.4268 -27.26963,14.4268 -15.0606,0 -27.26964,-6.4591 -27.26964,-14.4268 0,-7.9677 12.20904,-14.42679 27.26964,-14.42679 15.0606,0 27.26963,6.45909 27.26963,14.42679 z m -24.7131,9.74785 c 0,10.76716 -19.45815,19.49567 -43.46098,19.49567 -24.00284,0 -43.46099,-8.72851 -43.46099,-19.49567 0,-10.76717 19.45815,-19.49568 43.46099,-19.49568 24.00283,0 43.46098,8.72851 43.46098,19.49568 z" />
      <g
         id="g10414"
         transform="matrix(2.1102708,-0.22830174,0.22830174,2.1102708,-1697.2656,1517.574)">
        <g
           style="fill:#000000;filter:url(#filter10410)"
           id="g10400"
           transform="translate(-2)">
          <path
             inkscape:connector-curvature="0"
             style="fill:#000000;stroke:none"
             id="path10402"
             d="m 1009.8088,-329.38645 c 0,0 15.4007,-5.72875 15.4007,-35.51823 0,-29.78948 -15.4007,-47.54859 -15.4007,-47.54859 0,0 1.3392,-8.02025 12.0528,-8.59312 10.7135,-0.57288 16.7399,-0.57288 18.0791,4.583 1.3392,5.15587 -6.696,77.33807 2.6784,84.21257 9.3744,6.8745 15.4007,8.59312 15.4007,8.59312 0,0 3.348,3.43724 -18.0791,3.43724 -21.4271,0 -34.1495,0.57288 -36.8279,-4.01011 -2.6784,-4.58301 6.696,-5.15588 6.696,-5.15588 z" />
          <path
             inkscape:connector-curvature="0"
             style="fill:#000000;stroke:none;filter:url(#filter10258)"
             id="path10404"
             transform="matrix(0.37351061,0,0,0.31955712,672.33149,-260.6539)"
             d="m 958.21875,-488.4375 c -13.13802,0.39388 -30.5813,-2.16206 -39,10.4375 -0.87526,3.31544 3.6883,5.17787 4.24101,8.3399 35.15968,63.65805 44.9463,141.38514 26.38026,211.82753 -6.82409,21.75936 -19.09257,43.88825 -39.74627,55.17632 28.68955,3.42606 57.63686,2.07719 86.4375,1.375 -14.27051,-9.36644 -25.85349,-24.08611 -27.41487,-41.51183 -5.56044,-30.51383 -3.57878,-61.74953 -4.31669,-92.61286 0.60961,-50.21931 5.85733,-100.53117 4.45031,-150.65656 -3.06611,-2.46202 -7.26849,-2.46634 -11.03125,-2.375 z" />
        </g>
        <path
           inkscape:connector-curvature="0"
           style="fill:#000000;fill-opacity:1;stroke:none;filter:url(#filter10396)"
           id="path10390"
           d="m 1014.8549,-412.03019 c 0,0 -11.8324,18.40582 -35.49695,5.25881 -23.66463,-13.14702 -15.77642,-19.72053 -18.40582,-32.86754 -2.6294,-13.14702 -9.20291,-11.83231 2.6294,-26.29403 11.83231,-14.46171 15.77642,-11.83231 24.97933,-30.23813 9.20291,-18.40581 -1.31471,-21.03522 22.34994,-18.40581 23.6646,2.6294 21.0353,14.46171 39.4411,14.46171 18.4058,0 31.5528,-9.20291 30.2381,11.83231 -1.3147,21.03522 -18.4058,26.29403 -11.8323,36.81164 6.5735,10.51761 7.8882,18.40582 -2.6295,23.66462 -10.5176,5.2588 -15.7763,15.77642 -30.2381,15.77642 -14.4617,0 -21.0352,0 -21.0352,0 z" />
        <path
           inkscape:connector-curvature="0"
           style="fill:#f47521;fill-opacity:1;stroke:none"
           id="path10266"
           d="m 1016.8549,-414.03019 c 0,0 -11.8324,18.40582 -35.49695,5.25881 -23.66463,-13.14702 -15.77642,-19.72053 -18.40582,-32.86754 -2.6294,-13.14702 -9.20291,-11.83231 2.6294,-26.29403 11.83231,-14.46171 15.77642,-11.83231 24.97933,-30.23813 9.20291,-18.40581 -1.31471,-21.03522 22.34994,-18.40581 23.6646,2.6294 21.0353,14.46171 39.4411,14.46171 18.4058,0 31.5528,-9.20291 30.2381,11.83231 -1.3147,21.03522 -18.4058,26.29403 -11.8323,36.81164 6.5735,10.51761 7.8882,18.40582 -2.6295,23.66462 -10.5176,5.2588 -15.7763,15.77642 -30.2381,15.77642 -14.4617,0 -21.0352,0 -21.0352,0 z" />
        <path
           inkscape:connector-curvature="0"
           style="fill:#fd7d28;fill-opacity:1;stroke:none"
           id="path10268"
           d="m 1016.4643,-427.02615 c 0,0 -8.5403,13.28467 -25.62054,3.79562 -17.0803,-9.48905 -11.38687,-14.23358 -13.28467,-23.72263 -1.89781,-9.48905 -6.64234,-8.54014 1.8978,-18.9781 8.54015,-10.43796 11.38687,-8.54014 18.02922,-21.82482 6.64229,-13.28467 -0.94889,-15.18248 16.13139,-13.28467 17.0803,1.89781 15.1825,10.43796 28.4672,10.43796 13.2847,0 22.7737,-6.64234 21.8248,8.54014 -0.9489,15.18248 -13.2847,18.9781 -8.5401,26.56935 4.7445,7.59123 5.6935,13.28467 -1.8978,17.08029 -7.5913,3.79562 -11.3869,11.38686 -21.8248,11.38686 -10.4381,0 -15.1825,0 -15.1825,0 z" />
        <path
           inkscape:connector-curvature="0"
           style="fill:#fea060;fill-opacity:1;stroke:none;filter:url(#filter10308)"
           id="path10270"
           transform="matrix(0.73335795,0,0,0.73335795,260.90161,-107.73326)"
           d="m 1030.2781,-435.38479 c 0,0 -11.6454,18.11486 -34.93585,5.17568 -23.29053,-12.93919 -15.52702,-19.40878 -18.11485,-32.34796 -2.58784,-12.93918 -9.05743,-11.64526 2.58783,-25.87836 11.64526,-14.2331 15.52702,-11.64526 24.58447,-29.76012 9.0574,-18.11485 -1.2939,-20.70269 21.9966,-18.11485 23.2905,2.58784 20.7027,14.2331 38.8176,14.2331 18.1148,0 31.054,-9.05743 29.7601,11.64526 -1.2939,20.70269 -18.1149,25.87836 -11.6453,36.22971 6.4696,10.35134 7.7636,18.11485 -2.5878,23.29053 -10.3514,5.17567 -15.527,15.52701 -29.7601,15.52701 -14.2332,0 -20.7027,0 -20.7027,0 z" />
        <g
           style="fill:#000000;filter:url(#filter10386)"
           id="g10360"
           transform="translate(0,0.73235945)">
          <path
             inkscape:connector-curvature="0"
             style="fill:#000000;fill-opacity:1;stroke:none;filter:url(#filter10326)"
             id="path10362"
             transform="matrix(0.46206287,0,0,0.46206287,543.75272,-273.89689)"
             d="m 1009.1112,-443.51398 c 0,0 -3.2281,5.02145 -9.68434,1.4347 -6.45612,-3.58675 -4.30407,-5.38013 -5.02142,-8.96688 -0.71735,-3.58676 -2.51072,-3.22808 0.71735,-7.17351 3.22808,-3.94542 4.30407,-3.22807 6.81491,-8.24953 2.5107,-5.02145 -0.3587,-5.7388 6.0974,-5.02145 6.4562,0.71735 5.7389,3.94543 10.7603,3.94543 5.0215,0 8.6082,-2.51073 8.2495,3.22807 -0.3586,5.73881 -5.0214,7.17351 -3.228,10.04291 1.7933,2.8694 2.152,5.02146 -0.7174,6.45616 -2.8694,1.43469 -4.3041,4.3041 -8.2495,4.3041 -3.9455,0 -5.7388,0 -5.7388,0 z" />
          <path
             inkscape:connector-curvature="0"
             style="fill:#000000;fill-opacity:1;stroke:none;filter:url(#filter10326)"
             id="path10364"
             transform="matrix(0.46206287,0,0,0.46206287,576.46976,-236.24989)"
             d="m 1009.1112,-443.51398 c 0,0 -3.2281,5.02145 -9.68434,1.4347 -6.45612,-3.58675 -4.30407,-5.38013 -5.02142,-8.96688 -0.71735,-3.58676 -2.51072,-3.22808 0.71735,-7.17351 3.22808,-3.94542 4.30407,-3.22807 6.81491,-8.24953 2.5107,-5.02145 -0.3587,-5.7388 6.0974,-5.02145 6.4562,0.71735 5.7389,3.94543 10.7603,3.94543 5.0215,0 8.6082,-2.51073 8.2495,3.22807 -0.3586,5.73881 -5.0214,7.17351 -3.228,10.04291 1.7933,2.8694 2.152,5.02146 -0.7174,6.45616 -2.8694,1.43469 -4.3041,4.3041 -8.2495,4.3041 -3.9455,0 -5.7388,0 -5.7388,0 z" />
          <path
             inkscape:connector-curvature="0"
             style="fill:#000000;fill-opacity:1;stroke:none;filter:url(#filter10326)"
             id="path10366"
             transform="matrix(0.46206287,0,0,0.46206287,530.30736,-227.7345)"
             d="m 1009.1112,-443.51398 c 0,0 -3.2281,5.02145 -9.68434,1.4347 -6.45612,-3.58675 -4.30407,-5.38013 -5.02142,-8.96688 -0.71735,-3.58676 -2.51072,-3.22808 0.71735,-7.17351 3.22808,-3.94542 4.30407,-3.22807 6.81491,-8.24953 2.5107,-5.02145 -0.3587,-5.7388 6.0974,-5.02145 6.4562,0.71735 5.7389,3.94543 10.7603,3.94543 5.0215,0 8.6082,-2.51073 8.2495,3.22807 -0.3586,5.73881 -5.0214,7.17351 -3.228,10.04291 1.7933,2.8694 2.152,5.02146 -0.7174,6.45616 -2.8694,1.43469 -4.3041,4.3041 -8.2495,4.3041 -3.9455,0 -5.7388,0 -5.7388,0 z" />
          <path
             inkscape:connector-curvature="0"
             style="fill:#000000;fill-opacity:1;stroke:none;filter:url(#filter10326)"
             id="path10368"
             transform="matrix(0.46206287,0,0,0.46206287,576.02158,-276.58597)"
             d="m 1009.1112,-443.51398 c 0,0 -3.2281,5.02145 -9.68434,1.4347 -6.45612,-3.58675 -4.30407,-5.38013 -5.02142,-8.96688 -0.71735,-3.58676 -2.51072,-3.22808 0.71735,-7.17351 3.22808,-3.94542 4.30407,-3.22807 6.81491,-8.24953 2.5107,-5.02145 -0.3587,-5.7388 6.0974,-5.02145 6.4562,0.71735 5.7389,3.94543 10.7603,3.94543 5.0215,0 8.6082,-2.51073 8.2495,3.22807 -0.3586,5.73881 -5.0214,7.17351 -3.228,10.04291 1.7933,2.8694 2.152,5.02146 -0.7174,6.45616 -2.8694,1.43469 -4.3041,4.3041 -8.2495,4.3041 -3.9455,0 -5.7388,0 -5.7388,0 z" />
          <path
             inkscape:connector-curvature="0"
             style="fill:#000000;fill-opacity:1;stroke:none;filter:url(#filter10326)"
             id="path10370"
             transform="matrix(0.46206287,0,0,0.46206287,551.81994,-251.03979)"
             d="m 1009.1112,-443.51398 c 0,0 -3.2281,5.02145 -9.68434,1.4347 -6.45612,-3.58675 -4.30407,-5.38013 -5.02142,-8.96688 -0.71735,-3.58676 -2.51072,-3.22808 0.71735,-7.17351 3.22808,-3.94542 4.30407,-3.22807 6.81491,-8.24953 2.5107,-5.02145 -0.3587,-5.7388 6.0974,-5.02145 6.4562,0.71735 5.7389,3.94543 10.7603,3.94543 5.0215,0 8.6082,-2.51073 8.2495,3.22807 -0.3586,5.73881 -5.0214,7.17351 -3.228,10.04291 1.7933,2.8694 2.152,5.02146 -0.7174,6.45616 -2.8694,1.43469 -4.3041,4.3041 -8.2495,4.3041 -3.9455,0 -5.7388,0 -5.7388,0 z" />
          <path
             inkscape:connector-curvature="0"
             style="fill:#000000;fill-opacity:1;stroke:none;filter:url(#filter10326)"
             id="path10372"
             transform="matrix(0.46206287,0,0,0.46206287,527.17012,-252.8325)"
             d="m 1009.1112,-443.51398 c 0,0 -3.2281,5.02145 -9.68434,1.4347 -6.45612,-3.58675 -4.30407,-5.38013 -5.02142,-8.96688 -0.71735,-3.58676 -2.51072,-3.22808 0.71735,-7.17351 3.22808,-3.94542 4.30407,-3.22807 6.81491,-8.24953 2.5107,-5.02145 -0.3587,-5.7388 6.0974,-5.02145 6.4562,0.71735 5.7389,3.94543 10.7603,3.94543 5.0215,0 8.6082,-2.51073 8.2495,3.22807 -0.3586,5.73881 -5.0214,7.17351 -3.228,10.04291 1.7933,2.8694 2.152,5.02146 -0.7174,6.45616 -2.8694,1.43469 -4.3041,4.3041 -8.2495,4.3041 -3.9455,0 -5.7388,0 -5.7388,0 z" />
          <path
             inkscape:connector-curvature="0"
             style="fill:#000000;fill-opacity:1;stroke:none;filter:url(#filter10326)"
             id="path10374"
             transform="matrix(0.46206287,0,0,0.46206287,580.05519,-258.65882)"
             d="m 1009.1112,-443.51398 c 0,0 -3.2281,5.02145 -9.68434,1.4347 -6.45612,-3.58675 -4.30407,-5.38013 -5.02142,-8.96688 -0.71735,-3.58676 -2.51072,-3.22808 0.71735,-7.17351 3.22808,-3.94542 4.30407,-3.22807 6.81491,-8.24953 2.5107,-5.02145 -0.3587,-5.7388 6.0974,-5.02145 6.4562,0.71735 5.7389,3.94543 10.7603,3.94543 5.0215,0 8.6082,-2.51073 8.2495,3.22807 -0.3586,5.73881 -5.0214,7.17351 -3.228,10.04291 1.7933,2.8694 2.152,5.02146 -0.7174,6.45616 -2.8694,1.43469 -4.3041,4.3041 -8.2495,4.3041 -3.9455,0 -5.7388,0 -5.7388,0 z" />
          <path
             inkscape:connector-curvature="0"
             style="fill:#000000;fill-opacity:1;stroke:none;filter:url(#filter10326)"
             id="path10376"
             transform="matrix(0.46206287,0,0,0.46206287,554.50901,-225.04543)"
             d="m 1009.1112,-443.51398 c 0,0 -3.2281,5.02145 -9.68434,1.4347 -6.45612,-3.58675 -4.30407,-5.38013 -5.02142,-8.96688 -0.71735,-3.58676 -2.51072,-3.22808 0.71735,-7.17351 3.22808,-3.94542 4.30407,-3.22807 6.81491,-8.24953 2.5107,-5.02145 -0.3587,-5.7388 6.0974,-5.02145 6.4562,0.71735 5.7389,3.94543 10.7603,3.94543 5.0215,0 8.6082,-2.51073 8.2495,3.22807 -0.3586,5.73881 -5.0214,7.17351 -3.228,10.04291 1.7933,2.8694 2.152,5.02146 -0.7174,6.45616 -2.8694,1.43469 -4.3041,4.3041 -8.2495,4.3041 -3.9455,0 -5.7388,0 -5.7388,0 z" />
          <path
             inkscape:connector-curvature="0"
             style="fill:#000000;fill-opacity:1;stroke:none;filter:url(#filter10326)"
             id="path10378"
             transform="matrix(0.46206287,0,0,0.46206287,541.06365,-293.61676)"
             d="m 1009.1112,-443.51398 c 0,0 -3.2281,5.02145 -9.68434,1.4347 -6.45612,-3.58675 -4.30407,-5.38013 -5.02142,-8.96688 -0.71735,-3.58676 -2.51072,-3.22808 0.71735,-7.17351 3.22808,-3.94542 4.30407,-3.22807 6.81491,-8.24953 2.5107,-5.02145 -0.3587,-5.7388 6.0974,-5.02145 6.4562,0.71735 5.7389,3.94543 10.7603,3.94543 5.0215,0 8.6082,-2.51073 8.2495,3.22807 -0.3586,5.73881 -5.0214,7.17351 -3.228,10.04291 1.7933,2.8694 2.152,5.02146 -0.7174,6.45616 -2.8694,1.43469 -4.3041,4.3041 -8.2495,4.3041 -3.9455,0 -5.7388,0 -5.7388,0 z" />
          <path
             inkscape:connector-curvature="0"
             style="fill:#000000;fill-opacity:1;stroke:none;filter:url(#filter10326)"
             id="path10380"
             transform="matrix(0.46206287,0,0,0.46206287,510.13933,-234.00901)"
             d="m 1009.1112,-443.51398 c 0,0 -3.2281,5.02145 -9.68434,1.4347 -6.45612,-3.58675 -4.30407,-5.38013 -5.02142,-8.96688 -0.71735,-3.58676 -2.51072,-3.22808 0.71735,-7.17351 3.22808,-3.94542 4.30407,-3.22807 6.81491,-8.24953 2.5107,-5.02145 -0.3587,-5.7388 6.0974,-5.02145 6.4562,0.71735 5.7389,3.94543 10.7603,3.94543 5.0215,0 8.6082,-2.51073 8.2495,3.22807 -0.3586,5.73881 -5.0214,7.17351 -3.228,10.04291 1.7933,2.8694 2.152,5.02146 -0.7174,6.45616 -2.8694,1.43469 -4.3041,4.3041 -8.2495,4.3041 -3.9455,0 -5.7388,0 -5.7388,0 z" />
        </g>
        <g
           id="g10348">
          <path
             inkscape:connector-curvature="0"
             style="fill:#f47521;fill-opacity:1;stroke:none;filter:url(#filter10326)"
             id="path10312"
             transform="matrix(0.46206287,0,0,0.46206287,543.75272,-273.89689)"
             d="m 1009.1112,-443.51398 c 0,0 -3.2281,5.02145 -9.68434,1.4347 -6.45612,-3.58675 -4.30407,-5.38013 -5.02142,-8.96688 -0.71735,-3.58676 -2.51072,-3.22808 0.71735,-7.17351 3.22808,-3.94542 4.30407,-3.22807 6.81491,-8.24953 2.5107,-5.02145 -0.3587,-5.7388 6.0974,-5.02145 6.4562,0.71735 5.7389,3.94543 10.7603,3.94543 5.0215,0 8.6082,-2.51073 8.2495,3.22807 -0.3586,5.73881 -5.0214,7.17351 -3.228,10.04291 1.7933,2.8694 2.152,5.02146 -0.7174,6.45616 -2.8694,1.43469 -4.3041,4.3041 -8.2495,4.3041 -3.9455,0 -5.7388,0 -5.7388,0 z" />
          <path
             inkscape:connector-curvature="0"
             style="fill:#f47521;fill-opacity:1;stroke:none;filter:url(#filter10326)"
             id="path10330"
             transform="matrix(0.46206287,0,0,0.46206287,576.46976,-236.24989)"
             d="m 1009.1112,-443.51398 c 0,0 -3.2281,5.02145 -9.68434,1.4347 -6.45612,-3.58675 -4.30407,-5.38013 -5.02142,-8.96688 -0.71735,-3.58676 -2.51072,-3.22808 0.71735,-7.17351 3.22808,-3.94542 4.30407,-3.22807 6.81491,-8.24953 2.5107,-5.02145 -0.3587,-5.7388 6.0974,-5.02145 6.4562,0.71735 5.7389,3.94543 10.7603,3.94543 5.0215,0 8.6082,-2.51073 8.2495,3.22807 -0.3586,5.73881 -5.0214,7.17351 -3.228,10.04291 1.7933,2.8694 2.152,5.02146 -0.7174,6.45616 -2.8694,1.43469 -4.3041,4.3041 -8.2495,4.3041 -3.9455,0 -5.7388,0 -5.7388,0 z" />
          <path
             inkscape:connector-curvature="0"
             style="fill:#f47521;fill-opacity:1;stroke:none;filter:url(#filter10326)"
             id="path10332"
             transform="matrix(0.46206287,0,0,0.46206287,530.30736,-227.7345)"
             d="m 1009.1112,-443.51398 c 0,0 -3.2281,5.02145 -9.68434,1.4347 -6.45612,-3.58675 -4.30407,-5.38013 -5.02142,-8.96688 -0.71735,-3.58676 -2.51072,-3.22808 0.71735,-7.17351 3.22808,-3.94542 4.30407,-3.22807 6.81491,-8.24953 2.5107,-5.02145 -0.3587,-5.7388 6.0974,-5.02145 6.4562,0.71735 5.7389,3.94543 10.7603,3.94543 5.0215,0 8.6082,-2.51073 8.2495,3.22807 -0.3586,5.73881 -5.0214,7.17351 -3.228,10.04291 1.7933,2.8694 2.152,5.02146 -0.7174,6.45616 -2.8694,1.43469 -4.3041,4.3041 -8.2495,4.3041 -3.9455,0 -5.7388,0 -5.7388,0 z" />
          <path
             inkscape:connector-curvature="0"
             style="fill:#f47521;fill-opacity:1;stroke:none;filter:url(#filter10326)"
             id="path10334"
             transform="matrix(0.46206287,0,0,0.46206287,576.02158,-276.58597)"
             d="m 1009.1112,-443.51398 c 0,0 -3.2281,5.02145 -9.68434,1.4347 -6.45612,-3.58675 -4.30407,-5.38013 -5.02142,-8.96688 -0.71735,-3.58676 -2.51072,-3.22808 0.71735,-7.17351 3.22808,-3.94542 4.30407,-3.22807 6.81491,-8.24953 2.5107,-5.02145 -0.3587,-5.7388 6.0974,-5.02145 6.4562,0.71735 5.7389,3.94543 10.7603,3.94543 5.0215,0 8.6082,-2.51073 8.2495,3.22807 -0.3586,5.73881 -5.0214,7.17351 -3.228,10.04291 1.7933,2.8694 2.152,5.02146 -0.7174,6.45616 -2.8694,1.43469 -4.3041,4.3041 -8.2495,4.3041 -3.9455,0 -5.7388,0 -5.7388,0 z" />
          <path
             inkscape:connector-curvature="0"
             style="fill:#f47521;fill-opacity:1;stroke:none;filter:url(#filter10326)"
             id="path10336"
             transform="matrix(0.46206287,0,0,0.46206287,551.81994,-251.03979)"
             d="m 1009.1112,-443.51398 c 0,0 -3.2281,5.02145 -9.68434,1.4347 -6.45612,-3.58675 -4.30407,-5.38013 -5.02142,-8.96688 -0.71735,-3.58676 -2.51072,-3.22808 0.71735,-7.17351 3.22808,-3.94542 4.30407,-3.22807 6.81491,-8.24953 2.5107,-5.02145 -0.3587,-5.7388 6.0974,-5.02145 6.4562,0.71735 5.7389,3.94543 10.7603,3.94543 5.0215,0 8.6082,-2.51073 8.2495,3.22807 -0.3586,5.73881 -5.0214,7.17351 -3.228,10.04291 1.7933,2.8694 2.152,5.02146 -0.7174,6.45616 -2.8694,1.43469 -4.3041,4.3041 -8.2495,4.3041 -3.9455,0 -5.7388,0 -5.7388,0 z" />
          <path
             inkscape:connector-curvature="0"
             style="fill:#ef9f15;fill-opacity:1;stroke:none;filter:url(#filter10326)"
             id="path10338"
             transform="matrix(0.46206287,0,0,0.46206287,527.17012,-252.8325)"
             d="m 1009.1112,-443.51398 c 0,0 -3.2281,5.02145 -9.68434,1.4347 -6.45612,-3.58675 -4.30407,-5.38013 -5.02142,-8.96688 -0.71735,-3.58676 -2.51072,-3.22808 0.71735,-7.17351 3.22808,-3.94542 4.30407,-3.22807 6.81491,-8.24953 2.5107,-5.02145 -0.3587,-5.7388 6.0974,-5.02145 6.4562,0.71735 5.7389,3.94543 10.7603,3.94543 5.0215,0 8.6082,-2.51073 8.2495,3.22807 -0.3586,5.73881 -5.0214,7.17351 -3.228,10.04291 1.7933,2.8694 2.152,5.02146 -0.7174,6.45616 -2.8694,1.43469 -4.3041,4.3041 -8.2495,4.3041 -3.9455,0 -5.7388,0 -5.7388,0 z" />
          <path
             inkscape:connector-curvature="0"
             style="fill:#ef9f15;fill-opacity:1;stroke:none;filter:url(#filter10326)"
             id="path10340"
             transform="matrix(0.46206287,0,0,0.46206287,580.05519,-258.65882)"
             d="m 1009.1112,-443.51398 c 0,0 -3.2281,5.02145 -9.68434,1.4347 -6.45612,-3.58675 -4.30407,-5.38013 -5.02142,-8.96688 -0.71735,-3.58676 -2.51072,-3.22808 0.71735,-7.17351 3.22808,-3.94542 4.30407,-3.22807 6.81491,-8.24953 2.5107,-5.02145 -0.3587,-5.7388 6.0974,-5.02145 6.4562,0.71735 5.7389,3.94543 10.7603,3.94543 5.0215,0 8.6082,-2.51073 8.2495,3.22807 -0.3586,5.73881 -5.0214,7.17351 -3.228,10.04291 1.7933,2.8694 2.152,5.02146 -0.7174,6.45616 -2.8694,1.43469 -4.3041,4.3041 -8.2495,4.3041 -3.9455,0 -5.7388,0 -5.7388,0 z" />
          <path
             inkscape:connector-curvature="0"
             style="fill:#ef9f15;fill-opacity:1;stroke:none;filter:url(#filter10326)"
             id="path10342"
             transform="matrix(0.46206287,0,0,0.46206287,554.50901,-225.04543)"
             d="m 1009.1112,-443.51398 c 0,0 -3.2281,5.02145 -9.68434,1.4347 -6.45612,-3.58675 -4.30407,-5.38013 -5.02142,-8.96688 -0.71735,-3.58676 -2.51072,-3.22808 0.71735,-7.17351 3.22808,-3.94542 4.30407,-3.22807 6.81491,-8.24953 2.5107,-5.02145 -0.3587,-5.7388 6.0974,-5.02145 6.4562,0.71735 5.7389,3.94543 10.7603,3.94543 5.0215,0 8.6082,-2.51073 8.2495,3.22807 -0.3586,5.73881 -5.0214,7.17351 -3.228,10.04291 1.7933,2.8694 2.152,5.02146 -0.7174,6.45616 -2.8694,1.43469 -4.3041,4.3041 -8.2495,4.3041 -3.9455,0 -5.7388,0 -5.7388,0 z" />
          <path
             inkscape:connector-curvature="0"
             style="fill:#ef9f15;fill-opacity:1;stroke:none;filter:url(#filter10326)"
             id="path10344"
             transform="matrix(0.46206287,0,0,0.46206287,541.06365,-293.61676)"
             d="m 1009.1112,-443.51398 c 0,0 -3.2281,5.02145 -9.68434,1.4347 -6.45612,-3.58675 -4.30407,-5.38013 -5.02142,-8.96688 -0.71735,-3.58676 -2.51072,-3.22808 0.71735,-7.17351 3.22808,-3.94542 4.30407,-3.22807 6.81491,-8.24953 2.5107,-5.02145 -0.3587,-5.7388 6.0974,-5.02145 6.4562,0.71735 5.7389,3.94543 10.7603,3.94543 5.0215,0 8.6082,-2.51073 8.2495,3.22807 -0.3586,5.73881 -5.0214,7.17351 -3.228,10.04291 1.7933,2.8694 2.152,5.02146 -0.7174,6.45616 -2.8694,1.43469 -4.3041,4.3041 -8.2495,4.3041 -3.9455,0 -5.7388,0 -5.7388,0 z" />
          <path
             inkscape:connector-curvature="0"
             style="fill:#ef9f15;fill-opacity:1;stroke:none;filter:url(#filter10326)"
             id="path10346"
             transform="matrix(0.46206287,0,0,0.46206287,510.13933,-234.00901)"
             d="m 1009.1112,-443.51398 c 0,0 -3.2281,5.02145 -9.68434,1.4347 -6.45612,-3.58675 -4.30407,-5.38013 -5.02142,-8.96688 -0.71735,-3.58676 -2.51072,-3.22808 0.71735,-7.17351 3.22808,-3.94542 4.30407,-3.22807 6.81491,-8.24953 2.5107,-5.02145 -0.3587,-5.7388 6.0974,-5.02145 6.4562,0.71735 5.7389,3.94543 10.7603,3.94543 5.0215,0 8.6082,-2.51073 8.2495,3.22807 -0.3586,5.73881 -5.0214,7.17351 -3.228,10.04291 1.7933,2.8694 2.152,5.02146 -0.7174,6.45616 -2.8694,1.43469 -4.3041,4.3041 -8.2495,4.3041 -3.9455,0 -5.7388,0 -5.7388,0 z" />
        </g>
        <g
           id="g10262">
          <path
             inkscape:connector-curvature="0"
             style="fill:#803300;stroke:none"
             id="path10194"
             d="m 1009.8088,-329.38645 c 0,0 15.4007,-5.72875 15.4007,-35.51823 0,-29.78948 -15.4007,-47.54859 -15.4007,-47.54859 0,0 1.3392,-8.02025 12.0528,-8.59312 10.7135,-0.57288 16.7399,-0.57288 18.0791,4.583 1.3392,5.15587 -6.696,77.33807 2.6784,84.21257 9.3744,6.8745 15.4007,8.59312 15.4007,8.59312 0,0 3.348,3.43724 -18.0791,3.43724 -21.4271,0 -34.1495,0.57288 -36.8279,-4.01011 -2.6784,-4.58301 6.696,-5.15588 6.696,-5.15588 z" />
          <path
             inkscape:connector-curvature="0"
             style="fill:#d38d5f;stroke:none;filter:url(#filter10258)"
             id="path10196"
             transform="matrix(0.37351061,0,0,0.31955712,672.33149,-260.6539)"
             d="m 958.21875,-488.4375 c -13.13802,0.39388 -30.5813,-2.16206 -39,10.4375 -0.87526,3.31544 3.6883,5.17787 4.24101,8.3399 35.15968,63.65805 44.9463,141.38514 26.38026,211.82753 -6.82409,21.75936 -19.09257,43.88825 -39.74627,55.17632 28.68955,3.42606 57.63686,2.07719 86.4375,1.375 -14.27051,-9.36644 -25.85349,-24.08611 -27.41487,-41.51183 -5.56044,-30.51383 -3.57878,-61.74953 -4.31669,-92.61286 0.60961,-50.21931 5.85733,-100.53117 4.45031,-150.65656 -3.06611,-2.46202 -7.26849,-2.46634 -11.03125,-2.375 z" />
        </g>
      </g>
      <g
         id="g10448"
         transform="matrix(-0.50360213,0.0544827,0.0544827,0.50360213,1534.5854,560.19356)">
        <g
           style="fill:#000000;filter:url(#filter10410)"
           id="g10450"
           transform="translate(-2)">
          <path
             inkscape:connector-curvature="0"
             style="fill:#000000;stroke:none"
             id="path10452"
             d="m 1009.8088,-329.38645 c 0,0 15.4007,-5.72875 15.4007,-35.51823 0,-29.78948 -15.4007,-47.54859 -15.4007,-47.54859 0,0 1.3392,-8.02025 12.0528,-8.59312 10.7135,-0.57288 16.7399,-0.57288 18.0791,4.583 1.3392,5.15587 -6.696,77.33807 2.6784,84.21257 9.3744,6.8745 15.4007,8.59312 15.4007,8.59312 0,0 3.348,3.43724 -18.0791,3.43724 -21.4271,0 -34.1495,0.57288 -36.8279,-4.01011 -2.6784,-4.58301 6.696,-5.15588 6.696,-5.15588 z" />
          <path
             inkscape:connector-curvature="0"
             style="fill:#000000;stroke:none;filter:url(#filter10258)"
             id="path10454"
             transform="matrix(0.37351061,0,0,0.31955712,672.33149,-260.6539)"
             d="m 958.21875,-488.4375 c -13.13802,0.39388 -30.5813,-2.16206 -39,10.4375 -0.87526,3.31544 3.6883,5.17787 4.24101,8.3399 35.15968,63.65805 44.9463,141.38514 26.38026,211.82753 -6.82409,21.75936 -19.09257,43.88825 -39.74627,55.17632 28.68955,3.42606 57.63686,2.07719 86.4375,1.375 -14.27051,-9.36644 -25.85349,-24.08611 -27.41487,-41.51183 -5.56044,-30.51383 -3.57878,-61.74953 -4.31669,-92.61286 0.60961,-50.21931 5.85733,-100.53117 4.45031,-150.65656 -3.06611,-2.46202 -7.26849,-2.46634 -11.03125,-2.375 z" />
        </g>
        <path
           inkscape:connector-curvature="0"
           style="fill:#000000;fill-opacity:1;stroke:none;filter:url(#filter10396)"
           id="path10456"
           d="m 1014.8549,-412.03019 c 0,0 -11.8324,18.40582 -35.49695,5.25881 -23.66463,-13.14702 -15.77642,-19.72053 -18.40582,-32.86754 -2.6294,-13.14702 -9.20291,-11.83231 2.6294,-26.29403 11.83231,-14.46171 15.77642,-11.83231 24.97933,-30.23813 9.20291,-18.40581 -1.31471,-21.03522 22.34994,-18.40581 23.6646,2.6294 21.0353,14.46171 39.4411,14.46171 18.4058,0 31.5528,-9.20291 30.2381,11.83231 -1.3147,21.03522 -18.4058,26.29403 -11.8323,36.81164 6.5735,10.51761 7.8882,18.40582 -2.6295,23.66462 -10.5176,5.2588 -15.7763,15.77642 -30.2381,15.77642 -14.4617,0 -21.0352,0 -21.0352,0 z" />
        <path
           inkscape:connector-curvature="0"
           style="fill:#f47521;fill-opacity:1;stroke:none"
           id="path10458"
           d="m 1016.8549,-414.03019 c 0,0 -11.8324,18.40582 -35.49695,5.25881 -23.66463,-13.14702 -15.77642,-19.72053 -18.40582,-32.86754 -2.6294,-13.14702 -9.20291,-11.83231 2.6294,-26.29403 11.83231,-14.46171 15.77642,-11.83231 24.97933,-30.23813 9.20291,-18.40581 -1.31471,-21.03522 22.34994,-18.40581 23.6646,2.6294 21.0353,14.46171 39.4411,14.46171 18.4058,0 31.5528,-9.20291 30.2381,11.83231 -1.3147,21.03522 -18.4058,26.29403 -11.8323,36.81164 6.5735,10.51761 7.8882,18.40582 -2.6295,23.66462 -10.5176,5.2588 -15.7763,15.77642 -30.2381,15.77642 -14.4617,0 -21.0352,0 -21.0352,0 z" />
        <path
           inkscape:connector-curvature="0"
           style="fill:#fd7d28;fill-opacity:1;stroke:none"
           id="path10460"
           d="m 1016.4643,-427.02615 c 0,0 -8.5403,13.28467 -25.62054,3.79562 -17.0803,-9.48905 -11.38687,-14.23358 -13.28467,-23.72263 -1.89781,-9.48905 -6.64234,-8.54014 1.8978,-18.9781 8.54015,-10.43796 11.38687,-8.54014 18.02922,-21.82482 6.64229,-13.28467 -0.94889,-15.18248 16.13139,-13.28467 17.0803,1.89781 15.1825,10.43796 28.4672,10.43796 13.2847,0 22.7737,-6.64234 21.8248,8.54014 -0.9489,15.18248 -13.2847,18.9781 -8.5401,26.56935 4.7445,7.59123 5.6935,13.28467 -1.8978,17.08029 -7.5913,3.79562 -11.3869,11.38686 -21.8248,11.38686 -10.4381,0 -15.1825,0 -15.1825,0 z" />
        <path
           inkscape:connector-curvature="0"
           style="fill:#fea060;fill-opacity:1;stroke:none;filter:url(#filter10308)"
           id="path10462"
           transform="matrix(0.73335795,0,0,0.73335795,260.90161,-107.73326)"
           d="m 1030.2781,-435.38479 c 0,0 -11.6454,18.11486 -34.93585,5.17568 -23.29053,-12.93919 -15.52702,-19.40878 -18.11485,-32.34796 -2.58784,-12.93918 -9.05743,-11.64526 2.58783,-25.87836 11.64526,-14.2331 15.52702,-11.64526 24.58447,-29.76012 9.0574,-18.11485 -1.2939,-20.70269 21.9966,-18.11485 23.2905,2.58784 20.7027,14.2331 38.8176,14.2331 18.1148,0 31.054,-9.05743 29.7601,11.64526 -1.2939,20.70269 -18.1149,25.87836 -11.6453,36.22971 6.4696,10.35134 7.7636,18.11485 -2.5878,23.29053 -10.3514,5.17567 -15.527,15.52701 -29.7601,15.52701 -14.2332,0 -20.7027,0 -20.7027,0 z" />
        <g
           style="fill:#000000;filter:url(#filter10386)"
           id="g10464"
           transform="translate(0,0.73235945)">
          <path
             inkscape:connector-curvature="0"
             style="fill:#000000;fill-opacity:1;stroke:none;filter:url(#filter10326)"
             id="path10466"
             transform="matrix(0.46206287,0,0,0.46206287,543.75272,-273.89689)"
             d="m 1009.1112,-443.51398 c 0,0 -3.2281,5.02145 -9.68434,1.4347 -6.45612,-3.58675 -4.30407,-5.38013 -5.02142,-8.96688 -0.71735,-3.58676 -2.51072,-3.22808 0.71735,-7.17351 3.22808,-3.94542 4.30407,-3.22807 6.81491,-8.24953 2.5107,-5.02145 -0.3587,-5.7388 6.0974,-5.02145 6.4562,0.71735 5.7389,3.94543 10.7603,3.94543 5.0215,0 8.6082,-2.51073 8.2495,3.22807 -0.3586,5.73881 -5.0214,7.17351 -3.228,10.04291 1.7933,2.8694 2.152,5.02146 -0.7174,6.45616 -2.8694,1.43469 -4.3041,4.3041 -8.2495,4.3041 -3.9455,0 -5.7388,0 -5.7388,0 z" />
          <path
             inkscape:connector-curvature="0"
             style="fill:#000000;fill-opacity:1;stroke:none;filter:url(#filter10326)"
             id="path10468"
             transform="matrix(0.46206287,0,0,0.46206287,576.46976,-236.24989)"
             d="m 1009.1112,-443.51398 c 0,0 -3.2281,5.02145 -9.68434,1.4347 -6.45612,-3.58675 -4.30407,-5.38013 -5.02142,-8.96688 -0.71735,-3.58676 -2.51072,-3.22808 0.71735,-7.17351 3.22808,-3.94542 4.30407,-3.22807 6.81491,-8.24953 2.5107,-5.02145 -0.3587,-5.7388 6.0974,-5.02145 6.4562,0.71735 5.7389,3.94543 10.7603,3.94543 5.0215,0 8.6082,-2.51073 8.2495,3.22807 -0.3586,5.73881 -5.0214,7.17351 -3.228,10.04291 1.7933,2.8694 2.152,5.02146 -0.7174,6.45616 -2.8694,1.43469 -4.3041,4.3041 -8.2495,4.3041 -3.9455,0 -5.7388,0 -5.7388,0 z" />
          <path
             inkscape:connector-curvature="0"
             style="fill:#000000;fill-opacity:1;stroke:none;filter:url(#filter10326)"
             id="path10470"
             transform="matrix(0.46206287,0,0,0.46206287,530.30736,-227.7345)"
             d="m 1009.1112,-443.51398 c 0,0 -3.2281,5.02145 -9.68434,1.4347 -6.45612,-3.58675 -4.30407,-5.38013 -5.02142,-8.96688 -0.71735,-3.58676 -2.51072,-3.22808 0.71735,-7.17351 3.22808,-3.94542 4.30407,-3.22807 6.81491,-8.24953 2.5107,-5.02145 -0.3587,-5.7388 6.0974,-5.02145 6.4562,0.71735 5.7389,3.94543 10.7603,3.94543 5.0215,0 8.6082,-2.51073 8.2495,3.22807 -0.3586,5.73881 -5.0214,7.17351 -3.228,10.04291 1.7933,2.8694 2.152,5.02146 -0.7174,6.45616 -2.8694,1.43469 -4.3041,4.3041 -8.2495,4.3041 -3.9455,0 -5.7388,0 -5.7388,0 z" />
          <path
             inkscape:connector-curvature="0"
             style="fill:#000000;fill-opacity:1;stroke:none;filter:url(#filter10326)"
             id="path10472"
             transform="matrix(0.46206287,0,0,0.46206287,576.02158,-276.58597)"
             d="m 1009.1112,-443.51398 c 0,0 -3.2281,5.02145 -9.68434,1.4347 -6.45612,-3.58675 -4.30407,-5.38013 -5.02142,-8.96688 -0.71735,-3.58676 -2.51072,-3.22808 0.71735,-7.17351 3.22808,-3.94542 4.30407,-3.22807 6.81491,-8.24953 2.5107,-5.02145 -0.3587,-5.7388 6.0974,-5.02145 6.4562,0.71735 5.7389,3.94543 10.7603,3.94543 5.0215,0 8.6082,-2.51073 8.2495,3.22807 -0.3586,5.73881 -5.0214,7.17351 -3.228,10.04291 1.7933,2.8694 2.152,5.02146 -0.7174,6.45616 -2.8694,1.43469 -4.3041,4.3041 -8.2495,4.3041 -3.9455,0 -5.7388,0 -5.7388,0 z" />
          <path
             inkscape:connector-curvature="0"
             style="fill:#000000;fill-opacity:1;stroke:none;filter:url(#filter10326)"
             id="path10474"
             transform="matrix(0.46206287,0,0,0.46206287,551.81994,-251.03979)"
             d="m 1009.1112,-443.51398 c 0,0 -3.2281,5.02145 -9.68434,1.4347 -6.45612,-3.58675 -4.30407,-5.38013 -5.02142,-8.96688 -0.71735,-3.58676 -2.51072,-3.22808 0.71735,-7.17351 3.22808,-3.94542 4.30407,-3.22807 6.81491,-8.24953 2.5107,-5.02145 -0.3587,-5.7388 6.0974,-5.02145 6.4562,0.71735 5.7389,3.94543 10.7603,3.94543 5.0215,0 8.6082,-2.51073 8.2495,3.22807 -0.3586,5.73881 -5.0214,7.17351 -3.228,10.04291 1.7933,2.8694 2.152,5.02146 -0.7174,6.45616 -2.8694,1.43469 -4.3041,4.3041 -8.2495,4.3041 -3.9455,0 -5.7388,0 -5.7388,0 z" />
          <path
             inkscape:connector-curvature="0"
             style="fill:#000000;fill-opacity:1;stroke:none;filter:url(#filter10326)"
             id="path10476"
             transform="matrix(0.46206287,0,0,0.46206287,527.17012,-252.8325)"
             d="m 1009.1112,-443.51398 c 0,0 -3.2281,5.02145 -9.68434,1.4347 -6.45612,-3.58675 -4.30407,-5.38013 -5.02142,-8.96688 -0.71735,-3.58676 -2.51072,-3.22808 0.71735,-7.17351 3.22808,-3.94542 4.30407,-3.22807 6.81491,-8.24953 2.5107,-5.02145 -0.3587,-5.7388 6.0974,-5.02145 6.4562,0.71735 5.7389,3.94543 10.7603,3.94543 5.0215,0 8.6082,-2.51073 8.2495,3.22807 -0.3586,5.73881 -5.0214,7.17351 -3.228,10.04291 1.7933,2.8694 2.152,5.02146 -0.7174,6.45616 -2.8694,1.43469 -4.3041,4.3041 -8.2495,4.3041 -3.9455,0 -5.7388,0 -5.7388,0 z" />
          <path
             inkscape:connector-curvature="0"
             style="fill:#000000;fill-opacity:1;stroke:none;filter:url(#filter10326)"
             id="path10478"
             transform="matrix(0.46206287,0,0,0.46206287,580.05519,-258.65882)"
             d="m 1009.1112,-443.51398 c 0,0 -3.2281,5.02145 -9.68434,1.4347 -6.45612,-3.58675 -4.30407,-5.38013 -5.02142,-8.96688 -0.71735,-3.58676 -2.51072,-3.22808 0.71735,-7.17351 3.22808,-3.94542 4.30407,-3.22807 6.81491,-8.24953 2.5107,-5.02145 -0.3587,-5.7388 6.0974,-5.02145 6.4562,0.71735 5.7389,3.94543 10.7603,3.94543 5.0215,0 8.6082,-2.51073 8.2495,3.22807 -0.3586,5.73881 -5.0214,7.17351 -3.228,10.04291 1.7933,2.8694 2.152,5.02146 -0.7174,6.45616 -2.8694,1.43469 -4.3041,4.3041 -8.2495,4.3041 -3.9455,0 -5.7388,0 -5.7388,0 z" />
          <path
             inkscape:connector-curvature="0"
             style="fill:#000000;fill-opacity:1;stroke:none;filter:url(#filter10326)"
             id="path10480"
             transform="matrix(0.46206287,0,0,0.46206287,554.50901,-225.04543)"
             d="m 1009.1112,-443.51398 c 0,0 -3.2281,5.02145 -9.68434,1.4347 -6.45612,-3.58675 -4.30407,-5.38013 -5.02142,-8.96688 -0.71735,-3.58676 -2.51072,-3.22808 0.71735,-7.17351 3.22808,-3.94542 4.30407,-3.22807 6.81491,-8.24953 2.5107,-5.02145 -0.3587,-5.7388 6.0974,-5.02145 6.4562,0.71735 5.7389,3.94543 10.7603,3.94543 5.0215,0 8.6082,-2.51073 8.2495,3.22807 -0.3586,5.73881 -5.0214,7.17351 -3.228,10.04291 1.7933,2.8694 2.152,5.02146 -0.7174,6.45616 -2.8694,1.43469 -4.3041,4.3041 -8.2495,4.3041 -3.9455,0 -5.7388,0 -5.7388,0 z" />
          <path
             inkscape:connector-curvature="0"
             style="fill:#000000;fill-opacity:1;stroke:none;filter:url(#filter10326)"
             id="path10482"
             transform="matrix(0.46206287,0,0,0.46206287,541.06365,-293.61676)"
             d="m 1009.1112,-443.51398 c 0,0 -3.2281,5.02145 -9.68434,1.4347 -6.45612,-3.58675 -4.30407,-5.38013 -5.02142,-8.96688 -0.71735,-3.58676 -2.51072,-3.22808 0.71735,-7.17351 3.22808,-3.94542 4.30407,-3.22807 6.81491,-8.24953 2.5107,-5.02145 -0.3587,-5.7388 6.0974,-5.02145 6.4562,0.71735 5.7389,3.94543 10.7603,3.94543 5.0215,0 8.6082,-2.51073 8.2495,3.22807 -0.3586,5.73881 -5.0214,7.17351 -3.228,10.04291 1.7933,2.8694 2.152,5.02146 -0.7174,6.45616 -2.8694,1.43469 -4.3041,4.3041 -8.2495,4.3041 -3.9455,0 -5.7388,0 -5.7388,0 z" />
          <path
             inkscape:connector-curvature="0"
             style="fill:#000000;fill-opacity:1;stroke:none;filter:url(#filter10326)"
             id="path10484"
             transform="matrix(0.46206287,0,0,0.46206287,510.13933,-234.00901)"
             d="m 1009.1112,-443.51398 c 0,0 -3.2281,5.02145 -9.68434,1.4347 -6.45612,-3.58675 -4.30407,-5.38013 -5.02142,-8.96688 -0.71735,-3.58676 -2.51072,-3.22808 0.71735,-7.17351 3.22808,-3.94542 4.30407,-3.22807 6.81491,-8.24953 2.5107,-5.02145 -0.3587,-5.7388 6.0974,-5.02145 6.4562,0.71735 5.7389,3.94543 10.7603,3.94543 5.0215,0 8.6082,-2.51073 8.2495,3.22807 -0.3586,5.73881 -5.0214,7.17351 -3.228,10.04291 1.7933,2.8694 2.152,5.02146 -0.7174,6.45616 -2.8694,1.43469 -4.3041,4.3041 -8.2495,4.3041 -3.9455,0 -5.7388,0 -5.7388,0 z" />
        </g>
        <g
           id="g10486">
          <path
             inkscape:connector-curvature="0"
             style="fill:#f47521;fill-opacity:1;stroke:none;filter:url(#filter10326)"
             id="path10488"
             transform="matrix(0.46206287,0,0,0.46206287,543.75272,-273.89689)"
             d="m 1009.1112,-443.51398 c 0,0 -3.2281,5.02145 -9.68434,1.4347 -6.45612,-3.58675 -4.30407,-5.38013 -5.02142,-8.96688 -0.71735,-3.58676 -2.51072,-3.22808 0.71735,-7.17351 3.22808,-3.94542 4.30407,-3.22807 6.81491,-8.24953 2.5107,-5.02145 -0.3587,-5.7388 6.0974,-5.02145 6.4562,0.71735 5.7389,3.94543 10.7603,3.94543 5.0215,0 8.6082,-2.51073 8.2495,3.22807 -0.3586,5.73881 -5.0214,7.17351 -3.228,10.04291 1.7933,2.8694 2.152,5.02146 -0.7174,6.45616 -2.8694,1.43469 -4.3041,4.3041 -8.2495,4.3041 -3.9455,0 -5.7388,0 -5.7388,0 z" />
          <path
             inkscape:connector-curvature="0"
             style="fill:#f47521;fill-opacity:1;stroke:none;filter:url(#filter10326)"
             id="path10490"
             transform="matrix(0.46206287,0,0,0.46206287,576.46976,-236.24989)"
             d="m 1009.1112,-443.51398 c 0,0 -3.2281,5.02145 -9.68434,1.4347 -6.45612,-3.58675 -4.30407,-5.38013 -5.02142,-8.96688 -0.71735,-3.58676 -2.51072,-3.22808 0.71735,-7.17351 3.22808,-3.94542 4.30407,-3.22807 6.81491,-8.24953 2.5107,-5.02145 -0.3587,-5.7388 6.0974,-5.02145 6.4562,0.71735 5.7389,3.94543 10.7603,3.94543 5.0215,0 8.6082,-2.51073 8.2495,3.22807 -0.3586,5.73881 -5.0214,7.17351 -3.228,10.04291 1.7933,2.8694 2.152,5.02146 -0.7174,6.45616 -2.8694,1.43469 -4.3041,4.3041 -8.2495,4.3041 -3.9455,0 -5.7388,0 -5.7388,0 z" />
          <path
             inkscape:connector-curvature="0"
             style="fill:#f47521;fill-opacity:1;stroke:none;filter:url(#filter10326)"
             id="path10492"
             transform="matrix(0.46206287,0,0,0.46206287,530.30736,-227.7345)"
             d="m 1009.1112,-443.51398 c 0,0 -3.2281,5.02145 -9.68434,1.4347 -6.45612,-3.58675 -4.30407,-5.38013 -5.02142,-8.96688 -0.71735,-3.58676 -2.51072,-3.22808 0.71735,-7.17351 3.22808,-3.94542 4.30407,-3.22807 6.81491,-8.24953 2.5107,-5.02145 -0.3587,-5.7388 6.0974,-5.02145 6.4562,0.71735 5.7389,3.94543 10.7603,3.94543 5.0215,0 8.6082,-2.51073 8.2495,3.22807 -0.3586,5.73881 -5.0214,7.17351 -3.228,10.04291 1.7933,2.8694 2.152,5.02146 -0.7174,6.45616 -2.8694,1.43469 -4.3041,4.3041 -8.2495,4.3041 -3.9455,0 -5.7388,0 -5.7388,0 z" />
          <path
             inkscape:connector-curvature="0"
             style="fill:#f47521;fill-opacity:1;stroke:none;filter:url(#filter10326)"
             id="path10494"
             transform="matrix(0.46206287,0,0,0.46206287,576.02158,-276.58597)"
             d="m 1009.1112,-443.51398 c 0,0 -3.2281,5.02145 -9.68434,1.4347 -6.45612,-3.58675 -4.30407,-5.38013 -5.02142,-8.96688 -0.71735,-3.58676 -2.51072,-3.22808 0.71735,-7.17351 3.22808,-3.94542 4.30407,-3.22807 6.81491,-8.24953 2.5107,-5.02145 -0.3587,-5.7388 6.0974,-5.02145 6.4562,0.71735 5.7389,3.94543 10.7603,3.94543 5.0215,0 8.6082,-2.51073 8.2495,3.22807 -0.3586,5.73881 -5.0214,7.17351 -3.228,10.04291 1.7933,2.8694 2.152,5.02146 -0.7174,6.45616 -2.8694,1.43469 -4.3041,4.3041 -8.2495,4.3041 -3.9455,0 -5.7388,0 -5.7388,0 z" />
          <path
             inkscape:connector-curvature="0"
             style="fill:#f47521;fill-opacity:1;stroke:none;filter:url(#filter10326)"
             id="path10496"
             transform="matrix(0.46206287,0,0,0.46206287,551.81994,-251.03979)"
             d="m 1009.1112,-443.51398 c 0,0 -3.2281,5.02145 -9.68434,1.4347 -6.45612,-3.58675 -4.30407,-5.38013 -5.02142,-8.96688 -0.71735,-3.58676 -2.51072,-3.22808 0.71735,-7.17351 3.22808,-3.94542 4.30407,-3.22807 6.81491,-8.24953 2.5107,-5.02145 -0.3587,-5.7388 6.0974,-5.02145 6.4562,0.71735 5.7389,3.94543 10.7603,3.94543 5.0215,0 8.6082,-2.51073 8.2495,3.22807 -0.3586,5.73881 -5.0214,7.17351 -3.228,10.04291 1.7933,2.8694 2.152,5.02146 -0.7174,6.45616 -2.8694,1.43469 -4.3041,4.3041 -8.2495,4.3041 -3.9455,0 -5.7388,0 -5.7388,0 z" />
          <path
             inkscape:connector-curvature="0"
             style="fill:#ef9f15;fill-opacity:1;stroke:none;filter:url(#filter10326)"
             id="path10498"
             transform="matrix(0.46206287,0,0,0.46206287,527.17012,-252.8325)"
             d="m 1009.1112,-443.51398 c 0,0 -3.2281,5.02145 -9.68434,1.4347 -6.45612,-3.58675 -4.30407,-5.38013 -5.02142,-8.96688 -0.71735,-3.58676 -2.51072,-3.22808 0.71735,-7.17351 3.22808,-3.94542 4.30407,-3.22807 6.81491,-8.24953 2.5107,-5.02145 -0.3587,-5.7388 6.0974,-5.02145 6.4562,0.71735 5.7389,3.94543 10.7603,3.94543 5.0215,0 8.6082,-2.51073 8.2495,3.22807 -0.3586,5.73881 -5.0214,7.17351 -3.228,10.04291 1.7933,2.8694 2.152,5.02146 -0.7174,6.45616 -2.8694,1.43469 -4.3041,4.3041 -8.2495,4.3041 -3.9455,0 -5.7388,0 -5.7388,0 z" />
          <path
             inkscape:connector-curvature="0"
             style="fill:#ef9f15;fill-opacity:1;stroke:none;filter:url(#filter10326)"
             id="path10500"
             transform="matrix(0.46206287,0,0,0.46206287,580.05519,-258.65882)"
             d="m 1009.1112,-443.51398 c 0,0 -3.2281,5.02145 -9.68434,1.4347 -6.45612,-3.58675 -4.30407,-5.38013 -5.02142,-8.96688 -0.71735,-3.58676 -2.51072,-3.22808 0.71735,-7.17351 3.22808,-3.94542 4.30407,-3.22807 6.81491,-8.24953 2.5107,-5.02145 -0.3587,-5.7388 6.0974,-5.02145 6.4562,0.71735 5.7389,3.94543 10.7603,3.94543 5.0215,0 8.6082,-2.51073 8.2495,3.22807 -0.3586,5.73881 -5.0214,7.17351 -3.228,10.04291 1.7933,2.8694 2.152,5.02146 -0.7174,6.45616 -2.8694,1.43469 -4.3041,4.3041 -8.2495,4.3041 -3.9455,0 -5.7388,0 -5.7388,0 z" />
          <path
             inkscape:connector-curvature="0"
             style="fill:#ef9f15;fill-opacity:1;stroke:none;filter:url(#filter10326)"
             id="path10502"
             transform="matrix(0.46206287,0,0,0.46206287,554.50901,-225.04543)"
             d="m 1009.1112,-443.51398 c 0,0 -3.2281,5.02145 -9.68434,1.4347 -6.45612,-3.58675 -4.30407,-5.38013 -5.02142,-8.96688 -0.71735,-3.58676 -2.51072,-3.22808 0.71735,-7.17351 3.22808,-3.94542 4.30407,-3.22807 6.81491,-8.24953 2.5107,-5.02145 -0.3587,-5.7388 6.0974,-5.02145 6.4562,0.71735 5.7389,3.94543 10.7603,3.94543 5.0215,0 8.6082,-2.51073 8.2495,3.22807 -0.3586,5.73881 -5.0214,7.17351 -3.228,10.04291 1.7933,2.8694 2.152,5.02146 -0.7174,6.45616 -2.8694,1.43469 -4.3041,4.3041 -8.2495,4.3041 -3.9455,0 -5.7388,0 -5.7388,0 z" />
          <path
             inkscape:connector-curvature="0"
             style="fill:#ef9f15;fill-opacity:1;stroke:none;filter:url(#filter10326)"
             id="path10504"
             transform="matrix(0.46206287,0,0,0.46206287,541.06365,-293.61676)"
             d="m 1009.1112,-443.51398 c 0,0 -3.2281,5.02145 -9.68434,1.4347 -6.45612,-3.58675 -4.30407,-5.38013 -5.02142,-8.96688 -0.71735,-3.58676 -2.51072,-3.22808 0.71735,-7.17351 3.22808,-3.94542 4.30407,-3.22807 6.81491,-8.24953 2.5107,-5.02145 -0.3587,-5.7388 6.0974,-5.02145 6.4562,0.71735 5.7389,3.94543 10.7603,3.94543 5.0215,0 8.6082,-2.51073 8.2495,3.22807 -0.3586,5.73881 -5.0214,7.17351 -3.228,10.04291 1.7933,2.8694 2.152,5.02146 -0.7174,6.45616 -2.8694,1.43469 -4.3041,4.3041 -8.2495,4.3041 -3.9455,0 -5.7388,0 -5.7388,0 z" />
          <path
             inkscape:connector-curvature="0"
             style="fill:#ef9f15;fill-opacity:1;stroke:none;filter:url(#filter10326)"
             id="path10506"
             transform="matrix(0.46206287,0,0,0.46206287,510.13933,-234.00901)"
             d="m 1009.1112,-443.51398 c 0,0 -3.2281,5.02145 -9.68434,1.4347 -6.45612,-3.58675 -4.30407,-5.38013 -5.02142,-8.96688 -0.71735,-3.58676 -2.51072,-3.22808 0.71735,-7.17351 3.22808,-3.94542 4.30407,-3.22807 6.81491,-8.24953 2.5107,-5.02145 -0.3587,-5.7388 6.0974,-5.02145 6.4562,0.71735 5.7389,3.94543 10.7603,3.94543 5.0215,0 8.6082,-2.51073 8.2495,3.22807 -0.3586,5.73881 -5.0214,7.17351 -3.228,10.04291 1.7933,2.8694 2.152,5.02146 -0.7174,6.45616 -2.8694,1.43469 -4.3041,4.3041 -8.2495,4.3041 -3.9455,0 -5.7388,0 -5.7388,0 z" />
        </g>
        <g
           id="g10508">
          <path
             inkscape:connector-curvature="0"
             style="fill:#803300;stroke:none"
             id="path10510"
             d="m 1009.8088,-329.38645 c 0,0 15.4007,-5.72875 15.4007,-35.51823 0,-29.78948 -15.4007,-47.54859 -15.4007,-47.54859 0,0 1.3392,-8.02025 12.0528,-8.59312 10.7135,-0.57288 16.7399,-0.57288 18.0791,4.583 1.3392,5.15587 -6.696,77.33807 2.6784,84.21257 9.3744,6.8745 15.4007,8.59312 15.4007,8.59312 0,0 3.348,3.43724 -18.0791,3.43724 -21.4271,0 -34.1495,0.57288 -36.8279,-4.01011 -2.6784,-4.58301 6.696,-5.15588 6.696,-5.15588 z" />
          <path
             inkscape:connector-curvature="0"
             style="fill:#d38d5f;stroke:none;filter:url(#filter10258)"
             id="path10512"
             transform="matrix(0.37351061,0,0,0.31955712,672.33149,-260.6539)"
             d="m 958.21875,-488.4375 c -13.13802,0.39388 -30.5813,-2.16206 -39,10.4375 -0.87526,3.31544 3.6883,5.17787 4.24101,8.3399 35.15968,63.65805 44.9463,141.38514 26.38026,211.82753 -6.82409,21.75936 -19.09257,43.88825 -39.74627,55.17632 28.68955,3.42606 57.63686,2.07719 86.4375,1.375 -14.27051,-9.36644 -25.85349,-24.08611 -27.41487,-41.51183 -5.56044,-30.51383 -3.57878,-61.74953 -4.31669,-92.61286 0.60961,-50.21931 5.85733,-100.53117 4.45031,-150.65656 -3.06611,-2.46202 -7.26849,-2.46634 -11.03125,-2.375 z" />
        </g>
      </g>
      <g
         id="g10514"
         transform="matrix(0.58904231,-0.06372613,0.06372613,0.58904231,126.36532,793.50087)">
        <g
           style="fill:#000000;filter:url(#filter10410)"
           id="g10516"
           transform="translate(-2)">
          <path
             inkscape:connector-curvature="0"
             style="fill:#000000;stroke:none"
             id="path10518"
             d="m 1009.8088,-329.38645 c 0,0 15.4007,-5.72875 15.4007,-35.51823 0,-29.78948 -15.4007,-47.54859 -15.4007,-47.54859 0,0 1.3392,-8.02025 12.0528,-8.59312 10.7135,-0.57288 16.7399,-0.57288 18.0791,4.583 1.3392,5.15587 -6.696,77.33807 2.6784,84.21257 9.3744,6.8745 15.4007,8.59312 15.4007,8.59312 0,0 3.348,3.43724 -18.0791,3.43724 -21.4271,0 -34.1495,0.57288 -36.8279,-4.01011 -2.6784,-4.58301 6.696,-5.15588 6.696,-5.15588 z" />
          <path
             inkscape:connector-curvature="0"
             style="fill:#000000;stroke:none;filter:url(#filter10258)"
             id="path10520"
             transform="matrix(0.37351061,0,0,0.31955712,672.33149,-260.6539)"
             d="m 958.21875,-488.4375 c -13.13802,0.39388 -30.5813,-2.16206 -39,10.4375 -0.87526,3.31544 3.6883,5.17787 4.24101,8.3399 35.15968,63.65805 44.9463,141.38514 26.38026,211.82753 -6.82409,21.75936 -19.09257,43.88825 -39.74627,55.17632 28.68955,3.42606 57.63686,2.07719 86.4375,1.375 -14.27051,-9.36644 -25.85349,-24.08611 -27.41487,-41.51183 -5.56044,-30.51383 -3.57878,-61.74953 -4.31669,-92.61286 0.60961,-50.21931 5.85733,-100.53117 4.45031,-150.65656 -3.06611,-2.46202 -7.26849,-2.46634 -11.03125,-2.375 z" />
        </g>
        <path
           inkscape:connector-curvature="0"
           style="fill:#000000;fill-opacity:1;stroke:none;filter:url(#filter10396)"
           id="path10522"
           d="m 1014.8549,-412.03019 c 0,0 -11.8324,18.40582 -35.49695,5.25881 -23.66463,-13.14702 -15.77642,-19.72053 -18.40582,-32.86754 -2.6294,-13.14702 -9.20291,-11.83231 2.6294,-26.29403 11.83231,-14.46171 15.77642,-11.83231 24.97933,-30.23813 9.20291,-18.40581 -1.31471,-21.03522 22.34994,-18.40581 23.6646,2.6294 21.0353,14.46171 39.4411,14.46171 18.4058,0 31.5528,-9.20291 30.2381,11.83231 -1.3147,21.03522 -18.4058,26.29403 -11.8323,36.81164 6.5735,10.51761 7.8882,18.40582 -2.6295,23.66462 -10.5176,5.2588 -15.7763,15.77642 -30.2381,15.77642 -14.4617,0 -21.0352,0 -21.0352,0 z" />
        <path
           inkscape:connector-curvature="0"
           style="fill:#f47521;fill-opacity:1;stroke:none"
           id="path10524"
           d="m 1016.8549,-414.03019 c 0,0 -11.8324,18.40582 -35.49695,5.25881 -23.66463,-13.14702 -15.77642,-19.72053 -18.40582,-32.86754 -2.6294,-13.14702 -9.20291,-11.83231 2.6294,-26.29403 11.83231,-14.46171 15.77642,-11.83231 24.97933,-30.23813 9.20291,-18.40581 -1.31471,-21.03522 22.34994,-18.40581 23.6646,2.6294 21.0353,14.46171 39.4411,14.46171 18.4058,0 31.5528,-9.20291 30.2381,11.83231 -1.3147,21.03522 -18.4058,26.29403 -11.8323,36.81164 6.5735,10.51761 7.8882,18.40582 -2.6295,23.66462 -10.5176,5.2588 -15.7763,15.77642 -30.2381,15.77642 -14.4617,0 -21.0352,0 -21.0352,0 z" />
        <path
           inkscape:connector-curvature="0"
           style="fill:#fd7d28;fill-opacity:1;stroke:none"
           id="path10526"
           d="m 1016.4643,-427.02615 c 0,0 -8.5403,13.28467 -25.62054,3.79562 -17.0803,-9.48905 -11.38687,-14.23358 -13.28467,-23.72263 -1.89781,-9.48905 -6.64234,-8.54014 1.8978,-18.9781 8.54015,-10.43796 11.38687,-8.54014 18.02922,-21.82482 6.64229,-13.28467 -0.94889,-15.18248 16.13139,-13.28467 17.0803,1.89781 15.1825,10.43796 28.4672,10.43796 13.2847,0 22.7737,-6.64234 21.8248,8.54014 -0.9489,15.18248 -13.2847,18.9781 -8.5401,26.56935 4.7445,7.59123 5.6935,13.28467 -1.8978,17.08029 -7.5913,3.79562 -11.3869,11.38686 -21.8248,11.38686 -10.4381,0 -15.1825,0 -15.1825,0 z" />
        <path
           inkscape:connector-curvature="0"
           style="fill:#fea060;fill-opacity:1;stroke:none;filter:url(#filter10308)"
           id="path10528"
           transform="matrix(0.73335795,0,0,0.73335795,260.90161,-107.73326)"
           d="m 1030.2781,-435.38479 c 0,0 -11.6454,18.11486 -34.93585,5.17568 -23.29053,-12.93919 -15.52702,-19.40878 -18.11485,-32.34796 -2.58784,-12.93918 -9.05743,-11.64526 2.58783,-25.87836 11.64526,-14.2331 15.52702,-11.64526 24.58447,-29.76012 9.0574,-18.11485 -1.2939,-20.70269 21.9966,-18.11485 23.2905,2.58784 20.7027,14.2331 38.8176,14.2331 18.1148,0 31.054,-9.05743 29.7601,11.64526 -1.2939,20.70269 -18.1149,25.87836 -11.6453,36.22971 6.4696,10.35134 7.7636,18.11485 -2.5878,23.29053 -10.3514,5.17567 -15.527,15.52701 -29.7601,15.52701 -14.2332,0 -20.7027,0 -20.7027,0 z" />
        <g
           style="fill:#000000;filter:url(#filter10386)"
           id="g10530"
           transform="translate(0,0.73235945)">
          <path
             inkscape:connector-curvature="0"
             style="fill:#000000;fill-opacity:1;stroke:none;filter:url(#filter10326)"
             id="path10532"
             transform="matrix(0.46206287,0,0,0.46206287,543.75272,-273.89689)"
             d="m 1009.1112,-443.51398 c 0,0 -3.2281,5.02145 -9.68434,1.4347 -6.45612,-3.58675 -4.30407,-5.38013 -5.02142,-8.96688 -0.71735,-3.58676 -2.51072,-3.22808 0.71735,-7.17351 3.22808,-3.94542 4.30407,-3.22807 6.81491,-8.24953 2.5107,-5.02145 -0.3587,-5.7388 6.0974,-5.02145 6.4562,0.71735 5.7389,3.94543 10.7603,3.94543 5.0215,0 8.6082,-2.51073 8.2495,3.22807 -0.3586,5.73881 -5.0214,7.17351 -3.228,10.04291 1.7933,2.8694 2.152,5.02146 -0.7174,6.45616 -2.8694,1.43469 -4.3041,4.3041 -8.2495,4.3041 -3.9455,0 -5.7388,0 -5.7388,0 z" />
          <path
             inkscape:connector-curvature="0"
             style="fill:#000000;fill-opacity:1;stroke:none;filter:url(#filter10326)"
             id="path10534"
             transform="matrix(0.46206287,0,0,0.46206287,576.46976,-236.24989)"
             d="m 1009.1112,-443.51398 c 0,0 -3.2281,5.02145 -9.68434,1.4347 -6.45612,-3.58675 -4.30407,-5.38013 -5.02142,-8.96688 -0.71735,-3.58676 -2.51072,-3.22808 0.71735,-7.17351 3.22808,-3.94542 4.30407,-3.22807 6.81491,-8.24953 2.5107,-5.02145 -0.3587,-5.7388 6.0974,-5.02145 6.4562,0.71735 5.7389,3.94543 10.7603,3.94543 5.0215,0 8.6082,-2.51073 8.2495,3.22807 -0.3586,5.73881 -5.0214,7.17351 -3.228,10.04291 1.7933,2.8694 2.152,5.02146 -0.7174,6.45616 -2.8694,1.43469 -4.3041,4.3041 -8.2495,4.3041 -3.9455,0 -5.7388,0 -5.7388,0 z" />
          <path
             inkscape:connector-curvature="0"
             style="fill:#000000;fill-opacity:1;stroke:none;filter:url(#filter10326)"
             id="path10536"
             transform="matrix(0.46206287,0,0,0.46206287,530.30736,-227.7345)"
             d="m 1009.1112,-443.51398 c 0,0 -3.2281,5.02145 -9.68434,1.4347 -6.45612,-3.58675 -4.30407,-5.38013 -5.02142,-8.96688 -0.71735,-3.58676 -2.51072,-3.22808 0.71735,-7.17351 3.22808,-3.94542 4.30407,-3.22807 6.81491,-8.24953 2.5107,-5.02145 -0.3587,-5.7388 6.0974,-5.02145 6.4562,0.71735 5.7389,3.94543 10.7603,3.94543 5.0215,0 8.6082,-2.51073 8.2495,3.22807 -0.3586,5.73881 -5.0214,7.17351 -3.228,10.04291 1.7933,2.8694 2.152,5.02146 -0.7174,6.45616 -2.8694,1.43469 -4.3041,4.3041 -8.2495,4.3041 -3.9455,0 -5.7388,0 -5.7388,0 z" />
          <path
             inkscape:connector-curvature="0"
             style="fill:#000000;fill-opacity:1;stroke:none;filter:url(#filter10326)"
             id="path10538"
             transform="matrix(0.46206287,0,0,0.46206287,576.02158,-276.58597)"
             d="m 1009.1112,-443.51398 c 0,0 -3.2281,5.02145 -9.68434,1.4347 -6.45612,-3.58675 -4.30407,-5.38013 -5.02142,-8.96688 -0.71735,-3.58676 -2.51072,-3.22808 0.71735,-7.17351 3.22808,-3.94542 4.30407,-3.22807 6.81491,-8.24953 2.5107,-5.02145 -0.3587,-5.7388 6.0974,-5.02145 6.4562,0.71735 5.7389,3.94543 10.7603,3.94543 5.0215,0 8.6082,-2.51073 8.2495,3.22807 -0.3586,5.73881 -5.0214,7.17351 -3.228,10.04291 1.7933,2.8694 2.152,5.02146 -0.7174,6.45616 -2.8694,1.43469 -4.3041,4.3041 -8.2495,4.3041 -3.9455,0 -5.7388,0 -5.7388,0 z" />
          <path
             inkscape:connector-curvature="0"
             style="fill:#000000;fill-opacity:1;stroke:none;filter:url(#filter10326)"
             id="path10540"
             transform="matrix(0.46206287,0,0,0.46206287,551.81994,-251.03979)"
             d="m 1009.1112,-443.51398 c 0,0 -3.2281,5.02145 -9.68434,1.4347 -6.45612,-3.58675 -4.30407,-5.38013 -5.02142,-8.96688 -0.71735,-3.58676 -2.51072,-3.22808 0.71735,-7.17351 3.22808,-3.94542 4.30407,-3.22807 6.81491,-8.24953 2.5107,-5.02145 -0.3587,-5.7388 6.0974,-5.02145 6.4562,0.71735 5.7389,3.94543 10.7603,3.94543 5.0215,0 8.6082,-2.51073 8.2495,3.22807 -0.3586,5.73881 -5.0214,7.17351 -3.228,10.04291 1.7933,2.8694 2.152,5.02146 -0.7174,6.45616 -2.8694,1.43469 -4.3041,4.3041 -8.2495,4.3041 -3.9455,0 -5.7388,0 -5.7388,0 z" />
          <path
             inkscape:connector-curvature="0"
             style="fill:#000000;fill-opacity:1;stroke:none;filter:url(#filter10326)"
             id="path10542"
             transform="matrix(0.46206287,0,0,0.46206287,527.17012,-252.8325)"
             d="m 1009.1112,-443.51398 c 0,0 -3.2281,5.02145 -9.68434,1.4347 -6.45612,-3.58675 -4.30407,-5.38013 -5.02142,-8.96688 -0.71735,-3.58676 -2.51072,-3.22808 0.71735,-7.17351 3.22808,-3.94542 4.30407,-3.22807 6.81491,-8.24953 2.5107,-5.02145 -0.3587,-5.7388 6.0974,-5.02145 6.4562,0.71735 5.7389,3.94543 10.7603,3.94543 5.0215,0 8.6082,-2.51073 8.2495,3.22807 -0.3586,5.73881 -5.0214,7.17351 -3.228,10.04291 1.7933,2.8694 2.152,5.02146 -0.7174,6.45616 -2.8694,1.43469 -4.3041,4.3041 -8.2495,4.3041 -3.9455,0 -5.7388,0 -5.7388,0 z" />
          <path
             inkscape:connector-curvature="0"
             style="fill:#000000;fill-opacity:1;stroke:none;filter:url(#filter10326)"
             id="path10544"
             transform="matrix(0.46206287,0,0,0.46206287,580.05519,-258.65882)"
             d="m 1009.1112,-443.51398 c 0,0 -3.2281,5.02145 -9.68434,1.4347 -6.45612,-3.58675 -4.30407,-5.38013 -5.02142,-8.96688 -0.71735,-3.58676 -2.51072,-3.22808 0.71735,-7.17351 3.22808,-3.94542 4.30407,-3.22807 6.81491,-8.24953 2.5107,-5.02145 -0.3587,-5.7388 6.0974,-5.02145 6.4562,0.71735 5.7389,3.94543 10.7603,3.94543 5.0215,0 8.6082,-2.51073 8.2495,3.22807 -0.3586,5.73881 -5.0214,7.17351 -3.228,10.04291 1.7933,2.8694 2.152,5.02146 -0.7174,6.45616 -2.8694,1.43469 -4.3041,4.3041 -8.2495,4.3041 -3.9455,0 -5.7388,0 -5.7388,0 z" />
          <path
             inkscape:connector-curvature="0"
             style="fill:#000000;fill-opacity:1;stroke:none;filter:url(#filter10326)"
             id="path10546"
             transform="matrix(0.46206287,0,0,0.46206287,554.50901,-225.04543)"
             d="m 1009.1112,-443.51398 c 0,0 -3.2281,5.02145 -9.68434,1.4347 -6.45612,-3.58675 -4.30407,-5.38013 -5.02142,-8.96688 -0.71735,-3.58676 -2.51072,-3.22808 0.71735,-7.17351 3.22808,-3.94542 4.30407,-3.22807 6.81491,-8.24953 2.5107,-5.02145 -0.3587,-5.7388 6.0974,-5.02145 6.4562,0.71735 5.7389,3.94543 10.7603,3.94543 5.0215,0 8.6082,-2.51073 8.2495,3.22807 -0.3586,5.73881 -5.0214,7.17351 -3.228,10.04291 1.7933,2.8694 2.152,5.02146 -0.7174,6.45616 -2.8694,1.43469 -4.3041,4.3041 -8.2495,4.3041 -3.9455,0 -5.7388,0 -5.7388,0 z" />
          <path
             inkscape:connector-curvature="0"
             style="fill:#000000;fill-opacity:1;stroke:none;filter:url(#filter10326)"
             id="path10548"
             transform="matrix(0.46206287,0,0,0.46206287,541.06365,-293.61676)"
             d="m 1009.1112,-443.51398 c 0,0 -3.2281,5.02145 -9.68434,1.4347 -6.45612,-3.58675 -4.30407,-5.38013 -5.02142,-8.96688 -0.71735,-3.58676 -2.51072,-3.22808 0.71735,-7.17351 3.22808,-3.94542 4.30407,-3.22807 6.81491,-8.24953 2.5107,-5.02145 -0.3587,-5.7388 6.0974,-5.02145 6.4562,0.71735 5.7389,3.94543 10.7603,3.94543 5.0215,0 8.6082,-2.51073 8.2495,3.22807 -0.3586,5.73881 -5.0214,7.17351 -3.228,10.04291 1.7933,2.8694 2.152,5.02146 -0.7174,6.45616 -2.8694,1.43469 -4.3041,4.3041 -8.2495,4.3041 -3.9455,0 -5.7388,0 -5.7388,0 z" />
          <path
             inkscape:connector-curvature="0"
             style="fill:#000000;fill-opacity:1;stroke:none;filter:url(#filter10326)"
             id="path10550"
             transform="matrix(0.46206287,0,0,0.46206287,510.13933,-234.00901)"
             d="m 1009.1112,-443.51398 c 0,0 -3.2281,5.02145 -9.68434,1.4347 -6.45612,-3.58675 -4.30407,-5.38013 -5.02142,-8.96688 -0.71735,-3.58676 -2.51072,-3.22808 0.71735,-7.17351 3.22808,-3.94542 4.30407,-3.22807 6.81491,-8.24953 2.5107,-5.02145 -0.3587,-5.7388 6.0974,-5.02145 6.4562,0.71735 5.7389,3.94543 10.7603,3.94543 5.0215,0 8.6082,-2.51073 8.2495,3.22807 -0.3586,5.73881 -5.0214,7.17351 -3.228,10.04291 1.7933,2.8694 2.152,5.02146 -0.7174,6.45616 -2.8694,1.43469 -4.3041,4.3041 -8.2495,4.3041 -3.9455,0 -5.7388,0 -5.7388,0 z" />
        </g>
        <g
           id="g10552">
          <path
             inkscape:connector-curvature="0"
             style="fill:#f47521;fill-opacity:1;stroke:none;filter:url(#filter10326)"
             id="path10554"
             transform="matrix(0.46206287,0,0,0.46206287,543.75272,-273.89689)"
             d="m 1009.1112,-443.51398 c 0,0 -3.2281,5.02145 -9.68434,1.4347 -6.45612,-3.58675 -4.30407,-5.38013 -5.02142,-8.96688 -0.71735,-3.58676 -2.51072,-3.22808 0.71735,-7.17351 3.22808,-3.94542 4.30407,-3.22807 6.81491,-8.24953 2.5107,-5.02145 -0.3587,-5.7388 6.0974,-5.02145 6.4562,0.71735 5.7389,3.94543 10.7603,3.94543 5.0215,0 8.6082,-2.51073 8.2495,3.22807 -0.3586,5.73881 -5.0214,7.17351 -3.228,10.04291 1.7933,2.8694 2.152,5.02146 -0.7174,6.45616 -2.8694,1.43469 -4.3041,4.3041 -8.2495,4.3041 -3.9455,0 -5.7388,0 -5.7388,0 z" />
          <path
             inkscape:connector-curvature="0"
             style="fill:#f47521;fill-opacity:1;stroke:none;filter:url(#filter10326)"
             id="path10556"
             transform="matrix(0.46206287,0,0,0.46206287,576.46976,-236.24989)"
             d="m 1009.1112,-443.51398 c 0,0 -3.2281,5.02145 -9.68434,1.4347 -6.45612,-3.58675 -4.30407,-5.38013 -5.02142,-8.96688 -0.71735,-3.58676 -2.51072,-3.22808 0.71735,-7.17351 3.22808,-3.94542 4.30407,-3.22807 6.81491,-8.24953 2.5107,-5.02145 -0.3587,-5.7388 6.0974,-5.02145 6.4562,0.71735 5.7389,3.94543 10.7603,3.94543 5.0215,0 8.6082,-2.51073 8.2495,3.22807 -0.3586,5.73881 -5.0214,7.17351 -3.228,10.04291 1.7933,2.8694 2.152,5.02146 -0.7174,6.45616 -2.8694,1.43469 -4.3041,4.3041 -8.2495,4.3041 -3.9455,0 -5.7388,0 -5.7388,0 z" />
          <path
             inkscape:connector-curvature="0"
             style="fill:#f47521;fill-opacity:1;stroke:none;filter:url(#filter10326)"
             id="path10558"
             transform="matrix(0.46206287,0,0,0.46206287,530.30736,-227.7345)"
             d="m 1009.1112,-443.51398 c 0,0 -3.2281,5.02145 -9.68434,1.4347 -6.45612,-3.58675 -4.30407,-5.38013 -5.02142,-8.96688 -0.71735,-3.58676 -2.51072,-3.22808 0.71735,-7.17351 3.22808,-3.94542 4.30407,-3.22807 6.81491,-8.24953 2.5107,-5.02145 -0.3587,-5.7388 6.0974,-5.02145 6.4562,0.71735 5.7389,3.94543 10.7603,3.94543 5.0215,0 8.6082,-2.51073 8.2495,3.22807 -0.3586,5.73881 -5.0214,7.17351 -3.228,10.04291 1.7933,2.8694 2.152,5.02146 -0.7174,6.45616 -2.8694,1.43469 -4.3041,4.3041 -8.2495,4.3041 -3.9455,0 -5.7388,0 -5.7388,0 z" />
          <path
             inkscape:connector-curvature="0"
             style="fill:#f47521;fill-opacity:1;stroke:none;filter:url(#filter10326)"
             id="path10560"
             transform="matrix(0.46206287,0,0,0.46206287,576.02158,-276.58597)"
             d="m 1009.1112,-443.51398 c 0,0 -3.2281,5.02145 -9.68434,1.4347 -6.45612,-3.58675 -4.30407,-5.38013 -5.02142,-8.96688 -0.71735,-3.58676 -2.51072,-3.22808 0.71735,-7.17351 3.22808,-3.94542 4.30407,-3.22807 6.81491,-8.24953 2.5107,-5.02145 -0.3587,-5.7388 6.0974,-5.02145 6.4562,0.71735 5.7389,3.94543 10.7603,3.94543 5.0215,0 8.6082,-2.51073 8.2495,3.22807 -0.3586,5.73881 -5.0214,7.17351 -3.228,10.04291 1.7933,2.8694 2.152,5.02146 -0.7174,6.45616 -2.8694,1.43469 -4.3041,4.3041 -8.2495,4.3041 -3.9455,0 -5.7388,0 -5.7388,0 z" />
          <path
             inkscape:connector-curvature="0"
             style="fill:#f47521;fill-opacity:1;stroke:none;filter:url(#filter10326)"
             id="path10562"
             transform="matrix(0.46206287,0,0,0.46206287,551.81994,-251.03979)"
             d="m 1009.1112,-443.51398 c 0,0 -3.2281,5.02145 -9.68434,1.4347 -6.45612,-3.58675 -4.30407,-5.38013 -5.02142,-8.96688 -0.71735,-3.58676 -2.51072,-3.22808 0.71735,-7.17351 3.22808,-3.94542 4.30407,-3.22807 6.81491,-8.24953 2.5107,-5.02145 -0.3587,-5.7388 6.0974,-5.02145 6.4562,0.71735 5.7389,3.94543 10.7603,3.94543 5.0215,0 8.6082,-2.51073 8.2495,3.22807 -0.3586,5.73881 -5.0214,7.17351 -3.228,10.04291 1.7933,2.8694 2.152,5.02146 -0.7174,6.45616 -2.8694,1.43469 -4.3041,4.3041 -8.2495,4.3041 -3.9455,0 -5.7388,0 -5.7388,0 z" />
          <path
             inkscape:connector-curvature="0"
             style="fill:#ef9f15;fill-opacity:1;stroke:none;filter:url(#filter10326)"
             id="path10564"
             transform="matrix(0.46206287,0,0,0.46206287,527.17012,-252.8325)"
             d="m 1009.1112,-443.51398 c 0,0 -3.2281,5.02145 -9.68434,1.4347 -6.45612,-3.58675 -4.30407,-5.38013 -5.02142,-8.96688 -0.71735,-3.58676 -2.51072,-3.22808 0.71735,-7.17351 3.22808,-3.94542 4.30407,-3.22807 6.81491,-8.24953 2.5107,-5.02145 -0.3587,-5.7388 6.0974,-5.02145 6.4562,0.71735 5.7389,3.94543 10.7603,3.94543 5.0215,0 8.6082,-2.51073 8.2495,3.22807 -0.3586,5.73881 -5.0214,7.17351 -3.228,10.04291 1.7933,2.8694 2.152,5.02146 -0.7174,6.45616 -2.8694,1.43469 -4.3041,4.3041 -8.2495,4.3041 -3.9455,0 -5.7388,0 -5.7388,0 z" />
          <path
             inkscape:connector-curvature="0"
             style="fill:#ef9f15;fill-opacity:1;stroke:none;filter:url(#filter10326)"
             id="path10566"
             transform="matrix(0.46206287,0,0,0.46206287,580.05519,-258.65882)"
             d="m 1009.1112,-443.51398 c 0,0 -3.2281,5.02145 -9.68434,1.4347 -6.45612,-3.58675 -4.30407,-5.38013 -5.02142,-8.96688 -0.71735,-3.58676 -2.51072,-3.22808 0.71735,-7.17351 3.22808,-3.94542 4.30407,-3.22807 6.81491,-8.24953 2.5107,-5.02145 -0.3587,-5.7388 6.0974,-5.02145 6.4562,0.71735 5.7389,3.94543 10.7603,3.94543 5.0215,0 8.6082,-2.51073 8.2495,3.22807 -0.3586,5.73881 -5.0214,7.17351 -3.228,10.04291 1.7933,2.8694 2.152,5.02146 -0.7174,6.45616 -2.8694,1.43469 -4.3041,4.3041 -8.2495,4.3041 -3.9455,0 -5.7388,0 -5.7388,0 z" />
          <path
             inkscape:connector-curvature="0"
             style="fill:#ef9f15;fill-opacity:1;stroke:none;filter:url(#filter10326)"
             id="path10568"
             transform="matrix(0.46206287,0,0,0.46206287,554.50901,-225.04543)"
             d="m 1009.1112,-443.51398 c 0,0 -3.2281,5.02145 -9.68434,1.4347 -6.45612,-3.58675 -4.30407,-5.38013 -5.02142,-8.96688 -0.71735,-3.58676 -2.51072,-3.22808 0.71735,-7.17351 3.22808,-3.94542 4.30407,-3.22807 6.81491,-8.24953 2.5107,-5.02145 -0.3587,-5.7388 6.0974,-5.02145 6.4562,0.71735 5.7389,3.94543 10.7603,3.94543 5.0215,0 8.6082,-2.51073 8.2495,3.22807 -0.3586,5.73881 -5.0214,7.17351 -3.228,10.04291 1.7933,2.8694 2.152,5.02146 -0.7174,6.45616 -2.8694,1.43469 -4.3041,4.3041 -8.2495,4.3041 -3.9455,0 -5.7388,0 -5.7388,0 z" />
          <path
             inkscape:connector-curvature="0"
             style="fill:#ef9f15;fill-opacity:1;stroke:none;filter:url(#filter10326)"
             id="path10570"
             transform="matrix(0.46206287,0,0,0.46206287,541.06365,-293.61676)"
             d="m 1009.1112,-443.51398 c 0,0 -3.2281,5.02145 -9.68434,1.4347 -6.45612,-3.58675 -4.30407,-5.38013 -5.02142,-8.96688 -0.71735,-3.58676 -2.51072,-3.22808 0.71735,-7.17351 3.22808,-3.94542 4.30407,-3.22807 6.81491,-8.24953 2.5107,-5.02145 -0.3587,-5.7388 6.0974,-5.02145 6.4562,0.71735 5.7389,3.94543 10.7603,3.94543 5.0215,0 8.6082,-2.51073 8.2495,3.22807 -0.3586,5.73881 -5.0214,7.17351 -3.228,10.04291 1.7933,2.8694 2.152,5.02146 -0.7174,6.45616 -2.8694,1.43469 -4.3041,4.3041 -8.2495,4.3041 -3.9455,0 -5.7388,0 -5.7388,0 z" />
          <path
             inkscape:connector-curvature="0"
             style="fill:#ef9f15;fill-opacity:1;stroke:none;filter:url(#filter10326)"
             id="path10572"
             transform="matrix(0.46206287,0,0,0.46206287,510.13933,-234.00901)"
             d="m 1009.1112,-443.51398 c 0,0 -3.2281,5.02145 -9.68434,1.4347 -6.45612,-3.58675 -4.30407,-5.38013 -5.02142,-8.96688 -0.71735,-3.58676 -2.51072,-3.22808 0.71735,-7.17351 3.22808,-3.94542 4.30407,-3.22807 6.81491,-8.24953 2.5107,-5.02145 -0.3587,-5.7388 6.0974,-5.02145 6.4562,0.71735 5.7389,3.94543 10.7603,3.94543 5.0215,0 8.6082,-2.51073 8.2495,3.22807 -0.3586,5.73881 -5.0214,7.17351 -3.228,10.04291 1.7933,2.8694 2.152,5.02146 -0.7174,6.45616 -2.8694,1.43469 -4.3041,4.3041 -8.2495,4.3041 -3.9455,0 -5.7388,0 -5.7388,0 z" />
        </g>
        <g
           id="g10574">
          <path
             inkscape:connector-curvature="0"
             style="fill:#803300;stroke:none"
             id="path10576"
             d="m 1009.8088,-329.38645 c 0,0 15.4007,-5.72875 15.4007,-35.51823 0,-29.78948 -15.4007,-47.54859 -15.4007,-47.54859 0,0 1.3392,-8.02025 12.0528,-8.59312 10.7135,-0.57288 16.7399,-0.57288 18.0791,4.583 1.3392,5.15587 -6.696,77.33807 2.6784,84.21257 9.3744,6.8745 15.4007,8.59312 15.4007,8.59312 0,0 3.348,3.43724 -18.0791,3.43724 -21.4271,0 -34.1495,0.57288 -36.8279,-4.01011 -2.6784,-4.58301 6.696,-5.15588 6.696,-5.15588 z" />
          <path
             inkscape:connector-curvature="0"
             style="fill:#d38d5f;stroke:none;filter:url(#filter10258)"
             id="path10578"
             transform="matrix(0.37351061,0,0,0.31955712,672.33149,-260.6539)"
             d="m 958.21875,-488.4375 c -13.13802,0.39388 -30.5813,-2.16206 -39,10.4375 -0.87526,3.31544 3.6883,5.17787 4.24101,8.3399 35.15968,63.65805 44.9463,141.38514 26.38026,211.82753 -6.82409,21.75936 -19.09257,43.88825 -39.74627,55.17632 28.68955,3.42606 57.63686,2.07719 86.4375,1.375 -14.27051,-9.36644 -25.85349,-24.08611 -27.41487,-41.51183 -5.56044,-30.51383 -3.57878,-61.74953 -4.31669,-92.61286 0.60961,-50.21931 5.85733,-100.53117 4.45031,-150.65656 -3.06611,-2.46202 -7.26849,-2.46634 -11.03125,-2.375 z" />
        </g>
      </g>
      <path
         inkscape:connector-curvature="0"
         style="fill:#445500;fill-opacity:1;stroke:none;stroke-width:0.97783965"
         id="rect10580"
         d="m 185.12111,190.59103 48.13064,444.88792 873.73505,-94.5259 -48.1306,-444.887912 z m 17.34478,10.60227 844.72201,-91.38708 45.3303,419.00397 -844.72194,91.38708 z" />
      <path
         inkscape:connector-curvature="0"
         style="fill:#668000;fill-opacity:1;stroke:none;stroke-width:0.97783965"
         id="path10585"
         d="m 236.58425,631.33792 c 288.75385,-31.23913 577.50771,-62.47825 866.26155,-93.71737 -15.774,-145.80479 -31.5481,-291.60959 -47.3221,-437.41438 -288.75385,31.23912 -577.50771,62.47824 -866.26155,93.71736 15.77403,145.8048 31.54807,291.60959 47.3221,437.41439 z m -37.0138,-433.61188 c 283.64997,-30.68695 567.29995,-61.3739 850.94995,-92.06086 15.3796,142.15918 30.7592,284.31834 46.1389,426.47751 C 812.59409,562.87456 528.52893,593.60643 244.46376,624.33831 229.08412,482.17914 213.70449,340.01997 198.32486,197.8608 l 0.97217,-0.10518 z" />
    </g>
  </g>
</svg>
