<?xml version="1.0" encoding="UTF-8" standalone="no"?>
<svg
   viewBox="0 0 256 256"
   width="256"
   height="256"
   version="1.1"
   id="svg17"
   sodipodi:docname="page-add.svg"
   inkscape:version="1.4.2 (f4327f4, 2025-05-13)"
   xmlns:inkscape="http://www.inkscape.org/namespaces/inkscape"
   xmlns:sodipodi="http://sodipodi.sourceforge.net/DTD/sodipodi-0.dtd"
   xmlns="http://www.w3.org/2000/svg"
   xmlns:svg="http://www.w3.org/2000/svg">
  <defs
     id="defs17" />
  <sodipodi:namedview
     id="namedview17"
     pagecolor="#ffffff"
     bordercolor="#000000"
     borderopacity="0.25"
     inkscape:showpageshadow="2"
     inkscape:pageopacity="0.0"
     inkscape:pagecheckerboard="0"
     inkscape:deskcolor="#d1d1d1"
     inkscape:zoom="4.5585938"
     inkscape:cx="128"
     inkscape:cy="128"
     inkscape:window-width="2560"
     inkscape:window-height="1369"
     inkscape:window-x="-8"
     inkscape:window-y="-8"
     inkscape:window-maximized="1"
     inkscape:current-layer="svg17" />
  <!-- Paper background -->
  <rect
     x="38"
     y="18"
     width="180"
     height="220"
     rx="4"
     ry="4"
     fill="#f8f8f8"
     stroke="#b0b8c0"
     stroke-width="1.5"
     id="rect1" />
  <!-- Mini table (upper portion) -->
  <!-- Table header row -->
  <rect
     x="56"
     y="38"
     width="144"
     height="18"
     fill="#89b4e0"
     id="rect2" />
  <!-- Table body -->
  <rect
     x="56"
     y="56"
     width="144"
     height="72"
     fill="#f5f8fc"
     stroke="#c8d0d8"
     stroke-width="0.75"
     id="rect3" />
  <!-- Table grid lines -->
  <line
     x1="56"
     y1="74"
     x2="200"
     y2="74"
     stroke="#c8d0d8"
     stroke-width="0.75"
     id="line3" />
  <line
     x1="56"
     y1="92"
     x2="200"
     y2="92"
     stroke="#c8d0d8"
     stroke-width="0.75"
     id="line4" />
  <line
     x1="56"
     y1="110"
     x2="200"
     y2="110"
     stroke="#c8d0d8"
     stroke-width="0.75"
     id="line5" />
  <line
     x1="92"
     y1="38"
     x2="92"
     y2="128"
     stroke="#c8d0d8"
     stroke-width="0.75"
     id="line6" />
  <line
     x1="128"
     y1="38"
     x2="128"
     y2="128"
     stroke="#c8d0d8"
     stroke-width="0.75"
     id="line7" />
  <line
     x1="164"
     y1="38"
     x2="164"
     y2="128"
     stroke="#c8d0d8"
     stroke-width="0.75"
     id="line8" />
  <!-- Table outer border -->
  <rect
     x="56"
     y="38"
     width="144"
     height="90"
     fill="none"
     stroke="#b0b8c0"
     stroke-width="1"
     id="rect8" />
  <!-- Paragraph text lines (left side, below table) -->
  <rect
     x="56"
     y="145"
     width="70"
     height="5"
     rx="2"
     fill="#b0b8c0"
     id="rect9" />
  <rect
     x="56"
     y="156"
     width="65"
     height="5"
     rx="2"
     fill="#b0b8c0"
     id="rect10" />
  <rect
     x="56"
     y="167"
     width="72"
     height="5"
     rx="2"
     fill="#b0b8c0"
     id="rect11" />
  <rect
     x="56"
     y="178"
     width="60"
     height="5"
     rx="2"
     fill="#b0b8c0"
     id="rect12" />
  <rect
     x="56"
     y="189"
     width="68"
     height="5"
     rx="2"
     fill="#b0b8c0"
     id="rect13" />
  <rect
     x="56"
     y="200"
     width="45"
     height="5"
     rx="2"
     fill="#b0b8c0"
     id="rect14" />
  <!-- Mini pie chart (right-aligned, below table) -->
  <circle
     cx="170"
     cy="178"
     r="30"
     fill="#aecbeb"
     id="circle14" />
  <path
     d="M170,178 L170,148 A30,30 0 0,1 196,165 Z"
     fill="#5a8abd"
     id="path14" />
  <path
     d="M170,178 L196,165 A30,30 0 0,1 179,207 Z"
     fill="#4db6ac"
     id="path15" />
  <path
     d="M170,178 L179,207 A30,30 0 0,1 148,196 Z"
     fill="#e8685d"
     id="path16" />
  <path
     d="M170,178 L148,196 A30,30 0 0,1 140,178 Z"
     fill="#ffb74d"
     id="path17" />
  <g
     id="g2"
     transform="translate(2.3427676,0.0282745)">
    <circle
       cx="214.24078"
       cy="217.97173"
       r="32"
       fill="#4a90d9"
       id="circle2" />
    <line
       x1="214.24078"
       y1="199.97173"
       x2="214.24078"
       y2="235.97173"
       stroke="#ffffff"
       stroke-width="8"
       stroke-linecap="round"
       id="line2-9" />
    <line
       x1="196.24078"
       y1="217.97173"
       x2="232.24078"
       y2="217.97173"
       stroke="#ffffff"
       stroke-width="8"
       stroke-linecap="round"
       id="line3-8" />
  </g>
</svg>
