<?xml version="1.0" encoding="UTF-8" standalone="no"?>
<!--part of the rodentia icon theme by sixsixfive released under CC0 (https://creativecommons.org/publicdomain/zero/1.0/) on openclipart-->
<svg xmlns="http://www.w3.org/2000/svg" xmlns:xlink="http://www.w3.org/1999/xlink" viewBox="0 0 48 48">
 <defs id="0">
  <linearGradient id="2">
   <stop id="L" stop-color="#ef2929"/>
   <stop id="M" offset="1" stop-color="#c00"/>
  </linearGradient>
  <linearGradient id="3">
   <stop id="N" stop-color="#eeeeec"/>
   <stop id="O" offset="1" stop-color="#d3d7cf"/>
  </linearGradient>
  <linearGradient id="4">
   <stop id="P" stop-color="#2e3436"/>
   <stop id="Q" offset="1" stop-color="#2e3436" stop-opacity="0"/>
  </linearGradient>
  <linearGradient id="5">
   <stop id="R" stop-color="#eeeeec"/>
   <stop id="S" offset="1" stop-color="#eeeeec" stop-opacity="0"/>
  </linearGradient>
  <linearGradient id="6">
   <stop id="T" stop-color="#fff" stop-opacity="0.8"/>
   <stop id="U" offset="1" stop-color="#fff" stop-opacity="0"/>
  </linearGradient>
  <radialGradient cx="24.377" cy="45.941" r="23.08" id="7" xlink:href="#4" gradientUnits="userSpaceOnUse" gradientTransform="matrix(1,0,0,0.1455399,0,39.255173)"/>
  <linearGradient y1="4.219" x2="0" y2="43.781" id="8" xlink:href="#6" gradientUnits="userSpaceOnUse"/>
  <linearGradient x1="-9.681" y1="-16.487" x2="38.35" y2="45.33" id="9" xlink:href="#5" gradientUnits="userSpaceOnUse" gradientTransform="translate(0,-1.4999995)"/>
  <linearGradient y1="3.981" x2="0" y2="44.02" id="A" xlink:href="#3" gradientUnits="userSpaceOnUse" gradientTransform="matrix(1.0699566,0,0,1.0699566,-2.213937,-3.2059304)"/>
  <radialGradient cx="12.1" cy="11.904" r="19.906" id="B" xlink:href="#2" gradientUnits="userSpaceOnUse" gradientTransform="matrix(-0.09865321,2.5178625,-2.7071909,-0.1060713,45.058963,-22.512498)"/>
 </defs>
 <g id="1">
  <path d="m 47.453955,45.941494 a 23.076923,3.3586134 0 1 1 -46.153847,0 23.076923,3.3586134 0 1 1 46.153847,0 z" transform="translate(-0.37703133,-2.8001078)" id="C" opacity="0.8" fill="url(#7)"/>
  <rect width="42" height="42" x="3" y="1.5" id="D" fill="#7c0000" rx="6"/>
  <path d="M 9,4.09375 C 6.2608771,4.09375 4.09375,6.2608771 4.09375,9 l 0,30 c 0,2.739123 2.1671271,4.90625 4.90625,4.90625 l 30,0 c 2.739123,0 4.90625,-2.167127 4.90625,-4.90625 l 0,-30 C 43.90625,6.2608771 41.739123,4.09375 39,4.09375 l -30,0 z" transform="translate(0,-1.4999995)" id="E" fill="url(#B)"/>
  <path d="m 25.09375,2.59375 c -7.114015,5.8916852 -12.468681,8.895955 -16.1875,10.4375 -1.6273253,0.178323 -3.2300551,0.270959 -4.75,0.1875 -0.021827,-9.51e-4 -0.040766,-2.1e-4 -0.0625,0 l 0,15.75 c 2.4160977,0.341245 5.6072573,1.956195 8.625,4.4375 2.911907,2.394283 5.667787,5.577674 7.625,9 l 18.65625,0 c 2.621218,0 4.699292,-1.991233 4.875,-4.5625 -0.626081,-1.621881 -1.191861,-3.422587 -1.71875,-5.28125 0.587434,-0.710428 1.176601,-1.374924 1.75,-2 l 0,-8.875 c -0.318577,-1.17e-4 -0.640173,0.110142 -0.875,0.34375 -0.914061,0.908154 -1.812729,1.939573 -2.71875,2.9375 -0.14952,-0.722658 -0.297085,-1.43526 -0.4375,-2.15625 1.467286,-0.609898 2.826998,-1.316693 4.03125,-2.1875 l 0,-13.125 C 43.90625,4.7608771 41.739123,2.59375 39,2.59375 l -13.90625,0 z m 3,4.34375 C 28.08425,6.986538 28.07192,7.012909 28.0625,7.0625 28.00508,7.089266 27.932627,7.098244 27.875,7.125 27.93811,7.0651 28.033939,6.9944859 28.09375,6.9375 z M 11.1875,25.53125 c 4.343718,0.326672 9.566808,0.475742 15.34375,0.03125 -0.150037,4.758215 -0.197332,10.008131 -0.21875,15.75 -1.342282,-3.353404 -4.421079,-6.921004 -8,-10.21875 -2.325639,-2.142927 -4.784238,-3.97005 -7.125,-5.5625 z" id="F" opacity="0.6" fill="#a40000" fill-rule="evenodd"/>
  <path d="M 27,2.59375 C 14.804699,12.955754 7.3543397,15.285235 4.09375,15.78125 l 0,4.25 C 6.4423165,19.621186 10.750265,18.565249 15.4375,15.625 22.260241,11.345174 30.40625,3.21875 30.40625,3.21875 28.184828,7.5828234 27.551392,22.574566 27.5,42.40625 l 11.5,0 c 1.911458,0 3.531458,-1.056399 4.34375,-2.625 -2.398321,-5.414587 -3.993582,-12.777475 -5.21875,-19.4375 -1.054197,-8.011911 0.333335,-15.0245478 1,-17.75 -0.04235,-0.00104 -0.08237,0 -0.125,0 l -12,0 z m -22.90625,20.4375 0,4.6875 c 5.6374895,0.677604 13.571766,7.057321 17.6875,14.6875 l 3.6875,0 C 23.169564,35.350194 9.3817975,24.395339 4.09375,23.03125 z" id="G" fill="url(#A)" fill-rule="evenodd"/>
  <path d="M 39.1875,2.59375 C 33.22029,6.1712221 16.935167,15.142614 4.09375,14.4375 l 0,9.21875 c 4.5200862,0.602115 30.120029,3.600334 39.8125,-4.5625 l 0,-11.59375 c 0,-2.6751745 -2.070509,-4.8082727 -4.71875,-4.90625 z" id="H" opacity="0.3" fill="#2e3436" fill-rule="evenodd"/>
  <path d="m 43.90625,22.90625 c -5.307636,5.273333 -10.791986,12.263638 -14.5,19.5 l 4.34375,0 C 36.726921,37.431035 40.557795,32.059212 43.90625,28.75 l 0,-5.84375 z" id="I" opacity="0.3" fill="#2e3436" fill-rule="evenodd"/>
  <path d="M 9,4.5625 C 6.5197823,4.5625 4.5625,6.5197823 4.5625,9 l 0,30 c 0,2.480218 1.9572823,4.4375 4.4375,4.4375 l 30,0 c 2.480218,0 4.4375,-1.957282 4.4375,-4.4375 l 0,-30 C 43.4375,6.5197823 41.480218,4.5625 39,4.5625 l -30,0 z" transform="translate(0,-1.4999995)" id="J" opacity="0.8" fill="none" stroke="url(#8)" stroke-linecap="round" stroke-dashoffset="30"/>
  <path d="m 9,2.5937505 c -2.7391229,0 -4.90625,2.1671271 -4.90625,4.90625 l 0,17.1562505 c 12.085208,-5.133143 25.680845,-9.569523 39.8125,-12.53125 l 0,-4.6250005 c 0,-2.7391229 -2.167127,-4.90625 -4.90625,-4.90625 l -30,0 0,0 z" id="K" opacity="0.6" fill="url(#9)"/>
 </g>
</svg>
