<?xml version="1.0" encoding="UTF-8" standalone="no"?>
<!-- Created with Inkscape (http://www.inkscape.org/) -->

<svg
   xmlns:dc="http://purl.org/dc/elements/1.1/"
   xmlns:cc="http://creativecommons.org/ns#"
   xmlns:rdf="http://www.w3.org/1999/02/22-rdf-syntax-ns#"
   xmlns:svg="http://www.w3.org/2000/svg"
   xmlns="http://www.w3.org/2000/svg"
   xmlns:xlink="http://www.w3.org/1999/xlink"
   xmlns:sodipodi="http://sodipodi.sourceforge.net/DTD/sodipodi-0.dtd"
   xmlns:inkscape="http://www.inkscape.org/namespaces/inkscape"
   id="svg4085"
   sodipodi:docname="bormuth-cloze-mean-machine-passage.svg"
   viewBox="0 0 200 200"
   sodipodi:version="0.32"
   version="1.0"
   inkscape:output_extension="org.inkscape.output.svg.inkscape"
   inkscape:version="0.92.4 (5da689c313, 2019-01-14)"
   width="200"
   height="200">
  <defs
     id="defs4087">
    <linearGradient
       id="linearGradient3834"
       inkscape:collect="always">
      <stop
         id="stop3836"
         style="stop-color:#fff3de"
         offset="0" />
      <stop
         id="stop3838"
         style="stop-color:#fff3de;stop-opacity:0"
         offset="1" />
    </linearGradient>
    <linearGradient
       id="linearGradient2566"
       y2="313.39999"
       gradientUnits="userSpaceOnUse"
       x2="368.35001"
       gradientTransform="matrix(2.4335068,0,0,2.4335068,-827.87576,-1070.817)"
       y1="329.35999"
       x1="448.66"
       inkscape:collect="always">
      <stop
         id="stop2664"
         style="stop-color:#fbc594"
         offset="0" />
      <stop
         id="stop2666"
         style="stop-color:#c9884e"
         offset="1" />
    </linearGradient>
    <linearGradient
       id="linearGradient2568"
       y2="323.45999"
       gradientUnits="userSpaceOnUse"
       x2="469.92999"
       gradientTransform="matrix(2.4335068,0,0,2.4335068,-827.87576,-1070.817)"
       y1="323.45999"
       x1="391.57999"
       inkscape:collect="always">
      <stop
         id="stop3460"
         style="stop-color:#5f411c"
         offset="0" />
      <stop
         id="stop3462"
         style="stop-color:#454545"
         offset="1" />
    </linearGradient>
    <linearGradient
       id="linearGradient2570"
       y2="327"
       gradientUnits="userSpaceOnUse"
       x2="469.72"
       gradientTransform="matrix(2.4335068,0,0,2.4335068,-827.70038,-1071.1239)"
       y1="306.63"
       x1="356.01999"
       inkscape:collect="always">
      <stop
         id="stop3446"
         style="stop-color:#ffbd75;stop-opacity:.58389"
         offset="0" />
      <stop
         id="stop3448"
         style="stop-color:#f9dbba"
         offset="1" />
    </linearGradient>
    <linearGradient
       id="linearGradient2573"
       y2="412.19"
       gradientUnits="userSpaceOnUse"
       x2="348.98999"
       gradientTransform="matrix(0.01809331,2.4334163,-2.4334163,0.01809331,1289.7597,-652.43044)"
       y1="406.45999"
       x1="349.07999"
       inkscape:collect="always">
      <stop
         id="stop3788"
         style="stop-color:#fff3de"
         offset="0" />
      <stop
         id="stop3790"
         style="stop-color:#fff3de;stop-opacity:0"
         offset="1" />
    </linearGradient>
    <linearGradient
       id="linearGradient2576"
       y2="423.34"
       gradientUnits="userSpaceOnUse"
       x2="379.75"
       gradientTransform="matrix(0.01809331,2.4334163,-2.4334163,0.01809331,1293.0253,-618.52205)"
       y1="423.34"
       x1="302.25"
       inkscape:collect="always">
      <stop
         id="stop3737"
         style="stop-color:#ffc789"
         offset="0" />
      <stop
         id="stop3739"
         style="stop-color:#ffe7cd"
         offset="1" />
    </linearGradient>
    <linearGradient
       id="linearGradient2579"
       y2="420.47"
       xlink:href="#linearGradient3834"
       gradientUnits="userSpaceOnUse"
       x2="318.20001"
       y1="422.16"
       x1="315.89001"
       inkscape:collect="always" />
    <linearGradient
       inkscape:collect="always"
       xlink:href="#linearGradient3834"
       id="linearGradient975"
       gradientUnits="userSpaceOnUse"
       x1="315.89001"
       y1="422.16"
       x2="318.20001"
       y2="420.47" />
    <linearGradient
       inkscape:collect="always"
       xlink:href="#linearGradient3834"
       id="linearGradient977"
       gradientUnits="userSpaceOnUse"
       x1="315.89001"
       y1="422.16"
       x2="318.20001"
       y2="420.47" />
  </defs>
  <sodipodi:namedview
     id="base"
     bordercolor="#666666"
     inkscape:pageshadow="2"
     inkscape:window-y="23"
     pagecolor="#ffffff"
     inkscape:window-height="768"
     inkscape:zoom="1"
     inkscape:window-x="23"
     showgrid="false"
     borderopacity="1.0"
     inkscape:current-layer="layer1"
     inkscape:cx="158.2036"
     inkscape:cy="101.29245"
     units="mm"
     inkscape:window-width="1024"
     inkscape:pageopacity="0.0"
     inkscape:document-units="px"
     inkscape:window-maximized="1" />
  <g
     id="layer1"
     inkscape:label="Ruler"
     inkscape:groupmode="layer"
     transform="translate(-109.23,-118.749)"
     style="display:inline">
    <g
       id="g1113"
       transform="matrix(0.88616982,-0.80388095,0.80388095,0.88616982,-217.50454,253.92998)">
      <rect
         id="rect2619"
         style="fill:url(#linearGradient2566);stroke:url(#linearGradient2568);stroke-width:1.94677055"
         transform="rotate(89.736881)"
         ry="1.8497388"
         height="33.956238"
         width="189.19627"
         y="-300.63199"
         x="125.78745" />
      <rect
         id="rect2670"
         style="fill:none;stroke:url(#linearGradient2570);stroke-width:1.21673155"
         transform="rotate(89.736881)"
         ry="1.8497388"
         height="31.946327"
         width="187.48627"
         y="-299.78748"
         x="126.77398" />
      <path
         id="path3456"
         sodipodi:nodetypes="cc"
         style="fill:none;stroke:#573006;stroke-width:4.86692619;stroke-dasharray:1.2167436, 1.2167436"
         d="m 298.77269,129.52527 0.73184,181.66484"
         inkscape:connector-curvature="0" />
      <path
         id="path3475"
         sodipodi:nodetypes="cc"
         style="fill:none;stroke:#573006;stroke-width:1.21673155;stroke-miterlimit:0"
         d="m 300.98074,130.12607 -9.07489,0.0572"
         inkscape:connector-curvature="0" />
      <path
         id="rect3781"
         style="opacity:0.43902001;fill:url(#linearGradient2573);stroke-width:0.43846181"
         d="m 300.70486,126.9913 c -0.004,-1.01817 -0.86922,-1.80533 -1.86979,-1.80049 l -5.86522,0.0438 c -0.73769,5.12785 -0.86344,4.23703 1.15539,5.58267 2.5218,1.68378 5.22946,5.51213 3.99078,7.2237 -1.24286,1.71293 -2.4818,2.12807 -2.04036,5.53157 0.4456,3.40213 1.54552,4.6751 1.98412,7.01371 0.43443,2.33996 0.6478,6.41338 -0.37502,9.82597 -1.01728,3.41541 -1.26104,3.36146 -1.65936,6.13114 -0.39696,2.77385 -0.61685,1.31405 0.0373,5.14154 0.65834,3.82612 2.21371,10.62964 3.07391,14.02974 0.86019,3.40011 1.08424,7.01324 -0.14519,10.42893 -1.22943,3.41569 0.8377,1.03591 -1.21106,6.58407 -2.05293,5.54953 -1.84196,2.81355 -0.76369,7.48486 1.07965,4.67548 2.31711,2.93202 1.09635,7.62754 -1.21796,4.69001 -3.72935,4.75612 -2.21023,12.40663 1.52465,7.65332 3.57875,4.83947 2.15477,9.95685 -1.42679,5.12292 -3.72338,4.94334 -3.26911,9.6253 0.4529,4.67779 1.90712,3.38469 2.36139,8.06665 0.4529,4.67781 0.69385,4.46968 1.77795,9.35593 1.07993,4.88762 2.31257,2.7351 1.0952,7.84938 -1.21601,5.11846 -0.82993,3.3817 -1.44295,5.29893 -0.61581,1.92276 -2.53724,0.24069 -0.41941,3.63478 2.11646,3.38993 3.57242,0.41217 2.56214,4.89109 -1.0158,4.47612 -2.86569,8.56111 -2.22048,10.89662 0.64521,2.3355 3.32982,0.40398 0.84946,4.67706 -2.47899,4.27725 -3.07615,3.65161 -2.8497,5.99051 0.11183,1.17222 1.05045,1.99511 2.02708,2.70867 l 1.18695,-0.0109 c 0.99972,-0.004 1.8459,-0.88621 1.84004,-1.90398 L 300.7061,126.99061 Z"
         inkscape:connector-curvature="0" />
      <path
         id="path3479"
         sodipodi:nodetypes="cc"
         style="fill:none;stroke:#573006;stroke-width:1.21673155;stroke-miterlimit:0"
         d="m 301.24709,149.58345 -9.07531,0.0573"
         inkscape:connector-curvature="0" />
      <path
         id="path3483"
         sodipodi:nodetypes="cc"
         style="fill:none;stroke:#573006;stroke-width:1.21673155;stroke-miterlimit:0"
         d="m 301.38816,169.0542 -9.07395,0.0614"
         inkscape:connector-curvature="0" />
      <path
         id="path3487"
         sodipodi:nodetypes="cc"
         style="fill:none;stroke:#573006;stroke-width:1.21673155;stroke-miterlimit:0"
         d="m 301.40042,188.49795 -9.07395,0.0614"
         inkscape:connector-curvature="0" />
      <path
         id="path3491"
         sodipodi:nodetypes="cc"
         style="fill:none;stroke:#573006;stroke-width:1.21673155;stroke-miterlimit:0"
         d="m 301.60254,207.95792 -9.0753,0.0573"
         inkscape:connector-curvature="0" />
      <path
         id="path3495"
         sodipodi:nodetypes="cc"
         style="fill:none;stroke:#573006;stroke-width:1.21673155;stroke-miterlimit:0"
         d="m 301.52306,227.44556 -9.0753,0.0573"
         inkscape:connector-curvature="0" />
      <path
         id="path3499"
         sodipodi:nodetypes="cc"
         style="fill:none;stroke:#573006;stroke-width:1.21673155;stroke-miterlimit:0"
         d="m 301.603,246.94095 -9.07531,0.0573"
         inkscape:connector-curvature="0" />
      <path
         id="path3503"
         sodipodi:nodetypes="cc"
         style="fill:none;stroke:#573006;stroke-width:1.21673155;stroke-miterlimit:0"
         d="m 301.62912,266.38477 -9.07394,0.0614"
         inkscape:connector-curvature="0" />
      <path
         id="path3507"
         sodipodi:nodetypes="cc"
         style="fill:none;stroke:#573006;stroke-width:1.21673155;stroke-miterlimit:0"
         d="m 301.78959,285.85839 -9.07395,0.0614"
         inkscape:connector-curvature="0" />
      <path
         id="path3511"
         sodipodi:nodetypes="cc"
         style="fill:none;stroke:#573006;stroke-width:1.21673155;stroke-miterlimit:0"
         d="m 301.89035,305.34696 -9.07394,0.0614"
         inkscape:connector-curvature="0" />
      <path
         id="text3513"
         style="fill:#000000;stroke-width:0.43846181"
         d="m 292.25718,129.0023 -0.71409,0.003 c -0.42293,0.004 -0.82717,-0.11657 -1.21418,-0.35427 -0.38838,-0.24188 -0.58488,-0.58814 -0.58669,-1.04433 -0.003,-0.26207 0.0538,-0.48362 0.16564,-0.6633 0.11601,-0.18105 0.32628,-0.35605 0.63354,-0.5167 0.30589,-0.16482 0.63356,-0.2491 0.97882,-0.25148 l 0.71409,-0.003 c 0.41876,-0.003 0.82165,0.11377 1.21418,0.35427 0.38702,0.23772 0.58488,0.58814 0.58533,1.04016 0.003,0.26208 -0.051,0.4781 -0.16147,0.66195 -0.11602,0.18104 -0.3263,0.35605 -0.63218,0.52086 -0.31006,0.16618 -0.63772,0.25046 -0.98299,0.25285 z m -0.007,-0.6531 c 0.34943,-0.003 0.65776,-0.10477 0.92084,-0.3017 0.14339,-0.11157 0.2163,-0.26926 0.21457,-0.47171 -3.6e-4,-0.19828 -0.08,-0.35676 -0.24434,-0.47823 -0.24169,-0.18843 -0.54349,-0.27872 -0.90262,-0.27641 l -0.71409,0.003 c -0.3536,0.005 -0.66193,0.10619 -0.91948,0.30587 -0.14755,0.11294 -0.2163,0.26926 -0.21456,0.47171 -10e-4,0.19411 0.08,0.35675 0.24435,0.47823 0.24031,0.18426 0.54348,0.27872 0.90261,0.27641 z"
         inkscape:connector-curvature="0" />
      <path
         id="text3525"
         style="fill:#000000;stroke-width:0.43846181"
         d="m 290.5786,146.41157 0.01,1.42266 c 0.062,0.0766 0.0963,0.15302 0.0959,0.22234 -5e-4,0.097 -0.03,0.17594 -0.0982,0.23521 -0.0641,0.058 -0.17377,0.0893 -0.33046,0.0898 l -0.31336,10e-4 -0.0223,-2.95487 0.68916,-0.009 c 0.97155,1.16279 1.59881,1.86622 1.87627,2.10752 0.14081,0.11998 0.27638,0.18168 0.40532,0.18096 0.15669,-5.8e-4 0.29433,-0.0733 0.41567,-0.21001 0.11997,-0.14081 0.17916,-0.3263 0.17756,-0.55648 -10e-4,-0.23018 -0.07,-0.42465 -0.20778,-0.57788 -0.0717,-0.078 -0.17953,-0.13958 -0.3207,-0.19022 -0.0872,-0.0268 -0.15216,-0.0701 -0.19074,-0.11745 -0.0358,-0.0528 -0.0576,-0.11954 -0.0586,-0.19304 -9.4e-4,-0.0873 0.0327,-0.1676 0.0955,-0.22967 0.0613,-0.0662 0.13363,-0.0991 0.22098,-0.10007 0.12479,6.4e-4 0.28255,0.0597 0.4761,0.1716 0.19073,0.11746 0.34376,0.28879 0.4577,0.50984 0.11532,0.22522 0.17646,0.46818 0.17511,0.73162 0.004,0.40905 -0.11478,0.74815 -0.36154,1.00893 -0.2454,0.26497 -0.54834,0.39651 -0.89778,0.40026 -0.17888,0.003 -0.34784,-0.0337 -0.50138,-0.10793 -0.15352,-0.0743 -0.36474,-0.25422 -0.63644,-0.53432 -0.21654,-0.22435 -0.60256,-0.65617 -1.15525,-1.30099 z"
         inkscape:connector-curvature="0" />
      <path
         id="text3557"
         style="fill:#000000;stroke-width:0.43846181"
         d="m 294.23309,167.52267 -2.53748,0.0147 c -7.1e-4,0.13866 -0.0276,0.23974 -0.0889,0.30598 -0.0613,0.0662 -0.1378,0.1005 -0.23069,0.0986 -0.0957,0.003 -0.17593,-0.03 -0.2352,-0.0982 -0.0621,-0.0627 -0.0948,-0.16271 -0.0942,-0.30137 l -0.26207,0.003 c 0.003,0.13728 -0.0276,0.23973 -0.0889,0.30597 -0.0613,0.0662 -0.13779,0.10051 -0.23068,0.0987 -0.097,-5e-4 -0.17593,-0.03 -0.2352,-0.0982 -0.0621,-0.0627 -0.0906,-0.17795 -0.0912,-0.33463 l -0.008,-0.86941 c -5.8e-4,-0.15668 0.0277,-0.26746 0.0891,-0.3337 0.0572,-0.0648 0.13778,-0.10051 0.23484,-0.10007 0.0916,-0.002 0.17177,0.0314 0.23104,0.0996 0.0621,0.0627 0.0934,0.17242 0.094,0.3291 l 8e-5,0.25375 0.26208,-0.003 -0.0145,-1.76238 0.54355,-0.003 2.65706,1.53334 z m -2.54246,-0.63425 1.59321,-0.01 -1.60086,-0.92892 z"
         inkscape:connector-curvature="0" />
      <path
         id="text3569"
         style="fill:#000000;stroke-width:0.43846181"
         d="m 292.47871,184.84144 c 0.12954,0.15596 0.22861,0.30345 0.28889,0.44519 0.0602,0.14174 0.09,0.28886 0.092,0.44972 0.005,0.33973 -0.12806,0.63716 -0.39839,0.89643 -0.26617,0.25792 -0.60654,0.38789 -1.01143,0.39135 -0.37716,0.003 -0.68299,-0.11305 -0.92165,-0.3486 -0.23449,-0.23693 -0.35348,-0.55783 -0.35277,-0.96409 -0.005,-0.33973 0.0726,-0.62357 0.22756,-0.84047 0.15782,-0.22242 0.39856,-0.38896 0.73052,-0.50234 0.32644,-0.11617 0.69419,-0.17667 1.10045,-0.17596 0.48256,-0.005 0.88688,0.10159 1.21296,0.32237 0.32057,0.21795 0.57158,0.47714 0.75306,0.77757 0.18012,0.29626 0.27,0.61286 0.27245,0.94426 0.004,0.26624 -0.0482,0.47257 -0.14876,0.61625 -0.0698,0.0967 -0.16019,0.14476 -0.26559,0.147 -0.097,-5e-4 -0.17593,-0.03 -0.23937,-0.0969 -0.0662,-0.0613 -0.10051,-0.13778 -0.10149,-0.22514 0.002,-0.0513 0.0284,-0.12464 0.076,-0.21868 0.0322,-0.0568 0.0464,-0.11207 0.0425,-0.16617 0.001,-0.20798 -0.0588,-0.41904 -0.17833,-0.6429 -0.11812,-0.21968 -0.30017,-0.40919 -0.54615,-0.56852 -0.16998,-0.11042 -0.3817,-0.19331 -0.63242,-0.24036 z m -1.00439,0.10302 c -0.2541,0.0694 -0.42652,0.1628 -0.51861,0.27603 -0.0907,0.11739 -0.13455,0.27939 -0.13289,0.4957 3e-4,0.21215 0.0577,0.37328 0.16942,0.48894 0.11172,0.11566 0.26811,0.17054 0.45669,0.16874 0.22185,10e-4 0.40246,-0.0672 0.54735,-0.20239 0.14626,-0.13098 0.21774,-0.27897 0.21442,-0.44399 -0.002,-0.13312 -0.0651,-0.26933 -0.1975,-0.41975 -0.1268,-0.14763 -0.30921,-0.26781 -0.53888,-0.36328 z"
         inkscape:connector-curvature="0" />
      <path
         id="text3573"
         style="fill:#000000;stroke-width:0.43846181"
         d="m 292.49241,206.16259 c -0.12565,0.16574 -0.27328,0.29254 -0.43455,0.37767 -0.16265,0.081 -0.34175,0.12582 -0.54002,0.12618 -0.21632,0.002 -0.41711,-0.0479 -0.5996,-0.15422 -0.18247,-0.10629 -0.3286,-0.27068 -0.43558,-0.49863 -0.10695,-0.22795 -0.16252,-0.48196 -0.16526,-0.75791 6e-5,-0.28147 0.0471,-0.53219 0.15365,-0.75627 0.10236,-0.22271 0.24603,-0.38974 0.42822,-0.49557 0.18498,-0.11135 0.38491,-0.16302 0.59985,-0.16884 0.19412,9.9e-4 0.37415,0.0435 0.53875,0.1234 0.16595,0.084 0.31229,0.20682 0.44038,0.37248 0.13664,-0.14628 0.28003,-0.25785 0.43018,-0.33472 0.1515,-0.0727 0.30977,-0.11072 0.48031,-0.11123 0.3314,-0.002 0.6164,0.12103 0.86052,0.37326 0.23859,0.24941 0.36311,0.57313 0.36384,0.96968 0.007,0.39936 -0.11327,0.72459 -0.35307,0.97848 -0.23425,0.2567 -0.52054,0.38278 -0.85194,0.38524 -0.16918,0.004 -0.33399,-0.0336 -0.48614,-0.10367 -0.15216,-0.0702 -0.29441,-0.18039 -0.42954,-0.32528 z m 0.89691,-0.23387 c 0.16086,-0.002 0.29706,-0.065 0.40862,-0.18925 0.11437,-0.12974 0.16932,-0.3 0.16903,-0.51215 -0.005,-0.21495 -0.0618,-0.38578 -0.17625,-0.50977 -0.11445,-0.12399 -0.25,-0.1857 -0.41086,-0.18376 -0.16085,0.002 -0.29706,0.065 -0.41279,0.19061 -0.11156,0.12421 -0.16515,0.29864 -0.16486,0.51079 0.002,0.21631 0.0605,0.38161 0.17488,0.50561 0.11165,0.12953 0.25138,0.18986 0.41223,0.18792 z m -1.90837,0.09 c 0.17056,-5.1e-4 0.32623,-0.0745 0.46287,-0.22085 0.13943,-0.15181 0.20416,-0.3345 0.2025,-0.55081 -0.002,-0.21631 -0.0701,-0.39692 -0.21073,-0.54461 -0.1393,-0.14354 -0.297,-0.21645 -0.47172,-0.21458 -0.13448,-0.002 -0.25129,0.0638 -0.35179,0.1937 -0.0977,0.12429 -0.14582,0.31538 -0.14438,0.57329 0.003,0.26208 0.0517,0.45368 0.15232,0.57759 0.10193,0.12808 0.22228,0.18556 0.36093,0.18627 z"
         inkscape:connector-curvature="0" />
      <path
         id="text3585"
         style="fill:#000000;stroke-width:0.43846181"
         d="m 294.68941,221.92379 -3.5497,0.0233 0.003,0.65864 c 5.8e-4,0.15667 -0.0277,0.26746 -0.0891,0.3337 -0.0572,0.0648 -0.13779,0.10051 -0.23484,0.1 -0.0916,0.002 -0.17178,-0.0314 -0.22968,-0.0955 -0.0634,-0.0669 -0.0947,-0.17658 -0.0954,-0.33326 l -0.0148,-1.96067 c -5.8e-4,-0.15668 0.0277,-0.26746 0.089,-0.3337 0.06,-0.0704 0.13778,-0.10051 0.23348,-0.10422 0.097,4.9e-4 0.17313,0.0356 0.2352,0.0983 0.0593,0.0682 0.0906,0.17794 0.0912,0.33462 l 0.007,0.6531 2.70666,-0.0193 -0.15649,-0.57622 c -0.0259,-0.0931 -0.0394,-0.16243 -0.0405,-0.20819 4.3e-4,-0.0832 0.0326,-0.15374 0.0954,-0.21581 0.0682,-0.0593 0.14604,-0.0894 0.24174,-0.0931 0.0874,-9.4e-4 0.15518,0.023 0.20625,0.0662 0.0469,0.0446 0.0908,0.13634 0.13306,0.27938 z"
         inkscape:connector-curvature="0" />
      <path
         id="text3589"
         style="fill:#000000;stroke-width:0.43846181"
         d="m 292.97738,226.162 -0.71272,0.008 c -0.41876,0.003 -0.82717,-0.11657 -1.21555,-0.35844 -0.38701,-0.2377 -0.58487,-0.58814 -0.58532,-1.04016 -0.003,-0.26207 0.0538,-0.48362 0.16563,-0.6633 0.11603,-0.18104 0.3263,-0.35605 0.63218,-0.52087 0.31142,-0.16201 0.63492,-0.24493 0.98435,-0.24867 l 0.70856,-0.007 c 0.42429,-6e-4 0.82718,0.11656 1.21556,0.35844 0.38701,0.23771 0.58351,0.58397 0.58949,1.03879 10e-4,0.25791 -0.0551,0.47946 -0.16701,0.65914 -0.11048,0.18384 -0.32212,0.35469 -0.63218,0.52086 -0.30452,0.16899 -0.63355,0.2491 -0.98299,0.25285 z m -0.005,-0.64894 c 0.3536,-0.005 0.66194,-0.10618 0.925,-0.30305 0.1434,-0.11157 0.2163,-0.26926 0.21458,-0.47171 -0.004,-0.19692 -0.0856,-0.35956 -0.24571,-0.4824 -0.24448,-0.18289 -0.54765,-0.27736 -0.90678,-0.27504 l -0.70856,0.007 c -0.35497,9.5e-4 -0.66194,0.10618 -0.92365,0.30721 -0.14475,0.10739 -0.21767,0.26511 -0.21457,0.47172 -9.9e-4,0.19411 0.0828,0.35122 0.24299,0.47407 0.24584,0.18706 0.54764,0.27736 0.90677,0.27504 z"
         inkscape:connector-curvature="0" />
      <path
         id="text3597"
         style="fill:#000000;stroke-width:0.43846181"
         d="m 294.8345,241.1533 -3.55251,0.0288 0.007,0.6531 c 5.8e-4,0.15668 -0.0277,0.26746 -0.089,0.33369 -0.0613,0.0662 -0.13779,0.10051 -0.23347,0.10422 -0.097,-5e-4 -0.17314,-0.0356 -0.23522,-0.0982 -0.0592,-0.0682 -0.0906,-0.17795 -0.0912,-0.33464 l -0.0148,-1.96066 c -5.8e-4,-0.15669 0.0277,-0.26746 0.0849,-0.33234 0.0613,-0.0662 0.14196,-0.10192 0.23901,-0.10138 0.0915,-0.002 0.17177,0.0314 0.22968,0.0955 0.0634,0.0669 0.0906,0.17794 0.0954,0.33325 l 0.003,0.65864 2.7053,-0.0235 -0.15649,-0.57621 c -0.0259,-0.0931 -0.0394,-0.16244 -0.0363,-0.20956 -0.003,-0.0819 0.0285,-0.15238 0.0954,-0.21582 0.0641,-0.0579 0.14604,-0.0894 0.23757,-0.0917 0.0873,-9.4e-4 0.15517,0.023 0.20625,0.0662 0.0511,0.0432 0.0949,0.13498 0.13306,0.27938 z"
         inkscape:connector-curvature="0" />
      <path
         id="text3629"
         style="fill:#000000;stroke-width:0.43846181"
         d="m 291.30313,243.80979 0.008,1.41849 c 0.0634,0.0808 0.0962,0.15302 0.0959,0.22234 8.7e-4,0.10127 -0.03,0.17595 -0.0928,0.23802 -0.0682,0.0593 -0.17931,0.0864 -0.33599,0.087 l -0.312,0.005 -0.0194,-2.9604 0.68637,-0.003 c 0.97154,1.16278 1.59744,1.86205 1.8749,2.10335 0.14217,0.12414 0.27637,0.18167 0.40532,0.18095 0.15669,-5.8e-4 0.29569,-0.0692 0.41566,-0.21 0.11997,-0.14081 0.18053,-0.32214 0.17894,-0.55231 -0.003,-0.23436 -0.07,-0.42465 -0.20778,-0.57788 -0.073,-0.0822 -0.17674,-0.14512 -0.32071,-0.19022 -0.0886,-0.031 -0.15216,-0.0702 -0.18794,-0.12299 -0.0399,-0.0515 -0.0605,-0.11401 -0.0627,-0.19167 0.003,-0.0887 0.0342,-0.16343 0.0955,-0.22967 0.0628,-0.0621 0.13499,-0.0949 0.22235,-0.0959 0.12342,-0.003 0.28535,0.0541 0.47609,0.17161 0.18937,0.11328 0.3424,0.28461 0.45771,0.50983 0.11395,0.22105 0.17509,0.46402 0.17927,0.73026 6.6e-4,0.41042 -0.12031,0.74534 -0.36571,1.0103 -0.24676,0.26079 -0.54417,0.39514 -0.89914,0.39609 -0.17888,0.003 -0.34785,-0.0337 -0.50138,-0.10793 -0.15216,-0.0701 -0.36337,-0.25006 -0.63644,-0.53433 -0.21517,-0.22017 -0.60119,-0.65199 -1.15388,-1.29682 z"
         inkscape:connector-curvature="0" />
      <path
         id="text3605"
         style="fill:#000000;stroke-width:0.43846181"
         d="m 294.98146,260.82513 -3.55387,0.0247 0.008,0.65727 c 5.8e-4,0.15669 -0.0277,0.26746 -0.089,0.33371 -0.0613,0.0662 -0.13779,0.1005 -0.23485,0.1 -0.0957,0.003 -0.17177,-0.0314 -0.23521,-0.0983 -0.058,-0.0641 -0.0893,-0.17377 -0.0898,-0.33046 l -0.0148,-1.96066 c -0.004,-0.15533 0.0277,-0.26747 0.0849,-0.33234 0.06,-0.0704 0.13778,-0.10051 0.23765,-0.10553 0.0929,0.002 0.17313,0.0356 0.23103,0.0996 0.0634,0.0669 0.0906,0.17795 0.0954,0.33326 l 0.002,0.65448 2.70666,-0.0193 -0.15649,-0.57622 c -0.0259,-0.0931 -0.0394,-0.16243 -0.0363,-0.20956 -0.003,-0.0818 0.0285,-0.15237 0.0954,-0.21581 0.0641,-0.058 0.14605,-0.0894 0.23758,-0.0917 0.0874,-9.4e-4 0.15518,0.023 0.20626,0.0662 0.0511,0.0432 0.0949,0.13499 0.13168,0.27522 z"
         inkscape:connector-curvature="0" />
      <path
         id="text3637"
         style="fill:#000000;stroke-width:0.43846181"
         d="m 294.9558,264.73231 -2.5361,0.0189 c -0.002,0.13449 -0.0289,0.23557 -0.0902,0.30181 -0.0613,0.0662 -0.13779,0.10051 -0.22932,0.1028 -0.097,-4.9e-4 -0.1773,-0.0342 -0.2352,-0.0982 -0.0634,-0.0669 -0.0961,-0.16688 -0.0942,-0.30136 l -0.26207,0.003 c 0.002,0.13312 -0.0289,0.23556 -0.0903,0.3018 -0.0572,0.0648 -0.13778,0.10051 -0.23067,0.0987 -0.0957,0.003 -0.17594,-0.03 -0.23522,-0.0983 -0.0579,-0.0641 -0.0893,-0.17379 -0.0898,-0.33046 l -0.008,-0.86941 c -5.8e-4,-0.15669 0.0263,-0.27164 0.0877,-0.33788 0.0572,-0.0649 0.13779,-0.1005 0.23484,-0.1 0.097,4.9e-4 0.17177,0.0314 0.23521,0.0982 0.058,0.0641 0.0906,0.17794 0.0912,0.33462 l 9e-5,0.25374 0.26207,-0.003 -0.0145,-1.76239 0.54219,-0.007 2.65706,1.53334 z m -2.54108,-0.63009 1.59184,-0.014 -1.60085,-0.92891 z"
         inkscape:connector-curvature="0" />
      <path
         id="text3613"
         style="fill:#000000;stroke-width:0.43846181"
         d="m 295.12238,280.05601 -3.54971,0.0233 0.003,0.65863 c 5.9e-4,0.15669 -0.0277,0.26746 -0.089,0.3337 -0.0572,0.0648 -0.1378,0.10051 -0.23484,0.1 -0.0916,0.002 -0.17178,-0.0314 -0.23105,-0.0996 -0.0621,-0.0627 -0.0934,-0.17241 -0.094,-0.3291 l -0.0148,-1.96066 c -5.8e-4,-0.15669 0.0277,-0.26746 0.089,-0.3337 0.06,-0.0704 0.13778,-0.10051 0.23347,-0.10422 0.097,4.9e-4 0.17314,0.0356 0.23521,0.0982 0.0593,0.0682 0.0906,0.17794 0.0912,0.33462 l 0.007,0.65309 2.70666,-0.0193 -0.15649,-0.57622 c -0.0259,-0.093 -0.0394,-0.16244 -0.0405,-0.20819 4.3e-4,-0.0832 0.0327,-0.15374 0.0954,-0.21582 0.0682,-0.0593 0.14604,-0.0894 0.24174,-0.0931 0.0874,-9.4e-4 0.15517,0.023 0.20208,0.0675 0.0511,0.0432 0.0949,0.13499 0.13587,0.27385 z"
         inkscape:connector-curvature="0" />
      <path
         id="text3645"
         style="fill:#000000;stroke-width:0.43846181"
         d="m 293.19971,282.11624 c 0.13371,0.1546 0.22861,0.30344 0.29305,0.44382 0.0602,0.14174 0.0915,0.29303 0.092,0.44972 10e-4,0.34109 -0.13223,0.63852 -0.3984,0.89643 -0.27032,0.25928 -0.60653,0.38789 -1.01559,0.39272 -0.37717,0.003 -0.68299,-0.11305 -0.91748,-0.34997 -0.2345,-0.23693 -0.35348,-0.55783 -0.35694,-0.96272 -10e-4,-0.3411 0.0726,-0.62358 0.23173,-0.84184 0.15782,-0.22242 0.39855,-0.38895 0.72635,-0.50097 0.33061,-0.11754 0.69419,-0.17668 1.10045,-0.17597 0.48671,-0.008 0.89105,0.10029 1.21296,0.32238 0.32474,0.21658 0.57575,0.47577 0.75723,0.7762 0.17595,0.29763 0.27,0.61287 0.27245,0.94427 10e-6,0.2676 -0.0482,0.47256 -0.15292,0.61761 -0.0657,0.0954 -0.15603,0.14339 -0.26143,0.14563 -0.097,-5e-4 -0.17593,-0.03 -0.24354,-0.0956 -0.0621,-0.0627 -0.0964,-0.13915 -0.0972,-0.2265 0.002,-0.0513 0.0242,-0.12328 0.0759,-0.21868 0.0281,-0.0553 0.0421,-0.11072 0.0424,-0.16617 -0.003,-0.20662 -0.063,-0.41768 -0.18249,-0.64154 -0.11812,-0.21968 -0.30017,-0.40918 -0.54199,-0.56989 -0.16998,-0.11041 -0.38033,-0.18914 -0.63659,-0.23899 z m -1.00022,0.1016 c -0.2541,0.0694 -0.42652,0.1628 -0.51861,0.27603 -0.0907,0.11738 -0.13872,0.28075 -0.13289,0.4957 2.9e-4,0.21214 0.059,0.37744 0.16942,0.48894 0.11172,0.11565 0.26395,0.1719 0.45669,0.16873 0.22185,10e-4 0.40245,-0.0672 0.54735,-0.20239 0.14209,-0.12961 0.21357,-0.2776 0.21442,-0.44399 -0.002,-0.13311 -0.0652,-0.26931 -0.1975,-0.41975 -0.13097,-0.14626 -0.30921,-0.26781 -0.53888,-0.36327 z"
         inkscape:connector-curvature="0" />
      <path
         id="text3621"
         style="fill:#000000;stroke-width:0.43846181"
         d="m 295.26689,299.66404 -3.54833,0.0275 0.002,0.65446 c 0.004,0.15532 -0.0277,0.26747 -0.0849,0.33234 -0.06,0.0704 -0.14196,0.10182 -0.23765,0.10553 -0.0929,-0.002 -0.17313,-0.0356 -0.23105,-0.0996 -0.0634,-0.0669 -0.0906,-0.17794 -0.0954,-0.33326 l -0.0148,-1.96067 c -5.7e-4,-0.15668 0.0277,-0.26746 0.089,-0.3337 0.0613,-0.0662 0.13779,-0.10051 0.23485,-0.1 0.0957,-0.003 0.17176,0.0314 0.23384,0.0941 0.0592,0.0682 0.0906,0.17794 0.0912,0.33463 l 0.008,0.65727 2.70529,-0.0236 -0.15649,-0.57623 c -0.0259,-0.093 -0.0394,-0.16243 -0.0405,-0.2082 4.2e-4,-0.0831 0.0326,-0.15374 0.0954,-0.21581 0.0682,-0.0593 0.14604,-0.0894 0.2431,-0.0888 0.0873,-9.4e-4 0.15382,0.0188 0.2049,0.0621 0.0469,0.0446 0.0908,0.13636 0.13305,0.27939 z"
         inkscape:connector-curvature="0" />
      <path
         id="text3653"
         style="fill:#000000;stroke-width:0.43846181"
         d="m 293.21742,303.46375 c -0.12844,0.17127 -0.2719,0.29671 -0.43455,0.37769 -0.16543,0.0865 -0.34454,0.13133 -0.53864,0.13033 -0.22048,0.003 -0.41848,-0.0521 -0.60375,-0.15286 -0.18249,-0.10629 -0.32582,-0.27621 -0.43559,-0.49863 -0.10695,-0.22794 -0.16252,-0.48196 -0.16109,-0.75927 -0.004,-0.28011 0.0471,-0.5322 0.14947,-0.7549 0.10651,-0.22408 0.2502,-0.39111 0.43102,-0.50111 0.18218,-0.10585 0.38075,-0.16165 0.59705,-0.16331 0.19829,-3.7e-4 0.37695,0.038 0.54291,0.12204 0.16043,0.0813 0.3123,0.20682 0.44039,0.37247 0.13111,-0.14907 0.27587,-0.25648 0.42601,-0.33335 0.15151,-0.0727 0.31394,-0.11209 0.48312,-0.11676 0.32723,-10e-4 0.61776,0.1252 0.85635,0.37462 0.24412,0.25222 0.36447,0.5773 0.36937,0.97248 7.3e-4,0.39657 -0.11744,0.72596 -0.35307,0.97849 -0.23978,0.25389 -0.52471,0.38414 -0.85611,0.3866 -0.17054,5.1e-4 -0.32982,-0.035 -0.48197,-0.10509 -0.15352,-0.0743 -0.29441,-0.18039 -0.43092,-0.32945 z m 0.89829,-0.2297 c 0.16085,-0.002 0.29706,-0.065 0.40726,-0.19341 0.11156,-0.12422 0.16652,-0.29448 0.16622,-0.50663 -0.002,-0.21631 -0.0576,-0.38714 -0.17208,-0.51113 -0.11445,-0.12399 -0.25,-0.18571 -0.41222,-0.18792 -0.16503,0.003 -0.30123,0.0663 -0.41143,0.19477 -0.11156,0.12421 -0.16652,0.29447 -0.16486,0.51079 3e-4,0.21214 0.0563,0.38298 0.17072,0.50697 0.11444,0.124 0.25554,0.1885 0.41639,0.18656 z m -1.90837,0.09 c 0.17056,-5.1e-4 0.32487,-0.0788 0.46151,-0.22502 0.13662,-0.14628 0.20552,-0.33033 0.20386,-0.54664 -0.002,-0.21631 -0.0714,-0.40109 -0.21073,-0.54461 -0.14068,-0.14771 -0.297,-0.21645 -0.47172,-0.21458 -0.13864,-7.1e-4 -0.25129,0.0638 -0.35316,0.18953 -0.1005,0.12982 -0.14862,0.32092 -0.14718,0.57882 0.001,0.25791 0.0559,0.45231 0.15649,0.57623 0.10062,0.12392 0.22229,0.18556 0.36093,0.18627 z"
         inkscape:connector-curvature="0" />
      <path
         id="path3733"
         sodipodi:nodetypes="cc"
         style="fill:#ffd3a3;stroke:url(#linearGradient2576);stroke-width:1.21673155;stroke-miterlimit:0"
         d="m 268.56066,125.55401 0.95514,186.7685"
         inkscape:connector-curvature="0" />
      <path
         id="path3798"
         style="opacity:0.43902001;fill:#fff3de;stroke-width:0.43846181"
         d="m 272.69793,313.13478 c -0.52472,0.11653 -1.04311,0.0834 -1.56396,-0.0136 -0.45562,-0.10912 -0.85786,-0.35105 -1.17642,-0.68962 -0.25935,-0.25646 -0.38113,-0.57184 -0.47504,-0.9148 -0.0861,-0.24864 -0.13881,-0.50819 -0.18185,-0.76631 l 0.27091,-1.9897 c 0.0334,0.25668 0.0722,0.51616 0.15276,0.762 0.10509,0.32083 0.12969,0.66344 0.39328,0.90467 0.25196,0.34655 0.63071,0.57312 1.04056,0.68338 0.49865,0.0996 0.9935,0.13129 1.49048,0.0146 z"
         inkscape:connector-curvature="0" />
      <path
         id="path3808"
         style="opacity:0.43902001;fill:#fff3de;stroke-width:0.43846181"
         d="m 299.98695,127.97858 c -0.32439,-0.38741 -0.67762,-0.75154 -1.03686,-1.10446 -0.27132,-0.24793 -0.60953,-0.34936 -0.97041,-0.33263 -0.24698,0.0348 -0.12622,0.009 -0.36645,0.0786 l -0.0694,-2.00739 c 0.27629,-0.072 0.13875,-0.0455 0.41264,-0.0798 0.40966,-0.0143 0.80519,0.0776 1.13178,0.33514 0.37674,0.34719 0.72073,0.72818 1.06388,1.10945 z"
         inkscape:connector-curvature="0" />
      <path
         id="path3812"
         style="opacity:0.43902001;fill:#fff3de;stroke-width:0.43846181"
         d="m 301.24967,311.02438 c -0.12872,0.49434 -0.33352,0.95362 -0.57431,1.40163 -0.17119,0.39289 -0.41126,0.70225 -0.75229,0.95701 -0.3283,0.20907 -0.68678,0.3542 -1.0426,0.52152 -0.35158,0.15211 -0.73168,0.18897 -1.10619,0.21477 -0.32048,0.0358 -0.61811,-0.0559 -0.91568,-0.16139 l 0.0575,-2.00744 c 0.26846,0.10116 0.53558,0.19827 0.82832,0.16233 0.35511,-0.0287 0.70885,-0.0616 1.03686,-0.21512 0.33915,-0.16187 0.69067,-0.30011 0.99685,-0.52038 0.30494,-0.25218 0.49251,-0.59507 0.66347,-0.94637 0.22277,-0.44672 0.41923,-0.90327 0.51189,-1.39502 z"
         inkscape:connector-curvature="0" />
      <path
         id="path3814"
         style="opacity:0.43902001;fill:#fff3de;stroke-width:0.43846181"
         d="m 301.34431,312.03151 c -0.34495,0.48213 -0.76873,0.92087 -1.27914,1.2219 -0.25165,0.1332 -0.51667,0.16928 -0.79548,0.19141 l -0.0299,-2.0065 c 0.24554,-0.0251 0.48282,-0.0613 0.69978,-0.18774 0.47859,-0.31367 0.87319,-0.74286 1.19315,-1.2168 z"
         inkscape:connector-curvature="0" />
      <path
         id="path3816"
         style="opacity:0.43902001;fill:#fff3de;stroke-width:0.43846181"
         d="m 301.79083,312.83107 c -0.18978,0.50512 -0.49976,0.92504 -0.94221,1.22226 -0.38642,0.18658 -0.81667,0.26756 -1.23449,0.35831 -0.2748,0.0485 -0.1388,0.027 -0.41352,0.0617 l -0.0396,-2.00793 c 0.26502,-0.0361 0.1332,-0.0159 0.39549,-0.0604 0.39145,-0.0867 0.80223,-0.1567 1.15266,-0.35457 0.40373,-0.31683 0.65136,-0.744 0.84236,-1.21721 z"
         inkscape:connector-curvature="0" />
      <path
         id="path3818"
         style="opacity:0.43902001;fill:#fff3de;stroke-width:0.43846181"
         d="m 270.50124,314.55578 c -0.47887,0.10149 -0.93614,0.0438 -1.38451,-0.12776 -0.40957,-0.16572 -0.64234,-0.4678 -0.77892,-0.8706 -0.0689,-0.35116 -0.17115,-0.69138 -0.23036,-1.04111 -0.0109,-0.061 -0.0173,-0.12349 -0.024,-0.18592 l 0.27644,-1.9869 c 0.007,0.0624 0.0119,0.1207 0.0185,0.18313 0.0411,0.351 0.14622,0.68571 0.2096,1.03406 0.0743,0.38168 0.21411,0.69577 0.59041,0.85854 0.41646,0.1727 0.82797,0.23166 1.27359,0.12719 z"
         inkscape:connector-curvature="0" />
      <g
         id="g3822"
         style="fill:url(#linearGradient2579)"
         transform="matrix(0.01809331,2.4334163,-2.4334163,0.01809331,1289.7597,-652.43044)">
        <path
           id="path3806"
           style="opacity:0.43902001;fill:url(#linearGradient975)"
           d="m 317.06,420.71 c 0.03,0.21 0.06,0.41 0.05,0.62 -0.02,0.12 -0.03,0.2 0.02,0.32 0.07,0.1 0.14,0.17 0.26,0.22 0.14,0.08 0.3,0.1 0.46,0.12 0.17,0.01 0.34,0.01 0.51,0.01 -1.32,0.04 -0.77,0.03 -0.47,-0.05 l 0.81,0.11 c -0.4,0.13 -0.63,0.12 -1.16,0.07 -0.17,0 -0.34,0 -0.5,-0.02 -0.17,-0.03 -0.32,-0.07 -0.47,-0.15 -0.11,-0.07 -0.2,-0.16 -0.26,-0.28 -0.05,-0.12 -0.05,-0.23 -0.02,-0.36 0.01,-0.2 -0.03,-0.4 -0.06,-0.6 z"
           inkscape:connector-curvature="0" />
        <path
           id="path3820"
           style="opacity:0.43902001;fill:url(#linearGradient977)"
           d="m 316.72,420.47 v 0.68 0.57 c -0.01,0.09 -0.01,0.17 0.08,0.22 l -0.83,0.07 c -0.06,-0.09 -0.09,-0.18 -0.08,-0.29 v -0.57 -0.68 z"
           inkscape:connector-curvature="0" />
      </g>
    </g>
  </g>
  <metadata
     id="metadata972">
    <rdf:RDF>
      <cc:Work>
        <dc:format>image/svg+xml</dc:format>
        <dc:type
           rdf:resource="http://purl.org/dc/dcmitype/StillImage" />
        <cc:license
           rdf:resource="http://creativecommons.org/publicdomain/zero/1.0/" />
        <dc:publisher>
          <cc:Agent
             rdf:about="http://openclipart.org/">
            <dc:title>Openclipart</dc:title>
          </cc:Agent>
        </dc:publisher>
        <dc:title>Ruler</dc:title>
        <dc:date>2008-02-11T21:03:25</dc:date>
        <dc:description>Cleaned vectors of the sarxos clipart</dc:description>
        <dc:source>https://openclipart.org/detail/13662/ruler-by-molumen</dc:source>
        <dc:creator>
          <cc:Agent>
            <dc:title>molumen</dc:title>
          </cc:Agent>
        </dc:creator>
        <dc:subject>
          <rdf:Bag>
            <rdf:li>centimeters</rdf:li>
            <rdf:li>geometry</rdf:li>
            <rdf:li>mesure</rdf:li>
            <rdf:li>millimeters</rdf:li>
            <rdf:li>remix</rdf:li>
            <rdf:li>ruler</rdf:li>
            <rdf:li>tool</rdf:li>
          </rdf:Bag>
        </dc:subject>
      </cc:Work>
      <cc:License
         rdf:about="http://creativecommons.org/publicdomain/zero/1.0/">
        <cc:permits
           rdf:resource="http://creativecommons.org/ns#Reproduction" />
        <cc:permits
           rdf:resource="http://creativecommons.org/ns#Distribution" />
        <cc:permits
           rdf:resource="http://creativecommons.org/ns#DerivativeWorks" />
      </cc:License>
    </rdf:RDF>
  </metadata>
</svg>
