<?xml version="1.0" encoding="UTF-8" standalone="no"?>
<!DOCTYPE svg PUBLIC "-//W3C//DTD SVG 1.0//EN" "http://www.w3.org/TR/2001/REC-SVG-20010904/DTD/svg10.dtd">

<svg xmlns="http://www.w3.org/2000/svg" xmlns:xlink="http://www.w3.org/1999/xlink" width="25.15cm" height="17.64cm" viewBox="0 0 713 500">
<title></title>
<desc>Picture generated by wxSVG v0101</desc>

<g style="fill:black; stroke:black; stroke-width:1">
</g>
<g style="stroke-width:1; stroke-linecap:round; stroke-linejoin:round; fill:#000000; fill-opacity:0.0; stroke:#000000; stroke-opacity:0.0;" transform="translate(0 0) scale(1.00 1.00)">
  <rect x="0" y="0" width="713" height="500" rx="0.00" shape-rendering="auto"  />
</g>
<g style="stroke-width:1; stroke-linecap:round; stroke-linejoin:round; fill:#FFFFFF; fill-opacity:1.00; stroke:#000000; stroke-opacity:1.00;" transform="translate(0 0) scale(1.00 1.00)">
</g>
<g style="stroke-width:1; stroke-linecap:round; stroke-linejoin:round; fill:#FFFFFF; fill-opacity:1.00; stroke:#000000; stroke-opacity:1.00;" transform="translate(0 0) scale(1.00 1.00)">
  <rect x="0" y="0" width="713" height="500" rx="0.00" shape-rendering="auto"  />
</g>
<g style="stroke-width:1; stroke-linecap:round; stroke-linejoin:round; fill:#003F5C; fill-opacity:1.00; stroke:#000000; stroke-opacity:0.0;" transform="translate(0 0) scale(1.00 1.00)">
  <path d="M481.00 243.00 A206.00 206.00 0 0 0 139.07 88.21 L275.00 243.00 z" shape-rendering="auto" />
</g>
<g style="stroke-width:1; stroke-linecap:round; stroke-linejoin:round; fill:#000000; fill-opacity:0.0; stroke:#000000; stroke-opacity:0.0;" transform="translate(0 0) scale(1.00 1.00)">
  <path d="M481.00 243.00 A206.00 206.00 0 0 0 139.07 88.21" shape-rendering="auto" />
</g>
<g style="stroke-width:1; stroke-linecap:round; stroke-linejoin:round; fill:#003F5C; fill-opacity:1.00; stroke:#000000; stroke-opacity:0.0;" transform="translate(0 0) scale(1.00 1.00)">
  <path d="M275 243 L481 243" shape-rendering="auto" />
  <path d="M275 243 L139 88" shape-rendering="auto" />
</g>
<g style="stroke-width:1; stroke-linecap:round; stroke-linejoin:round; fill:#2F4B7C; fill-opacity:1.00; stroke:#000000; stroke-opacity:0.0;" transform="translate(0 0) scale(1.00 1.00)">
  <path d="M139.07 88.21 A206.00 206.00 0 0 0 149.19 406.12 L275.00 243.00 z" shape-rendering="auto" />
</g>
<g style="stroke-width:1; stroke-linecap:round; stroke-linejoin:round; fill:#000000; fill-opacity:0.0; stroke:#000000; stroke-opacity:0.0;" transform="translate(0 0) scale(1.00 1.00)">
  <path d="M139.07 88.21 A206.00 206.00 0 0 0 149.19 406.12" shape-rendering="auto" />
</g>
<g style="stroke-width:1; stroke-linecap:round; stroke-linejoin:round; fill:#2F4B7C; fill-opacity:1.00; stroke:#000000; stroke-opacity:0.0;" transform="translate(0 0) scale(1.00 1.00)">
  <path d="M275 243 L139 88" shape-rendering="auto" />
  <path d="M275 243 L149 406" shape-rendering="auto" />
</g>
<g style="stroke-width:1; stroke-linecap:round; stroke-linejoin:round; fill:#665191; fill-opacity:1.00; stroke:#000000; stroke-opacity:0.0;" transform="translate(0 0) scale(1.00 1.00)">
  <path d="M149.19 406.12 A206.00 206.00 0 0 0 296.97 447.83 L275.00 243.00 z" shape-rendering="auto" />
</g>
<g style="stroke-width:1; stroke-linecap:round; stroke-linejoin:round; fill:#000000; fill-opacity:0.0; stroke:#000000; stroke-opacity:0.0;" transform="translate(0 0) scale(1.00 1.00)">
  <path d="M149.19 406.12 A206.00 206.00 0 0 0 296.97 447.83" shape-rendering="auto" />
</g>
<g style="stroke-width:1; stroke-linecap:round; stroke-linejoin:round; fill:#665191; fill-opacity:1.00; stroke:#000000; stroke-opacity:0.0;" transform="translate(0 0) scale(1.00 1.00)">
  <path d="M275 243 L149 406" shape-rendering="auto" />
  <path d="M275 243 L296 447" shape-rendering="auto" />
</g>
<g style="stroke-width:1; stroke-linecap:round; stroke-linejoin:round; fill:#A05195; fill-opacity:1.00; stroke:#000000; stroke-opacity:0.0;" transform="translate(0 0) scale(1.00 1.00)">
  <path d="M296.97 447.83 A206.00 206.00 0 0 0 481.00 243.00 L275.00 243.00 z" shape-rendering="auto" />
</g>
<g style="stroke-width:1; stroke-linecap:round; stroke-linejoin:round; fill:#000000; fill-opacity:0.0; stroke:#000000; stroke-opacity:0.0;" transform="translate(0 0) scale(1.00 1.00)">
  <path d="M296.97 447.83 A206.00 206.00 0 0 0 481.00 243.00" shape-rendering="auto" />
</g>
<g style="stroke-width:1; stroke-linecap:round; stroke-linejoin:round; fill:#A05195; fill-opacity:1.00; stroke:#000000; stroke-opacity:0.0;" transform="translate(0 0) scale(1.00 1.00)">
  <path d="M275 243 L296 447" shape-rendering="auto" />
  <path d="M275 243 L481 243" shape-rendering="auto" />
</g>
<g style="stroke-width:1; stroke-linecap:round; stroke-linejoin:round; fill:#000000; fill-opacity:1.00; stroke:#000000; stroke-opacity:1.00;" transform="translate(0 0) scale(1.00 1.00)">
  <text x="348.00" y="68.00" textLength="15" style="font-family:Segoe UI; font-weight:400; font-style:normal; font-size:6.11pt; text-decoration: none; fill:#FFFFFF; fill-opacity:1.00; stroke:#FFFFFF; stroke-opacity:1.00; stroke-width:0; white-space: pre;" xml:space="preserve" transform="rotate(0.00 348.00 68.00)">36%</text>
</g>
<g style="stroke-width:1; stroke-linecap:round; stroke-linejoin:round; fill:#000000; fill-opacity:1.00; stroke:#000000; stroke-opacity:1.00;" transform="translate(0 0) scale(1.00 1.00)">
  <text x="72.00" y="252.00" textLength="15" style="font-family:Segoe UI; font-weight:400; font-style:normal; font-size:6.11pt; text-decoration: none; fill:#FFFFFF; fill-opacity:1.00; stroke:#FFFFFF; stroke-opacity:1.00; stroke-width:0; white-space: pre;" xml:space="preserve" transform="rotate(0.00 72.00 252.00)">28%</text>
</g>
<g style="stroke-width:1; stroke-linecap:round; stroke-linejoin:round; fill:#000000; fill-opacity:1.00; stroke:#000000; stroke-opacity:1.00;" transform="translate(0 0) scale(1.00 1.00)">
  <text x="214.00" y="434.00" textLength="15" style="font-family:Segoe UI; font-weight:400; font-style:normal; font-size:6.11pt; text-decoration: none; fill:#FFFFFF; fill-opacity:1.00; stroke:#FFFFFF; stroke-opacity:1.00; stroke-width:0; white-space: pre;" xml:space="preserve" transform="rotate(0.00 214.00 434.00)">12%</text>
</g>
<g style="stroke-width:1; stroke-linecap:round; stroke-linejoin:round; fill:#000000; fill-opacity:1.00; stroke:#000000; stroke-opacity:1.00;" transform="translate(0 0) scale(1.00 1.00)">
  <text x="412.00" y="377.00" textLength="15" style="font-family:Segoe UI; font-weight:400; font-style:normal; font-size:6.11pt; text-decoration: none; fill:#FFFFFF; fill-opacity:1.00; stroke:#FFFFFF; stroke-opacity:1.00; stroke-width:0; white-space: pre;" xml:space="preserve" transform="rotate(0.00 412.00 377.00)">23%</text>
</g>
<g style="stroke-width:1; stroke-linecap:round; stroke-linejoin:round; fill:#19526C; fill-opacity:1.00; stroke:#000000; stroke-opacity:0.0;" transform="translate(0 0) scale(1.00 1.00)">
  <path d="M460.00 243.00 A185.00 185.00 0 0 0 414.29 121.25 L275.00 243.00 z" shape-rendering="auto" />
</g>
<g style="stroke-width:1; stroke-linecap:round; stroke-linejoin:round; fill:#000000; fill-opacity:0.0; stroke:#668B9D; stroke-opacity:1.00;" transform="translate(0 0) scale(1.00 1.00)">
  <path d="M460.00 243.00 A185.00 185.00 0 0 0 414.29 121.25" shape-rendering="auto" />
</g>
<g style="stroke-width:1; stroke-linecap:round; stroke-linejoin:round; fill:#19526C; fill-opacity:1.00; stroke:#668B9D; stroke-opacity:1.00;" transform="translate(0 0) scale(1.00 1.00)">
  <path d="M275 243 L460 243" shape-rendering="auto" />
  <path d="M275 243 L414 121" shape-rendering="auto" />
</g>
<g style="stroke-width:1; stroke-linecap:round; stroke-linejoin:round; fill:#30637A; fill-opacity:1.00; stroke:#000000; stroke-opacity:0.0;" transform="translate(0 0) scale(1.00 1.00)">
  <path d="M414.29 121.25 A185.00 185.00 0 0 0 345.12 71.80 L275.00 243.00 z" shape-rendering="auto" />
</g>
<g style="stroke-width:1; stroke-linecap:round; stroke-linejoin:round; fill:#000000; fill-opacity:0.0; stroke:#668B9D; stroke-opacity:1.00;" transform="translate(0 0) scale(1.00 1.00)">
  <path d="M414.29 121.25 A185.00 185.00 0 0 0 345.12 71.80" shape-rendering="auto" />
</g>
<g style="stroke-width:1; stroke-linecap:round; stroke-linejoin:round; fill:#30637A; fill-opacity:1.00; stroke:#668B9D; stroke-opacity:1.00;" transform="translate(0 0) scale(1.00 1.00)">
  <path d="M275 243 L414 121" shape-rendering="auto" />
  <path d="M275 243 L345 71" shape-rendering="auto" />
</g>
<g style="stroke-width:1; stroke-linecap:round; stroke-linejoin:round; fill:#447287; fill-opacity:1.00; stroke:#000000; stroke-opacity:0.0;" transform="translate(0 0) scale(1.00 1.00)">
  <path d="M345.12 71.80 A185.00 185.00 0 0 0 172.96 88.68 L275.00 243.00 z" shape-rendering="auto" />
</g>
<g style="stroke-width:1; stroke-linecap:round; stroke-linejoin:round; fill:#000000; fill-opacity:0.0; stroke:#668B9D; stroke-opacity:1.00;" transform="translate(0 0) scale(1.00 1.00)">
  <path d="M345.12 71.80 A185.00 185.00 0 0 0 172.96 88.68" shape-rendering="auto" />
</g>
<g style="stroke-width:1; stroke-linecap:round; stroke-linejoin:round; fill:#447287; fill-opacity:1.00; stroke:#668B9D; stroke-opacity:1.00;" transform="translate(0 0) scale(1.00 1.00)">
  <path d="M275 243 L345 71" shape-rendering="auto" />
  <path d="M275 243 L172 88" shape-rendering="auto" />
</g>
<g style="stroke-width:1; stroke-linecap:round; stroke-linejoin:round; fill:#568093; fill-opacity:1.00; stroke:#000000; stroke-opacity:0.0;" transform="translate(0 0) scale(1.00 1.00)">
  <path d="M172.96 88.68 A185.00 185.00 0 0 0 152.93 103.99 L275.00 243.00 z" shape-rendering="auto" />
</g>
<g style="stroke-width:1; stroke-linecap:round; stroke-linejoin:round; fill:#000000; fill-opacity:0.0; stroke:#668B9D; stroke-opacity:1.00;" transform="translate(0 0) scale(1.00 1.00)">
  <path d="M172.96 88.68 A185.00 185.00 0 0 0 152.93 103.99" shape-rendering="auto" />
</g>
<g style="stroke-width:1; stroke-linecap:round; stroke-linejoin:round; fill:#568093; fill-opacity:1.00; stroke:#668B9D; stroke-opacity:1.00;" transform="translate(0 0) scale(1.00 1.00)">
  <path d="M275 243 L172 88" shape-rendering="auto" />
  <path d="M275 243 L152 103" shape-rendering="auto" />
</g>
<g style="stroke-width:1; stroke-linecap:round; stroke-linejoin:round; fill:#586F96; fill-opacity:1.00; stroke:#000000; stroke-opacity:0.0;" transform="translate(0 0) scale(1.00 1.00)">
  <path d="M152.93 103.99 A185.00 185.00 0 0 0 131.91 125.74 L275.00 243.00 z" shape-rendering="auto" />
</g>
<g style="stroke-width:1; stroke-linecap:round; stroke-linejoin:round; fill:#000000; fill-opacity:0.0; stroke:#8293B0; stroke-opacity:1.00;" transform="translate(0 0) scale(1.00 1.00)">
  <path d="M152.93 103.99 A185.00 185.00 0 0 0 131.91 125.74" shape-rendering="auto" />
</g>
<g style="stroke-width:1; stroke-linecap:round; stroke-linejoin:round; fill:#586F96; fill-opacity:1.00; stroke:#8293B0; stroke-opacity:1.00;" transform="translate(0 0) scale(1.00 1.00)">
  <path d="M275 243 L152 103" shape-rendering="auto" />
  <path d="M275 243 L131 125" shape-rendering="auto" />
</g>
<g style="stroke-width:1; stroke-linecap:round; stroke-linejoin:round; fill:#687DA0; fill-opacity:1.00; stroke:#000000; stroke-opacity:0.0;" transform="translate(0 0) scale(1.00 1.00)">
  <path d="M131.91 125.74 A185.00 185.00 0 0 0 96.62 292.03 L275.00 243.00 z" shape-rendering="auto" />
</g>
<g style="stroke-width:1; stroke-linecap:round; stroke-linejoin:round; fill:#000000; fill-opacity:0.0; stroke:#8293B0; stroke-opacity:1.00;" transform="translate(0 0) scale(1.00 1.00)">
  <path d="M131.91 125.74 A185.00 185.00 0 0 0 96.62 292.03" shape-rendering="auto" />
</g>
<g style="stroke-width:1; stroke-linecap:round; stroke-linejoin:round; fill:#687DA0; fill-opacity:1.00; stroke:#8293B0; stroke-opacity:1.00;" transform="translate(0 0) scale(1.00 1.00)">
  <path d="M275 243 L131 125" shape-rendering="auto" />
  <path d="M275 243 L96 292" shape-rendering="auto" />
</g>
<g style="stroke-width:1; stroke-linecap:round; stroke-linejoin:round; fill:#778AA9; fill-opacity:1.00; stroke:#000000; stroke-opacity:0.0;" transform="translate(0 0) scale(1.00 1.00)">
  <path d="M96.62 292.03 A185.00 185.00 0 0 0 130.85 358.96 L275.00 243.00 z" shape-rendering="auto" />
</g>
<g style="stroke-width:1; stroke-linecap:round; stroke-linejoin:round; fill:#000000; fill-opacity:0.0; stroke:#8293B0; stroke-opacity:1.00;" transform="translate(0 0) scale(1.00 1.00)">
  <path d="M96.62 292.03 A185.00 185.00 0 0 0 130.85 358.96" shape-rendering="auto" />
</g>
<g style="stroke-width:1; stroke-linecap:round; stroke-linejoin:round; fill:#778AA9; fill-opacity:1.00; stroke:#8293B0; stroke-opacity:1.00;" transform="translate(0 0) scale(1.00 1.00)">
  <path d="M275 243 L96 292" shape-rendering="auto" />
  <path d="M275 243 L130 358" shape-rendering="auto" />
</g>
<g style="stroke-width:1; stroke-linecap:round; stroke-linejoin:round; fill:#6B7C98; fill-opacity:1.00; stroke:#000000; stroke-opacity:0.0;" transform="translate(0 0) scale(1.00 1.00)">
  <path d="M130.85 358.96 A185.00 185.00 0 0 0 156.77 385.29 L275.00 243.00 z" shape-rendering="auto" />
</g>
<g style="stroke-width:1; stroke-linecap:round; stroke-linejoin:round; fill:#000000; fill-opacity:0.0; stroke:#8293B0; stroke-opacity:1.00;" transform="translate(0 0) scale(1.00 1.00)">
  <path d="M130.85 358.96 A185.00 185.00 0 0 0 156.77 385.29" shape-rendering="auto" />
</g>
<g style="stroke-width:1; stroke-linecap:round; stroke-linejoin:round; fill:#6B7C98; fill-opacity:1.00; stroke:#8293B0; stroke-opacity:1.00;" transform="translate(0 0) scale(1.00 1.00)">
  <path d="M275 243 L130 358" shape-rendering="auto" />
  <path d="M275 243 L156 385" shape-rendering="auto" />
</g>
<g style="stroke-width:1; stroke-linecap:round; stroke-linejoin:round; fill:#7989A2; fill-opacity:1.00; stroke:#000000; stroke-opacity:0.0;" transform="translate(0 0) scale(1.00 1.00)">
  <path d="M156.77 385.29 A185.00 185.00 0 0 0 162.02 389.49 L275.00 243.00 z" shape-rendering="auto" />
</g>
<g style="stroke-width:1; stroke-linecap:round; stroke-linejoin:round; fill:#000000; fill-opacity:0.0; stroke:#8293B0; stroke-opacity:1.00;" transform="translate(0 0) scale(1.00 1.00)">
  <path d="M156.77 385.29 A185.00 185.00 0 0 0 162.02 389.49" shape-rendering="auto" />
</g>
<g style="stroke-width:1; stroke-linecap:round; stroke-linejoin:round; fill:#7989A2; fill-opacity:1.00; stroke:#8293B0; stroke-opacity:1.00;" transform="translate(0 0) scale(1.00 1.00)">
  <path d="M275 243 L156 385" shape-rendering="auto" />
  <path d="M275 243 L162 389" shape-rendering="auto" />
</g>
<g style="stroke-width:1; stroke-linecap:round; stroke-linejoin:round; fill:#FFFFFF; fill-opacity:1.00; stroke:#C4C3D0; stroke-opacity:0.78;" transform="translate(0 0) scale(1.00 1.00)">
  <path d="M159 387 L133 420" shape-rendering="auto" stroke-dasharray="3.333333,2.666667"/>
</g>
<g style="stroke-width:1; stroke-linecap:round; stroke-linejoin:round; fill:#C4C3D0; fill-opacity:0.78; stroke:#000000; stroke-opacity:0.0;" transform="translate(0 0) scale(1.00 1.00)">
  <polygon points="133 420 135 409 143 415 " shape-rendering="auto"   style="fill-rule:evenodd;"/>
</g>
<g style="stroke-width:1; stroke-linecap:round; stroke-linejoin:round; fill:#8473A7; fill-opacity:1.00; stroke:#000000; stroke-opacity:0.0;" transform="translate(0 0) scale(1.00 1.00)">
  <path d="M162.02 389.49 A185.00 185.00 0 0 0 232.90 423.15 L275.00 243.00 z" shape-rendering="auto" />
</g>
<g style="stroke-width:1; stroke-linecap:round; stroke-linejoin:round; fill:#000000; fill-opacity:0.0; stroke:#A396BD; stroke-opacity:1.00;" transform="translate(0 0) scale(1.00 1.00)">
  <path d="M162.02 389.49 A185.00 185.00 0 0 0 232.90 423.15" shape-rendering="auto" />
</g>
<g style="stroke-width:1; stroke-linecap:round; stroke-linejoin:round; fill:#8473A7; fill-opacity:1.00; stroke:#A396BD; stroke-opacity:1.00;" transform="translate(0 0) scale(1.00 1.00)">
  <path d="M275 243 L162 389" shape-rendering="auto" />
  <path d="M275 243 L232 423" shape-rendering="auto" />
</g>
<g style="stroke-width:1; stroke-linecap:round; stroke-linejoin:round; fill:#9081AF; fill-opacity:1.00; stroke:#000000; stroke-opacity:0.0;" transform="translate(0 0) scale(1.00 1.00)">
  <path d="M232.90 423.15 A185.00 185.00 0 0 0 294.73 426.95 L275.00 243.00 z" shape-rendering="auto" />
</g>
<g style="stroke-width:1; stroke-linecap:round; stroke-linejoin:round; fill:#000000; fill-opacity:0.0; stroke:#A396BD; stroke-opacity:1.00;" transform="translate(0 0) scale(1.00 1.00)">
  <path d="M232.90 423.15 A185.00 185.00 0 0 0 294.73 426.95" shape-rendering="auto" />
</g>
<g style="stroke-width:1; stroke-linecap:round; stroke-linejoin:round; fill:#9081AF; fill-opacity:1.00; stroke:#A396BD; stroke-opacity:1.00;" transform="translate(0 0) scale(1.00 1.00)">
  <path d="M275 243 L232 423" shape-rendering="auto" />
  <path d="M275 243 L294 426" shape-rendering="auto" />
</g>
<g style="stroke-width:1; stroke-linecap:round; stroke-linejoin:round; fill:#B373AA; fill-opacity:1.00; stroke:#000000; stroke-opacity:0.0;" transform="translate(0 0) scale(1.00 1.00)">
  <path d="M294.73 426.95 A185.00 185.00 0 0 0 376.33 397.78 L275.00 243.00 z" shape-rendering="auto" />
</g>
<g style="stroke-width:1; stroke-linecap:round; stroke-linejoin:round; fill:#000000; fill-opacity:0.0; stroke:#C696BF; stroke-opacity:1.00;" transform="translate(0 0) scale(1.00 1.00)">
  <path d="M294.73 426.95 A185.00 185.00 0 0 0 376.33 397.78" shape-rendering="auto" />
</g>
<g style="stroke-width:1; stroke-linecap:round; stroke-linejoin:round; fill:#B373AA; fill-opacity:1.00; stroke:#C696BF; stroke-opacity:1.00;" transform="translate(0 0) scale(1.00 1.00)">
  <path d="M275 243 L294 426" shape-rendering="auto" />
  <path d="M275 243 L376 397" shape-rendering="auto" />
</g>
<g style="stroke-width:1; stroke-linecap:round; stroke-linejoin:round; fill:#A16799; fill-opacity:1.00; stroke:#000000; stroke-opacity:0.0;" transform="translate(0 0) scale(1.00 1.00)">
  <path d="M376.33 397.78 A185.00 185.00 0 0 0 456.31 279.76 L275.00 243.00 z" shape-rendering="auto" />
</g>
<g style="stroke-width:1; stroke-linecap:round; stroke-linejoin:round; fill:#000000; fill-opacity:0.0; stroke:#C696BF; stroke-opacity:1.00;" transform="translate(0 0) scale(1.00 1.00)">
  <path d="M376.33 397.78 A185.00 185.00 0 0 0 456.31 279.76" shape-rendering="auto" />
</g>
<g style="stroke-width:1; stroke-linecap:round; stroke-linejoin:round; fill:#A16799; fill-opacity:1.00; stroke:#C696BF; stroke-opacity:1.00;" transform="translate(0 0) scale(1.00 1.00)">
  <path d="M275 243 L376 397" shape-rendering="auto" />
  <path d="M275 243 L456 279" shape-rendering="auto" />
</g>
<g style="stroke-width:1; stroke-linecap:round; stroke-linejoin:round; fill:#AA76A3; fill-opacity:1.00; stroke:#000000; stroke-opacity:0.0;" transform="translate(0 0) scale(1.00 1.00)">
  <path d="M456.31 279.76 A185.00 185.00 0 0 0 460.00 243.00 L275.00 243.00 z" shape-rendering="auto" />
</g>
<g style="stroke-width:1; stroke-linecap:round; stroke-linejoin:round; fill:#000000; fill-opacity:0.0; stroke:#C696BF; stroke-opacity:1.00;" transform="translate(0 0) scale(1.00 1.00)">
  <path d="M456.31 279.76 A185.00 185.00 0 0 0 460.00 243.00" shape-rendering="auto" />
</g>
<g style="stroke-width:1; stroke-linecap:round; stroke-linejoin:round; fill:#AA76A3; fill-opacity:1.00; stroke:#C696BF; stroke-opacity:1.00;" transform="translate(0 0) scale(1.00 1.00)">
  <path d="M275 243 L456 279" shape-rendering="auto" />
  <path d="M275 243 L460 243" shape-rendering="auto" />
</g>
<g style="stroke-width:1; stroke-linecap:round; stroke-linejoin:round; fill:#000000; fill-opacity:1.00; stroke:#000000; stroke-opacity:1.00;" transform="translate(0 0) scale(1.00 1.00)">
  <text x="52.00" y="434.00" textLength="76" style="font-family:Segoe UI; font-weight:700; font-style:normal; font-size:7.13pt; text-decoration: none; fill:#7989A2; fill-opacity:1.00; stroke:#7989A2; stroke-opacity:1.00; stroke-width:0; white-space: pre;" xml:space="preserve" transform="rotate(0.00 52.00 434.00)">Visual Basic.NET</text>
  <text x="8.00" y="448.00" textLength="120" style="font-family:Segoe UI; font-weight:400; font-style:normal; font-size:7.13pt; text-decoration: none; fill:#666666; fill-opacity:1.00; stroke:#666666; stroke-opacity:1.00; stroke-width:0; white-space: pre;" xml:space="preserve" transform="rotate(0.00 8.00 448.00)">Drop this from the catalog?</text>
</g>
<g style="stroke-width:1; stroke-linecap:round; stroke-linejoin:round; fill:#000000; fill-opacity:1.00; stroke:#000000; stroke-opacity:1.00;" transform="translate(0 0) scale(1.00 1.00)">
  <text x="430.00" y="185.00" textLength="15" style="font-family:Segoe UI; font-weight:400; font-style:normal; font-size:6.11pt; text-decoration: none; fill:#FFFFFF; fill-opacity:1.00; stroke:#FFFFFF; stroke-opacity:1.00; stroke-width:0; white-space: pre;" xml:space="preserve" transform="rotate(0.00 430.00 185.00)">11%</text>
</g>
<g style="stroke-width:1; stroke-linecap:round; stroke-linejoin:round; fill:#000000; fill-opacity:1.00; stroke:#000000; stroke-opacity:1.00;" transform="translate(0 0) scale(1.00 1.00)">
  <text x="370.00" y="104.00" textLength="11" style="font-family:Segoe UI; font-weight:400; font-style:normal; font-size:6.11pt; text-decoration: none; fill:#FFFFFF; fill-opacity:1.00; stroke:#FFFFFF; stroke-opacity:1.00; stroke-width:0; white-space: pre;" xml:space="preserve" transform="rotate(0.00 370.00 104.00)">7%</text>
</g>
<g style="stroke-width:1; stroke-linecap:round; stroke-linejoin:round; fill:#000000; fill-opacity:1.00; stroke:#000000; stroke-opacity:1.00;" transform="translate(0 0) scale(1.00 1.00)">
  <text x="250.00" y="72.00" textLength="15" style="font-family:Segoe UI; font-weight:400; font-style:normal; font-size:6.11pt; text-decoration: none; fill:#FFFFFF; fill-opacity:1.00; stroke:#FFFFFF; stroke-opacity:1.00; stroke-width:0; white-space: pre;" xml:space="preserve" transform="rotate(0.00 250.00 72.00)">15%</text>
</g>
<g style="stroke-width:1; stroke-linecap:round; stroke-linejoin:round; fill:#000000; fill-opacity:1.00; stroke:#000000; stroke-opacity:1.00;" transform="translate(0 0) scale(1.00 1.00)">
  <text x="163.00" y="107.00" textLength="11" style="font-family:Segoe UI; font-weight:400; font-style:normal; font-size:6.11pt; text-decoration: none; fill:#FFFFFF; fill-opacity:1.00; stroke:#FFFFFF; stroke-opacity:1.00; stroke-width:0; white-space: pre;" xml:space="preserve" transform="rotate(0.00 163.00 107.00)">2%</text>
</g>
<g style="stroke-width:1; stroke-linecap:round; stroke-linejoin:round; fill:#000000; fill-opacity:1.00; stroke:#000000; stroke-opacity:1.00;" transform="translate(0 0) scale(1.00 1.00)">
  <text x="144.00" y="125.00" textLength="11" style="font-family:Segoe UI; font-weight:400; font-style:normal; font-size:6.11pt; text-decoration: none; fill:#FFFFFF; fill-opacity:1.00; stroke:#FFFFFF; stroke-opacity:1.00; stroke-width:0; white-space: pre;" xml:space="preserve" transform="rotate(0.00 144.00 125.00)">3%</text>
</g>
<g style="stroke-width:1; stroke-linecap:round; stroke-linejoin:round; fill:#000000; fill-opacity:1.00; stroke:#000000; stroke-opacity:1.00;" transform="translate(0 0) scale(1.00 1.00)">
  <text x="96.00" y="210.00" textLength="15" style="font-family:Segoe UI; font-weight:400; font-style:normal; font-size:6.11pt; text-decoration: none; fill:#FFFFFF; fill-opacity:1.00; stroke:#FFFFFF; stroke-opacity:1.00; stroke-width:0; white-space: pre;" xml:space="preserve" transform="rotate(0.00 96.00 210.00)">15%</text>
</g>
<g style="stroke-width:1; stroke-linecap:round; stroke-linejoin:round; fill:#000000; fill-opacity:1.00; stroke:#000000; stroke-opacity:1.00;" transform="translate(0 0) scale(1.00 1.00)">
  <text x="114.00" y="325.00" textLength="11" style="font-family:Segoe UI; font-weight:400; font-style:normal; font-size:6.11pt; text-decoration: none; fill:#000000; fill-opacity:1.00; stroke:#000000; stroke-opacity:1.00; stroke-width:0; white-space: pre;" xml:space="preserve" transform="rotate(0.00 114.00 325.00)">7%</text>
</g>
<g style="stroke-width:1; stroke-linecap:round; stroke-linejoin:round; fill:#000000; fill-opacity:1.00; stroke:#000000; stroke-opacity:1.00;" transform="translate(0 0) scale(1.00 1.00)">
  <text x="145.00" y="368.00" textLength="11" style="font-family:Segoe UI; font-weight:400; font-style:normal; font-size:6.11pt; text-decoration: none; fill:#FFFFFF; fill-opacity:1.00; stroke:#FFFFFF; stroke-opacity:1.00; stroke-width:0; white-space: pre;" xml:space="preserve" transform="rotate(0.00 145.00 368.00)">3%</text>
</g>
<g style="stroke-width:1; stroke-linecap:round; stroke-linejoin:round; fill:#000000; fill-opacity:1.00; stroke:#000000; stroke-opacity:1.00;" transform="translate(0 0) scale(1.00 1.00)">
  <text x="194.00" y="404.00" textLength="11" style="font-family:Segoe UI; font-weight:400; font-style:normal; font-size:6.11pt; text-decoration: none; fill:#FFFFFF; fill-opacity:1.00; stroke:#FFFFFF; stroke-opacity:1.00; stroke-width:0; white-space: pre;" xml:space="preserve" transform="rotate(0.00 194.00 404.00)">7%</text>
</g>
<g style="stroke-width:1; stroke-linecap:round; stroke-linejoin:round; fill:#000000; fill-opacity:1.00; stroke:#000000; stroke-opacity:1.00;" transform="translate(0 0) scale(1.00 1.00)">
  <text x="258.00" y="420.00" textLength="11" style="font-family:Segoe UI; font-weight:400; font-style:normal; font-size:6.11pt; text-decoration: none; fill:#000000; fill-opacity:1.00; stroke:#000000; stroke-opacity:1.00; stroke-width:0; white-space: pre;" xml:space="preserve" transform="rotate(0.00 258.00 420.00)">5%</text>
</g>
<g style="stroke-width:1; stroke-linecap:round; stroke-linejoin:round; fill:#000000; fill-opacity:1.00; stroke:#000000; stroke-opacity:1.00;" transform="translate(0 0) scale(1.00 1.00)">
  <text x="328.00" y="410.00" textLength="11" style="font-family:Segoe UI; font-weight:400; font-style:normal; font-size:6.11pt; text-decoration: none; fill:#000000; fill-opacity:1.00; stroke:#000000; stroke-opacity:1.00; stroke-width:0; white-space: pre;" xml:space="preserve" transform="rotate(0.00 328.00 410.00)">8%</text>
</g>
<g style="stroke-width:1; stroke-linecap:round; stroke-linejoin:round; fill:#000000; fill-opacity:1.00; stroke:#000000; stroke-opacity:1.00;" transform="translate(0 0) scale(1.00 1.00)">
  <text x="411.00" y="344.00" textLength="15" style="font-family:Segoe UI; font-weight:400; font-style:normal; font-size:6.11pt; text-decoration: none; fill:#FFFFFF; fill-opacity:1.00; stroke:#FFFFFF; stroke-opacity:1.00; stroke-width:0; white-space: pre;" xml:space="preserve" transform="rotate(0.00 411.00 344.00)">13%</text>
</g>
<g style="stroke-width:1; stroke-linecap:round; stroke-linejoin:round; fill:#000000; fill-opacity:1.00; stroke:#000000; stroke-opacity:1.00;" transform="translate(0 0) scale(1.00 1.00)">
  <text x="443.00" y="263.00" textLength="11" style="font-family:Segoe UI; font-weight:400; font-style:normal; font-size:6.11pt; text-decoration: none; fill:#000000; fill-opacity:1.00; stroke:#000000; stroke-opacity:1.00; stroke-width:0; white-space: pre;" xml:space="preserve" transform="rotate(0.00 443.00 263.00)">3%</text>
</g>
<g style="stroke-width:1; stroke-linecap:round; stroke-linejoin:round; fill:#FFFFFF; fill-opacity:1.00; stroke:#000000; stroke-opacity:1.00;" transform="translate(0 0) scale(1.00 1.00)">
  <ellipse cx="275.00" cy="243.00" rx="164.00" ry="164.00" shape-rendering="auto" />
</g>
<g style="stroke-width:1; stroke-linecap:round; stroke-linejoin:round; fill:#000000; fill-opacity:1.00; stroke:#000000; stroke-opacity:1.00;" transform="translate(0 0) scale(1.00 1.00)">
  <text x="158.00" y="227.00" textLength="229" style="font-family:Segoe UI; font-weight:400; font-style:normal; font-size:36.20pt; text-decoration: none; fill:#000000; fill-opacity:1.00; stroke:#000000; stroke-opacity:1.00; stroke-width:0; white-space: pre;" xml:space="preserve" transform="rotate(0.00 158.00 227.00)">Enrollment</text>
  <text x="158.00" y="297.00" textLength="295" style="font-family:Segoe UI; font-weight:400; font-style:normal; font-size:36.20pt; text-decoration: none; fill:#000000; fill-opacity:1.00; stroke:#000000; stroke-opacity:1.00; stroke-width:0; white-space: pre;" xml:space="preserve" transform="rotate(0.00 158.00 297.00)">Fall          2023          </text>
</g>
<g style="stroke-width:1; stroke-linecap:round; stroke-linejoin:round; fill:#000000; fill-opacity:1.00; stroke:#000000; stroke-opacity:1.00;" transform="translate(0 0) scale(1.00 1.00)">
  <text x="555.00" y="15.00" textLength="44" style="font-family:Segoe UI; font-weight:400; font-style:normal; font-size:8.55pt; text-decoration: none; fill:#000000; fill-opacity:1.00; stroke:#000000; stroke-opacity:1.00; stroke-width:0; white-space: pre;" xml:space="preserve" transform="rotate(0.00 555.00 15.00)">Business</text>
  <text x="572.00" y="29.00" textLength="3" style="font-family:Segoe UI; font-weight:400; font-style:normal; font-size:8.55pt; text-decoration: none; fill:#000000; fill-opacity:1.00; stroke:#000000; stroke-opacity:1.00; stroke-width:0; white-space: pre;" xml:space="preserve" transform="rotate(0.00 572.00 29.00)"> </text>
  <text x="572.00" y="43.00" textLength="128" style="font-family:Segoe UI; font-weight:400; font-style:normal; font-size:8.55pt; text-decoration: none; fill:#000000; fill-opacity:1.00; stroke:#000000; stroke-opacity:1.00; stroke-width:0; white-space: pre;" xml:space="preserve" transform="rotate(0.00 572.00 43.00)">Business Communication</text>
  <text x="572.00" y="57.00" textLength="77" style="font-family:Segoe UI; font-weight:400; font-style:normal; font-size:8.55pt; text-decoration: none; fill:#000000; fill-opacity:1.00; stroke:#000000; stroke-opacity:1.00; stroke-width:0; white-space: pre;" xml:space="preserve" transform="rotate(0.00 572.00 57.00)">Business Ethics</text>
  <text x="572.00" y="71.00" textLength="136" style="font-family:Segoe UI; font-weight:400; font-style:normal; font-size:8.55pt; text-decoration: none; fill:#000000; fill-opacity:1.00; stroke:#000000; stroke-opacity:1.00; stroke-width:0; white-space: pre;" xml:space="preserve" transform="rotate(0.00 572.00 71.00)">Introduction to Economics</text>
  <text x="572.00" y="85.00" textLength="77" style="font-family:Segoe UI; font-weight:400; font-style:normal; font-size:8.55pt; text-decoration: none; fill:#000000; fill-opacity:1.00; stroke:#000000; stroke-opacity:1.00; stroke-width:0; white-space: pre;" xml:space="preserve" transform="rotate(0.00 572.00 85.00)">Report Writing</text>
  <text x="555.00" y="99.00" textLength="92" style="font-family:Segoe UI; font-weight:400; font-style:normal; font-size:8.55pt; text-decoration: none; fill:#000000; fill-opacity:1.00; stroke:#000000; stroke-opacity:1.00; stroke-width:0; white-space: pre;" xml:space="preserve" transform="rotate(0.00 555.00 99.00)">Computer Science</text>
  <text x="572.00" y="113.00" textLength="3" style="font-family:Segoe UI; font-weight:400; font-style:normal; font-size:8.55pt; text-decoration: none; fill:#000000; fill-opacity:1.00; stroke:#000000; stroke-opacity:1.00; stroke-width:0; white-space: pre;" xml:space="preserve" transform="rotate(0.00 572.00 113.00)"> </text>
  <text x="572.00" y="127.00" textLength="76" style="font-family:Segoe UI; font-weight:400; font-style:normal; font-size:8.55pt; text-decoration: none; fill:#000000; fill-opacity:1.00; stroke:#000000; stroke-opacity:1.00; stroke-width:0; white-space: pre;" xml:space="preserve" transform="rotate(0.00 572.00 127.00)">Advanced C++</text>
  <text x="572.00" y="141.00" textLength="23" style="font-family:Segoe UI; font-weight:400; font-style:normal; font-size:8.55pt; text-decoration: none; fill:#000000; fill-opacity:1.00; stroke:#000000; stroke-opacity:1.00; stroke-width:0; white-space: pre;" xml:space="preserve" transform="rotate(0.00 572.00 141.00)">C++</text>
  <text x="572.00" y="155.00" textLength="36" style="font-family:Segoe UI; font-weight:400; font-style:normal; font-size:8.55pt; text-decoration: none; fill:#000000; fill-opacity:1.00; stroke:#000000; stroke-opacity:1.00; stroke-width:0; white-space: pre;" xml:space="preserve" transform="rotate(0.00 572.00 155.00)">COBOL</text>
  <text x="572.00" y="169.00" textLength="139" style="font-family:Segoe UI; font-weight:400; font-style:normal; font-size:8.55pt; text-decoration: none; fill:#000000; fill-opacity:1.00; stroke:#000000; stroke-opacity:1.00; stroke-width:0; white-space: pre;" xml:space="preserve" transform="rotate(0.00 572.00 169.00)">Introduction to wxWidgets</text>
  <text x="572.00" y="183.00" textLength="82" style="font-family:Segoe UI; font-weight:400; font-style:normal; font-size:8.55pt; text-decoration: none; fill:#000000; fill-opacity:1.00; stroke:#000000; stroke-opacity:1.00; stroke-width:0; white-space: pre;" xml:space="preserve" transform="rotate(0.00 572.00 183.00)">Visual Basic.NET</text>
  <text x="555.00" y="197.00" textLength="38" style="font-family:Segoe UI; font-weight:400; font-style:normal; font-size:8.55pt; text-decoration: none; fill:#000000; fill-opacity:1.00; stroke:#000000; stroke-opacity:1.00; stroke-width:0; white-space: pre;" xml:space="preserve" transform="rotate(0.00 555.00 197.00)">English</text>
  <text x="572.00" y="211.00" textLength="3" style="font-family:Segoe UI; font-weight:400; font-style:normal; font-size:8.55pt; text-decoration: none; fill:#000000; fill-opacity:1.00; stroke:#000000; stroke-opacity:1.00; stroke-width:0; white-space: pre;" xml:space="preserve" transform="rotate(0.00 572.00 211.00)"> </text>
  <text x="572.00" y="225.00" textLength="83" style="font-family:Segoe UI; font-weight:400; font-style:normal; font-size:8.55pt; text-decoration: none; fill:#000000; fill-opacity:1.00; stroke:#000000; stroke-opacity:1.00; stroke-width:0; white-space: pre;" xml:space="preserve" transform="rotate(0.00 572.00 225.00)">Creative Writing</text>
  <text x="572.00" y="239.00" textLength="95" style="font-family:Segoe UI; font-weight:400; font-style:normal; font-size:8.55pt; text-decoration: none; fill:#000000; fill-opacity:1.00; stroke:#000000; stroke-opacity:1.00; stroke-width:0; white-space: pre;" xml:space="preserve" transform="rotate(0.00 572.00 239.00)">Western Literature</text>
  <text x="555.00" y="253.00" textLength="38" style="font-family:Segoe UI; font-weight:400; font-style:normal; font-size:8.55pt; text-decoration: none; fill:#000000; fill-opacity:1.00; stroke:#000000; stroke-opacity:1.00; stroke-width:0; white-space: pre;" xml:space="preserve" transform="rotate(0.00 555.00 253.00)">Science</text>
  <text x="572.00" y="267.00" textLength="3" style="font-family:Segoe UI; font-weight:400; font-style:normal; font-size:8.55pt; text-decoration: none; fill:#000000; fill-opacity:1.00; stroke:#000000; stroke-opacity:1.00; stroke-width:0; white-space: pre;" xml:space="preserve" transform="rotate(0.00 572.00 267.00)"> </text>
  <text x="572.00" y="281.00" textLength="121" style="font-family:Segoe UI; font-weight:400; font-style:normal; font-size:8.55pt; text-decoration: none; fill:#000000; fill-opacity:1.00; stroke:#000000; stroke-opacity:1.00; stroke-width:0; white-space: pre;" xml:space="preserve" transform="rotate(0.00 572.00 281.00)">Anatomy &amp; Physiology I</text>
  <text x="572.00" y="295.00" textLength="100" style="font-family:Segoe UI; font-weight:400; font-style:normal; font-size:8.55pt; text-decoration: none; fill:#000000; fill-opacity:1.00; stroke:#000000; stroke-opacity:1.00; stroke-width:0; white-space: pre;" xml:space="preserve" transform="rotate(0.00 572.00 295.00)">Organic Chemistry I</text>
  <text x="572.00" y="309.00" textLength="103" style="font-family:Segoe UI; font-weight:400; font-style:normal; font-size:8.55pt; text-decoration: none; fill:#000000; fill-opacity:1.00; stroke:#000000; stroke-opacity:1.00; stroke-width:0; white-space: pre;" xml:space="preserve" transform="rotate(0.00 572.00 309.00)">Organic Chemistry II</text>
</g>
<g style="stroke-width:0; stroke-linecap:round; stroke-linejoin:round; fill:#000000; fill-opacity:1.00; stroke:#000000; stroke-opacity:1.00;" transform="translate(0 0) scale(1.00 1.00)">
  <path d="M556 24 L704 24" shape-rendering="auto" />
</g>
<g style="stroke-width:0; stroke-linecap:round; stroke-linejoin:round; fill:#19526C; fill-opacity:1.00; stroke:#000000; stroke-opacity:1.00;" transform="translate(0 0) scale(1.00 1.00)">
  <polygon points="564 38 558 41 558 35 " shape-rendering="auto"   style="fill-rule:evenodd;"/>
</g>
<g style="stroke-width:0; stroke-linecap:round; stroke-linejoin:round; fill:#30637A; fill-opacity:1.00; stroke:#000000; stroke-opacity:1.00;" transform="translate(0 0) scale(1.00 1.00)">
  <polygon points="564 52 558 55 558 49 " shape-rendering="auto"   style="fill-rule:evenodd;"/>
</g>
<g style="stroke-width:0; stroke-linecap:round; stroke-linejoin:round; fill:#447287; fill-opacity:1.00; stroke:#000000; stroke-opacity:1.00;" transform="translate(0 0) scale(1.00 1.00)">
  <polygon points="564 66 558 69 558 63 " shape-rendering="auto"   style="fill-rule:evenodd;"/>
</g>
<g style="stroke-width:0; stroke-linecap:round; stroke-linejoin:round; fill:#568093; fill-opacity:1.00; stroke:#000000; stroke-opacity:1.00;" transform="translate(0 0) scale(1.00 1.00)">
  <polygon points="564 80 558 83 558 77 " shape-rendering="auto"   style="fill-rule:evenodd;"/>
</g>
<g style="stroke-width:0; stroke-linecap:round; stroke-linejoin:round; fill:#000000; fill-opacity:1.00; stroke:#000000; stroke-opacity:1.00;" transform="translate(0 0) scale(1.00 1.00)">
  <path d="M556 108 L704 108" shape-rendering="auto" />
</g>
<g style="stroke-width:0; stroke-linecap:round; stroke-linejoin:round; fill:#586F96; fill-opacity:1.00; stroke:#000000; stroke-opacity:1.00;" transform="translate(0 0) scale(1.00 1.00)">
  <polygon points="564 122 558 125 558 119 " shape-rendering="auto"   style="fill-rule:evenodd;"/>
</g>
<g style="stroke-width:0; stroke-linecap:round; stroke-linejoin:round; fill:#687DA0; fill-opacity:1.00; stroke:#000000; stroke-opacity:1.00;" transform="translate(0 0) scale(1.00 1.00)">
  <polygon points="564 136 558 139 558 133 " shape-rendering="auto"   style="fill-rule:evenodd;"/>
</g>
<g style="stroke-width:0; stroke-linecap:round; stroke-linejoin:round; fill:#778AA9; fill-opacity:1.00; stroke:#000000; stroke-opacity:1.00;" transform="translate(0 0) scale(1.00 1.00)">
  <polygon points="564 150 558 153 558 147 " shape-rendering="auto"   style="fill-rule:evenodd;"/>
</g>
<g style="stroke-width:0; stroke-linecap:round; stroke-linejoin:round; fill:#6B7C98; fill-opacity:1.00; stroke:#000000; stroke-opacity:1.00;" transform="translate(0 0) scale(1.00 1.00)">
  <polygon points="564 164 558 167 558 161 " shape-rendering="auto"   style="fill-rule:evenodd;"/>
</g>
<g style="stroke-width:0; stroke-linecap:round; stroke-linejoin:round; fill:#7989A2; fill-opacity:1.00; stroke:#000000; stroke-opacity:1.00;" transform="translate(0 0) scale(1.00 1.00)">
  <polygon points="564 178 558 181 558 175 " shape-rendering="auto"   style="fill-rule:evenodd;"/>
</g>
<g style="stroke-width:0; stroke-linecap:round; stroke-linejoin:round; fill:#000000; fill-opacity:1.00; stroke:#000000; stroke-opacity:1.00;" transform="translate(0 0) scale(1.00 1.00)">
  <path d="M556 206 L704 206" shape-rendering="auto" />
</g>
<g style="stroke-width:0; stroke-linecap:round; stroke-linejoin:round; fill:#8473A7; fill-opacity:1.00; stroke:#000000; stroke-opacity:1.00;" transform="translate(0 0) scale(1.00 1.00)">
  <polygon points="564 220 558 223 558 217 " shape-rendering="auto"   style="fill-rule:evenodd;"/>
</g>
<g style="stroke-width:0; stroke-linecap:round; stroke-linejoin:round; fill:#9081AF; fill-opacity:1.00; stroke:#000000; stroke-opacity:1.00;" transform="translate(0 0) scale(1.00 1.00)">
  <polygon points="564 234 558 237 558 231 " shape-rendering="auto"   style="fill-rule:evenodd;"/>
</g>
<g style="stroke-width:0; stroke-linecap:round; stroke-linejoin:round; fill:#000000; fill-opacity:1.00; stroke:#000000; stroke-opacity:1.00;" transform="translate(0 0) scale(1.00 1.00)">
  <path d="M556 262 L704 262" shape-rendering="auto" />
</g>
<g style="stroke-width:0; stroke-linecap:round; stroke-linejoin:round; fill:#B373AA; fill-opacity:1.00; stroke:#000000; stroke-opacity:1.00;" transform="translate(0 0) scale(1.00 1.00)">
  <polygon points="564 276 558 279 558 273 " shape-rendering="auto"   style="fill-rule:evenodd;"/>
</g>
<g style="stroke-width:0; stroke-linecap:round; stroke-linejoin:round; fill:#A16799; fill-opacity:1.00; stroke:#000000; stroke-opacity:1.00;" transform="translate(0 0) scale(1.00 1.00)">
  <polygon points="564 290 558 293 558 287 " shape-rendering="auto"   style="fill-rule:evenodd;"/>
</g>
<g style="stroke-width:0; stroke-linecap:round; stroke-linejoin:round; fill:#AA76A3; fill-opacity:1.00; stroke:#000000; stroke-opacity:1.00;" transform="translate(0 0) scale(1.00 1.00)">
  <polygon points="564 304 558 307 558 301 " shape-rendering="auto"   style="fill-rule:evenodd;"/>
</g>
</svg>
