<?xml version="1.0" encoding="UTF-8" standalone="no"?>
<!DOCTYPE svg PUBLIC "-//W3C//DTD SVG 1.0//EN" "http://www.w3.org/TR/2001/REC-SVG-20010904/DTD/svg10.dtd">

<svg xmlns="http://www.w3.org/2000/svg" xmlns:xlink="http://www.w3.org/1999/xlink" width="38.91cm" height="22.79cm" viewBox="0 0 1103 646">
<title>panel</title>
<desc>Picture generated by wxSVG v0101</desc>

<g style="fill:black; stroke:black; stroke-width:1">
</g>
<g style="stroke-width:1; stroke-linecap:round; stroke-linejoin:round; fill:#000000; fill-opacity:0.0; stroke:#000000; stroke-opacity:0.0;" transform="translate(0 0) scale(1.00 1.00)">
  <rect x="0" y="0" width="1103" height="646" rx="0.00" shape-rendering="auto"  />
</g>
<g style="stroke-width:1; stroke-linecap:round; stroke-linejoin:round; fill:#FFFFFF; fill-opacity:1.00; stroke:#000000; stroke-opacity:1.00;" transform="translate(0 0) scale(1.00 1.00)">
</g>
<g style="stroke-width:1; stroke-linecap:round; stroke-linejoin:round; fill:#FFFFFF; fill-opacity:1.00; stroke:#000000; stroke-opacity:1.00;" transform="translate(0 0) scale(1.00 1.00)">
  <rect x="0" y="0" width="1103" height="646" rx="0.00" shape-rendering="auto"  />
</g>
<g style="stroke-width:1; stroke-linecap:round; stroke-linejoin:round; fill:#003F5C; fill-opacity:1.00; stroke:#000000; stroke-opacity:0.0;" transform="translate(0 0) scale(1.00 1.00)">
  <path d="M667.00 322.50 A241.50 241.50 0 0 0 266.15 141.04 L425.50 322.50 z" shape-rendering="auto" />
</g>
<g style="stroke-width:1; stroke-linecap:round; stroke-linejoin:round; fill:#000000; fill-opacity:0.0; stroke:#000000; stroke-opacity:0.0;" transform="translate(0 0) scale(1.00 1.00)">
  <path d="M667.00 322.50 A241.50 241.50 0 0 0 266.15 141.04" shape-rendering="auto" />
</g>
<g style="stroke-width:1; stroke-linecap:round; stroke-linejoin:round; fill:#003F5C; fill-opacity:1.00; stroke:#000000; stroke-opacity:0.0;" transform="translate(0 0) scale(1.00 1.00)">
  <path d="M425 322 L667 322" shape-rendering="auto" />
  <path d="M425 322 L266 141" shape-rendering="auto" />
</g>
<g style="stroke-width:1; stroke-linecap:round; stroke-linejoin:round; fill:#2F4B7C; fill-opacity:1.00; stroke:#000000; stroke-opacity:0.0;" transform="translate(0 0) scale(1.00 1.00)">
  <path d="M266.15 141.04 A241.50 241.50 0 0 0 278.01 513.73 L425.50 322.50 z" shape-rendering="auto" />
</g>
<g style="stroke-width:1; stroke-linecap:round; stroke-linejoin:round; fill:#000000; fill-opacity:0.0; stroke:#000000; stroke-opacity:0.0;" transform="translate(0 0) scale(1.00 1.00)">
  <path d="M266.15 141.04 A241.50 241.50 0 0 0 278.01 513.73" shape-rendering="auto" />
</g>
<g style="stroke-width:1; stroke-linecap:round; stroke-linejoin:round; fill:#2F4B7C; fill-opacity:1.00; stroke:#000000; stroke-opacity:0.0;" transform="translate(0 0) scale(1.00 1.00)">
  <path d="M425 322 L266 141" shape-rendering="auto" />
  <path d="M425 322 L278 513" shape-rendering="auto" />
</g>
<g style="stroke-width:1; stroke-linecap:round; stroke-linejoin:round; fill:#665191; fill-opacity:1.00; stroke:#000000; stroke-opacity:0.0;" transform="translate(0 0) scale(1.00 1.00)">
  <path d="M278.01 513.73 A241.50 241.50 0 0 0 451.25 562.62 L425.50 322.50 z" shape-rendering="auto" />
</g>
<g style="stroke-width:1; stroke-linecap:round; stroke-linejoin:round; fill:#000000; fill-opacity:0.0; stroke:#000000; stroke-opacity:0.0;" transform="translate(0 0) scale(1.00 1.00)">
  <path d="M278.01 513.73 A241.50 241.50 0 0 0 451.25 562.62" shape-rendering="auto" />
</g>
<g style="stroke-width:1; stroke-linecap:round; stroke-linejoin:round; fill:#665191; fill-opacity:1.00; stroke:#000000; stroke-opacity:0.0;" transform="translate(0 0) scale(1.00 1.00)">
  <path d="M425 322 L278 513" shape-rendering="auto" />
  <path d="M425 322 L451 562" shape-rendering="auto" />
</g>
<g style="stroke-width:1; stroke-linecap:round; stroke-linejoin:round; fill:#A05195; fill-opacity:1.00; stroke:#000000; stroke-opacity:0.0;" transform="translate(0 0) scale(1.00 1.00)">
  <path d="M451.25 562.62 A241.50 241.50 0 0 0 667.00 322.50 L425.50 322.50 z" shape-rendering="auto" />
</g>
<g style="stroke-width:1; stroke-linecap:round; stroke-linejoin:round; fill:#000000; fill-opacity:0.0; stroke:#000000; stroke-opacity:0.0;" transform="translate(0 0) scale(1.00 1.00)">
  <path d="M451.25 562.62 A241.50 241.50 0 0 0 667.00 322.50" shape-rendering="auto" />
</g>
<g style="stroke-width:1; stroke-linecap:round; stroke-linejoin:round; fill:#A05195; fill-opacity:1.00; stroke:#000000; stroke-opacity:0.0;" transform="translate(0 0) scale(1.00 1.00)">
  <path d="M425 322 L451 562" shape-rendering="auto" />
  <path d="M425 322 L667 322" shape-rendering="auto" />
</g>
<g style="stroke-width:1; stroke-linecap:round; stroke-linejoin:round; fill:#000000; fill-opacity:1.00; stroke:#000000; stroke-opacity:1.00;" transform="translate(0 0) scale(1.00 1.00)">
  <text x="509.00" y="118.00" textLength="21" style="font-family:Segoe UI; font-weight:400; font-style:normal; font-size:7.88pt; text-decoration: none; fill:#FFFFFF; fill-opacity:1.00; stroke:#FFFFFF; stroke-opacity:1.00; stroke-width:0; white-space: pre;" xml:space="preserve" transform="rotate(0.00 509.00 118.00)">36%</text>
</g>
<g style="stroke-width:1; stroke-linecap:round; stroke-linejoin:round; fill:#000000; fill-opacity:1.00; stroke:#000000; stroke-opacity:1.00;" transform="translate(0 0) scale(1.00 1.00)">
  <text x="186.00" y="334.00" textLength="21" style="font-family:Segoe UI; font-weight:400; font-style:normal; font-size:7.88pt; text-decoration: none; fill:#FFFFFF; fill-opacity:1.00; stroke:#FFFFFF; stroke-opacity:1.00; stroke-width:0; white-space: pre;" xml:space="preserve" transform="rotate(0.00 186.00 334.00)">28%</text>
</g>
<g style="stroke-width:1; stroke-linecap:round; stroke-linejoin:round; fill:#000000; fill-opacity:1.00; stroke:#000000; stroke-opacity:1.00;" transform="translate(0 0) scale(1.00 1.00)">
  <text x="352.00" y="547.00" textLength="21" style="font-family:Segoe UI; font-weight:400; font-style:normal; font-size:7.88pt; text-decoration: none; fill:#FFFFFF; fill-opacity:1.00; stroke:#FFFFFF; stroke-opacity:1.00; stroke-width:0; white-space: pre;" xml:space="preserve" transform="rotate(0.00 352.00 547.00)">12%</text>
</g>
<g style="stroke-width:1; stroke-linecap:round; stroke-linejoin:round; fill:#000000; fill-opacity:1.00; stroke:#000000; stroke-opacity:1.00;" transform="translate(0 0) scale(1.00 1.00)">
  <text x="585.00" y="480.00" textLength="21" style="font-family:Segoe UI; font-weight:400; font-style:normal; font-size:7.88pt; text-decoration: none; fill:#FFFFFF; fill-opacity:1.00; stroke:#FFFFFF; stroke-opacity:1.00; stroke-width:0; white-space: pre;" xml:space="preserve" transform="rotate(0.00 585.00 480.00)">23%</text>
</g>
<g style="stroke-width:1; stroke-linecap:round; stroke-linejoin:round; fill:#19526C; fill-opacity:1.00; stroke:#000000; stroke-opacity:0.0;" transform="translate(0 0) scale(1.00 1.00)">
  <path d="M642.00 322.00 A217.00 217.00 0 0 0 588.38 179.18 L425.00 322.00 z" shape-rendering="auto" />
</g>
<g style="stroke-width:1; stroke-linecap:round; stroke-linejoin:round; fill:#000000; fill-opacity:0.0; stroke:#668B9D; stroke-opacity:1.00;" transform="translate(0 0) scale(1.00 1.00)">
  <path d="M642.00 322.00 A217.00 217.00 0 0 0 588.38 179.18" shape-rendering="auto" />
</g>
<g style="stroke-width:1; stroke-linecap:round; stroke-linejoin:round; fill:#19526C; fill-opacity:1.00; stroke:#668B9D; stroke-opacity:1.00;" transform="translate(0 0) scale(1.00 1.00)">
  <path d="M425 322 L642 322" shape-rendering="auto" />
  <path d="M425 322 L588 179" shape-rendering="auto" />
</g>
<g style="stroke-width:1; stroke-linecap:round; stroke-linejoin:round; fill:#30637A; fill-opacity:1.00; stroke:#000000; stroke-opacity:0.0;" transform="translate(0 0) scale(1.00 1.00)">
  <path d="M588.38 179.18 A217.00 217.00 0 0 0 507.24 121.19 L425.00 322.00 z" shape-rendering="auto" />
</g>
<g style="stroke-width:1; stroke-linecap:round; stroke-linejoin:round; fill:#000000; fill-opacity:0.0; stroke:#668B9D; stroke-opacity:1.00;" transform="translate(0 0) scale(1.00 1.00)">
  <path d="M588.38 179.18 A217.00 217.00 0 0 0 507.24 121.19" shape-rendering="auto" />
</g>
<g style="stroke-width:1; stroke-linecap:round; stroke-linejoin:round; fill:#30637A; fill-opacity:1.00; stroke:#668B9D; stroke-opacity:1.00;" transform="translate(0 0) scale(1.00 1.00)">
  <path d="M425 322 L588 179" shape-rendering="auto" />
  <path d="M425 322 L507 121" shape-rendering="auto" />
</g>
<g style="stroke-width:1; stroke-linecap:round; stroke-linejoin:round; fill:#447287; fill-opacity:1.00; stroke:#000000; stroke-opacity:0.0;" transform="translate(0 0) scale(1.00 1.00)">
  <path d="M507.24 121.19 A217.00 217.00 0 0 0 305.31 140.99 L425.00 322.00 z" shape-rendering="auto" />
</g>
<g style="stroke-width:1; stroke-linecap:round; stroke-linejoin:round; fill:#000000; fill-opacity:0.0; stroke:#668B9D; stroke-opacity:1.00;" transform="translate(0 0) scale(1.00 1.00)">
  <path d="M507.24 121.19 A217.00 217.00 0 0 0 305.31 140.99" shape-rendering="auto" />
</g>
<g style="stroke-width:1; stroke-linecap:round; stroke-linejoin:round; fill:#447287; fill-opacity:1.00; stroke:#668B9D; stroke-opacity:1.00;" transform="translate(0 0) scale(1.00 1.00)">
  <path d="M425 322 L507 121" shape-rendering="auto" />
  <path d="M425 322 L305 140" shape-rendering="auto" />
</g>
<g style="stroke-width:1; stroke-linecap:round; stroke-linejoin:round; fill:#568093; fill-opacity:1.00; stroke:#000000; stroke-opacity:0.0;" transform="translate(0 0) scale(1.00 1.00)">
  <path d="M305.31 140.99 A217.00 217.00 0 0 0 281.81 158.95 L425.00 322.00 z" shape-rendering="auto" />
</g>
<g style="stroke-width:1; stroke-linecap:round; stroke-linejoin:round; fill:#000000; fill-opacity:0.0; stroke:#668B9D; stroke-opacity:1.00;" transform="translate(0 0) scale(1.00 1.00)">
  <path d="M305.31 140.99 A217.00 217.00 0 0 0 281.81 158.95" shape-rendering="auto" />
</g>
<g style="stroke-width:1; stroke-linecap:round; stroke-linejoin:round; fill:#568093; fill-opacity:1.00; stroke:#668B9D; stroke-opacity:1.00;" transform="translate(0 0) scale(1.00 1.00)">
  <path d="M425 322 L305 140" shape-rendering="auto" />
  <path d="M425 322 L281 158" shape-rendering="auto" />
</g>
<g style="stroke-width:1; stroke-linecap:round; stroke-linejoin:round; fill:#586F96; fill-opacity:1.00; stroke:#000000; stroke-opacity:0.0;" transform="translate(0 0) scale(1.00 1.00)">
  <path d="M281.81 158.95 A217.00 217.00 0 0 0 257.16 184.46 L425.00 322.00 z" shape-rendering="auto" />
</g>
<g style="stroke-width:1; stroke-linecap:round; stroke-linejoin:round; fill:#000000; fill-opacity:0.0; stroke:#8293B0; stroke-opacity:1.00;" transform="translate(0 0) scale(1.00 1.00)">
  <path d="M281.81 158.95 A217.00 217.00 0 0 0 257.16 184.46" shape-rendering="auto" />
</g>
<g style="stroke-width:1; stroke-linecap:round; stroke-linejoin:round; fill:#586F96; fill-opacity:1.00; stroke:#8293B0; stroke-opacity:1.00;" transform="translate(0 0) scale(1.00 1.00)">
  <path d="M425 322 L281 158" shape-rendering="auto" />
  <path d="M425 322 L257 184" shape-rendering="auto" />
</g>
<g style="stroke-width:1; stroke-linecap:round; stroke-linejoin:round; fill:#687DA0; fill-opacity:1.00; stroke:#000000; stroke-opacity:0.0;" transform="translate(0 0) scale(1.00 1.00)">
  <path d="M257.16 184.46 A217.00 217.00 0 0 0 215.76 379.51 L425.00 322.00 z" shape-rendering="auto" />
</g>
<g style="stroke-width:1; stroke-linecap:round; stroke-linejoin:round; fill:#000000; fill-opacity:0.0; stroke:#8293B0; stroke-opacity:1.00;" transform="translate(0 0) scale(1.00 1.00)">
  <path d="M257.16 184.46 A217.00 217.00 0 0 0 215.76 379.51" shape-rendering="auto" />
</g>
<g style="stroke-width:1; stroke-linecap:round; stroke-linejoin:round; fill:#687DA0; fill-opacity:1.00; stroke:#8293B0; stroke-opacity:1.00;" transform="translate(0 0) scale(1.00 1.00)">
  <path d="M425 322 L257 184" shape-rendering="auto" />
  <path d="M425 322 L215 379" shape-rendering="auto" />
</g>
<g style="stroke-width:1; stroke-linecap:round; stroke-linejoin:round; fill:#778AA9; fill-opacity:1.00; stroke:#000000; stroke-opacity:0.0;" transform="translate(0 0) scale(1.00 1.00)">
  <path d="M215.76 379.51 A217.00 217.00 0 0 0 255.92 458.01 L425.00 322.00 z" shape-rendering="auto" />
</g>
<g style="stroke-width:1; stroke-linecap:round; stroke-linejoin:round; fill:#000000; fill-opacity:0.0; stroke:#8293B0; stroke-opacity:1.00;" transform="translate(0 0) scale(1.00 1.00)">
  <path d="M215.76 379.51 A217.00 217.00 0 0 0 255.92 458.01" shape-rendering="auto" />
</g>
<g style="stroke-width:1; stroke-linecap:round; stroke-linejoin:round; fill:#778AA9; fill-opacity:1.00; stroke:#8293B0; stroke-opacity:1.00;" transform="translate(0 0) scale(1.00 1.00)">
  <path d="M425 322 L215 379" shape-rendering="auto" />
  <path d="M425 322 L255 458" shape-rendering="auto" />
</g>
<g style="stroke-width:1; stroke-linecap:round; stroke-linejoin:round; fill:#6B7C98; fill-opacity:1.00; stroke:#000000; stroke-opacity:0.0;" transform="translate(0 0) scale(1.00 1.00)">
  <path d="M255.92 458.01 A217.00 217.00 0 0 0 286.31 488.90 L425.00 322.00 z" shape-rendering="auto" />
</g>
<g style="stroke-width:1; stroke-linecap:round; stroke-linejoin:round; fill:#000000; fill-opacity:0.0; stroke:#8293B0; stroke-opacity:1.00;" transform="translate(0 0) scale(1.00 1.00)">
  <path d="M255.92 458.01 A217.00 217.00 0 0 0 286.31 488.90" shape-rendering="auto" />
</g>
<g style="stroke-width:1; stroke-linecap:round; stroke-linejoin:round; fill:#6B7C98; fill-opacity:1.00; stroke:#8293B0; stroke-opacity:1.00;" transform="translate(0 0) scale(1.00 1.00)">
  <path d="M425 322 L255 458" shape-rendering="auto" />
  <path d="M425 322 L286 488" shape-rendering="auto" />
</g>
<g style="stroke-width:1; stroke-linecap:round; stroke-linejoin:round; fill:#7989A2; fill-opacity:1.00; stroke:#000000; stroke-opacity:0.0;" transform="translate(0 0) scale(1.00 1.00)">
  <path d="M286.31 488.90 A217.00 217.00 0 0 0 292.48 493.83 L425.00 322.00 z" shape-rendering="auto" />
</g>
<g style="stroke-width:1; stroke-linecap:round; stroke-linejoin:round; fill:#000000; fill-opacity:0.0; stroke:#8293B0; stroke-opacity:1.00;" transform="translate(0 0) scale(1.00 1.00)">
  <path d="M286.31 488.90 A217.00 217.00 0 0 0 292.48 493.83" shape-rendering="auto" />
</g>
<g style="stroke-width:1; stroke-linecap:round; stroke-linejoin:round; fill:#7989A2; fill-opacity:1.00; stroke:#8293B0; stroke-opacity:1.00;" transform="translate(0 0) scale(1.00 1.00)">
  <path d="M425 322 L286 488" shape-rendering="auto" />
  <path d="M425 322 L292 493" shape-rendering="auto" />
</g>
<g style="stroke-width:1; stroke-linecap:round; stroke-linejoin:round; fill:#8473A7; fill-opacity:1.00; stroke:#000000; stroke-opacity:0.0;" transform="translate(0 0) scale(1.00 1.00)">
  <path d="M292.48 493.83 A217.00 217.00 0 0 0 375.61 533.31 L425.00 322.00 z" shape-rendering="auto" />
</g>
<g style="stroke-width:1; stroke-linecap:round; stroke-linejoin:round; fill:#000000; fill-opacity:0.0; stroke:#A396BD; stroke-opacity:1.00;" transform="translate(0 0) scale(1.00 1.00)">
  <path d="M292.48 493.83 A217.00 217.00 0 0 0 375.61 533.31" shape-rendering="auto" />
</g>
<g style="stroke-width:1; stroke-linecap:round; stroke-linejoin:round; fill:#8473A7; fill-opacity:1.00; stroke:#A396BD; stroke-opacity:1.00;" transform="translate(0 0) scale(1.00 1.00)">
  <path d="M425 322 L292 493" shape-rendering="auto" />
  <path d="M425 322 L375 533" shape-rendering="auto" />
</g>
<g style="stroke-width:1; stroke-linecap:round; stroke-linejoin:round; fill:#9081AF; fill-opacity:1.00; stroke:#000000; stroke-opacity:0.0;" transform="translate(0 0) scale(1.00 1.00)">
  <path d="M375.61 533.31 A217.00 217.00 0 0 0 448.14 537.76 L425.00 322.00 z" shape-rendering="auto" />
</g>
<g style="stroke-width:1; stroke-linecap:round; stroke-linejoin:round; fill:#000000; fill-opacity:0.0; stroke:#A396BD; stroke-opacity:1.00;" transform="translate(0 0) scale(1.00 1.00)">
  <path d="M375.61 533.31 A217.00 217.00 0 0 0 448.14 537.76" shape-rendering="auto" />
</g>
<g style="stroke-width:1; stroke-linecap:round; stroke-linejoin:round; fill:#9081AF; fill-opacity:1.00; stroke:#A396BD; stroke-opacity:1.00;" transform="translate(0 0) scale(1.00 1.00)">
  <path d="M425 322 L375 533" shape-rendering="auto" />
  <path d="M425 322 L448 537" shape-rendering="auto" />
</g>
<g style="stroke-width:1; stroke-linecap:round; stroke-linejoin:round; fill:#B373AA; fill-opacity:1.00; stroke:#000000; stroke-opacity:0.0;" transform="translate(0 0) scale(1.00 1.00)">
  <path d="M448.14 537.76 A217.00 217.00 0 0 0 543.86 503.55 L425.00 322.00 z" shape-rendering="auto" />
</g>
<g style="stroke-width:1; stroke-linecap:round; stroke-linejoin:round; fill:#000000; fill-opacity:0.0; stroke:#C696BF; stroke-opacity:1.00;" transform="translate(0 0) scale(1.00 1.00)">
  <path d="M448.14 537.76 A217.00 217.00 0 0 0 543.86 503.55" shape-rendering="auto" />
</g>
<g style="stroke-width:1; stroke-linecap:round; stroke-linejoin:round; fill:#B373AA; fill-opacity:1.00; stroke:#C696BF; stroke-opacity:1.00;" transform="translate(0 0) scale(1.00 1.00)">
  <path d="M425 322 L448 537" shape-rendering="auto" />
  <path d="M425 322 L543 503" shape-rendering="auto" />
</g>
<g style="stroke-width:1; stroke-linecap:round; stroke-linejoin:round; fill:#A16799; fill-opacity:1.00; stroke:#000000; stroke-opacity:0.0;" transform="translate(0 0) scale(1.00 1.00)">
  <path d="M543.86 503.55 A217.00 217.00 0 0 0 637.67 365.12 L425.00 322.00 z" shape-rendering="auto" />
</g>
<g style="stroke-width:1; stroke-linecap:round; stroke-linejoin:round; fill:#000000; fill-opacity:0.0; stroke:#C696BF; stroke-opacity:1.00;" transform="translate(0 0) scale(1.00 1.00)">
  <path d="M543.86 503.55 A217.00 217.00 0 0 0 637.67 365.12" shape-rendering="auto" />
</g>
<g style="stroke-width:1; stroke-linecap:round; stroke-linejoin:round; fill:#A16799; fill-opacity:1.00; stroke:#C696BF; stroke-opacity:1.00;" transform="translate(0 0) scale(1.00 1.00)">
  <path d="M425 322 L543 503" shape-rendering="auto" />
  <path d="M425 322 L637 365" shape-rendering="auto" />
</g>
<g style="stroke-width:1; stroke-linecap:round; stroke-linejoin:round; fill:#AA76A3; fill-opacity:1.00; stroke:#000000; stroke-opacity:0.0;" transform="translate(0 0) scale(1.00 1.00)">
  <path d="M637.67 365.12 A217.00 217.00 0 0 0 642.00 322.00 L425.00 322.00 z" shape-rendering="auto" />
</g>
<g style="stroke-width:1; stroke-linecap:round; stroke-linejoin:round; fill:#000000; fill-opacity:0.0; stroke:#C696BF; stroke-opacity:1.00;" transform="translate(0 0) scale(1.00 1.00)">
  <path d="M637.67 365.12 A217.00 217.00 0 0 0 642.00 322.00" shape-rendering="auto" />
</g>
<g style="stroke-width:1; stroke-linecap:round; stroke-linejoin:round; fill:#AA76A3; fill-opacity:1.00; stroke:#C696BF; stroke-opacity:1.00;" transform="translate(0 0) scale(1.00 1.00)">
  <path d="M425 322 L637 365" shape-rendering="auto" />
  <path d="M425 322 L642 322" shape-rendering="auto" />
</g>
<g style="stroke-width:1; stroke-linecap:round; stroke-linejoin:round; fill:#000000; fill-opacity:1.00; stroke:#000000; stroke-opacity:1.00;" transform="translate(0 0) scale(1.00 1.00)">
  <text x="137.00" y="551.00" textLength="115" style="font-family:Segoe UI; font-weight:700; font-style:normal; font-size:11.03pt; text-decoration: none; fill:#7989A2; fill-opacity:1.00; stroke:#7989A2; stroke-opacity:1.00; stroke-width:0; white-space: pre;" xml:space="preserve" transform="rotate(0.00 137.00 551.00)">Visual Basic.NET</text>
  <text x="69.00" y="573.00" textLength="183" style="font-family:Segoe UI; font-weight:400; font-style:normal; font-size:11.03pt; text-decoration: none; fill:#666666; fill-opacity:1.00; stroke:#666666; stroke-opacity:1.00; stroke-width:0; white-space: pre;" xml:space="preserve" transform="rotate(0.00 69.00 573.00)">Drop this from the catalog?</text>
</g>
<g style="stroke-width:2; stroke-linecap:round; stroke-linejoin:round; fill:#FFFFFF; fill-opacity:1.00; stroke:#B2BEB5; stroke-opacity:0.78;" transform="translate(0 0) scale(1.00 1.00)">
  <path d="M289 491 L259 529" shape-rendering="auto" stroke-dasharray="6.666667,5.333333"/>
</g>
<g style="stroke-width:1; stroke-linecap:round; stroke-linejoin:round; fill:#B2BEB5; fill-opacity:0.78; stroke:#000000; stroke-opacity:0.0;" transform="translate(0 0) scale(1.00 1.00)">
  <polygon points="259 529 261 518 269 524 " shape-rendering="auto"   style="fill-rule:evenodd;"/>
</g>
<g style="stroke-width:1; stroke-linecap:round; stroke-linejoin:round; fill:#000000; fill-opacity:1.00; stroke:#000000; stroke-opacity:1.00;" transform="translate(0 0) scale(1.00 1.00)">
  <text x="605.00" y="254.00" textLength="21" style="font-family:Segoe UI; font-weight:400; font-style:normal; font-size:7.88pt; text-decoration: none; fill:#FFFFFF; fill-opacity:1.00; stroke:#FFFFFF; stroke-opacity:1.00; stroke-width:0; white-space: pre;" xml:space="preserve" transform="rotate(0.00 605.00 254.00)">11%</text>
</g>
<g style="stroke-width:1; stroke-linecap:round; stroke-linejoin:round; fill:#000000; fill-opacity:1.00; stroke:#000000; stroke-opacity:1.00;" transform="translate(0 0) scale(1.00 1.00)">
  <text x="536.00" y="160.00" textLength="15" style="font-family:Segoe UI; font-weight:400; font-style:normal; font-size:7.88pt; text-decoration: none; fill:#FFFFFF; fill-opacity:1.00; stroke:#FFFFFF; stroke-opacity:1.00; stroke-width:0; white-space: pre;" xml:space="preserve" transform="rotate(0.00 536.00 160.00)">7%</text>
</g>
<g style="stroke-width:1; stroke-linecap:round; stroke-linejoin:round; fill:#000000; fill-opacity:1.00; stroke:#000000; stroke-opacity:1.00;" transform="translate(0 0) scale(1.00 1.00)">
  <text x="394.00" y="122.00" textLength="21" style="font-family:Segoe UI; font-weight:400; font-style:normal; font-size:7.88pt; text-decoration: none; fill:#FFFFFF; fill-opacity:1.00; stroke:#FFFFFF; stroke-opacity:1.00; stroke-width:0; white-space: pre;" xml:space="preserve" transform="rotate(0.00 394.00 122.00)">15%</text>
</g>
<g style="stroke-width:1; stroke-linecap:round; stroke-linejoin:round; fill:#000000; fill-opacity:1.00; stroke:#000000; stroke-opacity:1.00;" transform="translate(0 0) scale(1.00 1.00)">
  <text x="293.00" y="164.00" textLength="15" style="font-family:Segoe UI; font-weight:400; font-style:normal; font-size:7.88pt; text-decoration: none; fill:#FFFFFF; fill-opacity:1.00; stroke:#FFFFFF; stroke-opacity:1.00; stroke-width:0; white-space: pre;" xml:space="preserve" transform="rotate(0.00 293.00 164.00)">2%</text>
</g>
<g style="stroke-width:1; stroke-linecap:round; stroke-linejoin:round; fill:#000000; fill-opacity:1.00; stroke:#000000; stroke-opacity:1.00;" transform="translate(0 0) scale(1.00 1.00)">
  <text x="270.00" y="184.00" textLength="15" style="font-family:Segoe UI; font-weight:400; font-style:normal; font-size:7.88pt; text-decoration: none; fill:#FFFFFF; fill-opacity:1.00; stroke:#FFFFFF; stroke-opacity:1.00; stroke-width:0; white-space: pre;" xml:space="preserve" transform="rotate(0.00 270.00 184.00)">3%</text>
</g>
<g style="stroke-width:1; stroke-linecap:round; stroke-linejoin:round; fill:#000000; fill-opacity:1.00; stroke:#000000; stroke-opacity:1.00;" transform="translate(0 0) scale(1.00 1.00)">
  <text x="214.00" y="284.00" textLength="21" style="font-family:Segoe UI; font-weight:400; font-style:normal; font-size:7.88pt; text-decoration: none; fill:#FFFFFF; fill-opacity:1.00; stroke:#FFFFFF; stroke-opacity:1.00; stroke-width:0; white-space: pre;" xml:space="preserve" transform="rotate(0.00 214.00 284.00)">15%</text>
</g>
<g style="stroke-width:1; stroke-linecap:round; stroke-linejoin:round; fill:#000000; fill-opacity:1.00; stroke:#000000; stroke-opacity:1.00;" transform="translate(0 0) scale(1.00 1.00)">
  <text x="235.00" y="419.00" textLength="15" style="font-family:Segoe UI; font-weight:400; font-style:normal; font-size:7.88pt; text-decoration: none; fill:#000000; fill-opacity:1.00; stroke:#000000; stroke-opacity:1.00; stroke-width:0; white-space: pre;" xml:space="preserve" transform="rotate(0.00 235.00 419.00)">7%</text>
</g>
<g style="stroke-width:1; stroke-linecap:round; stroke-linejoin:round; fill:#000000; fill-opacity:1.00; stroke:#000000; stroke-opacity:1.00;" transform="translate(0 0) scale(1.00 1.00)">
  <text x="271.00" y="469.00" textLength="15" style="font-family:Segoe UI; font-weight:400; font-style:normal; font-size:7.88pt; text-decoration: none; fill:#FFFFFF; fill-opacity:1.00; stroke:#FFFFFF; stroke-opacity:1.00; stroke-width:0; white-space: pre;" xml:space="preserve" transform="rotate(0.00 271.00 469.00)">3%</text>
</g>
<g style="stroke-width:1; stroke-linecap:round; stroke-linejoin:round; fill:#000000; fill-opacity:1.00; stroke:#000000; stroke-opacity:1.00;" transform="translate(0 0) scale(1.00 1.00)">
  <text x="329.00" y="511.00" textLength="15" style="font-family:Segoe UI; font-weight:400; font-style:normal; font-size:7.88pt; text-decoration: none; fill:#FFFFFF; fill-opacity:1.00; stroke:#FFFFFF; stroke-opacity:1.00; stroke-width:0; white-space: pre;" xml:space="preserve" transform="rotate(0.00 329.00 511.00)">7%</text>
</g>
<g style="stroke-width:1; stroke-linecap:round; stroke-linejoin:round; fill:#000000; fill-opacity:1.00; stroke:#000000; stroke-opacity:1.00;" transform="translate(0 0) scale(1.00 1.00)">
  <text x="404.00" y="530.00" textLength="15" style="font-family:Segoe UI; font-weight:400; font-style:normal; font-size:7.88pt; text-decoration: none; fill:#000000; fill-opacity:1.00; stroke:#000000; stroke-opacity:1.00; stroke-width:0; white-space: pre;" xml:space="preserve" transform="rotate(0.00 404.00 530.00)">5%</text>
</g>
<g style="stroke-width:1; stroke-linecap:round; stroke-linejoin:round; fill:#000000; fill-opacity:1.00; stroke:#000000; stroke-opacity:1.00;" transform="translate(0 0) scale(1.00 1.00)">
  <text x="486.00" y="519.00" textLength="15" style="font-family:Segoe UI; font-weight:400; font-style:normal; font-size:7.88pt; text-decoration: none; fill:#000000; fill-opacity:1.00; stroke:#000000; stroke-opacity:1.00; stroke-width:0; white-space: pre;" xml:space="preserve" transform="rotate(0.00 486.00 519.00)">8%</text>
</g>
<g style="stroke-width:1; stroke-linecap:round; stroke-linejoin:round; fill:#000000; fill-opacity:1.00; stroke:#000000; stroke-opacity:1.00;" transform="translate(0 0) scale(1.00 1.00)">
  <text x="583.00" y="441.00" textLength="21" style="font-family:Segoe UI; font-weight:400; font-style:normal; font-size:7.88pt; text-decoration: none; fill:#FFFFFF; fill-opacity:1.00; stroke:#FFFFFF; stroke-opacity:1.00; stroke-width:0; white-space: pre;" xml:space="preserve" transform="rotate(0.00 583.00 441.00)">13%</text>
</g>
<g style="stroke-width:1; stroke-linecap:round; stroke-linejoin:round; fill:#000000; fill-opacity:1.00; stroke:#000000; stroke-opacity:1.00;" transform="translate(0 0) scale(1.00 1.00)">
  <text x="620.00" y="346.00" textLength="15" style="font-family:Segoe UI; font-weight:400; font-style:normal; font-size:7.88pt; text-decoration: none; fill:#000000; fill-opacity:1.00; stroke:#000000; stroke-opacity:1.00; stroke-width:0; white-space: pre;" xml:space="preserve" transform="rotate(0.00 620.00 346.00)">3%</text>
</g>
<g style="stroke-width:1; stroke-linecap:round; stroke-linejoin:round; fill:#FFFFFF; fill-opacity:1.00; stroke:#000000; stroke-opacity:0.0;" transform="translate(0 0) scale(1.00 1.00)">
  <ellipse cx="425.00" cy="322.00" rx="193.00" ry="193.00" shape-rendering="auto" />
</g>
<g style="stroke-width:1; stroke-linecap:round; stroke-linejoin:round; fill:#000000; fill-opacity:1.00; stroke:#000000; stroke-opacity:1.00;" transform="translate(0 0) scale(1.00 1.00)">
  <text x="277.00" y="302.00" textLength="294" style="font-family:Segoe UI; font-weight:400; font-style:normal; font-size:45.50pt; text-decoration: none; fill:#000000; fill-opacity:1.00; stroke:#000000; stroke-opacity:1.00; stroke-width:0; white-space: pre;" xml:space="preserve" transform="rotate(0.00 277.00 302.00)">Enrollment</text>
  <text x="277.00" y="390.00" textLength="367" style="font-family:Segoe UI; font-weight:400; font-style:normal; font-size:45.50pt; text-decoration: none; fill:#000000; fill-opacity:1.00; stroke:#000000; stroke-opacity:1.00; stroke-width:0; white-space: pre;" xml:space="preserve" transform="rotate(0.00 277.00 390.00)">Fall         2023         </text>
</g>
<g style="stroke-width:1; stroke-linecap:round; stroke-linejoin:round; fill:#000000; fill-opacity:1.00; stroke:#000000; stroke-opacity:1.00;" transform="translate(0 0) scale(1.00 1.00)">
  <text x="861.00" y="24.00" textLength="64" style="font-family:Segoe UI; font-weight:400; font-style:normal; font-size:12.72pt; text-decoration: none; fill:#000000; fill-opacity:1.00; stroke:#000000; stroke-opacity:1.00; stroke-width:0; white-space: pre;" xml:space="preserve" transform="rotate(0.00 861.00 24.00)">Business</text>
  <text x="892.00" y="49.00" textLength="5" style="font-family:Segoe UI; font-weight:400; font-style:normal; font-size:12.72pt; text-decoration: none; fill:#000000; fill-opacity:1.00; stroke:#000000; stroke-opacity:1.00; stroke-width:0; white-space: pre;" xml:space="preserve" transform="rotate(0.00 892.00 49.00)"> </text>
  <text x="892.00" y="74.00" textLength="191" style="font-family:Segoe UI; font-weight:400; font-style:normal; font-size:12.72pt; text-decoration: none; fill:#000000; fill-opacity:1.00; stroke:#000000; stroke-opacity:1.00; stroke-width:0; white-space: pre;" xml:space="preserve" transform="rotate(0.00 892.00 74.00)">Business Communication</text>
  <text x="892.00" y="99.00" textLength="113" style="font-family:Segoe UI; font-weight:400; font-style:normal; font-size:12.72pt; text-decoration: none; fill:#000000; fill-opacity:1.00; stroke:#000000; stroke-opacity:1.00; stroke-width:0; white-space: pre;" xml:space="preserve" transform="rotate(0.00 892.00 99.00)">Business Ethics</text>
  <text x="892.00" y="124.00" textLength="202" style="font-family:Segoe UI; font-weight:400; font-style:normal; font-size:12.72pt; text-decoration: none; fill:#000000; fill-opacity:1.00; stroke:#000000; stroke-opacity:1.00; stroke-width:0; white-space: pre;" xml:space="preserve" transform="rotate(0.00 892.00 124.00)">Introduction to Economics</text>
  <text x="892.00" y="149.00" textLength="112" style="font-family:Segoe UI; font-weight:400; font-style:normal; font-size:12.72pt; text-decoration: none; fill:#000000; fill-opacity:1.00; stroke:#000000; stroke-opacity:1.00; stroke-width:0; white-space: pre;" xml:space="preserve" transform="rotate(0.00 892.00 149.00)">Report Writing</text>
  <text x="861.00" y="174.00" textLength="139" style="font-family:Segoe UI; font-weight:400; font-style:normal; font-size:12.72pt; text-decoration: none; fill:#000000; fill-opacity:1.00; stroke:#000000; stroke-opacity:1.00; stroke-width:0; white-space: pre;" xml:space="preserve" transform="rotate(0.00 861.00 174.00)">Computer Science</text>
  <text x="892.00" y="199.00" textLength="5" style="font-family:Segoe UI; font-weight:400; font-style:normal; font-size:12.72pt; text-decoration: none; fill:#000000; fill-opacity:1.00; stroke:#000000; stroke-opacity:1.00; stroke-width:0; white-space: pre;" xml:space="preserve" transform="rotate(0.00 892.00 199.00)"> </text>
  <text x="892.00" y="224.00" textLength="115" style="font-family:Segoe UI; font-weight:400; font-style:normal; font-size:12.72pt; text-decoration: none; fill:#000000; fill-opacity:1.00; stroke:#000000; stroke-opacity:1.00; stroke-width:0; white-space: pre;" xml:space="preserve" transform="rotate(0.00 892.00 224.00)">Advanced C++</text>
  <text x="892.00" y="249.00" textLength="35" style="font-family:Segoe UI; font-weight:400; font-style:normal; font-size:12.72pt; text-decoration: none; fill:#000000; fill-opacity:1.00; stroke:#000000; stroke-opacity:1.00; stroke-width:0; white-space: pre;" xml:space="preserve" transform="rotate(0.00 892.00 249.00)">C++</text>
  <text x="892.00" y="274.00" textLength="55" style="font-family:Segoe UI; font-weight:400; font-style:normal; font-size:12.72pt; text-decoration: none; fill:#000000; fill-opacity:1.00; stroke:#000000; stroke-opacity:1.00; stroke-width:0; white-space: pre;" xml:space="preserve" transform="rotate(0.00 892.00 274.00)">COBOL</text>
  <text x="892.00" y="299.00" textLength="203" style="font-family:Segoe UI; font-weight:400; font-style:normal; font-size:12.72pt; text-decoration: none; fill:#000000; fill-opacity:1.00; stroke:#000000; stroke-opacity:1.00; stroke-width:0; white-space: pre;" xml:space="preserve" transform="rotate(0.00 892.00 299.00)">Introduction to wxWidgets</text>
  <text x="892.00" y="324.00" textLength="123" style="font-family:Segoe UI; font-weight:400; font-style:normal; font-size:12.72pt; text-decoration: none; fill:#000000; fill-opacity:1.00; stroke:#000000; stroke-opacity:1.00; stroke-width:0; white-space: pre;" xml:space="preserve" transform="rotate(0.00 892.00 324.00)">Visual Basic.NET</text>
  <text x="861.00" y="349.00" textLength="54" style="font-family:Segoe UI; font-weight:400; font-style:normal; font-size:12.72pt; text-decoration: none; fill:#000000; fill-opacity:1.00; stroke:#000000; stroke-opacity:1.00; stroke-width:0; white-space: pre;" xml:space="preserve" transform="rotate(0.00 861.00 349.00)">English</text>
  <text x="892.00" y="374.00" textLength="5" style="font-family:Segoe UI; font-weight:400; font-style:normal; font-size:12.72pt; text-decoration: none; fill:#000000; fill-opacity:1.00; stroke:#000000; stroke-opacity:1.00; stroke-width:0; white-space: pre;" xml:space="preserve" transform="rotate(0.00 892.00 374.00)"> </text>
  <text x="892.00" y="399.00" textLength="123" style="font-family:Segoe UI; font-weight:400; font-style:normal; font-size:12.72pt; text-decoration: none; fill:#000000; fill-opacity:1.00; stroke:#000000; stroke-opacity:1.00; stroke-width:0; white-space: pre;" xml:space="preserve" transform="rotate(0.00 892.00 399.00)">Creative Writing</text>
  <text x="892.00" y="424.00" textLength="141" style="font-family:Segoe UI; font-weight:400; font-style:normal; font-size:12.72pt; text-decoration: none; fill:#000000; fill-opacity:1.00; stroke:#000000; stroke-opacity:1.00; stroke-width:0; white-space: pre;" xml:space="preserve" transform="rotate(0.00 892.00 424.00)">Western Literature</text>
  <text x="861.00" y="449.00" textLength="57" style="font-family:Segoe UI; font-weight:400; font-style:normal; font-size:12.72pt; text-decoration: none; fill:#000000; fill-opacity:1.00; stroke:#000000; stroke-opacity:1.00; stroke-width:0; white-space: pre;" xml:space="preserve" transform="rotate(0.00 861.00 449.00)">Science</text>
  <text x="892.00" y="474.00" textLength="5" style="font-family:Segoe UI; font-weight:400; font-style:normal; font-size:12.72pt; text-decoration: none; fill:#000000; fill-opacity:1.00; stroke:#000000; stroke-opacity:1.00; stroke-width:0; white-space: pre;" xml:space="preserve" transform="rotate(0.00 892.00 474.00)"> </text>
  <text x="892.00" y="499.00" textLength="184" style="font-family:Segoe UI; font-weight:400; font-style:normal; font-size:12.72pt; text-decoration: none; fill:#000000; fill-opacity:1.00; stroke:#000000; stroke-opacity:1.00; stroke-width:0; white-space: pre;" xml:space="preserve" transform="rotate(0.00 892.00 499.00)">Anatomy &amp; Physiology I</text>
  <text x="892.00" y="524.00" textLength="151" style="font-family:Segoe UI; font-weight:400; font-style:normal; font-size:12.72pt; text-decoration: none; fill:#000000; fill-opacity:1.00; stroke:#000000; stroke-opacity:1.00; stroke-width:0; white-space: pre;" xml:space="preserve" transform="rotate(0.00 892.00 524.00)">Organic Chemistry I</text>
  <text x="892.00" y="549.00" textLength="156" style="font-family:Segoe UI; font-weight:400; font-style:normal; font-size:12.72pt; text-decoration: none; fill:#000000; fill-opacity:1.00; stroke:#000000; stroke-opacity:1.00; stroke-width:0; white-space: pre;" xml:space="preserve" transform="rotate(0.00 892.00 549.00)">Organic Chemistry II</text>
</g>
<g style="stroke-width:1; stroke-linecap:round; stroke-linejoin:round; fill:#000000; fill-opacity:1.00; stroke:#000000; stroke-opacity:1.00;" transform="translate(0 0) scale(1.00 1.00)">
  <path d="M865 42 L1091 42" shape-rendering="auto" />
</g>
<g style="stroke-width:1; stroke-linecap:round; stroke-linejoin:round; fill:#19526C; fill-opacity:1.00; stroke:#000000; stroke-opacity:1.00;" transform="translate(0 0) scale(1.00 1.00)">
  <polygon points="879 67 867 73 867 61 " shape-rendering="auto"   style="fill-rule:evenodd;"/>
</g>
<g style="stroke-width:1; stroke-linecap:round; stroke-linejoin:round; fill:#30637A; fill-opacity:1.00; stroke:#000000; stroke-opacity:1.00;" transform="translate(0 0) scale(1.00 1.00)">
  <polygon points="879 92 867 98 867 86 " shape-rendering="auto"   style="fill-rule:evenodd;"/>
</g>
<g style="stroke-width:1; stroke-linecap:round; stroke-linejoin:round; fill:#447287; fill-opacity:1.00; stroke:#000000; stroke-opacity:1.00;" transform="translate(0 0) scale(1.00 1.00)">
  <polygon points="879 117 867 123 867 111 " shape-rendering="auto"   style="fill-rule:evenodd;"/>
</g>
<g style="stroke-width:1; stroke-linecap:round; stroke-linejoin:round; fill:#568093; fill-opacity:1.00; stroke:#000000; stroke-opacity:1.00;" transform="translate(0 0) scale(1.00 1.00)">
  <polygon points="879 142 867 148 867 136 " shape-rendering="auto"   style="fill-rule:evenodd;"/>
</g>
<g style="stroke-width:1; stroke-linecap:round; stroke-linejoin:round; fill:#000000; fill-opacity:1.00; stroke:#000000; stroke-opacity:1.00;" transform="translate(0 0) scale(1.00 1.00)">
  <path d="M865 192 L1091 192" shape-rendering="auto" />
</g>
<g style="stroke-width:1; stroke-linecap:round; stroke-linejoin:round; fill:#586F96; fill-opacity:1.00; stroke:#000000; stroke-opacity:1.00;" transform="translate(0 0) scale(1.00 1.00)">
  <polygon points="879 217 867 223 867 211 " shape-rendering="auto"   style="fill-rule:evenodd;"/>
</g>
<g style="stroke-width:1; stroke-linecap:round; stroke-linejoin:round; fill:#687DA0; fill-opacity:1.00; stroke:#000000; stroke-opacity:1.00;" transform="translate(0 0) scale(1.00 1.00)">
  <polygon points="879 242 867 248 867 236 " shape-rendering="auto"   style="fill-rule:evenodd;"/>
</g>
<g style="stroke-width:1; stroke-linecap:round; stroke-linejoin:round; fill:#778AA9; fill-opacity:1.00; stroke:#000000; stroke-opacity:1.00;" transform="translate(0 0) scale(1.00 1.00)">
  <polygon points="879 267 867 273 867 261 " shape-rendering="auto"   style="fill-rule:evenodd;"/>
</g>
<g style="stroke-width:1; stroke-linecap:round; stroke-linejoin:round; fill:#6B7C98; fill-opacity:1.00; stroke:#000000; stroke-opacity:1.00;" transform="translate(0 0) scale(1.00 1.00)">
  <polygon points="879 292 867 298 867 286 " shape-rendering="auto"   style="fill-rule:evenodd;"/>
</g>
<g style="stroke-width:1; stroke-linecap:round; stroke-linejoin:round; fill:#7989A2; fill-opacity:1.00; stroke:#000000; stroke-opacity:1.00;" transform="translate(0 0) scale(1.00 1.00)">
  <polygon points="879 317 867 323 867 311 " shape-rendering="auto"   style="fill-rule:evenodd;"/>
</g>
<g style="stroke-width:1; stroke-linecap:round; stroke-linejoin:round; fill:#000000; fill-opacity:1.00; stroke:#000000; stroke-opacity:1.00;" transform="translate(0 0) scale(1.00 1.00)">
  <path d="M865 367 L1091 367" shape-rendering="auto" />
</g>
<g style="stroke-width:1; stroke-linecap:round; stroke-linejoin:round; fill:#8473A7; fill-opacity:1.00; stroke:#000000; stroke-opacity:1.00;" transform="translate(0 0) scale(1.00 1.00)">
  <polygon points="879 392 867 398 867 386 " shape-rendering="auto"   style="fill-rule:evenodd;"/>
</g>
<g style="stroke-width:1; stroke-linecap:round; stroke-linejoin:round; fill:#9081AF; fill-opacity:1.00; stroke:#000000; stroke-opacity:1.00;" transform="translate(0 0) scale(1.00 1.00)">
  <polygon points="879 417 867 423 867 411 " shape-rendering="auto"   style="fill-rule:evenodd;"/>
</g>
<g style="stroke-width:1; stroke-linecap:round; stroke-linejoin:round; fill:#000000; fill-opacity:1.00; stroke:#000000; stroke-opacity:1.00;" transform="translate(0 0) scale(1.00 1.00)">
  <path d="M865 467 L1091 467" shape-rendering="auto" />
</g>
<g style="stroke-width:1; stroke-linecap:round; stroke-linejoin:round; fill:#B373AA; fill-opacity:1.00; stroke:#000000; stroke-opacity:1.00;" transform="translate(0 0) scale(1.00 1.00)">
  <polygon points="879 492 867 498 867 486 " shape-rendering="auto"   style="fill-rule:evenodd;"/>
</g>
<g style="stroke-width:1; stroke-linecap:round; stroke-linejoin:round; fill:#A16799; fill-opacity:1.00; stroke:#000000; stroke-opacity:1.00;" transform="translate(0 0) scale(1.00 1.00)">
  <polygon points="879 517 867 523 867 511 " shape-rendering="auto"   style="fill-rule:evenodd;"/>
</g>
<g style="stroke-width:1; stroke-linecap:round; stroke-linejoin:round; fill:#AA76A3; fill-opacity:1.00; stroke:#000000; stroke-opacity:1.00;" transform="translate(0 0) scale(1.00 1.00)">
  <polygon points="879 542 867 548 867 536 " shape-rendering="auto"   style="fill-rule:evenodd;"/>
</g>
</svg>
