<?xml version="1.0" encoding="UTF-8" standalone="no"?>
<!DOCTYPE svg PUBLIC "-//W3C//DTD SVG 1.0//EN" "http://www.w3.org/TR/2001/REC-SVG-20010904/DTD/svg10.dtd">

<svg xmlns="http://www.w3.org/2000/svg" xmlns:xlink="http://www.w3.org/1999/xlink" width="29.88cm" height="16.86cm" viewBox="0 0 847 478">
<title>panel</title>
<desc>Picture generated by wxSVG v0101</desc>

<g style="fill:black; stroke:black; stroke-width:1">
</g>
<g style="stroke-width:1; stroke-linecap:round; stroke-linejoin:round; fill:#000000; fill-opacity:0.0; stroke:#000000; stroke-opacity:0.0;" transform="translate(0 0) scale(1.00 1.00)">
  <rect x="0" y="0" width="847" height="478" rx="0.00" shape-rendering="auto"  />
</g>
<g style="stroke-width:1; stroke-linecap:round; stroke-linejoin:round; fill:#FFFFFF; fill-opacity:1.00; stroke:#000000; stroke-opacity:1.00;" transform="translate(0 0) scale(1.00 1.00)">
</g>
<g style="stroke-width:1; stroke-linecap:round; stroke-linejoin:round; fill:#FFFFFF; fill-opacity:1.00; stroke:#000000; stroke-opacity:1.00;" transform="translate(0 0) scale(1.00 1.00)">
  <rect x="0" y="0" width="847" height="478" rx="0.00" shape-rendering="auto"  />
</g>
<g style="stroke-width:1; stroke-linecap:round; stroke-linejoin:round; fill:#FFFFFF; fill-opacity:1.00; stroke:#E6E6FA; stroke-opacity:1.00;" transform="translate(0 0) scale(1.00 1.00)">
  <path d="M1 450 L790 450" shape-rendering="auto" />
</g>
<g style="stroke-width:1; stroke-linecap:round; stroke-linejoin:round; fill:#FFFFFF; fill-opacity:1.00; stroke:#E6E6FA; stroke-opacity:1.00;" transform="translate(0 0) scale(1.00 1.00)">
  <path d="M1 27 L790 27" shape-rendering="auto" />
</g>
<g style="stroke-width:1; stroke-linecap:round; stroke-linejoin:round; fill:#FFFFFF; fill-opacity:1.00; stroke:#E6E6FA; stroke-opacity:1.00;" transform="translate(0 0) scale(1.00 1.00)">
  <path d="M1 27 L1 450" shape-rendering="auto" />
</g>
<g style="stroke-width:1; stroke-linecap:round; stroke-linejoin:round; fill:#FFFFFF; fill-opacity:1.00; stroke:#E6E6FA; stroke-opacity:1.00;" transform="translate(0 0) scale(1.00 1.00)">
  <path d="M790 27 L790 450" shape-rendering="auto" />
</g>
<g style="stroke-width:1; stroke-linecap:round; stroke-linejoin:round; fill:#000000; fill-opacity:1.00; stroke:#000000; stroke-opacity:1.00;" transform="translate(0 0) scale(1.00 1.00)">
  <text x="659.00" y="16.00" textLength="67" style="font-family:Segoe UI; font-weight:700; font-style:normal; font-size:10.89pt; text-decoration: none; fill:#7E7E8A; fill-opacity:1.00; stroke:#7E7E8A; stroke-opacity:1.00; stroke-width:0; white-space: pre;" xml:space="preserve" transform="rotate(0.00 659.00 16.00)">Neutral🠖</text>
</g>
<g style="stroke-width:1; stroke-linecap:round; stroke-linejoin:round; fill:#000000; fill-opacity:1.00; stroke:#000000; stroke-opacity:1.00;" transform="translate(0 0) scale(1.00 1.00)">
  <text x="743.00" y="473.00" textLength="106" style="font-family:Segoe UI; font-weight:700; font-style:normal; font-size:10.89pt; text-decoration: none; fill:#000000; fill-opacity:1.00; stroke:#000000; stroke-opacity:1.00; stroke-width:0; white-space: pre;" xml:space="preserve" transform="rotate(0.00 743.00 473.00)">No Response🠖</text>
</g>
<g style="stroke-width:1; stroke-linecap:round; stroke-linejoin:round; fill:#000000; fill-opacity:1.00; stroke:#000000; stroke-opacity:1.00;" transform="translate(0 0) scale(1.00 1.00)">
  <text x="453.00" y="16.00" textLength="56" style="font-family:Segoe UI; font-weight:700; font-style:normal; font-size:10.89pt; text-decoration: none; fill:#007BA7; fill-opacity:1.00; stroke:#007BA7; stroke-opacity:1.00; stroke-width:0; white-space: pre;" xml:space="preserve" transform="rotate(0.00 453.00 16.00)">Agree🠖</text>
</g>
<g style="stroke-width:1; stroke-linecap:round; stroke-linejoin:round; fill:#000000; fill-opacity:1.00; stroke:#000000; stroke-opacity:1.00;" transform="translate(0 0) scale(1.00 1.00)">
  <text x="363.00" y="16.00" textLength="79" style="font-family:Segoe UI; font-weight:700; font-style:normal; font-size:10.89pt; text-decoration: none; fill:#BC7800; fill-opacity:1.00; stroke:#BC7800; stroke-opacity:1.00; stroke-width:0; white-space: pre;" xml:space="preserve" transform="rotate(0.00 363.00 16.00)">🠔 Disagree</text>
</g>
<g style="stroke-width:1; stroke-linecap:round; stroke-linejoin:round; fill:#FFFFFF; fill-opacity:1.00; stroke:#E6E6FA; stroke-opacity:1.00;" transform="translate(0 0) scale(1.00 1.00)">
  <path d="M208 27 L208 450" shape-rendering="auto" />
</g>
<g style="stroke-width:1; stroke-linecap:round; stroke-linejoin:round; fill:#FFFFFF; fill-opacity:1.00; stroke:#E6E6FA; stroke-opacity:1.00;" transform="translate(0 0) scale(1.00 1.00)">
  <path d="M260 27 L260 450" shape-rendering="auto" />
</g>
<g style="stroke-width:1; stroke-linecap:round; stroke-linejoin:round; fill:#FFFFFF; fill-opacity:1.00; stroke:#E6E6FA; stroke-opacity:1.00;" transform="translate(0 0) scale(1.00 1.00)">
  <path d="M208 419 L790 419" shape-rendering="auto" />
</g>
<g style="stroke-width:1; stroke-linecap:round; stroke-linejoin:round; fill:#FFFFFF; fill-opacity:1.00; stroke:#E6E6FA; stroke-opacity:1.00;" transform="translate(0 0) scale(1.00 1.00)">
  <path d="M1 389 L790 389" shape-rendering="auto" />
</g>
<g style="stroke-width:1; stroke-linecap:round; stroke-linejoin:round; fill:#FFFFFF; fill-opacity:1.00; stroke:#E6E6FA; stroke-opacity:1.00;" transform="translate(0 0) scale(1.00 1.00)">
  <path d="M208 359 L790 359" shape-rendering="auto" />
</g>
<g style="stroke-width:1; stroke-linecap:round; stroke-linejoin:round; fill:#FFFFFF; fill-opacity:1.00; stroke:#E6E6FA; stroke-opacity:1.00;" transform="translate(0 0) scale(1.00 1.00)">
  <path d="M1 329 L790 329" shape-rendering="auto" />
</g>
<g style="stroke-width:1; stroke-linecap:round; stroke-linejoin:round; fill:#FFFFFF; fill-opacity:1.00; stroke:#E6E6FA; stroke-opacity:1.00;" transform="translate(0 0) scale(1.00 1.00)">
  <path d="M208 298 L790 298" shape-rendering="auto" />
</g>
<g style="stroke-width:1; stroke-linecap:round; stroke-linejoin:round; fill:#FFFFFF; fill-opacity:1.00; stroke:#E6E6FA; stroke-opacity:1.00;" transform="translate(0 0) scale(1.00 1.00)">
  <path d="M1 268 L790 268" shape-rendering="auto" />
</g>
<g style="stroke-width:1; stroke-linecap:round; stroke-linejoin:round; fill:#FFFFFF; fill-opacity:1.00; stroke:#E6E6FA; stroke-opacity:1.00;" transform="translate(0 0) scale(1.00 1.00)">
  <path d="M208 238 L790 238" shape-rendering="auto" />
</g>
<g style="stroke-width:1; stroke-linecap:round; stroke-linejoin:round; fill:#FFFFFF; fill-opacity:1.00; stroke:#E6E6FA; stroke-opacity:1.00;" transform="translate(0 0) scale(1.00 1.00)">
  <path d="M1 208 L790 208" shape-rendering="auto" />
</g>
<g style="stroke-width:1; stroke-linecap:round; stroke-linejoin:round; fill:#FFFFFF; fill-opacity:1.00; stroke:#E6E6FA; stroke-opacity:1.00;" transform="translate(0 0) scale(1.00 1.00)">
  <path d="M208 178 L790 178" shape-rendering="auto" />
</g>
<g style="stroke-width:1; stroke-linecap:round; stroke-linejoin:round; fill:#FFFFFF; fill-opacity:1.00; stroke:#E6E6FA; stroke-opacity:1.00;" transform="translate(0 0) scale(1.00 1.00)">
  <path d="M1 147 L790 147" shape-rendering="auto" />
</g>
<g style="stroke-width:1; stroke-linecap:round; stroke-linejoin:round; fill:#FFFFFF; fill-opacity:1.00; stroke:#E6E6FA; stroke-opacity:1.00;" transform="translate(0 0) scale(1.00 1.00)">
  <path d="M208 117 L790 117" shape-rendering="auto" />
</g>
<g style="stroke-width:1; stroke-linecap:round; stroke-linejoin:round; fill:#FFFFFF; fill-opacity:1.00; stroke:#E6E6FA; stroke-opacity:1.00;" transform="translate(0 0) scale(1.00 1.00)">
  <path d="M1 87 L790 87" shape-rendering="auto" />
</g>
<g style="stroke-width:1; stroke-linecap:round; stroke-linejoin:round; fill:#FFFFFF; fill-opacity:1.00; stroke:#E6E6FA; stroke-opacity:1.00;" transform="translate(0 0) scale(1.00 1.00)">
  <path d="M208 57 L790 57" shape-rendering="auto" />
</g>
<g style="stroke-width:1; stroke-linecap:round; stroke-linejoin:round; fill:#FFFFFF; fill-opacity:1.00; stroke:#E6E6FA; stroke-opacity:1.00;" transform="translate(0 0) scale(1.00 1.00)">
  <path d="M1 27 L790 27" shape-rendering="auto" />
</g>
<g style="stroke-width:1; stroke-linecap:round; stroke-linejoin:round; fill:#000000; fill-opacity:0.00; stroke:#000000; stroke-opacity:0.00;" transform="translate(0 0) scale(1.00 1.00)">
  <polygon points="2 388 207 388 207 448 2 448 " shape-rendering="auto"   style="fill-rule:evenodd;"/>
</g>
<g style="stroke-width:1; stroke-linecap:round; stroke-linejoin:round; fill:#000000; fill-opacity:0.00; stroke:#000000; stroke-opacity:0.00;" transform="translate(0 0) scale(1.00 1.00)">
  <polygon points="208 419 259 419 259 449 208 449 " shape-rendering="auto"   style="fill-rule:evenodd;"/>
</g>
<g style="stroke-width:1; stroke-linecap:round; stroke-linejoin:round; fill:#007BA7; fill-opacity:1.00; stroke:#000000; stroke-opacity:0.0;" transform="translate(0 0) scale(1.00 1.00)">
  <polygon points="447 419 653 419 653 449 447 449 " shape-rendering="auto"   style="fill-rule:evenodd;"/>
</g>
<g style="stroke-width:1; stroke-linecap:round; stroke-linejoin:round; fill:#000000; fill-opacity:0.00; stroke:#000000; stroke-opacity:0.00;" transform="translate(0 0) scale(1.00 1.00)">
  <polygon points="208 389 259 389 259 418 208 418 " shape-rendering="auto"   style="fill-rule:evenodd;"/>
</g>
<g style="stroke-width:1; stroke-linecap:round; stroke-linejoin:round; fill:#007BA7; fill-opacity:1.00; stroke:#000000; stroke-opacity:0.0;" transform="translate(0 0) scale(1.00 1.00)">
  <polygon points="447 397 653 397 653 409 447 409 " shape-rendering="auto"   style="fill-rule:evenodd;"/>
</g>
<g style="stroke-width:1; stroke-linecap:round; stroke-linejoin:round; fill:#000000; fill-opacity:0.00; stroke:#000000; stroke-opacity:0.00;" transform="translate(0 0) scale(1.00 1.00)">
  <polygon points="2 329 207 329 207 388 2 388 " shape-rendering="auto"   style="fill-rule:evenodd;"/>
</g>
<g style="stroke-width:1; stroke-linecap:round; stroke-linejoin:round; fill:#000000; fill-opacity:0.00; stroke:#000000; stroke-opacity:0.00;" transform="translate(0 0) scale(1.00 1.00)">
  <polygon points="208 359 259 359 259 388 208 388 " shape-rendering="auto"   style="fill-rule:evenodd;"/>
</g>
<g style="stroke-width:1; stroke-linecap:round; stroke-linejoin:round; fill:#007BA7; fill-opacity:1.00; stroke:#000000; stroke-opacity:0.0;" transform="translate(0 0) scale(1.00 1.00)">
  <polygon points="447 359 653 359 653 388 447 388 " shape-rendering="auto"   style="fill-rule:evenodd;"/>
</g>
<g style="stroke-width:1; stroke-linecap:round; stroke-linejoin:round; fill:#000000; fill-opacity:0.00; stroke:#000000; stroke-opacity:0.00;" transform="translate(0 0) scale(1.00 1.00)">
  <polygon points="208 329 259 329 259 358 208 358 " shape-rendering="auto"   style="fill-rule:evenodd;"/>
</g>
<g style="stroke-width:1; stroke-linecap:round; stroke-linejoin:round; fill:#007BA7; fill-opacity:1.00; stroke:#000000; stroke-opacity:0.0;" transform="translate(0 0) scale(1.00 1.00)">
  <polygon points="447 337 653 337 653 349 447 349 " shape-rendering="auto"   style="fill-rule:evenodd;"/>
</g>
<g style="stroke-width:1; stroke-linecap:round; stroke-linejoin:round; fill:#000000; fill-opacity:0.00; stroke:#000000; stroke-opacity:0.00;" transform="translate(0 0) scale(1.00 1.00)">
  <polygon points="2 267 207 267 207 327 2 327 " shape-rendering="auto"   style="fill-rule:evenodd;"/>
</g>
<g style="stroke-width:1; stroke-linecap:round; stroke-linejoin:round; fill:#000000; fill-opacity:0.00; stroke:#000000; stroke-opacity:0.00;" transform="translate(0 0) scale(1.00 1.00)">
  <polygon points="208 298 259 298 259 328 208 328 " shape-rendering="auto"   style="fill-rule:evenodd;"/>
</g>
<g style="stroke-width:1; stroke-linecap:round; stroke-linejoin:round; fill:#FFA500; fill-opacity:1.00; stroke:#000000; stroke-opacity:0.0;" transform="translate(0 0) scale(1.00 1.00)">
  <polygon points="371 298 446 298 446 328 371 328 " shape-rendering="auto"   style="fill-rule:evenodd;"/>
</g>
<g style="stroke-width:1; stroke-linecap:round; stroke-linejoin:round; fill:#007BA7; fill-opacity:1.00; stroke:#000000; stroke-opacity:0.0;" transform="translate(0 0) scale(1.00 1.00)">
  <polygon points="447 298 521 298 521 328 447 328 " shape-rendering="auto"   style="fill-rule:evenodd;"/>
</g>
<g style="stroke-width:1; stroke-linecap:round; stroke-linejoin:round; fill:#E6E6FA; fill-opacity:1.00; stroke:#000000; stroke-opacity:0.0;" transform="translate(0 0) scale(1.00 1.00)">
  <polygon points="654 298 713 298 713 328 654 328 " shape-rendering="auto"   style="fill-rule:evenodd;"/>
</g>
<g style="stroke-width:1; stroke-linecap:round; stroke-linejoin:round; fill:#000000; fill-opacity:0.00; stroke:#000000; stroke-opacity:0.00;" transform="translate(0 0) scale(1.00 1.00)">
  <polygon points="208 268 259 268 259 297 208 297 " shape-rendering="auto"   style="fill-rule:evenodd;"/>
</g>
<g style="stroke-width:1; stroke-linecap:round; stroke-linejoin:round; fill:#FFA500; fill-opacity:1.00; stroke:#000000; stroke-opacity:0.0;" transform="translate(0 0) scale(1.00 1.00)">
  <polygon points="378 276 446 276 446 288 378 288 " shape-rendering="auto"   style="fill-rule:evenodd;"/>
</g>
<g style="stroke-width:1; stroke-linecap:round; stroke-linejoin:round; fill:#007BA7; fill-opacity:1.00; stroke:#000000; stroke-opacity:0.0;" transform="translate(0 0) scale(1.00 1.00)">
  <polygon points="447 276 514 276 514 288 447 288 " shape-rendering="auto"   style="fill-rule:evenodd;"/>
</g>
<g style="stroke-width:1; stroke-linecap:round; stroke-linejoin:round; fill:#E6E6FA; fill-opacity:1.00; stroke:#000000; stroke-opacity:0.0;" transform="translate(0 0) scale(1.00 1.00)">
  <polygon points="654 276 721 276 721 288 654 288 " shape-rendering="auto"   style="fill-rule:evenodd;"/>
</g>
<g style="stroke-width:1; stroke-linecap:round; stroke-linejoin:round; fill:#000000; fill-opacity:0.00; stroke:#000000; stroke-opacity:0.00;" transform="translate(0 0) scale(1.00 1.00)">
  <polygon points="2 208 207 208 207 267 2 267 " shape-rendering="auto"   style="fill-rule:evenodd;"/>
</g>
<g style="stroke-width:1; stroke-linecap:round; stroke-linejoin:round; fill:#000000; fill-opacity:0.00; stroke:#000000; stroke-opacity:0.00;" transform="translate(0 0) scale(1.00 1.00)">
  <polygon points="208 238 259 238 259 267 208 267 " shape-rendering="auto"   style="fill-rule:evenodd;"/>
</g>
<g style="stroke-width:1; stroke-linecap:round; stroke-linejoin:round; fill:#007BA7; fill-opacity:1.00; stroke:#000000; stroke-opacity:0.0;" transform="translate(0 0) scale(1.00 1.00)">
  <polygon points="447 238 653 238 653 267 447 267 " shape-rendering="auto"   style="fill-rule:evenodd;"/>
</g>
<g style="stroke-width:1; stroke-linecap:round; stroke-linejoin:round; fill:#000000; fill-opacity:0.00; stroke:#000000; stroke-opacity:0.00;" transform="translate(0 0) scale(1.00 1.00)">
  <polygon points="208 208 259 208 259 237 208 237 " shape-rendering="auto"   style="fill-rule:evenodd;"/>
</g>
<g style="stroke-width:1; stroke-linecap:round; stroke-linejoin:round; fill:#007BA7; fill-opacity:1.00; stroke:#000000; stroke-opacity:0.0;" transform="translate(0 0) scale(1.00 1.00)">
  <polygon points="447 217 618 217 618 228 447 228 " shape-rendering="auto"   style="fill-rule:evenodd;"/>
</g>
<g style="stroke-width:1; stroke-linecap:round; stroke-linejoin:round; fill:#E6E6FA; fill-opacity:1.00; stroke:#000000; stroke-opacity:0.0;" transform="translate(0 0) scale(1.00 1.00)">
  <polygon points="654 217 689 217 689 228 654 228 " shape-rendering="auto"   style="fill-rule:evenodd;"/>
</g>
<g style="stroke-width:1; stroke-linecap:round; stroke-linejoin:round; fill:#000000; fill-opacity:0.00; stroke:#000000; stroke-opacity:0.00;" transform="translate(0 0) scale(1.00 1.00)">
  <polygon points="2 147 207 147 207 207 2 207 " shape-rendering="auto"   style="fill-rule:evenodd;"/>
</g>
<g style="stroke-width:1; stroke-linecap:round; stroke-linejoin:round; fill:#000000; fill-opacity:0.00; stroke:#000000; stroke-opacity:0.00;" transform="translate(0 0) scale(1.00 1.00)">
  <polygon points="208 178 259 178 259 207 208 207 " shape-rendering="auto"   style="fill-rule:evenodd;"/>
</g>
<g style="stroke-width:1; stroke-linecap:round; stroke-linejoin:round; fill:#007BA7; fill-opacity:1.00; stroke:#000000; stroke-opacity:0.0;" transform="translate(0 0) scale(1.00 1.00)">
  <polygon points="447 178 638 178 638 207 447 207 " shape-rendering="auto"   style="fill-rule:evenodd;"/>
</g>
<g style="stroke-width:1; stroke-linecap:round; stroke-linejoin:round; fill:#E6E6FA; fill-opacity:1.00; stroke:#000000; stroke-opacity:0.0;" transform="translate(0 0) scale(1.00 1.00)">
  <polygon points="654 178 668 178 668 207 654 207 " shape-rendering="auto"   style="fill-rule:evenodd;"/>
</g>
<g style="stroke-width:1; stroke-linecap:round; stroke-linejoin:round; fill:#000000; fill-opacity:0.00; stroke:#000000; stroke-opacity:0.00;" transform="translate(0 0) scale(1.00 1.00)">
  <polygon points="208 147 259 147 259 177 208 177 " shape-rendering="auto"   style="fill-rule:evenodd;"/>
</g>
<g style="stroke-width:1; stroke-linecap:round; stroke-linejoin:round; fill:#007BA7; fill-opacity:1.00; stroke:#000000; stroke-opacity:0.0;" transform="translate(0 0) scale(1.00 1.00)">
  <polygon points="447 156 618 156 618 168 447 168 " shape-rendering="auto"   style="fill-rule:evenodd;"/>
</g>
<g style="stroke-width:1; stroke-linecap:round; stroke-linejoin:round; fill:#E6E6FA; fill-opacity:1.00; stroke:#000000; stroke-opacity:0.0;" transform="translate(0 0) scale(1.00 1.00)">
  <polygon points="654 156 689 156 689 168 654 168 " shape-rendering="auto"   style="fill-rule:evenodd;"/>
</g>
<g style="stroke-width:1; stroke-linecap:round; stroke-linejoin:round; fill:#000000; fill-opacity:0.00; stroke:#000000; stroke-opacity:0.00;" transform="translate(0 0) scale(1.00 1.00)">
  <polygon points="2 87 207 87 207 146 2 146 " shape-rendering="auto"   style="fill-rule:evenodd;"/>
</g>
<g style="stroke-width:1; stroke-linecap:round; stroke-linejoin:round; fill:#000000; fill-opacity:0.00; stroke:#000000; stroke-opacity:0.00;" transform="translate(0 0) scale(1.00 1.00)">
  <polygon points="208 117 259 117 259 146 208 146 " shape-rendering="auto"   style="fill-rule:evenodd;"/>
</g>
<g style="stroke-width:1; stroke-linecap:round; stroke-linejoin:round; fill:#FFA500; fill-opacity:1.00; stroke:#000000; stroke-opacity:0.0;" transform="translate(0 0) scale(1.00 1.00)">
  <polygon points="418 117 446 117 446 146 418 146 " shape-rendering="auto"   style="fill-rule:evenodd;"/>
</g>
<g style="stroke-width:1; stroke-linecap:round; stroke-linejoin:round; fill:#007BA7; fill-opacity:1.00; stroke:#000000; stroke-opacity:0.0;" transform="translate(0 0) scale(1.00 1.00)">
  <polygon points="447 117 578 117 578 146 447 146 " shape-rendering="auto"   style="fill-rule:evenodd;"/>
</g>
<g style="stroke-width:1; stroke-linecap:round; stroke-linejoin:round; fill:#E6E6FA; fill-opacity:1.00; stroke:#000000; stroke-opacity:0.0;" transform="translate(0 0) scale(1.00 1.00)">
  <polygon points="654 117 697 117 697 146 654 146 " shape-rendering="auto"   style="fill-rule:evenodd;"/>
</g>
<g style="stroke-width:1; stroke-linecap:round; stroke-linejoin:round; fill:#000000; fill-opacity:0.00; stroke:#000000; stroke-opacity:0.00;" transform="translate(0 0) scale(1.00 1.00)">
  <polygon points="208 87 259 87 259 116 208 116 " shape-rendering="auto"   style="fill-rule:evenodd;"/>
</g>
<g style="stroke-width:1; stroke-linecap:round; stroke-linejoin:round; fill:#FFA500; fill-opacity:1.00; stroke:#000000; stroke-opacity:0.0;" transform="translate(0 0) scale(1.00 1.00)">
  <polygon points="378 95 446 95 446 107 378 107 " shape-rendering="auto"   style="fill-rule:evenodd;"/>
</g>
<g style="stroke-width:1; stroke-linecap:round; stroke-linejoin:round; fill:#007BA7; fill-opacity:1.00; stroke:#000000; stroke-opacity:0.0;" transform="translate(0 0) scale(1.00 1.00)">
  <polygon points="447 95 481 95 481 107 447 107 " shape-rendering="auto"   style="fill-rule:evenodd;"/>
</g>
<g style="stroke-width:1; stroke-linecap:round; stroke-linejoin:round; fill:#E6E6FA; fill-opacity:1.00; stroke:#000000; stroke-opacity:0.0;" transform="translate(0 0) scale(1.00 1.00)">
  <polygon points="654 95 721 95 721 107 654 107 " shape-rendering="auto"   style="fill-rule:evenodd;"/>
</g>
<g style="stroke-width:1; stroke-linecap:round; stroke-linejoin:round; fill:#FFFFFF; fill-opacity:1.00; stroke:#CCCCCC; stroke-opacity:1.00;" transform="translate(0 0) scale(1.00 1.00)">
  <polygon points="737 95 772 95 772 107 737 107 " shape-rendering="auto"   style="fill-rule:evenodd;"/>
</g>
<g style="stroke-width:1; stroke-linecap:round; stroke-linejoin:round; fill:#000000; fill-opacity:0.00; stroke:#000000; stroke-opacity:0.00;" transform="translate(0 0) scale(1.00 1.00)">
  <polygon points="2 27 207 27 207 86 2 86 " shape-rendering="auto"   style="fill-rule:evenodd;"/>
</g>
<g style="stroke-width:1; stroke-linecap:round; stroke-linejoin:round; fill:#000000; fill-opacity:0.00; stroke:#000000; stroke-opacity:0.00;" transform="translate(0 0) scale(1.00 1.00)">
  <polygon points="208 57 259 57 259 86 208 86 " shape-rendering="auto"   style="fill-rule:evenodd;"/>
</g>
<g style="stroke-width:1; stroke-linecap:round; stroke-linejoin:round; fill:#FFA500; fill-opacity:1.00; stroke:#000000; stroke-opacity:0.0;" transform="translate(0 0) scale(1.00 1.00)">
  <polygon points="343 57 446 57 446 86 343 86 " shape-rendering="auto"   style="fill-rule:evenodd;"/>
</g>
<g style="stroke-width:1; stroke-linecap:round; stroke-linejoin:round; fill:#007BA7; fill-opacity:1.00; stroke:#000000; stroke-opacity:0.0;" transform="translate(0 0) scale(1.00 1.00)">
  <polygon points="447 57 549 57 549 86 447 86 " shape-rendering="auto"   style="fill-rule:evenodd;"/>
</g>
<g style="stroke-width:1; stroke-linecap:round; stroke-linejoin:round; fill:#000000; fill-opacity:0.00; stroke:#000000; stroke-opacity:0.00;" transform="translate(0 0) scale(1.00 1.00)">
  <polygon points="208 27 259 27 259 56 208 56 " shape-rendering="auto"   style="fill-rule:evenodd;"/>
</g>
<g style="stroke-width:1; stroke-linecap:round; stroke-linejoin:round; fill:#FFA500; fill-opacity:1.00; stroke:#000000; stroke-opacity:0.0;" transform="translate(0 0) scale(1.00 1.00)">
  <polygon points="274 35 446 35 446 47 274 47 " shape-rendering="auto"   style="fill-rule:evenodd;"/>
</g>
<g style="stroke-width:1; stroke-linecap:round; stroke-linejoin:round; fill:#007BA7; fill-opacity:1.00; stroke:#000000; stroke-opacity:0.0;" transform="translate(0 0) scale(1.00 1.00)">
  <polygon points="447 35 481 35 481 47 447 47 " shape-rendering="auto"   style="fill-rule:evenodd;"/>
</g>
<g style="stroke-width:1; stroke-linecap:round; stroke-linejoin:round; fill:#000000; fill-opacity:1.00; stroke:#000000; stroke-opacity:1.00;" transform="translate(0 0) scale(1.00 1.00)">
  <text x="4.00" y="422.00" textLength="194" style="font-family:Segoe UI; font-weight:400; font-style:normal; font-size:7.56pt; text-decoration: none; fill:#000000; fill-opacity:1.00; stroke:#000000; stroke-opacity:1.00; stroke-width:0; white-space: pre;" xml:space="preserve" transform="rotate(0.00 4.00 422.00)">Data importing features are important to me</text>
</g>
<g style="stroke-width:1; stroke-linecap:round; stroke-linejoin:round; fill:#000000; fill-opacity:1.00; stroke:#000000; stroke-opacity:1.00;" transform="translate(0 0) scale(1.00 1.00)">
  <text x="210.00" y="438.00" textLength="21" style="font-family:Segoe UI; font-weight:400; font-style:normal; font-size:7.56pt; text-decoration: none; fill:#000000; fill-opacity:1.00; stroke:#000000; stroke-opacity:1.00; stroke-width:0; white-space: pre;" xml:space="preserve" transform="rotate(0.00 210.00 438.00)">Male</text>
</g>
<g style="stroke-width:1; stroke-linecap:round; stroke-linejoin:round; fill:#000000; fill-opacity:1.00; stroke:#000000; stroke-opacity:1.00;" transform="translate(0 0) scale(1.00 1.00)">
  <text x="449.00" y="438.00" textLength="23" style="font-family:Segoe UI; font-weight:400; font-style:normal; font-size:7.56pt; text-decoration: none; fill:#FFFFFF; fill-opacity:1.00; stroke:#FFFFFF; stroke-opacity:1.00; stroke-width:0; white-space: pre;" xml:space="preserve" transform="rotate(0.00 449.00 438.00)">100%</text>
</g>
<g style="stroke-width:1; stroke-linecap:round; stroke-linejoin:round; fill:#000000; fill-opacity:1.00; stroke:#000000; stroke-opacity:1.00;" transform="translate(0 0) scale(1.00 1.00)">
  <text x="210.00" y="408.00" textLength="31" style="font-family:Segoe UI; font-weight:400; font-style:normal; font-size:7.56pt; text-decoration: none; fill:#000000; fill-opacity:1.00; stroke:#000000; stroke-opacity:1.00; stroke-width:0; white-space: pre;" xml:space="preserve" transform="rotate(0.00 210.00 408.00)">Female</text>
</g>
<g style="stroke-width:1; stroke-linecap:round; stroke-linejoin:round; fill:#000000; fill-opacity:1.00; stroke:#000000; stroke-opacity:1.00;" transform="translate(0 0) scale(1.00 1.00)">
  <text x="449.00" y="407.00" textLength="23" style="font-family:Segoe UI; font-weight:400; font-style:normal; font-size:7.56pt; text-decoration: none; fill:#FFFFFF; fill-opacity:1.00; stroke:#FFFFFF; stroke-opacity:1.00; stroke-width:0; white-space: pre;" xml:space="preserve" transform="rotate(0.00 449.00 407.00)">100%</text>
</g>
<g style="stroke-width:1; stroke-linecap:round; stroke-linejoin:round; fill:#000000; fill-opacity:1.00; stroke:#000000; stroke-opacity:1.00;" transform="translate(0 0) scale(1.00 1.00)">
  <text x="4.00" y="357.00" textLength="194" style="font-family:Segoe UI; font-weight:400; font-style:normal; font-size:7.56pt; text-decoration: none; fill:#000000; fill-opacity:1.00; stroke:#000000; stroke-opacity:1.00; stroke-width:0; white-space: pre;" xml:space="preserve" transform="rotate(0.00 4.00 357.00)">Standard, &quot;out-of-the-box&quot; graph support is</text>
  <text x="4.00" y="369.00" textLength="72" style="font-family:Segoe UI; font-weight:400; font-style:normal; font-size:7.56pt; text-decoration: none; fill:#000000; fill-opacity:1.00; stroke:#000000; stroke-opacity:1.00; stroke-width:0; white-space: pre;" xml:space="preserve" transform="rotate(0.00 4.00 369.00)">important to me</text>
</g>
<g style="stroke-width:1; stroke-linecap:round; stroke-linejoin:round; fill:#000000; fill-opacity:1.00; stroke:#000000; stroke-opacity:1.00;" transform="translate(0 0) scale(1.00 1.00)">
  <text x="210.00" y="378.00" textLength="21" style="font-family:Segoe UI; font-weight:400; font-style:normal; font-size:7.56pt; text-decoration: none; fill:#000000; fill-opacity:1.00; stroke:#000000; stroke-opacity:1.00; stroke-width:0; white-space: pre;" xml:space="preserve" transform="rotate(0.00 210.00 378.00)">Male</text>
</g>
<g style="stroke-width:1; stroke-linecap:round; stroke-linejoin:round; fill:#000000; fill-opacity:1.00; stroke:#000000; stroke-opacity:1.00;" transform="translate(0 0) scale(1.00 1.00)">
  <text x="449.00" y="378.00" textLength="23" style="font-family:Segoe UI; font-weight:400; font-style:normal; font-size:7.56pt; text-decoration: none; fill:#FFFFFF; fill-opacity:1.00; stroke:#FFFFFF; stroke-opacity:1.00; stroke-width:0; white-space: pre;" xml:space="preserve" transform="rotate(0.00 449.00 378.00)">100%</text>
</g>
<g style="stroke-width:1; stroke-linecap:round; stroke-linejoin:round; fill:#000000; fill-opacity:1.00; stroke:#000000; stroke-opacity:1.00;" transform="translate(0 0) scale(1.00 1.00)">
  <text x="210.00" y="348.00" textLength="31" style="font-family:Segoe UI; font-weight:400; font-style:normal; font-size:7.56pt; text-decoration: none; fill:#000000; fill-opacity:1.00; stroke:#000000; stroke-opacity:1.00; stroke-width:0; white-space: pre;" xml:space="preserve" transform="rotate(0.00 210.00 348.00)">Female</text>
</g>
<g style="stroke-width:1; stroke-linecap:round; stroke-linejoin:round; fill:#000000; fill-opacity:1.00; stroke:#000000; stroke-opacity:1.00;" transform="translate(0 0) scale(1.00 1.00)">
  <text x="449.00" y="347.00" textLength="23" style="font-family:Segoe UI; font-weight:400; font-style:normal; font-size:7.56pt; text-decoration: none; fill:#FFFFFF; fill-opacity:1.00; stroke:#FFFFFF; stroke-opacity:1.00; stroke-width:0; white-space: pre;" xml:space="preserve" transform="rotate(0.00 449.00 347.00)">100%</text>
</g>
<g style="stroke-width:1; stroke-linecap:round; stroke-linejoin:round; fill:#000000; fill-opacity:1.00; stroke:#000000; stroke-opacity:1.00;" transform="translate(0 0) scale(1.00 1.00)">
  <text x="4.00" y="301.00" textLength="134" style="font-family:Segoe UI; font-weight:400; font-style:normal; font-size:7.56pt; text-decoration: none; fill:#000000; fill-opacity:1.00; stroke:#000000; stroke-opacity:1.00; stroke-width:0; white-space: pre;" xml:space="preserve" transform="rotate(0.00 4.00 301.00)">Extensibility is important to me</text>
</g>
<g style="stroke-width:1; stroke-linecap:round; stroke-linejoin:round; fill:#000000; fill-opacity:1.00; stroke:#000000; stroke-opacity:1.00;" transform="translate(0 0) scale(1.00 1.00)">
  <text x="210.00" y="317.00" textLength="21" style="font-family:Segoe UI; font-weight:400; font-style:normal; font-size:7.56pt; text-decoration: none; fill:#000000; fill-opacity:1.00; stroke:#000000; stroke-opacity:1.00; stroke-width:0; white-space: pre;" xml:space="preserve" transform="rotate(0.00 210.00 317.00)">Male</text>
</g>
<g style="stroke-width:1; stroke-linecap:round; stroke-linejoin:round; fill:#000000; fill-opacity:1.00; stroke:#000000; stroke-opacity:1.00;" transform="translate(0 0) scale(1.00 1.00)">
  <text x="426.00" y="317.00" textLength="18" style="font-family:Segoe UI; font-weight:400; font-style:normal; font-size:7.56pt; text-decoration: none; fill:#000000; fill-opacity:1.00; stroke:#000000; stroke-opacity:1.00; stroke-width:0; white-space: pre;" xml:space="preserve" transform="rotate(0.00 426.00 317.00)">36%</text>
</g>
<g style="stroke-width:1; stroke-linecap:round; stroke-linejoin:round; fill:#000000; fill-opacity:1.00; stroke:#000000; stroke-opacity:1.00;" transform="translate(0 0) scale(1.00 1.00)">
  <text x="449.00" y="317.00" textLength="18" style="font-family:Segoe UI; font-weight:400; font-style:normal; font-size:7.56pt; text-decoration: none; fill:#FFFFFF; fill-opacity:1.00; stroke:#FFFFFF; stroke-opacity:1.00; stroke-width:0; white-space: pre;" xml:space="preserve" transform="rotate(0.00 449.00 317.00)">36%</text>
</g>
<g style="stroke-width:1; stroke-linecap:round; stroke-linejoin:round; fill:#000000; fill-opacity:1.00; stroke:#000000; stroke-opacity:1.00;" transform="translate(0 0) scale(1.00 1.00)">
  <text x="656.00" y="317.00" textLength="18" style="font-family:Segoe UI; font-weight:400; font-style:normal; font-size:7.56pt; text-decoration: none; fill:#000000; fill-opacity:1.00; stroke:#000000; stroke-opacity:1.00; stroke-width:0; white-space: pre;" xml:space="preserve" transform="rotate(0.00 656.00 317.00)">29%</text>
</g>
<g style="stroke-width:1; stroke-linecap:round; stroke-linejoin:round; fill:#000000; fill-opacity:1.00; stroke:#000000; stroke-opacity:1.00;" transform="translate(0 0) scale(1.00 1.00)">
  <text x="210.00" y="287.00" textLength="31" style="font-family:Segoe UI; font-weight:400; font-style:normal; font-size:7.56pt; text-decoration: none; fill:#000000; fill-opacity:1.00; stroke:#000000; stroke-opacity:1.00; stroke-width:0; white-space: pre;" xml:space="preserve" transform="rotate(0.00 210.00 287.00)">Female</text>
</g>
<g style="stroke-width:1; stroke-linecap:round; stroke-linejoin:round; fill:#000000; fill-opacity:1.00; stroke:#000000; stroke-opacity:1.00;" transform="translate(0 0) scale(1.00 1.00)">
  <text x="426.00" y="286.00" textLength="18" style="font-family:Segoe UI; font-weight:400; font-style:normal; font-size:7.56pt; text-decoration: none; fill:#000000; fill-opacity:1.00; stroke:#000000; stroke-opacity:1.00; stroke-width:0; white-space: pre;" xml:space="preserve" transform="rotate(0.00 426.00 286.00)">33%</text>
</g>
<g style="stroke-width:1; stroke-linecap:round; stroke-linejoin:round; fill:#000000; fill-opacity:1.00; stroke:#000000; stroke-opacity:1.00;" transform="translate(0 0) scale(1.00 1.00)">
  <text x="449.00" y="286.00" textLength="18" style="font-family:Segoe UI; font-weight:400; font-style:normal; font-size:7.56pt; text-decoration: none; fill:#FFFFFF; fill-opacity:1.00; stroke:#FFFFFF; stroke-opacity:1.00; stroke-width:0; white-space: pre;" xml:space="preserve" transform="rotate(0.00 449.00 286.00)">33%</text>
</g>
<g style="stroke-width:1; stroke-linecap:round; stroke-linejoin:round; fill:#000000; fill-opacity:1.00; stroke:#000000; stroke-opacity:1.00;" transform="translate(0 0) scale(1.00 1.00)">
  <text x="656.00" y="286.00" textLength="18" style="font-family:Segoe UI; font-weight:400; font-style:normal; font-size:7.56pt; text-decoration: none; fill:#000000; fill-opacity:1.00; stroke:#000000; stroke-opacity:1.00; stroke-width:0; white-space: pre;" xml:space="preserve" transform="rotate(0.00 656.00 286.00)">33%</text>
</g>
<g style="stroke-width:1; stroke-linecap:round; stroke-linejoin:round; fill:#000000; fill-opacity:1.00; stroke:#000000; stroke-opacity:1.00;" transform="translate(0 0) scale(1.00 1.00)">
  <text x="4.00" y="236.00" textLength="188" style="font-family:Segoe UI; font-weight:400; font-style:normal; font-size:7.56pt; text-decoration: none; fill:#000000; fill-opacity:1.00; stroke:#000000; stroke-opacity:1.00; stroke-width:0; white-space: pre;" xml:space="preserve" transform="rotate(0.00 4.00 236.00)">Support for obscure graphs is important to</text>
  <text x="4.00" y="248.00" textLength="14" style="font-family:Segoe UI; font-weight:400; font-style:normal; font-size:7.56pt; text-decoration: none; fill:#000000; fill-opacity:1.00; stroke:#000000; stroke-opacity:1.00; stroke-width:0; white-space: pre;" xml:space="preserve" transform="rotate(0.00 4.00 248.00)">me</text>
</g>
<g style="stroke-width:1; stroke-linecap:round; stroke-linejoin:round; fill:#000000; fill-opacity:1.00; stroke:#000000; stroke-opacity:1.00;" transform="translate(0 0) scale(1.00 1.00)">
  <text x="210.00" y="257.00" textLength="21" style="font-family:Segoe UI; font-weight:400; font-style:normal; font-size:7.56pt; text-decoration: none; fill:#000000; fill-opacity:1.00; stroke:#000000; stroke-opacity:1.00; stroke-width:0; white-space: pre;" xml:space="preserve" transform="rotate(0.00 210.00 257.00)">Male</text>
</g>
<g style="stroke-width:1; stroke-linecap:round; stroke-linejoin:round; fill:#000000; fill-opacity:1.00; stroke:#000000; stroke-opacity:1.00;" transform="translate(0 0) scale(1.00 1.00)">
  <text x="449.00" y="257.00" textLength="23" style="font-family:Segoe UI; font-weight:400; font-style:normal; font-size:7.56pt; text-decoration: none; fill:#FFFFFF; fill-opacity:1.00; stroke:#FFFFFF; stroke-opacity:1.00; stroke-width:0; white-space: pre;" xml:space="preserve" transform="rotate(0.00 449.00 257.00)">100%</text>
</g>
<g style="stroke-width:1; stroke-linecap:round; stroke-linejoin:round; fill:#000000; fill-opacity:1.00; stroke:#000000; stroke-opacity:1.00;" transform="translate(0 0) scale(1.00 1.00)">
  <text x="210.00" y="227.00" textLength="31" style="font-family:Segoe UI; font-weight:400; font-style:normal; font-size:7.56pt; text-decoration: none; fill:#000000; fill-opacity:1.00; stroke:#000000; stroke-opacity:1.00; stroke-width:0; white-space: pre;" xml:space="preserve" transform="rotate(0.00 210.00 227.00)">Female</text>
</g>
<g style="stroke-width:1; stroke-linecap:round; stroke-linejoin:round; fill:#000000; fill-opacity:1.00; stroke:#000000; stroke-opacity:1.00;" transform="translate(0 0) scale(1.00 1.00)">
  <text x="449.00" y="227.00" textLength="18" style="font-family:Segoe UI; font-weight:400; font-style:normal; font-size:7.56pt; text-decoration: none; fill:#FFFFFF; fill-opacity:1.00; stroke:#FFFFFF; stroke-opacity:1.00; stroke-width:0; white-space: pre;" xml:space="preserve" transform="rotate(0.00 449.00 227.00)">83%</text>
</g>
<g style="stroke-width:1; stroke-linecap:round; stroke-linejoin:round; fill:#000000; fill-opacity:1.00; stroke:#000000; stroke-opacity:1.00;" transform="translate(0 0) scale(1.00 1.00)">
  <text x="656.00" y="227.00" textLength="18" style="font-family:Segoe UI; font-weight:400; font-style:normal; font-size:7.56pt; text-decoration: none; fill:#000000; fill-opacity:1.00; stroke:#000000; stroke-opacity:1.00; stroke-width:0; white-space: pre;" xml:space="preserve" transform="rotate(0.00 656.00 227.00)">17%</text>
</g>
<g style="stroke-width:1; stroke-linecap:round; stroke-linejoin:round; fill:#000000; fill-opacity:1.00; stroke:#000000; stroke-opacity:1.00;" transform="translate(0 0) scale(1.00 1.00)">
  <text x="4.00" y="181.00" textLength="139" style="font-family:Segoe UI; font-weight:400; font-style:normal; font-size:7.56pt; text-decoration: none; fill:#000000; fill-opacity:1.00; stroke:#000000; stroke-opacity:1.00; stroke-width:0; white-space: pre;" xml:space="preserve" transform="rotate(0.00 4.00 181.00)">A simple API is important to me</text>
</g>
<g style="stroke-width:1; stroke-linecap:round; stroke-linejoin:round; fill:#000000; fill-opacity:1.00; stroke:#000000; stroke-opacity:1.00;" transform="translate(0 0) scale(1.00 1.00)">
  <text x="210.00" y="197.00" textLength="21" style="font-family:Segoe UI; font-weight:400; font-style:normal; font-size:7.56pt; text-decoration: none; fill:#000000; fill-opacity:1.00; stroke:#000000; stroke-opacity:1.00; stroke-width:0; white-space: pre;" xml:space="preserve" transform="rotate(0.00 210.00 197.00)">Male</text>
</g>
<g style="stroke-width:1; stroke-linecap:round; stroke-linejoin:round; fill:#000000; fill-opacity:1.00; stroke:#000000; stroke-opacity:1.00;" transform="translate(0 0) scale(1.00 1.00)">
  <text x="449.00" y="197.00" textLength="18" style="font-family:Segoe UI; font-weight:400; font-style:normal; font-size:7.56pt; text-decoration: none; fill:#FFFFFF; fill-opacity:1.00; stroke:#FFFFFF; stroke-opacity:1.00; stroke-width:0; white-space: pre;" xml:space="preserve" transform="rotate(0.00 449.00 197.00)">93%</text>
</g>
<g style="stroke-width:1; stroke-linecap:round; stroke-linejoin:round; fill:#000000; fill-opacity:1.00; stroke:#000000; stroke-opacity:1.00;" transform="translate(0 0) scale(1.00 1.00)">
  <text x="656.00" y="197.00" textLength="13" style="font-family:Segoe UI; font-weight:400; font-style:normal; font-size:7.56pt; text-decoration: none; fill:#000000; fill-opacity:1.00; stroke:#000000; stroke-opacity:1.00; stroke-width:0; white-space: pre;" xml:space="preserve" transform="rotate(0.00 656.00 197.00)">7%</text>
</g>
<g style="stroke-width:1; stroke-linecap:round; stroke-linejoin:round; fill:#000000; fill-opacity:1.00; stroke:#000000; stroke-opacity:1.00;" transform="translate(0 0) scale(1.00 1.00)">
  <text x="210.00" y="166.00" textLength="31" style="font-family:Segoe UI; font-weight:400; font-style:normal; font-size:7.56pt; text-decoration: none; fill:#000000; fill-opacity:1.00; stroke:#000000; stroke-opacity:1.00; stroke-width:0; white-space: pre;" xml:space="preserve" transform="rotate(0.00 210.00 166.00)">Female</text>
</g>
<g style="stroke-width:1; stroke-linecap:round; stroke-linejoin:round; fill:#000000; fill-opacity:1.00; stroke:#000000; stroke-opacity:1.00;" transform="translate(0 0) scale(1.00 1.00)">
  <text x="449.00" y="166.00" textLength="18" style="font-family:Segoe UI; font-weight:400; font-style:normal; font-size:7.56pt; text-decoration: none; fill:#FFFFFF; fill-opacity:1.00; stroke:#FFFFFF; stroke-opacity:1.00; stroke-width:0; white-space: pre;" xml:space="preserve" transform="rotate(0.00 449.00 166.00)">83%</text>
</g>
<g style="stroke-width:1; stroke-linecap:round; stroke-linejoin:round; fill:#000000; fill-opacity:1.00; stroke:#000000; stroke-opacity:1.00;" transform="translate(0 0) scale(1.00 1.00)">
  <text x="656.00" y="166.00" textLength="18" style="font-family:Segoe UI; font-weight:400; font-style:normal; font-size:7.56pt; text-decoration: none; fill:#000000; fill-opacity:1.00; stroke:#000000; stroke-opacity:1.00; stroke-width:0; white-space: pre;" xml:space="preserve" transform="rotate(0.00 656.00 166.00)">17%</text>
</g>
<g style="stroke-width:1; stroke-linecap:round; stroke-linejoin:round; fill:#000000; fill-opacity:1.00; stroke:#000000; stroke-opacity:1.00;" transform="translate(0 0) scale(1.00 1.00)">
  <text x="4.00" y="121.00" textLength="147" style="font-family:Segoe UI; font-weight:400; font-style:normal; font-size:7.56pt; text-decoration: none; fill:#000000; fill-opacity:1.00; stroke:#000000; stroke-opacity:1.00; stroke-width:0; white-space: pre;" xml:space="preserve" transform="rotate(0.00 4.00 121.00)">Customization is important to me</text>
</g>
<g style="stroke-width:1; stroke-linecap:round; stroke-linejoin:round; fill:#000000; fill-opacity:1.00; stroke:#000000; stroke-opacity:1.00;" transform="translate(0 0) scale(1.00 1.00)">
  <text x="210.00" y="136.00" textLength="21" style="font-family:Segoe UI; font-weight:400; font-style:normal; font-size:7.56pt; text-decoration: none; fill:#000000; fill-opacity:1.00; stroke:#000000; stroke-opacity:1.00; stroke-width:0; white-space: pre;" xml:space="preserve" transform="rotate(0.00 210.00 136.00)">Male</text>
</g>
<g style="stroke-width:1; stroke-linecap:round; stroke-linejoin:round; fill:#000000; fill-opacity:1.00; stroke:#000000; stroke-opacity:1.00;" transform="translate(0 0) scale(1.00 1.00)">
  <text x="426.00" y="136.00" textLength="18" style="font-family:Segoe UI; font-weight:400; font-style:normal; font-size:7.56pt; text-decoration: none; fill:#000000; fill-opacity:1.00; stroke:#000000; stroke-opacity:1.00; stroke-width:0; white-space: pre;" xml:space="preserve" transform="rotate(0.00 426.00 136.00)">14%</text>
</g>
<g style="stroke-width:1; stroke-linecap:round; stroke-linejoin:round; fill:#000000; fill-opacity:1.00; stroke:#000000; stroke-opacity:1.00;" transform="translate(0 0) scale(1.00 1.00)">
  <text x="449.00" y="136.00" textLength="18" style="font-family:Segoe UI; font-weight:400; font-style:normal; font-size:7.56pt; text-decoration: none; fill:#FFFFFF; fill-opacity:1.00; stroke:#FFFFFF; stroke-opacity:1.00; stroke-width:0; white-space: pre;" xml:space="preserve" transform="rotate(0.00 449.00 136.00)">64%</text>
</g>
<g style="stroke-width:1; stroke-linecap:round; stroke-linejoin:round; fill:#000000; fill-opacity:1.00; stroke:#000000; stroke-opacity:1.00;" transform="translate(0 0) scale(1.00 1.00)">
  <text x="656.00" y="136.00" textLength="18" style="font-family:Segoe UI; font-weight:400; font-style:normal; font-size:7.56pt; text-decoration: none; fill:#000000; fill-opacity:1.00; stroke:#000000; stroke-opacity:1.00; stroke-width:0; white-space: pre;" xml:space="preserve" transform="rotate(0.00 656.00 136.00)">21%</text>
</g>
<g style="stroke-width:1; stroke-linecap:round; stroke-linejoin:round; fill:#000000; fill-opacity:1.00; stroke:#000000; stroke-opacity:1.00;" transform="translate(0 0) scale(1.00 1.00)">
  <text x="210.00" y="106.00" textLength="31" style="font-family:Segoe UI; font-weight:400; font-style:normal; font-size:7.56pt; text-decoration: none; fill:#000000; fill-opacity:1.00; stroke:#000000; stroke-opacity:1.00; stroke-width:0; white-space: pre;" xml:space="preserve" transform="rotate(0.00 210.00 106.00)">Female</text>
</g>
<g style="stroke-width:1; stroke-linecap:round; stroke-linejoin:round; fill:#000000; fill-opacity:1.00; stroke:#000000; stroke-opacity:1.00;" transform="translate(0 0) scale(1.00 1.00)">
  <text x="426.00" y="105.00" textLength="18" style="font-family:Segoe UI; font-weight:400; font-style:normal; font-size:7.56pt; text-decoration: none; fill:#000000; fill-opacity:1.00; stroke:#000000; stroke-opacity:1.00; stroke-width:0; white-space: pre;" xml:space="preserve" transform="rotate(0.00 426.00 105.00)">33%</text>
</g>
<g style="stroke-width:1; stroke-linecap:round; stroke-linejoin:round; fill:#000000; fill-opacity:1.00; stroke:#000000; stroke-opacity:1.00;" transform="translate(0 0) scale(1.00 1.00)">
  <text x="449.00" y="105.00" textLength="18" style="font-family:Segoe UI; font-weight:400; font-style:normal; font-size:7.56pt; text-decoration: none; fill:#FFFFFF; fill-opacity:1.00; stroke:#FFFFFF; stroke-opacity:1.00; stroke-width:0; white-space: pre;" xml:space="preserve" transform="rotate(0.00 449.00 105.00)">17%</text>
</g>
<g style="stroke-width:1; stroke-linecap:round; stroke-linejoin:round; fill:#000000; fill-opacity:1.00; stroke:#000000; stroke-opacity:1.00;" transform="translate(0 0) scale(1.00 1.00)">
  <text x="656.00" y="105.00" textLength="18" style="font-family:Segoe UI; font-weight:400; font-style:normal; font-size:7.56pt; text-decoration: none; fill:#000000; fill-opacity:1.00; stroke:#000000; stroke-opacity:1.00; stroke-width:0; white-space: pre;" xml:space="preserve" transform="rotate(0.00 656.00 105.00)">33%</text>
</g>
<g style="stroke-width:1; stroke-linecap:round; stroke-linejoin:round; fill:#000000; fill-opacity:1.00; stroke:#000000; stroke-opacity:1.00;" transform="translate(0 0) scale(1.00 1.00)">
  <text x="739.00" y="105.00" textLength="18" style="font-family:Segoe UI; font-weight:400; font-style:normal; font-size:7.56pt; text-decoration: none; fill:#000000; fill-opacity:1.00; stroke:#000000; stroke-opacity:1.00; stroke-width:0; white-space: pre;" xml:space="preserve" transform="rotate(0.00 739.00 105.00)">17%</text>
</g>
<g style="stroke-width:1; stroke-linecap:round; stroke-linejoin:round; fill:#000000; fill-opacity:1.00; stroke:#000000; stroke-opacity:1.00;" transform="translate(0 0) scale(1.00 1.00)">
  <text x="4.00" y="61.00" textLength="192" style="font-family:Segoe UI; font-weight:400; font-style:normal; font-size:7.56pt; text-decoration: none; fill:#000000; fill-opacity:1.00; stroke:#000000; stroke-opacity:1.00; stroke-width:0; white-space: pre;" xml:space="preserve" transform="rotate(0.00 4.00 61.00)">I am happy with my current graphics library</text>
</g>
<g style="stroke-width:1; stroke-linecap:round; stroke-linejoin:round; fill:#000000; fill-opacity:1.00; stroke:#000000; stroke-opacity:1.00;" transform="translate(0 0) scale(1.00 1.00)">
  <text x="210.00" y="76.00" textLength="21" style="font-family:Segoe UI; font-weight:400; font-style:normal; font-size:7.56pt; text-decoration: none; fill:#000000; fill-opacity:1.00; stroke:#000000; stroke-opacity:1.00; stroke-width:0; white-space: pre;" xml:space="preserve" transform="rotate(0.00 210.00 76.00)">Male</text>
</g>
<g style="stroke-width:1; stroke-linecap:round; stroke-linejoin:round; fill:#000000; fill-opacity:1.00; stroke:#000000; stroke-opacity:1.00;" transform="translate(0 0) scale(1.00 1.00)">
  <text x="426.00" y="76.00" textLength="18" style="font-family:Segoe UI; font-weight:400; font-style:normal; font-size:7.56pt; text-decoration: none; fill:#000000; fill-opacity:1.00; stroke:#000000; stroke-opacity:1.00; stroke-width:0; white-space: pre;" xml:space="preserve" transform="rotate(0.00 426.00 76.00)">50%</text>
</g>
<g style="stroke-width:1; stroke-linecap:round; stroke-linejoin:round; fill:#000000; fill-opacity:1.00; stroke:#000000; stroke-opacity:1.00;" transform="translate(0 0) scale(1.00 1.00)">
  <text x="449.00" y="76.00" textLength="18" style="font-family:Segoe UI; font-weight:400; font-style:normal; font-size:7.56pt; text-decoration: none; fill:#FFFFFF; fill-opacity:1.00; stroke:#FFFFFF; stroke-opacity:1.00; stroke-width:0; white-space: pre;" xml:space="preserve" transform="rotate(0.00 449.00 76.00)">50%</text>
</g>
<g style="stroke-width:1; stroke-linecap:round; stroke-linejoin:round; fill:#000000; fill-opacity:1.00; stroke:#000000; stroke-opacity:1.00;" transform="translate(0 0) scale(1.00 1.00)">
  <text x="210.00" y="46.00" textLength="31" style="font-family:Segoe UI; font-weight:400; font-style:normal; font-size:7.56pt; text-decoration: none; fill:#000000; fill-opacity:1.00; stroke:#000000; stroke-opacity:1.00; stroke-width:0; white-space: pre;" xml:space="preserve" transform="rotate(0.00 210.00 46.00)">Female</text>
</g>
<g style="stroke-width:1; stroke-linecap:round; stroke-linejoin:round; fill:#000000; fill-opacity:1.00; stroke:#000000; stroke-opacity:1.00;" transform="translate(0 0) scale(1.00 1.00)">
  <text x="426.00" y="45.00" textLength="18" style="font-family:Segoe UI; font-weight:400; font-style:normal; font-size:7.56pt; text-decoration: none; fill:#000000; fill-opacity:1.00; stroke:#000000; stroke-opacity:1.00; stroke-width:0; white-space: pre;" xml:space="preserve" transform="rotate(0.00 426.00 45.00)">83%</text>
</g>
<g style="stroke-width:1; stroke-linecap:round; stroke-linejoin:round; fill:#000000; fill-opacity:1.00; stroke:#000000; stroke-opacity:1.00;" transform="translate(0 0) scale(1.00 1.00)">
  <text x="449.00" y="45.00" textLength="18" style="font-family:Segoe UI; font-weight:400; font-style:normal; font-size:7.56pt; text-decoration: none; fill:#FFFFFF; fill-opacity:1.00; stroke:#FFFFFF; stroke-opacity:1.00; stroke-width:0; white-space: pre;" xml:space="preserve" transform="rotate(0.00 449.00 45.00)">17%</text>
</g>
<g style="stroke-width:1; stroke-linecap:round; stroke-linejoin:round; fill:#FFFFFF; fill-opacity:1.00; stroke:#000000; stroke-opacity:1.00;" transform="translate(0 0) scale(1.00 1.00)">
  <path d="M447 450 L447 27" shape-rendering="auto" stroke-dasharray="5.000000,2.666667"/>
  <path d="M654 450 L654 27" shape-rendering="auto" stroke-dasharray="5.000000,2.666667"/>
  <path d="M737 450 L737 27" shape-rendering="auto" stroke-dasharray="5.000000,2.666667"/>
</g>
</svg>
