<?xml version="1.0" encoding="UTF-8" standalone="no"?>
<!DOCTYPE svg PUBLIC "-//W3C//DTD SVG 1.0//EN" "http://www.w3.org/TR/2001/REC-SVG-20010904/DTD/svg10.dtd">

<svg xmlns="http://www.w3.org/2000/svg" xmlns:xlink="http://www.w3.org/1999/xlink" width="25.15cm" height="17.64cm" viewBox="0 0 713 500">
<title></title>
<desc>Picture generated by wxSVG v0101</desc>

<g style="fill:black; stroke:black; stroke-width:1">
</g>
<g style="stroke-width:1; stroke-linecap:round; stroke-linejoin:round; fill:#000000; fill-opacity:0.0; stroke:#000000; stroke-opacity:0.0;" transform="translate(0 0) scale(1.00 1.00)">
  <rect x="0" y="0" width="713" height="500" rx="0.00" shape-rendering="auto"  />
</g>
<g style="stroke-width:1; stroke-linecap:round; stroke-linejoin:round; fill:#FFFFFF; fill-opacity:1.00; stroke:#000000; stroke-opacity:1.00;" transform="translate(0 0) scale(1.00 1.00)">
</g>
<g style="stroke-width:1; stroke-linecap:round; stroke-linejoin:round; fill:#FFFFFF; fill-opacity:1.00; stroke:#000000; stroke-opacity:1.00;" transform="translate(0 0) scale(1.00 1.00)">
  <rect x="0" y="0" width="713" height="500" rx="0.00" shape-rendering="auto"  />
</g>
<g style="stroke-width:1; stroke-linecap:round; stroke-linejoin:round; fill:#FFFFFF; fill-opacity:1.00; stroke:#E6E6FA; stroke-opacity:1.00;" transform="translate(0 0) scale(1.00 1.00)">
  <path d="M1 498 L523 498" shape-rendering="auto" />
</g>
<g style="stroke-width:1; stroke-linecap:round; stroke-linejoin:round; fill:#FFFFFF; fill-opacity:1.00; stroke:#E6E6FA; stroke-opacity:1.00;" transform="translate(0 0) scale(1.00 1.00)">
  <path d="M1 22 L523 22" shape-rendering="auto" />
</g>
<g style="stroke-width:1; stroke-linecap:round; stroke-linejoin:round; fill:#FFFFFF; fill-opacity:1.00; stroke:#E6E6FA; stroke-opacity:1.00;" transform="translate(0 0) scale(1.00 1.00)">
  <path d="M1 22 L1 498" shape-rendering="auto" />
</g>
<g style="stroke-width:1; stroke-linecap:round; stroke-linejoin:round; fill:#FFFFFF; fill-opacity:1.00; stroke:#E6E6FA; stroke-opacity:1.00;" transform="translate(0 0) scale(1.00 1.00)">
  <path d="M523 22 L523 498" shape-rendering="auto" />
</g>
<g style="stroke-width:1; stroke-linecap:round; stroke-linejoin:round; fill:#000000; fill-opacity:1.00; stroke:#000000; stroke-opacity:1.00;" transform="translate(0 0) scale(1.00 1.00)">
  <text x="454.00" y="12.00" textLength="42" style="font-family:Segoe UI; font-weight:700; font-style:normal; font-size:9.17pt; text-decoration: none; fill:#7E7E8A; fill-opacity:1.00; stroke:#7E7E8A; stroke-opacity:1.00; stroke-width:0; white-space: pre;" xml:space="preserve" transform="rotate(0.00 454.00 12.00)">Neutral</text>
</g>
<g style="stroke-width:1; stroke-linecap:round; stroke-linejoin:round; fill:#000000; fill-opacity:1.00; stroke:#000000; stroke-opacity:1.00;" transform="translate(0 0) scale(1.00 1.00)">
  <text x="508.00" y="12.00" textLength="72" style="font-family:Segoe UI; font-weight:700; font-style:normal; font-size:9.17pt; text-decoration: none; fill:#000000; fill-opacity:1.00; stroke:#000000; stroke-opacity:1.00; stroke-width:0; white-space: pre;" xml:space="preserve" transform="rotate(0.00 508.00 12.00)">No Response</text>
</g>
<g style="stroke-width:1; stroke-linecap:round; stroke-linejoin:round; fill:#000000; fill-opacity:1.00; stroke:#000000; stroke-opacity:1.00;" transform="translate(0 0) scale(1.00 1.00)">
  <text x="285.00" y="12.00" textLength="34" style="font-family:Segoe UI; font-weight:700; font-style:normal; font-size:9.17pt; text-decoration: none; fill:#007BA7; fill-opacity:1.00; stroke:#007BA7; stroke-opacity:1.00; stroke-width:0; white-space: pre;" xml:space="preserve" transform="rotate(0.00 285.00 12.00)">Agree</text>
</g>
<g style="stroke-width:1; stroke-linecap:round; stroke-linejoin:round; fill:#000000; fill-opacity:1.00; stroke:#000000; stroke-opacity:1.00;" transform="translate(0 0) scale(1.00 1.00)">
  <text x="223.00" y="12.00" textLength="49" style="font-family:Segoe UI; font-weight:700; font-style:normal; font-size:9.17pt; text-decoration: none; fill:#BC7800; fill-opacity:1.00; stroke:#BC7800; stroke-opacity:1.00; stroke-width:0; white-space: pre;" xml:space="preserve" transform="rotate(0.00 223.00 12.00)">Disagree</text>
</g>
<g style="stroke-width:1; stroke-linecap:round; stroke-linejoin:round; fill:#FFFFFF; fill-opacity:1.00; stroke:#E6E6FA; stroke-opacity:1.00;" transform="translate(0 0) scale(1.00 1.00)">
  <path d="M175 22 L175 498" shape-rendering="auto" />
</g>
<g style="stroke-width:1; stroke-linecap:round; stroke-linejoin:round; fill:#FFFFFF; fill-opacity:1.00; stroke:#E6E6FA; stroke-opacity:1.00;" transform="translate(0 0) scale(1.00 1.00)">
  <path d="M1 430 L523 430" shape-rendering="auto" />
</g>
<g style="stroke-width:1; stroke-linecap:round; stroke-linejoin:round; fill:#FFFFFF; fill-opacity:1.00; stroke:#E6E6FA; stroke-opacity:1.00;" transform="translate(0 0) scale(1.00 1.00)">
  <path d="M1 362 L523 362" shape-rendering="auto" />
</g>
<g style="stroke-width:1; stroke-linecap:round; stroke-linejoin:round; fill:#FFFFFF; fill-opacity:1.00; stroke:#E6E6FA; stroke-opacity:1.00;" transform="translate(0 0) scale(1.00 1.00)">
  <path d="M1 294 L523 294" shape-rendering="auto" />
</g>
<g style="stroke-width:1; stroke-linecap:round; stroke-linejoin:round; fill:#FFFFFF; fill-opacity:1.00; stroke:#E6E6FA; stroke-opacity:1.00;" transform="translate(0 0) scale(1.00 1.00)">
  <path d="M1 226 L523 226" shape-rendering="auto" />
</g>
<g style="stroke-width:1; stroke-linecap:round; stroke-linejoin:round; fill:#FFFFFF; fill-opacity:1.00; stroke:#E6E6FA; stroke-opacity:1.00;" transform="translate(0 0) scale(1.00 1.00)">
  <path d="M1 158 L523 158" shape-rendering="auto" />
</g>
<g style="stroke-width:1; stroke-linecap:round; stroke-linejoin:round; fill:#FFFFFF; fill-opacity:1.00; stroke:#E6E6FA; stroke-opacity:1.00;" transform="translate(0 0) scale(1.00 1.00)">
  <path d="M1 90 L523 90" shape-rendering="auto" />
</g>
<g style="stroke-width:1; stroke-linecap:round; stroke-linejoin:round; fill:#FFFFFF; fill-opacity:1.00; stroke:#E6E6FA; stroke-opacity:1.00;" transform="translate(0 0) scale(1.00 1.00)">
  <path d="M1 22 L523 22" shape-rendering="auto" />
</g>
<g style="stroke-width:1; stroke-linecap:round; stroke-linejoin:round; fill:#000000; fill-opacity:0.00; stroke:#000000; stroke-opacity:0.00;" transform="translate(0 0) scale(1.00 1.00)">
  <polygon points="2 430 174 430 174 497 2 497 " shape-rendering="auto"   style="fill-rule:evenodd;"/>
</g>
<g style="stroke-width:1; stroke-linecap:round; stroke-linejoin:round; fill:#007BA7; fill-opacity:1.00; stroke:#007BA7; stroke-opacity:1.00;" transform="translate(0 0) scale(1.00 1.00)">
  <polygon points="279 437 304 437 304 488 279 488 " shape-rendering="auto"   style="fill-rule:evenodd;"/>
</g>
<g style="stroke-width:1; stroke-linecap:round; stroke-linejoin:round; fill:#3395B8; fill-opacity:1.00; stroke:#3395B8; stroke-opacity:1.00;" transform="translate(0 0) scale(1.00 1.00)">
  <polygon points="305 437 348 437 348 488 305 488 " shape-rendering="auto"   style="fill-rule:evenodd;"/>
</g>
<g style="stroke-width:1; stroke-linecap:round; stroke-linejoin:round; fill:#66AFCA; fill-opacity:1.00; stroke:#66AFCA; stroke-opacity:1.00;" transform="translate(0 0) scale(1.00 1.00)">
  <polygon points="349 437 452 437 452 488 349 488 " shape-rendering="auto"   style="fill-rule:evenodd;"/>
</g>
<g style="stroke-width:1; stroke-linecap:round; stroke-linejoin:round; fill:#000000; fill-opacity:0.00; stroke:#000000; stroke-opacity:0.00;" transform="translate(0 0) scale(1.00 1.00)">
  <polygon points="2 362 174 362 174 429 2 429 " shape-rendering="auto"   style="fill-rule:evenodd;"/>
</g>
<g style="stroke-width:1; stroke-linecap:round; stroke-linejoin:round; fill:#007BA7; fill-opacity:1.00; stroke:#007BA7; stroke-opacity:1.00;" transform="translate(0 0) scale(1.00 1.00)">
  <polygon points="279 369 373 369 373 420 279 420 " shape-rendering="auto"   style="fill-rule:evenodd;"/>
</g>
<g style="stroke-width:1; stroke-linecap:round; stroke-linejoin:round; fill:#3395B8; fill-opacity:1.00; stroke:#3395B8; stroke-opacity:1.00;" transform="translate(0 0) scale(1.00 1.00)">
  <polygon points="374 369 452 369 452 420 374 420 " shape-rendering="auto"   style="fill-rule:evenodd;"/>
</g>
<g style="stroke-width:1; stroke-linecap:round; stroke-linejoin:round; fill:#000000; fill-opacity:0.00; stroke:#000000; stroke-opacity:0.00;" transform="translate(0 0) scale(1.00 1.00)">
  <polygon points="2 294 174 294 174 361 2 361 " shape-rendering="auto"   style="fill-rule:evenodd;"/>
</g>
<g style="stroke-width:1; stroke-linecap:round; stroke-linejoin:round; fill:#CC8400; fill-opacity:1.00; stroke:#CC8400; stroke-opacity:1.00;" transform="translate(0 0) scale(1.00 1.00)">
  <polygon points="218 301 234 301 234 352 218 352 " shape-rendering="auto"   style="fill-rule:evenodd;"/>
</g>
<g style="stroke-width:1; stroke-linecap:round; stroke-linejoin:round; fill:#FFA500; fill-opacity:1.00; stroke:#FFA500; stroke-opacity:1.00;" transform="translate(0 0) scale(1.00 1.00)">
  <polygon points="235 301 278 301 278 352 235 352 " shape-rendering="auto"   style="fill-rule:evenodd;"/>
</g>
<g style="stroke-width:1; stroke-linecap:round; stroke-linejoin:round; fill:#007BA7; fill-opacity:1.00; stroke:#007BA7; stroke-opacity:1.00;" transform="translate(0 0) scale(1.00 1.00)">
  <polygon points="279 301 339 301 339 352 279 352 " shape-rendering="auto"   style="fill-rule:evenodd;"/>
</g>
<g style="stroke-width:1; stroke-linecap:round; stroke-linejoin:round; fill:#E6E6FA; fill-opacity:1.00; stroke:#000000; stroke-opacity:1.00;" transform="translate(0 0) scale(1.00 1.00)">
  <polygon points="453 301 504 301 504 352 453 352 " shape-rendering="auto"   style="fill-rule:evenodd;"/>
</g>
<g style="stroke-width:1; stroke-linecap:round; stroke-linejoin:round; fill:#000000; fill-opacity:0.00; stroke:#000000; stroke-opacity:0.00;" transform="translate(0 0) scale(1.00 1.00)">
  <polygon points="2 226 174 226 174 293 2 293 " shape-rendering="auto"   style="fill-rule:evenodd;"/>
</g>
<g style="stroke-width:1; stroke-linecap:round; stroke-linejoin:round; fill:#007BA7; fill-opacity:1.00; stroke:#007BA7; stroke-opacity:1.00;" transform="translate(0 0) scale(1.00 1.00)">
  <polygon points="279 233 339 233 339 284 279 284 " shape-rendering="auto"   style="fill-rule:evenodd;"/>
</g>
<g style="stroke-width:1; stroke-linecap:round; stroke-linejoin:round; fill:#3395B8; fill-opacity:1.00; stroke:#3395B8; stroke-opacity:1.00;" transform="translate(0 0) scale(1.00 1.00)">
  <polygon points="340 233 391 233 391 284 340 284 " shape-rendering="auto"   style="fill-rule:evenodd;"/>
</g>
<g style="stroke-width:1; stroke-linecap:round; stroke-linejoin:round; fill:#66AFCA; fill-opacity:1.00; stroke:#66AFCA; stroke-opacity:1.00;" transform="translate(0 0) scale(1.00 1.00)">
  <polygon points="392 233 443 233 443 284 392 284 " shape-rendering="auto"   style="fill-rule:evenodd;"/>
</g>
<g style="stroke-width:1; stroke-linecap:round; stroke-linejoin:round; fill:#E6E6FA; fill-opacity:1.00; stroke:#000000; stroke-opacity:1.00;" transform="translate(0 0) scale(1.00 1.00)">
  <polygon points="453 233 460 233 460 284 453 284 " shape-rendering="auto"   style="fill-rule:evenodd;"/>
</g>
<g style="stroke-width:1; stroke-linecap:round; stroke-linejoin:round; fill:#000000; fill-opacity:0.00; stroke:#000000; stroke-opacity:0.00;" transform="translate(0 0) scale(1.00 1.00)">
  <polygon points="2 158 174 158 174 225 2 225 " shape-rendering="auto"   style="fill-rule:evenodd;"/>
</g>
<g style="stroke-width:1; stroke-linecap:round; stroke-linejoin:round; fill:#007BA7; fill-opacity:1.00; stroke:#007BA7; stroke-opacity:1.00;" transform="translate(0 0) scale(1.00 1.00)">
  <polygon points="279 165 321 165 321 216 279 216 " shape-rendering="auto"   style="fill-rule:evenodd;"/>
</g>
<g style="stroke-width:1; stroke-linecap:round; stroke-linejoin:round; fill:#3395B8; fill-opacity:1.00; stroke:#3395B8; stroke-opacity:1.00;" transform="translate(0 0) scale(1.00 1.00)">
  <polygon points="322 165 400 165 400 216 322 216 " shape-rendering="auto"   style="fill-rule:evenodd;"/>
</g>
<g style="stroke-width:1; stroke-linecap:round; stroke-linejoin:round; fill:#66AFCA; fill-opacity:1.00; stroke:#66AFCA; stroke-opacity:1.00;" transform="translate(0 0) scale(1.00 1.00)">
  <polygon points="401 165 434 165 434 216 401 216 " shape-rendering="auto"   style="fill-rule:evenodd;"/>
</g>
<g style="stroke-width:1; stroke-linecap:round; stroke-linejoin:round; fill:#E6E6FA; fill-opacity:1.00; stroke:#000000; stroke-opacity:1.00;" transform="translate(0 0) scale(1.00 1.00)">
  <polygon points="453 165 469 165 469 216 453 216 " shape-rendering="auto"   style="fill-rule:evenodd;"/>
</g>
<g style="stroke-width:1; stroke-linecap:round; stroke-linejoin:round; fill:#000000; fill-opacity:0.00; stroke:#000000; stroke-opacity:0.00;" transform="translate(0 0) scale(1.00 1.00)">
  <polygon points="2 90 174 90 174 157 2 157 " shape-rendering="auto"   style="fill-rule:evenodd;"/>
</g>
<g style="stroke-width:1; stroke-linecap:round; stroke-linejoin:round; fill:#FFA500; fill-opacity:1.00; stroke:#FFA500; stroke-opacity:1.00;" transform="translate(0 0) scale(1.00 1.00)">
  <polygon points="244 97 278 97 278 148 244 148 " shape-rendering="auto"   style="fill-rule:evenodd;"/>
</g>
<g style="stroke-width:1; stroke-linecap:round; stroke-linejoin:round; fill:#007BA7; fill-opacity:1.00; stroke:#007BA7; stroke-opacity:1.00;" transform="translate(0 0) scale(1.00 1.00)">
  <polygon points="279 97 313 97 313 148 279 148 " shape-rendering="auto"   style="fill-rule:evenodd;"/>
</g>
<g style="stroke-width:1; stroke-linecap:round; stroke-linejoin:round; fill:#3395B8; fill-opacity:1.00; stroke:#3395B8; stroke-opacity:1.00;" transform="translate(0 0) scale(1.00 1.00)">
  <polygon points="314 97 365 97 365 148 314 148 " shape-rendering="auto"   style="fill-rule:evenodd;"/>
</g>
<g style="stroke-width:1; stroke-linecap:round; stroke-linejoin:round; fill:#E6E6FA; fill-opacity:1.00; stroke:#000000; stroke-opacity:1.00;" transform="translate(0 0) scale(1.00 1.00)">
  <polygon points="453 97 495 97 495 148 453 148 " shape-rendering="auto"   style="fill-rule:evenodd;"/>
</g>
<g style="stroke-width:1; stroke-linecap:round; stroke-linejoin:round; fill:#FFFFFF; fill-opacity:1.00; stroke:#000000; stroke-opacity:1.00;" transform="translate(0 0) scale(1.00 1.00)">
  <polygon points="505 97 513 97 513 148 505 148 " shape-rendering="auto"   style="fill-rule:evenodd;"/>
</g>
<g style="stroke-width:1; stroke-linecap:round; stroke-linejoin:round; fill:#000000; fill-opacity:0.00; stroke:#000000; stroke-opacity:0.00;" transform="translate(0 0) scale(1.00 1.00)">
  <polygon points="2 22 174 22 174 89 2 89 " shape-rendering="auto"   style="fill-rule:evenodd;"/>
</g>
<g style="stroke-width:1; stroke-linecap:round; stroke-linejoin:round; fill:#996300; fill-opacity:1.00; stroke:#996300; stroke-opacity:1.00;" transform="translate(0 0) scale(1.00 1.00)">
  <polygon points="175 29 208 29 208 80 175 80 " shape-rendering="auto"   style="fill-rule:evenodd;"/>
</g>
<g style="stroke-width:1; stroke-linecap:round; stroke-linejoin:round; fill:#CC8400; fill-opacity:1.00; stroke:#CC8400; stroke-opacity:1.00;" transform="translate(0 0) scale(1.00 1.00)">
  <polygon points="209 29 261 29 261 80 209 80 " shape-rendering="auto"   style="fill-rule:evenodd;"/>
</g>
<g style="stroke-width:1; stroke-linecap:round; stroke-linejoin:round; fill:#FFA500; fill-opacity:1.00; stroke:#FFA500; stroke-opacity:1.00;" transform="translate(0 0) scale(1.00 1.00)">
  <polygon points="262 29 278 29 278 80 262 80 " shape-rendering="auto"   style="fill-rule:evenodd;"/>
</g>
<g style="stroke-width:1; stroke-linecap:round; stroke-linejoin:round; fill:#007BA7; fill-opacity:1.00; stroke:#007BA7; stroke-opacity:1.00;" transform="translate(0 0) scale(1.00 1.00)">
  <polygon points="279 29 330 29 330 80 279 80 " shape-rendering="auto"   style="fill-rule:evenodd;"/>
</g>
<g style="stroke-width:1; stroke-linecap:round; stroke-linejoin:round; fill:#3395B8; fill-opacity:1.00; stroke:#3395B8; stroke-opacity:1.00;" transform="translate(0 0) scale(1.00 1.00)">
  <polygon points="331 29 348 29 348 80 331 80 " shape-rendering="auto"   style="fill-rule:evenodd;"/>
</g>
<g style="stroke-width:1; stroke-linecap:round; stroke-linejoin:round; fill:#000000; fill-opacity:1.00; stroke:#000000; stroke-opacity:1.00;" transform="translate(0 0) scale(1.00 1.00)">
  <text x="4.00" y="461.00" textLength="149" style="font-family:Segoe UI; font-weight:400; font-style:normal; font-size:6.37pt; text-decoration: none; fill:#000000; fill-opacity:1.00; stroke:#000000; stroke-opacity:1.00; stroke-width:0; white-space: pre;" xml:space="preserve" transform="rotate(0.00 4.00 461.00)">Data importing features are important to</text>
  <text x="4.00" y="472.00" textLength="11" style="font-family:Segoe UI; font-weight:400; font-style:normal; font-size:6.37pt; text-decoration: none; fill:#000000; fill-opacity:1.00; stroke:#000000; stroke-opacity:1.00; stroke-width:0; white-space: pre;" xml:space="preserve" transform="rotate(0.00 4.00 472.00)">me</text>
</g>
<g style="stroke-width:1; stroke-linecap:round; stroke-linejoin:round; fill:#000000; fill-opacity:1.00; stroke:#000000; stroke-opacity:1.00;" transform="translate(0 0) scale(1.00 1.00)">
  <text x="281.00" y="466.00" textLength="15" style="font-family:Segoe UI; font-weight:400; font-style:normal; font-size:6.37pt; text-decoration: none; fill:#FFFFFF; fill-opacity:1.00; stroke:#FFFFFF; stroke-opacity:1.00; stroke-width:0; white-space: pre;" xml:space="preserve" transform="rotate(0.00 281.00 466.00)">15%</text>
</g>
<g style="stroke-width:1; stroke-linecap:round; stroke-linejoin:round; fill:#000000; fill-opacity:1.00; stroke:#000000; stroke-opacity:1.00;" transform="translate(0 0) scale(1.00 1.00)">
  <text x="307.00" y="466.00" textLength="15" style="font-family:Segoe UI; font-weight:400; font-style:normal; font-size:6.37pt; text-decoration: none; fill:#FFFFFF; fill-opacity:1.00; stroke:#FFFFFF; stroke-opacity:1.00; stroke-width:0; white-space: pre;" xml:space="preserve" transform="rotate(0.00 307.00 466.00)">25%</text>
</g>
<g style="stroke-width:1; stroke-linecap:round; stroke-linejoin:round; fill:#000000; fill-opacity:1.00; stroke:#000000; stroke-opacity:1.00;" transform="translate(0 0) scale(1.00 1.00)">
  <text x="351.00" y="466.00" textLength="15" style="font-family:Segoe UI; font-weight:400; font-style:normal; font-size:6.37pt; text-decoration: none; fill:#FFFFFF; fill-opacity:1.00; stroke:#FFFFFF; stroke-opacity:1.00; stroke-width:0; white-space: pre;" xml:space="preserve" transform="rotate(0.00 351.00 466.00)">60%</text>
</g>
<g style="stroke-width:1; stroke-linecap:round; stroke-linejoin:round; fill:#000000; fill-opacity:1.00; stroke:#000000; stroke-opacity:1.00;" transform="translate(0 0) scale(1.00 1.00)">
  <text x="4.00" y="393.00" textLength="161" style="font-family:Segoe UI; font-weight:400; font-style:normal; font-size:6.37pt; text-decoration: none; fill:#000000; fill-opacity:1.00; stroke:#000000; stroke-opacity:1.00; stroke-width:0; white-space: pre;" xml:space="preserve" transform="rotate(0.00 4.00 393.00)">Standard, &quot;out-of-the-box&quot; graph support is</text>
  <text x="4.00" y="404.00" textLength="60" style="font-family:Segoe UI; font-weight:400; font-style:normal; font-size:6.37pt; text-decoration: none; fill:#000000; fill-opacity:1.00; stroke:#000000; stroke-opacity:1.00; stroke-width:0; white-space: pre;" xml:space="preserve" transform="rotate(0.00 4.00 404.00)">important to me</text>
</g>
<g style="stroke-width:1; stroke-linecap:round; stroke-linejoin:round; fill:#000000; fill-opacity:1.00; stroke:#000000; stroke-opacity:1.00;" transform="translate(0 0) scale(1.00 1.00)">
  <text x="281.00" y="398.00" textLength="15" style="font-family:Segoe UI; font-weight:400; font-style:normal; font-size:6.37pt; text-decoration: none; fill:#FFFFFF; fill-opacity:1.00; stroke:#FFFFFF; stroke-opacity:1.00; stroke-width:0; white-space: pre;" xml:space="preserve" transform="rotate(0.00 281.00 398.00)">55%</text>
</g>
<g style="stroke-width:1; stroke-linecap:round; stroke-linejoin:round; fill:#000000; fill-opacity:1.00; stroke:#000000; stroke-opacity:1.00;" transform="translate(0 0) scale(1.00 1.00)">
  <text x="376.00" y="398.00" textLength="15" style="font-family:Segoe UI; font-weight:400; font-style:normal; font-size:6.37pt; text-decoration: none; fill:#FFFFFF; fill-opacity:1.00; stroke:#FFFFFF; stroke-opacity:1.00; stroke-width:0; white-space: pre;" xml:space="preserve" transform="rotate(0.00 376.00 398.00)">45%</text>
</g>
<g style="stroke-width:1; stroke-linecap:round; stroke-linejoin:round; fill:#000000; fill-opacity:1.00; stroke:#000000; stroke-opacity:1.00;" transform="translate(0 0) scale(1.00 1.00)">
  <text x="4.00" y="331.00" textLength="112" style="font-family:Segoe UI; font-weight:400; font-style:normal; font-size:6.37pt; text-decoration: none; fill:#000000; fill-opacity:1.00; stroke:#000000; stroke-opacity:1.00; stroke-width:0; white-space: pre;" xml:space="preserve" transform="rotate(0.00 4.00 331.00)">Extensibility is important to me</text>
</g>
<g style="stroke-width:1; stroke-linecap:round; stroke-linejoin:round; fill:#FFFFFF; fill-opacity:1.00; stroke:#000000; stroke-opacity:0.0;" transform="translate(0 0) scale(1.00 1.00)">
  <rect x="211" y="319" width="21" height="16" rx="0.00" shape-rendering="auto"  />
</g>
<g style="stroke-width:1; stroke-linecap:round; stroke-linejoin:round; fill:#000000; fill-opacity:1.00; stroke:#000000; stroke-opacity:1.00;" transform="translate(0 0) scale(1.00 1.00)">
  <text x="213.00" y="330.00" textLength="15" style="font-family:Segoe UI; font-weight:400; font-style:normal; font-size:6.37pt; text-decoration: none; fill:#000000; fill-opacity:1.00; stroke:#000000; stroke-opacity:1.00; stroke-width:0; white-space: pre;" xml:space="preserve" transform="rotate(0.00 213.00 330.00)">10%</text>
</g>
<g style="stroke-width:1; stroke-linecap:round; stroke-linejoin:round; fill:#000000; fill-opacity:0.0; stroke:#000000; stroke-opacity:1.00;" transform="translate(0 0) scale(1.00 1.00)">
  <rect x="211" y="319" width="21" height="16" rx="0.00" shape-rendering="auto"  />
</g>
<g style="stroke-width:1; stroke-linecap:round; stroke-linejoin:round; fill:#000000; fill-opacity:1.00; stroke:#000000; stroke-opacity:1.00;" transform="translate(0 0) scale(1.00 1.00)">
  <text x="259.00" y="330.00" textLength="15" style="font-family:Segoe UI; font-weight:400; font-style:normal; font-size:6.37pt; text-decoration: none; fill:#000000; fill-opacity:1.00; stroke:#000000; stroke-opacity:1.00; stroke-width:0; white-space: pre;" xml:space="preserve" transform="rotate(0.00 259.00 330.00)">25%</text>
</g>
<g style="stroke-width:1; stroke-linecap:round; stroke-linejoin:round; fill:#000000; fill-opacity:1.00; stroke:#000000; stroke-opacity:1.00;" transform="translate(0 0) scale(1.00 1.00)">
  <text x="281.00" y="330.00" textLength="15" style="font-family:Segoe UI; font-weight:400; font-style:normal; font-size:6.37pt; text-decoration: none; fill:#FFFFFF; fill-opacity:1.00; stroke:#FFFFFF; stroke-opacity:1.00; stroke-width:0; white-space: pre;" xml:space="preserve" transform="rotate(0.00 281.00 330.00)">35%</text>
</g>
<g style="stroke-width:1; stroke-linecap:round; stroke-linejoin:round; fill:#000000; fill-opacity:1.00; stroke:#000000; stroke-opacity:1.00;" transform="translate(0 0) scale(1.00 1.00)">
  <text x="455.00" y="330.00" textLength="15" style="font-family:Segoe UI; font-weight:400; font-style:normal; font-size:6.37pt; text-decoration: none; fill:#000000; fill-opacity:1.00; stroke:#000000; stroke-opacity:1.00; stroke-width:0; white-space: pre;" xml:space="preserve" transform="rotate(0.00 455.00 330.00)">30%</text>
</g>
<g style="stroke-width:1; stroke-linecap:round; stroke-linejoin:round; fill:#000000; fill-opacity:1.00; stroke:#000000; stroke-opacity:1.00;" transform="translate(0 0) scale(1.00 1.00)">
  <text x="4.00" y="257.00" textLength="157" style="font-family:Segoe UI; font-weight:400; font-style:normal; font-size:6.37pt; text-decoration: none; fill:#000000; fill-opacity:1.00; stroke:#000000; stroke-opacity:1.00; stroke-width:0; white-space: pre;" xml:space="preserve" transform="rotate(0.00 4.00 257.00)">Support for obscure graphs is important to</text>
  <text x="4.00" y="268.00" textLength="11" style="font-family:Segoe UI; font-weight:400; font-style:normal; font-size:6.37pt; text-decoration: none; fill:#000000; fill-opacity:1.00; stroke:#000000; stroke-opacity:1.00; stroke-width:0; white-space: pre;" xml:space="preserve" transform="rotate(0.00 4.00 268.00)">me</text>
</g>
<g style="stroke-width:1; stroke-linecap:round; stroke-linejoin:round; fill:#000000; fill-opacity:1.00; stroke:#000000; stroke-opacity:1.00;" transform="translate(0 0) scale(1.00 1.00)">
  <text x="281.00" y="262.00" textLength="15" style="font-family:Segoe UI; font-weight:400; font-style:normal; font-size:6.37pt; text-decoration: none; fill:#FFFFFF; fill-opacity:1.00; stroke:#FFFFFF; stroke-opacity:1.00; stroke-width:0; white-space: pre;" xml:space="preserve" transform="rotate(0.00 281.00 262.00)">35%</text>
</g>
<g style="stroke-width:1; stroke-linecap:round; stroke-linejoin:round; fill:#000000; fill-opacity:1.00; stroke:#000000; stroke-opacity:1.00;" transform="translate(0 0) scale(1.00 1.00)">
  <text x="342.00" y="262.00" textLength="15" style="font-family:Segoe UI; font-weight:400; font-style:normal; font-size:6.37pt; text-decoration: none; fill:#FFFFFF; fill-opacity:1.00; stroke:#FFFFFF; stroke-opacity:1.00; stroke-width:0; white-space: pre;" xml:space="preserve" transform="rotate(0.00 342.00 262.00)">30%</text>
</g>
<g style="stroke-width:1; stroke-linecap:round; stroke-linejoin:round; fill:#000000; fill-opacity:1.00; stroke:#000000; stroke-opacity:1.00;" transform="translate(0 0) scale(1.00 1.00)">
  <text x="394.00" y="262.00" textLength="15" style="font-family:Segoe UI; font-weight:400; font-style:normal; font-size:6.37pt; text-decoration: none; fill:#FFFFFF; fill-opacity:1.00; stroke:#FFFFFF; stroke-opacity:1.00; stroke-width:0; white-space: pre;" xml:space="preserve" transform="rotate(0.00 394.00 262.00)">30%</text>
</g>
<g style="stroke-width:1; stroke-linecap:round; stroke-linejoin:round; fill:#FFFFFF; fill-opacity:1.00; stroke:#000000; stroke-opacity:0.0;" transform="translate(0 0) scale(1.00 1.00)">
  <rect x="455" y="251" width="16" height="16" rx="0.00" shape-rendering="auto"  />
</g>
<g style="stroke-width:1; stroke-linecap:round; stroke-linejoin:round; fill:#000000; fill-opacity:1.00; stroke:#000000; stroke-opacity:1.00;" transform="translate(0 0) scale(1.00 1.00)">
  <text x="457.00" y="262.00" textLength="11" style="font-family:Segoe UI; font-weight:400; font-style:normal; font-size:6.37pt; text-decoration: none; fill:#000000; fill-opacity:1.00; stroke:#000000; stroke-opacity:1.00; stroke-width:0; white-space: pre;" xml:space="preserve" transform="rotate(0.00 457.00 262.00)">5%</text>
</g>
<g style="stroke-width:1; stroke-linecap:round; stroke-linejoin:round; fill:#000000; fill-opacity:0.0; stroke:#000000; stroke-opacity:1.00;" transform="translate(0 0) scale(1.00 1.00)">
  <rect x="455" y="251" width="16" height="16" rx="0.00" shape-rendering="auto"  />
</g>
<g style="stroke-width:1; stroke-linecap:round; stroke-linejoin:round; fill:#000000; fill-opacity:1.00; stroke:#000000; stroke-opacity:1.00;" transform="translate(0 0) scale(1.00 1.00)">
  <text x="4.00" y="195.00" textLength="112" style="font-family:Segoe UI; font-weight:400; font-style:normal; font-size:6.37pt; text-decoration: none; fill:#000000; fill-opacity:1.00; stroke:#000000; stroke-opacity:1.00; stroke-width:0; white-space: pre;" xml:space="preserve" transform="rotate(0.00 4.00 195.00)">A simple API is important to me</text>
</g>
<g style="stroke-width:1; stroke-linecap:round; stroke-linejoin:round; fill:#000000; fill-opacity:1.00; stroke:#000000; stroke-opacity:1.00;" transform="translate(0 0) scale(1.00 1.00)">
  <text x="281.00" y="194.00" textLength="15" style="font-family:Segoe UI; font-weight:400; font-style:normal; font-size:6.37pt; text-decoration: none; fill:#FFFFFF; fill-opacity:1.00; stroke:#FFFFFF; stroke-opacity:1.00; stroke-width:0; white-space: pre;" xml:space="preserve" transform="rotate(0.00 281.00 194.00)">25%</text>
</g>
<g style="stroke-width:1; stroke-linecap:round; stroke-linejoin:round; fill:#000000; fill-opacity:1.00; stroke:#000000; stroke-opacity:1.00;" transform="translate(0 0) scale(1.00 1.00)">
  <text x="324.00" y="194.00" textLength="15" style="font-family:Segoe UI; font-weight:400; font-style:normal; font-size:6.37pt; text-decoration: none; fill:#FFFFFF; fill-opacity:1.00; stroke:#FFFFFF; stroke-opacity:1.00; stroke-width:0; white-space: pre;" xml:space="preserve" transform="rotate(0.00 324.00 194.00)">45%</text>
</g>
<g style="stroke-width:1; stroke-linecap:round; stroke-linejoin:round; fill:#000000; fill-opacity:1.00; stroke:#000000; stroke-opacity:1.00;" transform="translate(0 0) scale(1.00 1.00)">
  <text x="403.00" y="194.00" textLength="15" style="font-family:Segoe UI; font-weight:400; font-style:normal; font-size:6.37pt; text-decoration: none; fill:#FFFFFF; fill-opacity:1.00; stroke:#FFFFFF; stroke-opacity:1.00; stroke-width:0; white-space: pre;" xml:space="preserve" transform="rotate(0.00 403.00 194.00)">20%</text>
</g>
<g style="stroke-width:1; stroke-linecap:round; stroke-linejoin:round; fill:#FFFFFF; fill-opacity:1.00; stroke:#000000; stroke-opacity:0.0;" transform="translate(0 0) scale(1.00 1.00)">
  <rect x="455" y="183" width="21" height="16" rx="0.00" shape-rendering="auto"  />
</g>
<g style="stroke-width:1; stroke-linecap:round; stroke-linejoin:round; fill:#000000; fill-opacity:1.00; stroke:#000000; stroke-opacity:1.00;" transform="translate(0 0) scale(1.00 1.00)">
  <text x="457.00" y="194.00" textLength="15" style="font-family:Segoe UI; font-weight:400; font-style:normal; font-size:6.37pt; text-decoration: none; fill:#000000; fill-opacity:1.00; stroke:#000000; stroke-opacity:1.00; stroke-width:0; white-space: pre;" xml:space="preserve" transform="rotate(0.00 457.00 194.00)">10%</text>
</g>
<g style="stroke-width:1; stroke-linecap:round; stroke-linejoin:round; fill:#000000; fill-opacity:0.0; stroke:#000000; stroke-opacity:1.00;" transform="translate(0 0) scale(1.00 1.00)">
  <rect x="455" y="183" width="21" height="16" rx="0.00" shape-rendering="auto"  />
</g>
<g style="stroke-width:1; stroke-linecap:round; stroke-linejoin:round; fill:#000000; fill-opacity:1.00; stroke:#000000; stroke-opacity:1.00;" transform="translate(0 0) scale(1.00 1.00)">
  <text x="4.00" y="127.00" textLength="122" style="font-family:Segoe UI; font-weight:400; font-style:normal; font-size:6.37pt; text-decoration: none; fill:#000000; fill-opacity:1.00; stroke:#000000; stroke-opacity:1.00; stroke-width:0; white-space: pre;" xml:space="preserve" transform="rotate(0.00 4.00 127.00)">Customization is important to me</text>
</g>
<g style="stroke-width:1; stroke-linecap:round; stroke-linejoin:round; fill:#000000; fill-opacity:1.00; stroke:#000000; stroke-opacity:1.00;" transform="translate(0 0) scale(1.00 1.00)">
  <text x="259.00" y="126.00" textLength="15" style="font-family:Segoe UI; font-weight:400; font-style:normal; font-size:6.37pt; text-decoration: none; fill:#000000; fill-opacity:1.00; stroke:#000000; stroke-opacity:1.00; stroke-width:0; white-space: pre;" xml:space="preserve" transform="rotate(0.00 259.00 126.00)">20%</text>
</g>
<g style="stroke-width:1; stroke-linecap:round; stroke-linejoin:round; fill:#000000; fill-opacity:1.00; stroke:#000000; stroke-opacity:1.00;" transform="translate(0 0) scale(1.00 1.00)">
  <text x="281.00" y="126.00" textLength="15" style="font-family:Segoe UI; font-weight:400; font-style:normal; font-size:6.37pt; text-decoration: none; fill:#FFFFFF; fill-opacity:1.00; stroke:#FFFFFF; stroke-opacity:1.00; stroke-width:0; white-space: pre;" xml:space="preserve" transform="rotate(0.00 281.00 126.00)">20%</text>
</g>
<g style="stroke-width:1; stroke-linecap:round; stroke-linejoin:round; fill:#000000; fill-opacity:1.00; stroke:#000000; stroke-opacity:1.00;" transform="translate(0 0) scale(1.00 1.00)">
  <text x="316.00" y="126.00" textLength="15" style="font-family:Segoe UI; font-weight:400; font-style:normal; font-size:6.37pt; text-decoration: none; fill:#FFFFFF; fill-opacity:1.00; stroke:#FFFFFF; stroke-opacity:1.00; stroke-width:0; white-space: pre;" xml:space="preserve" transform="rotate(0.00 316.00 126.00)">30%</text>
</g>
<g style="stroke-width:1; stroke-linecap:round; stroke-linejoin:round; fill:#000000; fill-opacity:1.00; stroke:#000000; stroke-opacity:1.00;" transform="translate(0 0) scale(1.00 1.00)">
  <text x="455.00" y="126.00" textLength="15" style="font-family:Segoe UI; font-weight:400; font-style:normal; font-size:6.37pt; text-decoration: none; fill:#000000; fill-opacity:1.00; stroke:#000000; stroke-opacity:1.00; stroke-width:0; white-space: pre;" xml:space="preserve" transform="rotate(0.00 455.00 126.00)">25%</text>
</g>
<g style="stroke-width:1; stroke-linecap:round; stroke-linejoin:round; fill:#FFFFFF; fill-opacity:1.00; stroke:#000000; stroke-opacity:0.0;" transform="translate(0 0) scale(1.00 1.00)">
  <rect x="507" y="115" width="16" height="16" rx="0.00" shape-rendering="auto"  />
</g>
<g style="stroke-width:1; stroke-linecap:round; stroke-linejoin:round; fill:#000000; fill-opacity:1.00; stroke:#000000; stroke-opacity:1.00;" transform="translate(0 0) scale(1.00 1.00)">
  <text x="509.00" y="126.00" textLength="11" style="font-family:Segoe UI; font-weight:400; font-style:normal; font-size:6.37pt; text-decoration: none; fill:#000000; fill-opacity:1.00; stroke:#000000; stroke-opacity:1.00; stroke-width:0; white-space: pre;" xml:space="preserve" transform="rotate(0.00 509.00 126.00)">5%</text>
</g>
<g style="stroke-width:1; stroke-linecap:round; stroke-linejoin:round; fill:#000000; fill-opacity:0.0; stroke:#000000; stroke-opacity:1.00;" transform="translate(0 0) scale(1.00 1.00)">
  <rect x="507" y="115" width="16" height="16" rx="0.00" shape-rendering="auto"  />
</g>
<g style="stroke-width:1; stroke-linecap:round; stroke-linejoin:round; fill:#000000; fill-opacity:1.00; stroke:#000000; stroke-opacity:1.00;" transform="translate(0 0) scale(1.00 1.00)">
  <text x="4.00" y="59.00" textLength="158" style="font-family:Segoe UI; font-weight:400; font-style:normal; font-size:6.37pt; text-decoration: none; fill:#000000; fill-opacity:1.00; stroke:#000000; stroke-opacity:1.00; stroke-width:0; white-space: pre;" xml:space="preserve" transform="rotate(0.00 4.00 59.00)">I am happy with my current graphics library</text>
</g>
<g style="stroke-width:1; stroke-linecap:round; stroke-linejoin:round; fill:#000000; fill-opacity:1.00; stroke:#000000; stroke-opacity:1.00;" transform="translate(0 0) scale(1.00 1.00)">
  <text x="189.00" y="58.00" textLength="15" style="font-family:Segoe UI; font-weight:400; font-style:normal; font-size:6.37pt; text-decoration: none; fill:#000000; fill-opacity:1.00; stroke:#000000; stroke-opacity:1.00; stroke-width:0; white-space: pre;" xml:space="preserve" transform="rotate(0.00 189.00 58.00)">20%</text>
</g>
<g style="stroke-width:1; stroke-linecap:round; stroke-linejoin:round; fill:#000000; fill-opacity:1.00; stroke:#000000; stroke-opacity:1.00;" transform="translate(0 0) scale(1.00 1.00)">
  <text x="242.00" y="58.00" textLength="15" style="font-family:Segoe UI; font-weight:400; font-style:normal; font-size:6.37pt; text-decoration: none; fill:#000000; fill-opacity:1.00; stroke:#000000; stroke-opacity:1.00; stroke-width:0; white-space: pre;" xml:space="preserve" transform="rotate(0.00 242.00 58.00)">30%</text>
</g>
<g style="stroke-width:1; stroke-linecap:round; stroke-linejoin:round; fill:#FFFFFF; fill-opacity:1.00; stroke:#000000; stroke-opacity:0.0;" transform="translate(0 0) scale(1.00 1.00)">
  <rect x="255" y="47" width="21" height="16" rx="0.00" shape-rendering="auto"  />
</g>
<g style="stroke-width:1; stroke-linecap:round; stroke-linejoin:round; fill:#000000; fill-opacity:1.00; stroke:#000000; stroke-opacity:1.00;" transform="translate(0 0) scale(1.00 1.00)">
  <text x="257.00" y="58.00" textLength="15" style="font-family:Segoe UI; font-weight:400; font-style:normal; font-size:6.37pt; text-decoration: none; fill:#000000; fill-opacity:1.00; stroke:#000000; stroke-opacity:1.00; stroke-width:0; white-space: pre;" xml:space="preserve" transform="rotate(0.00 257.00 58.00)">10%</text>
</g>
<g style="stroke-width:1; stroke-linecap:round; stroke-linejoin:round; fill:#000000; fill-opacity:0.0; stroke:#000000; stroke-opacity:1.00;" transform="translate(0 0) scale(1.00 1.00)">
  <rect x="255" y="47" width="21" height="16" rx="0.00" shape-rendering="auto"  />
</g>
<g style="stroke-width:1; stroke-linecap:round; stroke-linejoin:round; fill:#000000; fill-opacity:1.00; stroke:#000000; stroke-opacity:1.00;" transform="translate(0 0) scale(1.00 1.00)">
  <text x="281.00" y="58.00" textLength="15" style="font-family:Segoe UI; font-weight:400; font-style:normal; font-size:6.37pt; text-decoration: none; fill:#FFFFFF; fill-opacity:1.00; stroke:#FFFFFF; stroke-opacity:1.00; stroke-width:0; white-space: pre;" xml:space="preserve" transform="rotate(0.00 281.00 58.00)">30%</text>
</g>
<g style="stroke-width:1; stroke-linecap:round; stroke-linejoin:round; fill:#000000; fill-opacity:1.00; stroke:#000000; stroke-opacity:0.0;" transform="translate(0 0) scale(1.00 1.00)">
  <rect x="333" y="47" width="21" height="16" rx="0.00" shape-rendering="auto"  />
</g>
<g style="stroke-width:1; stroke-linecap:round; stroke-linejoin:round; fill:#000000; fill-opacity:1.00; stroke:#000000; stroke-opacity:1.00;" transform="translate(0 0) scale(1.00 1.00)">
  <text x="335.00" y="58.00" textLength="15" style="font-family:Segoe UI; font-weight:400; font-style:normal; font-size:6.37pt; text-decoration: none; fill:#FFFFFF; fill-opacity:1.00; stroke:#FFFFFF; stroke-opacity:1.00; stroke-width:0; white-space: pre;" xml:space="preserve" transform="rotate(0.00 335.00 58.00)">10%</text>
</g>
<g style="stroke-width:1; stroke-linecap:round; stroke-linejoin:round; fill:#000000; fill-opacity:0.0; stroke:#000000; stroke-opacity:1.00;" transform="translate(0 0) scale(1.00 1.00)">
  <rect x="333" y="47" width="21" height="16" rx="0.00" shape-rendering="auto"  />
</g>
<g style="stroke-width:1; stroke-linecap:round; stroke-linejoin:round; fill:#FFFFFF; fill-opacity:1.00; stroke:#000000; stroke-opacity:1.00;" transform="translate(0 0) scale(1.00 1.00)">
  <path d="M279 498 L279 22" shape-rendering="auto" stroke-dasharray="5.000000,2.666667"/>
  <path d="M453 498 L453 22" shape-rendering="auto" stroke-dasharray="5.000000,2.666667"/>
  <path d="M505 498 L505 22" shape-rendering="auto" stroke-dasharray="5.000000,2.666667"/>
</g>
<g style="stroke-width:1; stroke-linecap:round; stroke-linejoin:round; fill:#000000; fill-opacity:1.00; stroke:#000000; stroke-opacity:1.00;" transform="translate(0 0) scale(1.00 1.00)">
  <text x="605.00" y="17.00" textLength="75" style="font-family:Segoe UI; font-weight:400; font-style:normal; font-size:8.52pt; text-decoration: none; fill:#000000; fill-opacity:1.00; stroke:#000000; stroke-opacity:1.00; stroke-width:0; white-space: pre;" xml:space="preserve" transform="rotate(0.00 605.00 17.00)">Strongly agree</text>
  <text x="605.00" y="31.00" textLength="30" style="font-family:Segoe UI; font-weight:400; font-style:normal; font-size:8.52pt; text-decoration: none; fill:#000000; fill-opacity:1.00; stroke:#000000; stroke-opacity:1.00; stroke-width:0; white-space: pre;" xml:space="preserve" transform="rotate(0.00 605.00 31.00)">Agree</text>
  <text x="605.00" y="45.00" textLength="86" style="font-family:Segoe UI; font-weight:400; font-style:normal; font-size:8.52pt; text-decoration: none; fill:#000000; fill-opacity:1.00; stroke:#000000; stroke-opacity:1.00; stroke-width:0; white-space: pre;" xml:space="preserve" transform="rotate(0.00 605.00 45.00)">Somewhat agree</text>
  <text x="605.00" y="59.00" textLength="38" style="font-family:Segoe UI; font-weight:400; font-style:normal; font-size:8.52pt; text-decoration: none; fill:#000000; fill-opacity:1.00; stroke:#000000; stroke-opacity:1.00; stroke-width:0; white-space: pre;" xml:space="preserve" transform="rotate(0.00 605.00 59.00)">Neutral</text>
  <text x="605.00" y="73.00" textLength="101" style="font-family:Segoe UI; font-weight:400; font-style:normal; font-size:8.52pt; text-decoration: none; fill:#000000; fill-opacity:1.00; stroke:#000000; stroke-opacity:1.00; stroke-width:0; white-space: pre;" xml:space="preserve" transform="rotate(0.00 605.00 73.00)">Somewhat disagree</text>
  <text x="605.00" y="87.00" textLength="45" style="font-family:Segoe UI; font-weight:400; font-style:normal; font-size:8.52pt; text-decoration: none; fill:#000000; fill-opacity:1.00; stroke:#000000; stroke-opacity:1.00; stroke-width:0; white-space: pre;" xml:space="preserve" transform="rotate(0.00 605.00 87.00)">Disagree</text>
  <text x="605.00" y="101.00" textLength="90" style="font-family:Segoe UI; font-weight:400; font-style:normal; font-size:8.52pt; text-decoration: none; fill:#000000; fill-opacity:1.00; stroke:#000000; stroke-opacity:1.00; stroke-width:0; white-space: pre;" xml:space="preserve" transform="rotate(0.00 605.00 101.00)">Strongly disagree</text>
</g>
<g style="stroke-width:0; stroke-linecap:round; stroke-linejoin:round; fill:#66AFCA; fill-opacity:1.00; stroke:#000000; stroke-opacity:1.00;" transform="translate(0 0) scale(1.00 1.00)">
  <rect x="591" y="9" width="7" height="7" rx="0.00" shape-rendering="auto"  />
</g>
<g style="stroke-width:0; stroke-linecap:round; stroke-linejoin:round; fill:#3395B8; fill-opacity:1.00; stroke:#000000; stroke-opacity:1.00;" transform="translate(0 0) scale(1.00 1.00)">
  <rect x="591" y="23" width="7" height="7" rx="0.00" shape-rendering="auto"  />
</g>
<g style="stroke-width:0; stroke-linecap:round; stroke-linejoin:round; fill:#007BA7; fill-opacity:1.00; stroke:#000000; stroke-opacity:1.00;" transform="translate(0 0) scale(1.00 1.00)">
  <rect x="591" y="37" width="7" height="7" rx="0.00" shape-rendering="auto"  />
</g>
<g style="stroke-width:0; stroke-linecap:round; stroke-linejoin:round; fill:#E6E6FA; fill-opacity:1.00; stroke:#000000; stroke-opacity:1.00;" transform="translate(0 0) scale(1.00 1.00)">
  <rect x="591" y="51" width="7" height="7" rx="0.00" shape-rendering="auto"  />
</g>
<g style="stroke-width:0; stroke-linecap:round; stroke-linejoin:round; fill:#FFA500; fill-opacity:1.00; stroke:#000000; stroke-opacity:1.00;" transform="translate(0 0) scale(1.00 1.00)">
  <rect x="591" y="65" width="7" height="7" rx="0.00" shape-rendering="auto"  />
</g>
<g style="stroke-width:0; stroke-linecap:round; stroke-linejoin:round; fill:#CC8400; fill-opacity:1.00; stroke:#000000; stroke-opacity:1.00;" transform="translate(0 0) scale(1.00 1.00)">
  <rect x="591" y="79" width="7" height="7" rx="0.00" shape-rendering="auto"  />
</g>
<g style="stroke-width:0; stroke-linecap:round; stroke-linejoin:round; fill:#996300; fill-opacity:1.00; stroke:#000000; stroke-opacity:1.00;" transform="translate(0 0) scale(1.00 1.00)">
  <rect x="591" y="93" width="7" height="7" rx="0.00" shape-rendering="auto"  />
</g>
</svg>
