<?xml version="1.0" encoding="UTF-8" standalone="no"?>
<!DOCTYPE svg PUBLIC "-//W3C//DTD SVG 1.0//EN" "http://www.w3.org/TR/2001/REC-SVG-20010904/DTD/svg10.dtd">

<svg xmlns="http://www.w3.org/2000/svg" xmlns:xlink="http://www.w3.org/1999/xlink" width="25.15cm" height="17.64cm" viewBox="0 0 713 500">
<title></title>
<desc>Picture generated by wxSVG v0101</desc>

<g style="fill:black; stroke:black; stroke-width:1">
</g>
<g style="stroke-width:1; stroke-linecap:round; stroke-linejoin:round; fill:#000000; fill-opacity:0.0; stroke:#000000; stroke-opacity:0.0;" transform="translate(0 0) scale(1.00 1.00)">
  <rect x="0" y="0" width="713" height="500" rx="0.00" shape-rendering="auto"  />
</g>
<g style="stroke-width:1; stroke-linecap:round; stroke-linejoin:round; fill:#FFFFFF; fill-opacity:1.00; stroke:#000000; stroke-opacity:1.00;" transform="translate(0 0) scale(1.00 1.00)">
</g>
<g style="stroke-width:1; stroke-linecap:round; stroke-linejoin:round; fill:#FFFFFF; fill-opacity:1.00; stroke:#000000; stroke-opacity:1.00;" transform="translate(0 0) scale(1.00 1.00)">
  <rect x="0" y="0" width="713" height="500" rx="0.00" shape-rendering="auto"  />
</g>
<g style="stroke-width:1; stroke-linecap:butt; stroke-linejoin:round; fill:#FFFFFF; fill-opacity:1.00; stroke:#D3D3D3; stroke-opacity:1.00;" transform="translate(0 0) scale(1.00 1.00)">
  <path d="M32 397 L620 397" shape-rendering="auto" />
  <path d="M32 360 L620 360" shape-rendering="auto" />
  <path d="M32 323 L620 323" shape-rendering="auto" />
  <path d="M32 286 L620 286" shape-rendering="auto" />
  <path d="M32 249 L620 249" shape-rendering="auto" />
  <path d="M32 212 L620 212" shape-rendering="auto" />
  <path d="M32 175 L620 175" shape-rendering="auto" />
  <path d="M32 138 L620 138" shape-rendering="auto" />
  <path d="M32 101 L620 101" shape-rendering="auto" />
</g>
<g style="stroke-width:1; stroke-linecap:round; stroke-linejoin:round; fill:#FFFFFF; fill-opacity:1.00; stroke:#000000; stroke-opacity:1.00;" transform="translate(0 0) scale(1.00 1.00)">
  <path d="M32 435 L619 435" shape-rendering="auto" />
</g>
<g style="stroke-width:1; stroke-linecap:round; stroke-linejoin:round; fill:#000000; fill-opacity:1.00; stroke:#000000; stroke-opacity:1.00;" transform="translate(0 0) scale(1.00 1.00)">
  <text x="13.00" y="452.00" textLength="38" style="font-family:Segoe UI; font-weight:400; font-style:normal; font-size:9.17pt; text-decoration: none; fill:#000000; fill-opacity:1.00; stroke:#000000; stroke-opacity:1.00; stroke-width:0; white-space: pre;" xml:space="preserve" transform="rotate(0.00 13.00 452.00)">Week 1</text>
</g>
<g style="stroke-width:1; stroke-linecap:round; stroke-linejoin:round; fill:#000000; fill-opacity:1.00; stroke:#000000; stroke-opacity:1.00;" transform="translate(0 0) scale(1.00 1.00)">
  <text x="159.00" y="452.00" textLength="38" style="font-family:Segoe UI; font-weight:400; font-style:normal; font-size:9.17pt; text-decoration: none; fill:#000000; fill-opacity:1.00; stroke:#000000; stroke-opacity:1.00; stroke-width:0; white-space: pre;" xml:space="preserve" transform="rotate(0.00 159.00 452.00)">Week 2</text>
</g>
<g style="stroke-width:1; stroke-linecap:round; stroke-linejoin:round; fill:#000000; fill-opacity:1.00; stroke:#000000; stroke-opacity:1.00;" transform="translate(0 0) scale(1.00 1.00)">
  <text x="306.00" y="452.00" textLength="38" style="font-family:Segoe UI; font-weight:400; font-style:normal; font-size:9.17pt; text-decoration: none; fill:#000000; fill-opacity:1.00; stroke:#000000; stroke-opacity:1.00; stroke-width:0; white-space: pre;" xml:space="preserve" transform="rotate(0.00 306.00 452.00)">Week 3</text>
</g>
<g style="stroke-width:1; stroke-linecap:round; stroke-linejoin:round; fill:#000000; fill-opacity:1.00; stroke:#000000; stroke-opacity:1.00;" transform="translate(0 0) scale(1.00 1.00)">
  <text x="453.00" y="452.00" textLength="38" style="font-family:Segoe UI; font-weight:400; font-style:normal; font-size:9.17pt; text-decoration: none; fill:#000000; fill-opacity:1.00; stroke:#000000; stroke-opacity:1.00; stroke-width:0; white-space: pre;" xml:space="preserve" transform="rotate(0.00 453.00 452.00)">Week 4</text>
</g>
<g style="stroke-width:1; stroke-linecap:round; stroke-linejoin:round; fill:#000000; fill-opacity:1.00; stroke:#000000; stroke-opacity:1.00;" transform="translate(0 0) scale(1.00 1.00)">
  <text x="600.00" y="452.00" textLength="38" style="font-family:Segoe UI; font-weight:400; font-style:normal; font-size:9.17pt; text-decoration: none; fill:#000000; fill-opacity:1.00; stroke:#000000; stroke-opacity:1.00; stroke-width:0; white-space: pre;" xml:space="preserve" transform="rotate(0.00 600.00 452.00)">Week 5</text>
</g>
<g style="stroke-width:1; stroke-linecap:round; stroke-linejoin:round; fill:#FFFFFF; fill-opacity:1.00; stroke:#000000; stroke-opacity:1.00;" transform="translate(0 0) scale(1.00 1.00)">
  <path d="M32 64 L619 64" shape-rendering="auto" />
</g>
<g style="stroke-width:1; stroke-linecap:round; stroke-linejoin:round; fill:#FFFFFF; fill-opacity:1.00; stroke:#000000; stroke-opacity:1.00;" transform="translate(0 0) scale(1.00 1.00)">
  <path d="M32 64 L32 435" shape-rendering="auto" />
</g>
<g style="stroke-width:1; stroke-linecap:round; stroke-linejoin:round; fill:#000000; fill-opacity:1.00; stroke:#000000; stroke-opacity:1.00;" transform="translate(0 0) scale(1.00 1.00)">
  <text x="20.00" y="440.00" textLength="6" style="font-family:Segoe UI; font-weight:400; font-style:normal; font-size:9.17pt; text-decoration: none; fill:#000000; fill-opacity:1.00; stroke:#000000; stroke-opacity:1.00; stroke-width:0; white-space: pre;" xml:space="preserve" transform="rotate(0.00 20.00 440.00)">0</text>
</g>
<g style="stroke-width:1; stroke-linecap:round; stroke-linejoin:round; fill:#000000; fill-opacity:1.00; stroke:#000000; stroke-opacity:1.00;" transform="translate(0 0) scale(1.00 1.00)">
  <text x="14.00" y="402.00" textLength="12" style="font-family:Segoe UI; font-weight:400; font-style:normal; font-size:9.17pt; text-decoration: none; fill:#000000; fill-opacity:1.00; stroke:#000000; stroke-opacity:1.00; stroke-width:0; white-space: pre;" xml:space="preserve" transform="rotate(0.00 14.00 402.00)">10</text>
</g>
<g style="stroke-width:1; stroke-linecap:round; stroke-linejoin:round; fill:#000000; fill-opacity:1.00; stroke:#000000; stroke-opacity:1.00;" transform="translate(0 0) scale(1.00 1.00)">
  <text x="14.00" y="365.00" textLength="12" style="font-family:Segoe UI; font-weight:400; font-style:normal; font-size:9.17pt; text-decoration: none; fill:#000000; fill-opacity:1.00; stroke:#000000; stroke-opacity:1.00; stroke-width:0; white-space: pre;" xml:space="preserve" transform="rotate(0.00 14.00 365.00)">20</text>
</g>
<g style="stroke-width:1; stroke-linecap:round; stroke-linejoin:round; fill:#000000; fill-opacity:1.00; stroke:#000000; stroke-opacity:1.00;" transform="translate(0 0) scale(1.00 1.00)">
  <text x="14.00" y="328.00" textLength="12" style="font-family:Segoe UI; font-weight:400; font-style:normal; font-size:9.17pt; text-decoration: none; fill:#000000; fill-opacity:1.00; stroke:#000000; stroke-opacity:1.00; stroke-width:0; white-space: pre;" xml:space="preserve" transform="rotate(0.00 14.00 328.00)">30</text>
</g>
<g style="stroke-width:1; stroke-linecap:round; stroke-linejoin:round; fill:#000000; fill-opacity:1.00; stroke:#000000; stroke-opacity:1.00;" transform="translate(0 0) scale(1.00 1.00)">
  <text x="14.00" y="291.00" textLength="12" style="font-family:Segoe UI; font-weight:400; font-style:normal; font-size:9.17pt; text-decoration: none; fill:#000000; fill-opacity:1.00; stroke:#000000; stroke-opacity:1.00; stroke-width:0; white-space: pre;" xml:space="preserve" transform="rotate(0.00 14.00 291.00)">40</text>
</g>
<g style="stroke-width:1; stroke-linecap:round; stroke-linejoin:round; fill:#000000; fill-opacity:1.00; stroke:#000000; stroke-opacity:1.00;" transform="translate(0 0) scale(1.00 1.00)">
  <text x="14.00" y="254.00" textLength="12" style="font-family:Segoe UI; font-weight:400; font-style:normal; font-size:9.17pt; text-decoration: none; fill:#000000; fill-opacity:1.00; stroke:#000000; stroke-opacity:1.00; stroke-width:0; white-space: pre;" xml:space="preserve" transform="rotate(0.00 14.00 254.00)">50</text>
</g>
<g style="stroke-width:1; stroke-linecap:round; stroke-linejoin:round; fill:#000000; fill-opacity:1.00; stroke:#000000; stroke-opacity:1.00;" transform="translate(0 0) scale(1.00 1.00)">
  <text x="14.00" y="217.00" textLength="12" style="font-family:Segoe UI; font-weight:400; font-style:normal; font-size:9.17pt; text-decoration: none; fill:#000000; fill-opacity:1.00; stroke:#000000; stroke-opacity:1.00; stroke-width:0; white-space: pre;" xml:space="preserve" transform="rotate(0.00 14.00 217.00)">60</text>
</g>
<g style="stroke-width:1; stroke-linecap:round; stroke-linejoin:round; fill:#000000; fill-opacity:1.00; stroke:#000000; stroke-opacity:1.00;" transform="translate(0 0) scale(1.00 1.00)">
  <text x="14.00" y="180.00" textLength="12" style="font-family:Segoe UI; font-weight:400; font-style:normal; font-size:9.17pt; text-decoration: none; fill:#000000; fill-opacity:1.00; stroke:#000000; stroke-opacity:1.00; stroke-width:0; white-space: pre;" xml:space="preserve" transform="rotate(0.00 14.00 180.00)">70</text>
</g>
<g style="stroke-width:1; stroke-linecap:round; stroke-linejoin:round; fill:#000000; fill-opacity:1.00; stroke:#000000; stroke-opacity:1.00;" transform="translate(0 0) scale(1.00 1.00)">
  <text x="14.00" y="143.00" textLength="12" style="font-family:Segoe UI; font-weight:400; font-style:normal; font-size:9.17pt; text-decoration: none; fill:#000000; fill-opacity:1.00; stroke:#000000; stroke-opacity:1.00; stroke-width:0; white-space: pre;" xml:space="preserve" transform="rotate(0.00 14.00 143.00)">80</text>
</g>
<g style="stroke-width:1; stroke-linecap:round; stroke-linejoin:round; fill:#000000; fill-opacity:1.00; stroke:#000000; stroke-opacity:1.00;" transform="translate(0 0) scale(1.00 1.00)">
  <text x="14.00" y="106.00" textLength="12" style="font-family:Segoe UI; font-weight:400; font-style:normal; font-size:9.17pt; text-decoration: none; fill:#000000; fill-opacity:1.00; stroke:#000000; stroke-opacity:1.00; stroke-width:0; white-space: pre;" xml:space="preserve" transform="rotate(0.00 14.00 106.00)">90</text>
</g>
<g style="stroke-width:1; stroke-linecap:round; stroke-linejoin:round; fill:#000000; fill-opacity:1.00; stroke:#000000; stroke-opacity:1.00;" transform="translate(0 0) scale(1.00 1.00)">
  <text x="8.00" y="69.00" textLength="18" style="font-family:Segoe UI; font-weight:400; font-style:normal; font-size:9.17pt; text-decoration: none; fill:#000000; fill-opacity:1.00; stroke:#000000; stroke-opacity:1.00; stroke-width:0; white-space: pre;" xml:space="preserve" transform="rotate(0.00 8.00 69.00)">100</text>
</g>
<g style="stroke-width:1; stroke-linecap:round; stroke-linejoin:round; fill:#FFFFFF; fill-opacity:1.00; stroke:#000000; stroke-opacity:1.00;" transform="translate(0 0) scale(1.00 1.00)">
  <path d="M619 64 L619 435" shape-rendering="auto" />
</g>
<g style="stroke-width:1; stroke-linecap:round; stroke-linejoin:round; fill:#000000; fill-opacity:1.00; stroke:#000000; stroke-opacity:1.00;" transform="translate(0 0) scale(1.00 1.00)">
  <text x="5.00" y="18.00" textLength="82" style="font-family:Segoe UI; font-weight:400; font-style:normal; font-size:9.17pt; text-decoration: none; fill:#000000; fill-opacity:1.00; stroke:#000000; stroke-opacity:1.00; stroke-width:0; white-space: pre;" xml:space="preserve" transform="rotate(0.00 5.00 18.00)">Average Grades</text>
</g>
<g style="stroke-width:1; stroke-linecap:round; stroke-linejoin:round; fill:#000000; fill-opacity:1.00; stroke:#000000; stroke-opacity:1.00;" transform="translate(0 0) scale(1.00 1.00)">
  <text x="5.00" y="34.00" textLength="118" style="font-family:Segoe UI; font-weight:400; font-style:normal; font-size:7.64pt; text-decoration: none; fill:#000000; fill-opacity:1.00; stroke:#000000; stroke-opacity:1.00; stroke-width:0; white-space: pre;" xml:space="preserve" transform="rotate(0.00 5.00 34.00)">Average grades taken from</text>
  <text x="5.00" y="48.00" textLength="113" style="font-family:Segoe UI; font-weight:400; font-style:normal; font-size:7.64pt; text-decoration: none; fill:#000000; fill-opacity:1.00; stroke:#000000; stroke-opacity:1.00; stroke-width:0; white-space: pre;" xml:space="preserve" transform="rotate(0.00 5.00 48.00)">last 5 weeks&apos; spelling tests.</text>
</g>
<g style="stroke-width:1; stroke-linecap:round; stroke-linejoin:round; fill:#000000; fill-opacity:1.00; stroke:#000000; stroke-opacity:1.00;" transform="translate(0 0) scale(1.00 1.00)">
  <text x="5.00" y="471.00" textLength="134" style="font-family:Segoe UI; font-weight:400; font-style:normal; font-size:7.64pt; text-decoration: none; fill:#696969; fill-opacity:1.00; stroke:#696969; stroke-opacity:1.00; stroke-width:0; white-space: pre;" xml:space="preserve" transform="rotate(0.00 5.00 471.00)">Note: not all grades have been</text>
  <text x="5.00" y="485.00" textLength="108" style="font-family:Segoe UI; font-weight:400; font-style:normal; font-size:7.64pt; text-decoration: none; fill:#696969; fill-opacity:1.00; stroke:#696969; stroke-opacity:1.00; stroke-width:0; white-space: pre;" xml:space="preserve" transform="rotate(0.00 5.00 485.00)">entered yet for last week.</text>
</g>
<g style="stroke-width:2; stroke-linecap:round; stroke-linejoin:round; fill:#FFFFFF; fill-opacity:1.00; stroke:#F78FA7; stroke-opacity:1.00;" transform="translate(0 0) scale(1.00 1.00)">
  <path d="M32 108 L178 119" shape-rendering="auto" />
  <path d="M178 119 L325 123" shape-rendering="auto" />
  <path d="M325 123 L472 115" shape-rendering="auto" />
  <path d="M472 115 L619 101" shape-rendering="auto" />
</g>
<g style="stroke-width:1; stroke-linecap:round; stroke-linejoin:round; fill:#F78FA7; fill-opacity:1.00; stroke:#000000; stroke-opacity:1.00;" transform="translate(0 0) scale(1.00 1.00)">
  <polygon points="32 104 36 108 32 112 28 108 " shape-rendering="auto"   style="fill-rule:evenodd;"/>
</g>
<g style="stroke-width:1; stroke-linecap:round; stroke-linejoin:round; fill:#F78FA7; fill-opacity:1.00; stroke:#000000; stroke-opacity:1.00;" transform="translate(0 0) scale(1.00 1.00)">
  <polygon points="178 115 182 119 178 123 174 119 " shape-rendering="auto"   style="fill-rule:evenodd;"/>
</g>
<g style="stroke-width:1; stroke-linecap:round; stroke-linejoin:round; fill:#F78FA7; fill-opacity:1.00; stroke:#000000; stroke-opacity:1.00;" transform="translate(0 0) scale(1.00 1.00)">
  <polygon points="325 119 329 123 325 127 321 123 " shape-rendering="auto"   style="fill-rule:evenodd;"/>
</g>
<g style="stroke-width:1; stroke-linecap:round; stroke-linejoin:round; fill:#F78FA7; fill-opacity:1.00; stroke:#000000; stroke-opacity:1.00;" transform="translate(0 0) scale(1.00 1.00)">
  <polygon points="472 111 476 115 472 119 468 115 " shape-rendering="auto"   style="fill-rule:evenodd;"/>
</g>
<g style="stroke-width:1; stroke-linecap:round; stroke-linejoin:round; fill:#F78FA7; fill-opacity:1.00; stroke:#000000; stroke-opacity:1.00;" transform="translate(0 0) scale(1.00 1.00)">
  <polygon points="619 97 623 101 619 105 615 101 " shape-rendering="auto"   style="fill-rule:evenodd;"/>
</g>
<g style="stroke-width:2; stroke-linecap:round; stroke-linejoin:round; fill:#FFFFFF; fill-opacity:1.00; stroke:#4997D0; stroke-opacity:1.00;" transform="translate(0 0) scale(1.00 1.00)">
  <path d="M32 101 L178 130" shape-rendering="auto" stroke-dasharray="5.333333,5.333333,1.333333,5.333333"/>
  <path d="M178 130 L325 127" shape-rendering="auto" stroke-dasharray="5.333333,5.333333,1.333333,5.333333"/>
  <path d="M325 127 L472 216" shape-rendering="auto" stroke-dasharray="5.333333,5.333333,1.333333,5.333333"/>
  <path d="M472 216 L619 97" shape-rendering="auto" stroke-dasharray="5.333333,5.333333,1.333333,5.333333"/>
</g>
<g style="stroke-width:1; stroke-linecap:round; stroke-linejoin:round; fill:#4997D0; fill-opacity:1.00; stroke:#000000; stroke-opacity:1.00;" transform="translate(0 0) scale(1.00 1.00)">
  <polygon points="30 97 28 101 30 105 34 105 36 101 34 97 " shape-rendering="auto"   style="fill-rule:evenodd;"/>
</g>
<g style="stroke-width:1; stroke-linecap:round; stroke-linejoin:round; fill:#4997D0; fill-opacity:1.00; stroke:#000000; stroke-opacity:1.00;" transform="translate(0 0) scale(1.00 1.00)">
  <polygon points="176 126 174 130 176 134 180 134 182 130 180 126 " shape-rendering="auto"   style="fill-rule:evenodd;"/>
</g>
<g style="stroke-width:1; stroke-linecap:round; stroke-linejoin:round; fill:#4997D0; fill-opacity:1.00; stroke:#000000; stroke-opacity:1.00;" transform="translate(0 0) scale(1.00 1.00)">
  <polygon points="323 123 321 127 323 131 327 131 329 127 327 123 " shape-rendering="auto"   style="fill-rule:evenodd;"/>
</g>
<g style="stroke-width:1; stroke-linecap:round; stroke-linejoin:round; fill:#4997D0; fill-opacity:1.00; stroke:#000000; stroke-opacity:1.00;" transform="translate(0 0) scale(1.00 1.00)">
  <polygon points="470 212 468 216 470 220 474 220 476 216 474 212 " shape-rendering="auto"   style="fill-rule:evenodd;"/>
</g>
<g style="stroke-width:1; stroke-linecap:round; stroke-linejoin:round; fill:#4997D0; fill-opacity:1.00; stroke:#000000; stroke-opacity:1.00;" transform="translate(0 0) scale(1.00 1.00)">
  <polygon points="617 93 615 97 617 101 621 101 623 97 621 93 " shape-rendering="auto"   style="fill-rule:evenodd;"/>
</g>
<g style="stroke-width:2; stroke-linecap:round; stroke-linejoin:round; fill:#FFFFFF; fill-opacity:1.00; stroke:#000000; stroke-opacity:1.00;" transform="translate(0 0) scale(1.00 1.00)">
  <path d="M325 294 L472 216" shape-rendering="auto" stroke-dasharray="6.666667,5.333333"/>
</g>
<g style="stroke-width:1; stroke-linecap:round; stroke-linejoin:round; fill:#000000; fill-opacity:1.00; stroke:#000000; stroke-opacity:0.0;" transform="translate(0 0) scale(1.00 1.00)">
  <polygon points="472 216 466 225 461 216 " shape-rendering="auto"   style="fill-rule:evenodd;"/>
</g>
<g style="stroke-width:1; stroke-linecap:round; stroke-linejoin:round; fill:#FAEBD7; fill-opacity:1.00; stroke:#000000; stroke-opacity:0.0;" transform="translate(0 0) scale(1.00 1.00)">
  <rect x="162" y="294" width="163" height="44" rx="0.00" shape-rendering="auto"  />
</g>
<g style="stroke-width:1; stroke-linecap:round; stroke-linejoin:round; fill:#000000; fill-opacity:1.00; stroke:#000000; stroke-opacity:1.00;" transform="translate(0 0) scale(1.00 1.00)">
  <text x="166.00" y="310.00" textLength="141" style="font-family:Segoe UI; font-weight:400; font-style:normal; font-size:9.17pt; text-decoration: none; fill:#000000; fill-opacity:1.00; stroke:#000000; stroke-opacity:1.00; stroke-width:0; white-space: pre;" xml:space="preserve" transform="rotate(0.00 166.00 310.00)">What happened this week?</text>
  <text x="166.00" y="327.00" textLength="149" style="font-family:Segoe UI; font-weight:400; font-style:normal; font-size:9.17pt; text-decoration: none; fill:#000000; fill-opacity:1.00; stroke:#000000; stroke-opacity:1.00; stroke-width:0; white-space: pre;" xml:space="preserve" transform="rotate(0.00 166.00 327.00)">Are we sure this is correct???</text>
</g>
<g style="stroke-width:1; stroke-linecap:round; stroke-linejoin:round; fill:#000000; fill-opacity:0.0; stroke:#C0C0C0; stroke-opacity:1.00;" transform="translate(0 0) scale(1.00 1.00)">
  <rect x="162" y="294" width="163" height="44" rx="0.00" shape-rendering="auto"  />
</g>
<g style="stroke-width:1; stroke-linecap:round; stroke-linejoin:round; fill:#000000; fill-opacity:1.00; stroke:#000000; stroke-opacity:1.00;" transform="translate(0 0) scale(1.00 1.00)">
  <text x="664.00" y="20.00" textLength="38" style="font-family:Segoe UI; font-weight:400; font-style:normal; font-size:9.03pt; text-decoration: none; fill:#000000; fill-opacity:1.00; stroke:#000000; stroke-opacity:1.00; stroke-width:0; white-space: pre;" xml:space="preserve" transform="rotate(0.00 664.00 20.00)">Female</text>
  <text x="664.00" y="37.00" textLength="26" style="font-family:Segoe UI; font-weight:400; font-style:normal; font-size:9.03pt; text-decoration: none; fill:#000000; fill-opacity:1.00; stroke:#000000; stroke-opacity:1.00; stroke-width:0; white-space: pre;" xml:space="preserve" transform="rotate(0.00 664.00 37.00)">Male</text>
</g>
<g style="stroke-width:1; stroke-linecap:round; stroke-linejoin:round; fill:#F78FA7; fill-opacity:1.00; stroke:#000000; stroke-opacity:1.00;" transform="translate(0 0) scale(1.00 1.00)">
  <polygon points="653 11 657 15 653 19 649 15 " shape-rendering="auto"   style="fill-rule:evenodd;"/>
</g>
<g style="stroke-width:1; stroke-linecap:round; stroke-linejoin:round; fill:#4997D0; fill-opacity:1.00; stroke:#000000; stroke-opacity:1.00;" transform="translate(0 0) scale(1.00 1.00)">
  <polygon points="651 28 649 32 651 36 655 36 657 32 655 28 " shape-rendering="auto"   style="fill-rule:evenodd;"/>
</g>
</svg>
