<?xml version="1.0" encoding="UTF-8" standalone="no"?>
<!DOCTYPE svg PUBLIC "-//W3C//DTD SVG 1.0//EN" "http://www.w3.org/TR/2001/REC-SVG-20010904/DTD/svg10.dtd">

<svg xmlns="http://www.w3.org/2000/svg" xmlns:xlink="http://www.w3.org/1999/xlink" width="48.19cm" height="27.76cm" viewBox="0 0 1366 787">
<title>panel</title>
<desc>Picture generated by wxSVG v0101</desc>

<g style="fill:black; stroke:black; stroke-width:1">
</g>
<g style="stroke-width:1; stroke-linecap:round; stroke-linejoin:round; fill:#000000; fill-opacity:0.0; stroke:#000000; stroke-opacity:0.0;" transform="translate(0 0) scale(1.00 1.00)">
  <rect x="0" y="0" width="1366" height="787" rx="0.00" shape-rendering="auto"  />
</g>
<g style="stroke-width:1; stroke-linecap:round; stroke-linejoin:round; fill:#FFFFFF; fill-opacity:1.00; stroke:#000000; stroke-opacity:1.00;" transform="translate(0 0) scale(1.00 1.00)">
</g>
<g style="stroke-width:1; stroke-linecap:round; stroke-linejoin:round; fill:#FFFFFF; fill-opacity:1.00; stroke:#000000; stroke-opacity:1.00;" transform="translate(0 0) scale(1.00 1.00)">
  <rect x="0" y="0" width="1366" height="787" rx="0.00" shape-rendering="auto"  />
</g>
<g style="stroke-width:1; stroke-linecap:round; stroke-linejoin:round; fill:#000080; fill-opacity:1.00; stroke:#000000; stroke-opacity:0.0;" transform="translate(0 0) scale(1.00 1.00)">
  <rect x="9" y="10" width="1347" height="85" rx="0.00" shape-rendering="auto"  />
</g>
<g style="stroke-width:1; stroke-linecap:round; stroke-linejoin:round; fill:#000000; fill-opacity:1.00; stroke:#000000; stroke-opacity:1.00;" transform="translate(0 0) scale(1.00 1.00)">
  <text x="18.00" y="44.00" textLength="291" style="font-family:Segoe UI; font-weight:700; font-style:normal; font-size:17.10pt; text-decoration: none; fill:#FFFFFF; fill-opacity:1.00; stroke:#FFFFFF; stroke-opacity:1.00; stroke-width:0; white-space: pre;" xml:space="preserve" transform="rotate(0.00 18.00 44.00)">First-Year Osprey Roadmap</text>
  <text x="18.00" y="77.00" textLength="941" style="font-family:Segoe UI; font-weight:400; font-style:normal; font-size:17.10pt; text-decoration: none; fill:#FFFFFF; fill-opacity:1.00; stroke:#FFFFFF; stroke-opacity:1.00; stroke-width:0; white-space: pre;" xml:space="preserve" transform="rotate(0.00 18.00 77.00)">Which background characteristics and decisions negatively affect First - Year Students&apos; GPA?</text>
</g>
<g style="stroke-width:1; stroke-linecap:round; stroke-linejoin:round; fill:#000000; fill-opacity:1.00; stroke:#000000; stroke-opacity:1.00;" transform="translate(0 0) scale(1.00 1.00)">
  <text x="9.00" y="768.00" textLength="812" style="font-family:Segoe UI; font-weight:400; font-style:normal; font-size:14.64pt; text-decoration: none; fill:#696969; fill-opacity:1.00; stroke:#696969; stroke-opacity:1.00; stroke-width:0; white-space: pre;" xml:space="preserve" transform="rotate(0.00 9.00 768.00)">The larger the map marker and deeper the curve, the stronger the item&apos;s association with GPA</text>
</g>
<defs>
  <clipPath id="clip0">
    <rect id="cliprect0" x="24" y="108" width="1320" height="611" style="stroke: gray; fill: none;"/>
  </clipPath>
</defs>
<g style="clip-path: url(#clip0);">
<g style="stroke-width:1; stroke-linecap:round; stroke-linejoin:round; fill:#FFFFFF; fill-opacity:1.00; stroke:#000000; stroke-opacity:1.00;" transform="translate(0 0) scale(1.00 1.00)">
</g>
<g style="stroke-width:48; stroke-linecap:round; stroke-linejoin:round; fill:#FFFFFF; fill-opacity:1.00; stroke:#000000; stroke-opacity:1.00;" transform="translate(0 0) scale(1.00 1.00)">
  <path d="M 683.00 775.00 L 567.00 670.00 C 489.67 600.00, 446.50 539.67, 437.50 489.00 C 428.50 438.33, 467.17 345.67, 553.50 211.00 L 683.00 9.00" style="fill:none" shape-rendering="auto" />
</g>
</g>
<g style="stroke-width:1; stroke-linecap:round; stroke-linejoin:round; fill:#FFFFFF; fill-opacity:1.00; stroke:#000000; stroke-opacity:1.00;" transform="translate(0 0) scale(1.00 1.00)">
</g>
<defs>
  <clipPath id="clip1">
    <rect id="cliprect1" x="24" y="108" width="1320" height="611" style="stroke: gray; fill: none;"/>
  </clipPath>
</defs>
<g style="clip-path: url(#clip1);">
<g style="stroke-width:1; stroke-linecap:round; stroke-linejoin:round; fill:#FFFFFF; fill-opacity:1.00; stroke:#000000; stroke-opacity:1.00;" transform="translate(0 0) scale(1.00 1.00)">
</g>
<g style="stroke-width:4; stroke-linecap:round; stroke-linejoin:round; fill:#FFFFFF; fill-opacity:1.00; stroke:#FFD800; stroke-opacity:1.00;" transform="translate(0 0) scale(1.00 1.00)">
  <path d="M 683.00 775.00 L 567.00 670.00 C 489.67 600.00, 446.50 539.67, 437.50 489.00 C 428.50 438.33, 467.17 345.67, 553.50 211.00 L 683.00 9.00" style="fill:none" shape-rendering="auto" stroke-dasharray="20.000000,10.666667"/>
</g>
</g>
<g style="stroke-width:1; stroke-linecap:round; stroke-linejoin:round; fill:#FFFFFF; fill-opacity:1.00; stroke:#000000; stroke-opacity:1.00;" transform="translate(0 0) scale(1.00 1.00)">
</g>
<g style="stroke-width:1; stroke-linecap:round; stroke-linejoin:round; fill:#FFFFFF; fill-opacity:1.00; stroke:#BCBABE; stroke-opacity:1.00;" transform="translate(0 0) scale(1.00 1.00)">
  <path d="M24 564 L451 565" shape-rendering="auto" stroke-dasharray="5.000000,2.666667"/>
  <path d="M24 412 L424 413" shape-rendering="auto" stroke-dasharray="5.000000,2.666667"/>
</g>
<g style="stroke-width:1; stroke-linecap:round; stroke-linejoin:round; fill:#FFFFFF; fill-opacity:1.00; stroke:#000000; stroke-opacity:0.0;" transform="translate(0 0) scale(1.00 1.00)">
  <rect x="24" y="537" width="241" height="27" rx="0.00" shape-rendering="auto"  />
</g>
<g style="stroke-width:1; stroke-linecap:round; stroke-linejoin:round; fill:#000000; fill-opacity:1.00; stroke:#000000; stroke-opacity:1.00;" transform="translate(0 0) scale(1.00 1.00)">
  <text x="29.00" y="556.00" textLength="231" style="font-family:Segoe UI; font-weight:400; font-style:normal; font-size:10.04pt; text-decoration: none; fill:#000000; fill-opacity:1.00; stroke:#000000; stroke-opacity:1.00; stroke-width:0; white-space: pre;" xml:space="preserve" transform="rotate(0.00 29.00 556.00)">Being older, closer to 26 than 18 (-0.17)</text>
</g>
<g style="stroke-width:1; stroke-linecap:round; stroke-linejoin:round; fill:#FFFFFF; fill-opacity:1.00; stroke:#000000; stroke-opacity:0.0;" transform="translate(0 0) scale(1.00 1.00)">
  <rect x="24" y="385" width="259" height="27" rx="0.00" shape-rendering="auto"  />
</g>
<g style="stroke-width:1; stroke-linecap:round; stroke-linejoin:round; fill:#000000; fill-opacity:1.00; stroke:#000000; stroke-opacity:1.00;" transform="translate(0 0) scale(1.00 1.00)">
  <text x="29.00" y="404.00" textLength="249" style="font-family:Segoe UI; font-weight:400; font-style:normal; font-size:10.04pt; text-decoration: none; fill:#000000; fill-opacity:1.00; stroke:#000000; stroke-opacity:1.00; stroke-width:0; white-space: pre;" xml:space="preserve" transform="rotate(0.00 29.00 404.00)">Work off campus 21+ hours a week (-0.19)</text>
</g>
<g style="stroke-width:1; stroke-linecap:round; stroke-linejoin:round; fill:#000000; fill-opacity:1.00; stroke:#FFFFFF; stroke-opacity:1.00;" transform="translate(0 0) scale(1.00 1.00)">
  <polygon points="410 371 438 371 424 412 " shape-rendering="auto"   style="fill-rule:evenodd;"/>
</g>
<g style="stroke-width:1; stroke-linecap:round; stroke-linejoin:round; fill:#FF6347; fill-opacity:1.00; stroke:#000000; stroke-opacity:1.00;" transform="translate(0 0) scale(1.00 1.00)">
  <ellipse cx="424.00" cy="356.00" rx="28.00" ry="28.00" shape-rendering="auto" />
</g>
<g style="stroke-width:1; stroke-linecap:round; stroke-linejoin:round; fill:#993B2A; fill-opacity:1.00; stroke:#993B2A; stroke-opacity:1.00;" transform="translate(0 0) scale(1.00 1.00)">
  <ellipse cx="424.00" cy="356.00" rx="14.00" ry="14.00" shape-rendering="auto" />
</g>
<g style="stroke-width:1; stroke-linecap:round; stroke-linejoin:round; fill:#FFFFFF; fill-opacity:1.00; stroke:#FFFFFF; stroke-opacity:1.00;" transform="translate(0 0) scale(1.00 1.00)">
  <ellipse cx="424.00" cy="356.00" rx="9.00" ry="9.00" shape-rendering="auto" />
</g>
<g style="stroke-width:1; stroke-linecap:round; stroke-linejoin:round; fill:#000000; fill-opacity:1.00; stroke:#FFFFFF; stroke-opacity:1.00;" transform="translate(0 0) scale(1.00 1.00)">
  <polygon points="438 526 464 526 451 564 " shape-rendering="auto"   style="fill-rule:evenodd;"/>
</g>
<g style="stroke-width:1; stroke-linecap:round; stroke-linejoin:round; fill:#FF6347; fill-opacity:1.00; stroke:#000000; stroke-opacity:1.00;" transform="translate(0 0) scale(1.00 1.00)">
  <ellipse cx="451.00" cy="512.00" rx="26.00" ry="26.00" shape-rendering="auto" />
</g>
<g style="stroke-width:1; stroke-linecap:round; stroke-linejoin:round; fill:#993B2A; fill-opacity:1.00; stroke:#993B2A; stroke-opacity:1.00;" transform="translate(0 0) scale(1.00 1.00)">
  <ellipse cx="451.00" cy="512.00" rx="13.00" ry="13.00" shape-rendering="auto" />
</g>
<g style="stroke-width:1; stroke-linecap:round; stroke-linejoin:round; fill:#FFFFFF; fill-opacity:1.00; stroke:#FFFFFF; stroke-opacity:1.00;" transform="translate(0 0) scale(1.00 1.00)">
  <ellipse cx="451.00" cy="512.00" rx="8.00" ry="8.00" shape-rendering="auto" />
</g>
</svg>
