<?xml version="1.0" encoding="UTF-8" standalone="no"?>
<!DOCTYPE svg PUBLIC "-//W3C//DTD SVG 1.0//EN" "http://www.w3.org/TR/2001/REC-SVG-20010904/DTD/svg10.dtd">

<svg xmlns="http://www.w3.org/2000/svg" xmlns:xlink="http://www.w3.org/1999/xlink" width="48.19cm" height="27.76cm" viewBox="0 0 1366 787">
<title>panel</title>
<desc>Picture generated by wxSVG v0101</desc>

<g style="fill:black; stroke:black; stroke-width:1">
</g>
<g style="stroke-width:1; stroke-linecap:round; stroke-linejoin:round; fill:#000000; fill-opacity:0.0; stroke:#000000; stroke-opacity:0.0;" transform="translate(0 0) scale(1.00 1.00)">
  <rect x="0" y="0" width="1366" height="787" rx="0.00" shape-rendering="auto"  />
</g>
<g style="stroke-width:1; stroke-linecap:round; stroke-linejoin:round; fill:#FFFFFF; fill-opacity:1.00; stroke:#000000; stroke-opacity:1.00;" transform="translate(0 0) scale(1.00 1.00)">
</g>
<g style="stroke-width:1; stroke-linecap:round; stroke-linejoin:round; fill:#FFFFFF; fill-opacity:1.00; stroke:#000000; stroke-opacity:1.00;" transform="translate(0 0) scale(1.00 1.00)">
  <rect x="0" y="0" width="1366" height="787" rx="0.00" shape-rendering="auto"  />
</g>
<g style="stroke-width:1; stroke-linecap:round; stroke-linejoin:round; fill:#000080; fill-opacity:1.00; stroke:#000000; stroke-opacity:0.0;" transform="translate(0 0) scale(1.00 1.00)">
  <rect x="9" y="10" width="1347" height="85" rx="0.00" shape-rendering="auto"  />
</g>
<g style="stroke-width:1; stroke-linecap:round; stroke-linejoin:round; fill:#000000; fill-opacity:1.00; stroke:#000000; stroke-opacity:1.00;" transform="translate(0 0) scale(1.00 1.00)">
  <text x="18.00" y="44.00" textLength="291" style="font-family:Segoe UI; font-weight:700; font-style:normal; font-size:17.10pt; text-decoration: none; fill:#FFFFFF; fill-opacity:1.00; stroke:#FFFFFF; stroke-opacity:1.00; stroke-width:0; white-space: pre;" xml:space="preserve" transform="rotate(0.00 18.00 44.00)">First-Year Osprey Roadmap</text>
  <text x="18.00" y="77.00" textLength="845" style="font-family:Segoe UI; font-weight:400; font-style:normal; font-size:17.10pt; text-decoration: none; fill:#FFFFFF; fill-opacity:1.00; stroke:#FFFFFF; stroke-opacity:1.00; stroke-width:0; white-space: pre;" xml:space="preserve" transform="rotate(0.00 18.00 77.00)">How do background characteristics and decisions affect First - Year Students&apos; GPA?</text>
</g>
<g style="stroke-width:1; stroke-linecap:round; stroke-linejoin:round; fill:#000000; fill-opacity:1.00; stroke:#000000; stroke-opacity:1.00;" transform="translate(0 0) scale(1.00 1.00)">
  <text x="9.00" y="683.00" textLength="812" style="font-family:Segoe UI; font-weight:400; font-style:normal; font-size:14.64pt; text-decoration: none; fill:#696969; fill-opacity:1.00; stroke:#696969; stroke-opacity:1.00; stroke-width:0; white-space: pre;" xml:space="preserve" transform="rotate(0.00 9.00 683.00)">The larger the map marker and deeper the curve, the stronger the item&apos;s association with GPA</text>
</g>
<defs>
  <clipPath id="clip0">
    <rect id="cliprect0" x="30" y="108" width="1314" height="526" style="stroke: gray; fill: none;"/>
  </clipPath>
</defs>
<g style="clip-path: url(#clip0);">
<g style="stroke-width:1; stroke-linecap:round; stroke-linejoin:round; fill:#FFFFFF; fill-opacity:1.00; stroke:#000000; stroke-opacity:1.00;" transform="translate(0 0) scale(1.00 1.00)">
</g>
<g style="stroke-width:19; stroke-linecap:round; stroke-linejoin:round; fill:#FFFFFF; fill-opacity:1.00; stroke:#000000; stroke-opacity:1.00;" transform="translate(0 0) scale(1.00 1.00)">
  <path d="M 686.00 690.00 L 815.00 642.50 C 901.00 610.83, 966.67 588.83, 1012.00 576.50 C 1057.33 564.17, 975.83 551.67, 767.50 539.00 C 559.17 526.33, 527.50 513.83, 672.50 501.50 C 817.50 489.17, 894.50 476.67, 903.50 464.00 C 912.50 451.33, 885.33 438.83, 822.00 426.50 C 758.67 414.17, 721.00 401.67, 709.00 389.00 C 697.00 376.33, 690.67 363.83, 690.00 351.50 C 689.33 339.17, 688.50 326.67, 687.50 314.00 C 686.50 301.33, 643.00 288.83, 557.00 276.50 C 471.00 264.17, 493.67 251.67, 625.00 239.00 C 756.33 226.33, 831.00 213.83, 849.00 201.50 C 867.00 189.17, 844.33 154.00, 781.00 96.00 L 686.00 9.00" style="fill:none" shape-rendering="auto" />
</g>
</g>
<g style="stroke-width:1; stroke-linecap:round; stroke-linejoin:round; fill:#FFFFFF; fill-opacity:1.00; stroke:#000000; stroke-opacity:1.00;" transform="translate(0 0) scale(1.00 1.00)">
</g>
<defs>
  <clipPath id="clip1">
    <rect id="cliprect1" x="30" y="108" width="1314" height="526" style="stroke: gray; fill: none;"/>
  </clipPath>
</defs>
<g style="clip-path: url(#clip1);">
<g style="stroke-width:1; stroke-linecap:round; stroke-linejoin:round; fill:#FFFFFF; fill-opacity:1.00; stroke:#000000; stroke-opacity:1.00;" transform="translate(0 0) scale(1.00 1.00)">
</g>
<g style="stroke-width:1; stroke-linecap:round; stroke-linejoin:round; fill:#FFFFFF; fill-opacity:1.00; stroke:#FFD800; stroke-opacity:1.00;" transform="translate(0 0) scale(1.00 1.00)">
  <path d="M 686.00 690.00 L 815.00 642.50 C 901.00 610.83, 966.67 588.83, 1012.00 576.50 C 1057.33 564.17, 975.83 551.67, 767.50 539.00 C 559.17 526.33, 527.50 513.83, 672.50 501.50 C 817.50 489.17, 894.50 476.67, 903.50 464.00 C 912.50 451.33, 885.33 438.83, 822.00 426.50 C 758.67 414.17, 721.00 401.67, 709.00 389.00 C 697.00 376.33, 690.67 363.83, 690.00 351.50 C 689.33 339.17, 688.50 326.67, 687.50 314.00 C 686.50 301.33, 643.00 288.83, 557.00 276.50 C 471.00 264.17, 493.67 251.67, 625.00 239.00 C 756.33 226.33, 831.00 213.83, 849.00 201.50 C 867.00 189.17, 844.33 154.00, 781.00 96.00 L 686.00 9.00" style="fill:none" shape-rendering="auto" stroke-dasharray="5.000000,2.666667"/>
</g>
</g>
<g style="stroke-width:1; stroke-linecap:round; stroke-linejoin:round; fill:#FFFFFF; fill-opacity:1.00; stroke:#000000; stroke-opacity:1.00;" transform="translate(0 0) scale(1.00 1.00)">
</g>
<g style="stroke-width:1; stroke-linecap:round; stroke-linejoin:round; fill:#FFFFFF; fill-opacity:1.00; stroke:#BCBABE; stroke-opacity:1.00;" transform="translate(0 0) scale(1.00 1.00)">
  <path d="M1343 594 L944 595" shape-rendering="auto" stroke-dasharray="5.000000,2.666667"/>
  <path d="M1343 557 L1080 558" shape-rendering="auto" stroke-dasharray="5.000000,2.666667"/>
  <path d="M30 519 L455 520" shape-rendering="auto" stroke-dasharray="5.000000,2.666667"/>
  <path d="M1343 482 L890 483" shape-rendering="auto" stroke-dasharray="5.000000,2.666667"/>
  <path d="M1343 444 L917 445" shape-rendering="auto" stroke-dasharray="5.000000,2.666667"/>
  <path d="M1343 407 L727 408" shape-rendering="auto" stroke-dasharray="5.000000,2.666667"/>
  <path d="M1343 369 L691 370" shape-rendering="auto" stroke-dasharray="5.000000,2.666667"/>
  <path d="M1343 332 L689 333" shape-rendering="auto" stroke-dasharray="5.000000,2.666667"/>
  <path d="M1343 294 L686 295" shape-rendering="auto" stroke-dasharray="5.000000,2.666667"/>
  <path d="M30 257 L428 258" shape-rendering="auto" stroke-dasharray="5.000000,2.666667"/>
  <path d="M1343 219 L822 220" shape-rendering="auto" stroke-dasharray="5.000000,2.666667"/>
  <path d="M1343 182 L876 183" shape-rendering="auto" stroke-dasharray="5.000000,2.666667"/>
</g>
<g style="stroke-width:1; stroke-linecap:round; stroke-linejoin:round; fill:#FFFFFF; fill-opacity:1.00; stroke:#000000; stroke-opacity:0.0;" transform="translate(0 0) scale(1.00 1.00)">
  <rect x="1233" y="570" width="110" height="24" rx="0.00" shape-rendering="auto"  />
</g>
<g style="stroke-width:1; stroke-linecap:round; stroke-linejoin:round; fill:#000000; fill-opacity:1.00; stroke:#000000; stroke-opacity:1.00;" transform="translate(0 0) scale(1.00 1.00)">
  <text x="1237.00" y="586.00" textLength="101" style="font-family:Segoe UI; font-weight:400; font-style:normal; font-size:9.10pt; text-decoration: none; fill:#000000; fill-opacity:1.00; stroke:#000000; stroke-opacity:1.00; stroke-width:0; white-space: pre;" xml:space="preserve" transform="rotate(0.00 1237.00 586.00)">Being female (0.19)</text>
</g>
<g style="stroke-width:1; stroke-linecap:round; stroke-linejoin:round; fill:#FFFFFF; fill-opacity:1.00; stroke:#000000; stroke-opacity:0.0;" transform="translate(0 0) scale(1.00 1.00)">
  <rect x="1217" y="533" width="126" height="24" rx="0.00" shape-rendering="auto"  />
</g>
<g style="stroke-width:1; stroke-linecap:round; stroke-linejoin:round; fill:#000000; fill-opacity:1.00; stroke:#000000; stroke-opacity:1.00;" transform="translate(0 0) scale(1.00 1.00)">
  <text x="1221.00" y="549.00" textLength="117" style="font-family:Segoe UI; font-weight:400; font-style:normal; font-size:9.10pt; text-decoration: none; fill:#000000; fill-opacity:1.00; stroke:#000000; stroke-opacity:1.00; stroke-width:0; white-space: pre;" xml:space="preserve" transform="rotate(0.00 1221.00 549.00)">Being an athlete (0.29)</text>
</g>
<g style="stroke-width:1; stroke-linecap:round; stroke-linejoin:round; fill:#FFFFFF; fill-opacity:1.00; stroke:#000000; stroke-opacity:0.0;" transform="translate(0 0) scale(1.00 1.00)">
  <rect x="30" y="495" width="214" height="24" rx="0.00" shape-rendering="auto"  />
</g>
<g style="stroke-width:1; stroke-linecap:round; stroke-linejoin:round; fill:#000000; fill-opacity:1.00; stroke:#000000; stroke-opacity:1.00;" transform="translate(0 0) scale(1.00 1.00)">
  <text x="34.00" y="511.00" textLength="205" style="font-family:Segoe UI; font-weight:400; font-style:normal; font-size:9.10pt; text-decoration: none; fill:#000000; fill-opacity:1.00; stroke:#000000; stroke-opacity:1.00; stroke-width:0; white-space: pre;" xml:space="preserve" transform="rotate(0.00 34.00 511.00)">Being older, closer to 26 than 18 (-0.17)</text>
</g>
<g style="stroke-width:1; stroke-linecap:round; stroke-linejoin:round; fill:#FFFFFF; fill-opacity:1.00; stroke:#000000; stroke-opacity:0.0;" transform="translate(0 0) scale(1.00 1.00)">
  <rect x="1195" y="458" width="148" height="24" rx="0.00" shape-rendering="auto"  />
</g>
<g style="stroke-width:1; stroke-linecap:round; stroke-linejoin:round; fill:#000000; fill-opacity:1.00; stroke:#000000; stroke-opacity:1.00;" transform="translate(0 0) scale(1.00 1.00)">
  <text x="1199.00" y="474.00" textLength="139" style="font-family:Segoe UI; font-weight:400; font-style:normal; font-size:9.10pt; text-decoration: none; fill:#000000; fill-opacity:1.00; stroke:#000000; stroke-opacity:1.00; stroke-width:0; white-space: pre;" xml:space="preserve" transform="rotate(0.00 1199.00 474.00)">Receive financial aid (0.15)</text>
</g>
<g style="stroke-width:1; stroke-linecap:round; stroke-linejoin:round; fill:#FFFFFF; fill-opacity:1.00; stroke:#000000; stroke-opacity:0.0;" transform="translate(0 0) scale(1.00 1.00)">
  <rect x="1090" y="420" width="253" height="24" rx="0.00" shape-rendering="auto"  />
</g>
<g style="stroke-width:1; stroke-linecap:round; stroke-linejoin:round; fill:#000000; fill-opacity:1.00; stroke:#000000; stroke-opacity:1.00;" transform="translate(0 0) scale(1.00 1.00)">
  <text x="1094.00" y="436.00" textLength="244" style="font-family:Segoe UI; font-weight:400; font-style:normal; font-size:9.10pt; text-decoration: none; fill:#000000; fill-opacity:1.00; stroke:#000000; stroke-opacity:1.00; stroke-width:0; white-space: pre;" xml:space="preserve" transform="rotate(0.00 1094.00 436.00)">Attempt 15 or more credits per semester (0.17)</text>
</g>
<g style="stroke-width:1; stroke-linecap:round; stroke-linejoin:round; fill:#FFFFFF; fill-opacity:1.00; stroke:#000000; stroke-opacity:0.0;" transform="translate(0 0) scale(1.00 1.00)">
  <rect x="1172" y="383" width="171" height="24" rx="0.00" shape-rendering="auto"  />
</g>
<g style="stroke-width:1; stroke-linecap:round; stroke-linejoin:round; fill:#000000; fill-opacity:1.00; stroke:#000000; stroke-opacity:1.00;" transform="translate(0 0) scale(1.00 1.00)">
  <text x="1176.00" y="399.00" textLength="162" style="font-family:Segoe UI; font-weight:400; font-style:normal; font-size:9.10pt; text-decoration: none; fill:#000000; fill-opacity:1.00; stroke:#000000; stroke-opacity:1.00; stroke-width:0; white-space: pre;" xml:space="preserve" transform="rotate(0.00 1176.00 399.00)">Attend a Signature Event (0.03)</text>
</g>
<g style="stroke-width:1; stroke-linecap:round; stroke-linejoin:round; fill:#FFFFFF; fill-opacity:1.00; stroke:#000000; stroke-opacity:0.0;" transform="translate(0 0) scale(1.00 1.00)">
  <rect x="1215" y="345" width="128" height="24" rx="0.00" shape-rendering="auto"  />
</g>
<g style="stroke-width:1; stroke-linecap:round; stroke-linejoin:round; fill:#000000; fill-opacity:1.00; stroke:#000000; stroke-opacity:1.00;" transform="translate(0 0) scale(1.00 1.00)">
  <text x="1219.00" y="361.00" textLength="119" style="font-family:Segoe UI; font-weight:400; font-style:normal; font-size:9.10pt; text-decoration: none; fill:#000000; fill-opacity:1.00; stroke:#000000; stroke-opacity:1.00; stroke-width:0; white-space: pre;" xml:space="preserve" transform="rotate(0.00 1219.00 361.00)">Visit the Library (0.004)</text>
</g>
<g style="stroke-width:1; stroke-linecap:round; stroke-linejoin:round; fill:#FFFFFF; fill-opacity:1.00; stroke:#000000; stroke-opacity:0.0;" transform="translate(0 0) scale(1.00 1.00)">
  <rect x="1123" y="308" width="220" height="24" rx="0.00" shape-rendering="auto"  />
</g>
<g style="stroke-width:1; stroke-linecap:round; stroke-linejoin:round; fill:#000000; fill-opacity:1.00; stroke:#000000; stroke-opacity:1.00;" transform="translate(0 0) scale(1.00 1.00)">
  <text x="1127.00" y="324.00" textLength="211" style="font-family:Segoe UI; font-weight:400; font-style:normal; font-size:9.10pt; text-decoration: none; fill:#000000; fill-opacity:1.00; stroke:#000000; stroke-opacity:1.00; stroke-width:0; white-space: pre;" xml:space="preserve" transform="rotate(0.00 1127.00 324.00)">Visit the Student Wellness Center (0.002)</text>
</g>
<g style="stroke-width:1; stroke-linecap:round; stroke-linejoin:round; fill:#FFFFFF; fill-opacity:1.00; stroke:#000000; stroke-opacity:0.0;" transform="translate(0 0) scale(1.00 1.00)">
  <rect x="1232" y="270" width="111" height="24" rx="0.00" shape-rendering="auto"  />
</g>
<g style="stroke-width:1; stroke-linecap:round; stroke-linejoin:round; fill:#000000; fill-opacity:1.00; stroke:#000000; stroke-opacity:1.00;" transform="translate(0 0) scale(1.00 1.00)">
  <text x="1236.00" y="286.00" textLength="102" style="font-family:Segoe UI; font-weight:400; font-style:normal; font-size:9.10pt; text-decoration: none; fill:#000000; fill-opacity:1.00; stroke:#000000; stroke-opacity:1.00; stroke-width:0; white-space: pre;" xml:space="preserve" transform="rotate(0.00 1236.00 286.00)">College A major (0)</text>
</g>
<g style="stroke-width:1; stroke-linecap:round; stroke-linejoin:round; fill:#FFFFFF; fill-opacity:1.00; stroke:#000000; stroke-opacity:0.0;" transform="translate(0 0) scale(1.00 1.00)">
  <rect x="30" y="233" width="232" height="24" rx="0.00" shape-rendering="auto"  />
</g>
<g style="stroke-width:1; stroke-linecap:round; stroke-linejoin:round; fill:#000000; fill-opacity:1.00; stroke:#000000; stroke-opacity:1.00;" transform="translate(0 0) scale(1.00 1.00)">
  <text x="34.00" y="249.00" textLength="223" style="font-family:Segoe UI; font-weight:400; font-style:normal; font-size:9.10pt; text-decoration: none; fill:#000000; fill-opacity:1.00; stroke:#000000; stroke-opacity:1.00; stroke-width:0; white-space: pre;" xml:space="preserve" transform="rotate(0.00 34.00 249.00)">Work off campus 21+ hours a week (-0.19)</text>
</g>
<g style="stroke-width:1; stroke-linecap:round; stroke-linejoin:round; fill:#FFFFFF; fill-opacity:1.00; stroke:#000000; stroke-opacity:0.0;" transform="translate(0 0) scale(1.00 1.00)">
  <rect x="1224" y="195" width="119" height="24" rx="0.00" shape-rendering="auto"  />
</g>
<g style="stroke-width:1; stroke-linecap:round; stroke-linejoin:round; fill:#000000; fill-opacity:1.00; stroke:#000000; stroke-opacity:1.00;" transform="translate(0 0) scale(1.00 1.00)">
  <text x="1228.00" y="211.00" textLength="110" style="font-family:Segoe UI; font-weight:400; font-style:normal; font-size:9.10pt; text-decoration: none; fill:#000000; fill-opacity:1.00; stroke:#000000; stroke-opacity:1.00; stroke-width:0; white-space: pre;" xml:space="preserve" transform="rotate(0.00 1228.00 211.00)">College B major (0.1)</text>
</g>
<g style="stroke-width:1; stroke-linecap:round; stroke-linejoin:round; fill:#FFFFFF; fill-opacity:1.00; stroke:#000000; stroke-opacity:0.0;" transform="translate(0 0) scale(1.00 1.00)">
  <rect x="1212" y="158" width="131" height="24" rx="0.00" shape-rendering="auto"  />
</g>
<g style="stroke-width:1; stroke-linecap:round; stroke-linejoin:round; fill:#000000; fill-opacity:1.00; stroke:#000000; stroke-opacity:1.00;" transform="translate(0 0) scale(1.00 1.00)">
  <text x="1216.00" y="174.00" textLength="122" style="font-family:Segoe UI; font-weight:400; font-style:normal; font-size:9.10pt; text-decoration: none; fill:#000000; fill-opacity:1.00; stroke:#000000; stroke-opacity:1.00; stroke-width:0; white-space: pre;" xml:space="preserve" transform="rotate(0.00 1216.00 174.00)">Work on campus (0.14)</text>
</g>
<g style="stroke-width:1; stroke-linecap:round; stroke-linejoin:round; fill:#000000; fill-opacity:1.00; stroke:#FFFFFF; stroke-opacity:1.00;" transform="translate(0 0) scale(1.00 1.00)">
  <polygon points="864 148 887 148 876 182 " shape-rendering="auto"   style="fill-rule:evenodd;"/>
</g>
<g style="stroke-width:1; stroke-linecap:round; stroke-linejoin:round; fill:#4CBB17; fill-opacity:1.00; stroke:#000000; stroke-opacity:1.00;" transform="translate(0 0) scale(1.00 1.00)">
  <ellipse cx="876.00" cy="136.00" rx="23.00" ry="23.00" shape-rendering="auto" />
</g>
<g style="stroke-width:1; stroke-linecap:round; stroke-linejoin:round; fill:#2D700D; fill-opacity:1.00; stroke:#2D700D; stroke-opacity:1.00;" transform="translate(0 0) scale(1.00 1.00)">
  <ellipse cx="876.00" cy="136.00" rx="11.00" ry="11.00" shape-rendering="auto" />
</g>
<g style="stroke-width:1; stroke-linecap:round; stroke-linejoin:round; fill:#FFFFFF; fill-opacity:1.00; stroke:#FFFFFF; stroke-opacity:1.00;" transform="translate(0 0) scale(1.00 1.00)">
  <ellipse cx="876.00" cy="136.00" rx="7.00" ry="7.00" shape-rendering="auto" />
</g>
<g style="stroke-width:1; stroke-linecap:round; stroke-linejoin:round; fill:#000000; fill-opacity:1.00; stroke:#FFFFFF; stroke-opacity:1.00;" transform="translate(0 0) scale(1.00 1.00)">
  <polygon points="812 191 831 191 822 219 " shape-rendering="auto"   style="fill-rule:evenodd;"/>
</g>
<g style="stroke-width:1; stroke-linecap:round; stroke-linejoin:round; fill:#4CBB17; fill-opacity:1.00; stroke:#000000; stroke-opacity:1.00;" transform="translate(0 0) scale(1.00 1.00)">
  <ellipse cx="822.00" cy="181.00" rx="19.00" ry="19.00" shape-rendering="auto" />
</g>
<g style="stroke-width:1; stroke-linecap:round; stroke-linejoin:round; fill:#2D700D; fill-opacity:1.00; stroke:#2D700D; stroke-opacity:1.00;" transform="translate(0 0) scale(1.00 1.00)">
  <ellipse cx="822.00" cy="181.00" rx="9.00" ry="9.00" shape-rendering="auto" />
</g>
<g style="stroke-width:1; stroke-linecap:round; stroke-linejoin:round; fill:#FFFFFF; fill-opacity:1.00; stroke:#FFFFFF; stroke-opacity:1.00;" transform="translate(0 0) scale(1.00 1.00)">
  <ellipse cx="822.00" cy="181.00" rx="6.00" ry="6.00" shape-rendering="auto" />
</g>
<g style="stroke-width:1; stroke-linecap:round; stroke-linejoin:round; fill:#000000; fill-opacity:1.00; stroke:#FFFFFF; stroke-opacity:1.00;" transform="translate(0 0) scale(1.00 1.00)">
  <polygon points="414 216 442 216 428 257 " shape-rendering="auto"   style="fill-rule:evenodd;"/>
</g>
<g style="stroke-width:1; stroke-linecap:round; stroke-linejoin:round; fill:#FF6347; fill-opacity:1.00; stroke:#000000; stroke-opacity:1.00;" transform="translate(0 0) scale(1.00 1.00)">
  <ellipse cx="428.00" cy="201.00" rx="28.00" ry="28.00" shape-rendering="auto" />
</g>
<g style="stroke-width:1; stroke-linecap:round; stroke-linejoin:round; fill:#993B2A; fill-opacity:1.00; stroke:#993B2A; stroke-opacity:1.00;" transform="translate(0 0) scale(1.00 1.00)">
  <ellipse cx="428.00" cy="201.00" rx="14.00" ry="14.00" shape-rendering="auto" />
</g>
<g style="stroke-width:1; stroke-linecap:round; stroke-linejoin:round; fill:#FFFFFF; fill-opacity:1.00; stroke:#FFFFFF; stroke-opacity:1.00;" transform="translate(0 0) scale(1.00 1.00)">
  <ellipse cx="428.00" cy="201.00" rx="9.00" ry="9.00" shape-rendering="auto" />
</g>
<g style="stroke-width:1; stroke-linecap:round; stroke-linejoin:round; fill:#000000; fill-opacity:1.00; stroke:#FFFFFF; stroke-opacity:1.00;" transform="translate(0 0) scale(1.00 1.00)">
  <polygon points="682 283 690 283 686 294 " shape-rendering="auto"   style="fill-rule:evenodd;"/>
</g>
<g style="stroke-width:1; stroke-linecap:round; stroke-linejoin:round; fill:#4CBB17; fill-opacity:1.00; stroke:#000000; stroke-opacity:1.00;" transform="translate(0 0) scale(1.00 1.00)">
  <ellipse cx="686.00" cy="278.00" rx="8.00" ry="8.00" shape-rendering="auto" />
</g>
<g style="stroke-width:1; stroke-linecap:round; stroke-linejoin:round; fill:#2D700D; fill-opacity:1.00; stroke:#2D700D; stroke-opacity:1.00;" transform="translate(0 0) scale(1.00 1.00)">
  <ellipse cx="686.00" cy="278.00" rx="4.00" ry="4.00" shape-rendering="auto" />
</g>
<g style="stroke-width:1; stroke-linecap:round; stroke-linejoin:round; fill:#FFFFFF; fill-opacity:1.00; stroke:#FFFFFF; stroke-opacity:1.00;" transform="translate(0 0) scale(1.00 1.00)">
  <ellipse cx="686.00" cy="278.00" rx="2.00" ry="2.00" shape-rendering="auto" />
</g>
<g style="stroke-width:1; stroke-linecap:round; stroke-linejoin:round; fill:#000000; fill-opacity:1.00; stroke:#FFFFFF; stroke-opacity:1.00;" transform="translate(0 0) scale(1.00 1.00)">
  <polygon points="685 321 693 321 689 332 " shape-rendering="auto"   style="fill-rule:evenodd;"/>
</g>
<g style="stroke-width:1; stroke-linecap:round; stroke-linejoin:round; fill:#4CBB17; fill-opacity:1.00; stroke:#000000; stroke-opacity:1.00;" transform="translate(0 0) scale(1.00 1.00)">
  <ellipse cx="689.00" cy="316.00" rx="8.00" ry="8.00" shape-rendering="auto" />
</g>
<g style="stroke-width:1; stroke-linecap:round; stroke-linejoin:round; fill:#2D700D; fill-opacity:1.00; stroke:#2D700D; stroke-opacity:1.00;" transform="translate(0 0) scale(1.00 1.00)">
  <ellipse cx="689.00" cy="316.00" rx="4.00" ry="4.00" shape-rendering="auto" />
</g>
<g style="stroke-width:1; stroke-linecap:round; stroke-linejoin:round; fill:#FFFFFF; fill-opacity:1.00; stroke:#FFFFFF; stroke-opacity:1.00;" transform="translate(0 0) scale(1.00 1.00)">
  <ellipse cx="689.00" cy="316.00" rx="2.00" ry="2.00" shape-rendering="auto" />
</g>
<g style="stroke-width:1; stroke-linecap:round; stroke-linejoin:round; fill:#000000; fill-opacity:1.00; stroke:#FFFFFF; stroke-opacity:1.00;" transform="translate(0 0) scale(1.00 1.00)">
  <polygon points="687 358 695 358 691 369 " shape-rendering="auto"   style="fill-rule:evenodd;"/>
</g>
<g style="stroke-width:1; stroke-linecap:round; stroke-linejoin:round; fill:#4CBB17; fill-opacity:1.00; stroke:#000000; stroke-opacity:1.00;" transform="translate(0 0) scale(1.00 1.00)">
  <ellipse cx="691.00" cy="353.00" rx="8.00" ry="8.00" shape-rendering="auto" />
</g>
<g style="stroke-width:1; stroke-linecap:round; stroke-linejoin:round; fill:#2D700D; fill-opacity:1.00; stroke:#2D700D; stroke-opacity:1.00;" transform="translate(0 0) scale(1.00 1.00)">
  <ellipse cx="691.00" cy="353.00" rx="4.00" ry="4.00" shape-rendering="auto" />
</g>
<g style="stroke-width:1; stroke-linecap:round; stroke-linejoin:round; fill:#FFFFFF; fill-opacity:1.00; stroke:#FFFFFF; stroke-opacity:1.00;" transform="translate(0 0) scale(1.00 1.00)">
  <ellipse cx="691.00" cy="353.00" rx="2.00" ry="2.00" shape-rendering="auto" />
</g>
<g style="stroke-width:1; stroke-linecap:round; stroke-linejoin:round; fill:#000000; fill-opacity:1.00; stroke:#FFFFFF; stroke-opacity:1.00;" transform="translate(0 0) scale(1.00 1.00)">
  <polygon points="721 391 732 391 727 407 " shape-rendering="auto"   style="fill-rule:evenodd;"/>
</g>
<g style="stroke-width:1; stroke-linecap:round; stroke-linejoin:round; fill:#4CBB17; fill-opacity:1.00; stroke:#000000; stroke-opacity:1.00;" transform="translate(0 0) scale(1.00 1.00)">
  <ellipse cx="727.00" cy="385.00" rx="11.00" ry="11.00" shape-rendering="auto" />
</g>
<g style="stroke-width:1; stroke-linecap:round; stroke-linejoin:round; fill:#2D700D; fill-opacity:1.00; stroke:#2D700D; stroke-opacity:1.00;" transform="translate(0 0) scale(1.00 1.00)">
  <ellipse cx="727.00" cy="385.00" rx="5.00" ry="5.00" shape-rendering="auto" />
</g>
<g style="stroke-width:1; stroke-linecap:round; stroke-linejoin:round; fill:#FFFFFF; fill-opacity:1.00; stroke:#FFFFFF; stroke-opacity:1.00;" transform="translate(0 0) scale(1.00 1.00)">
  <ellipse cx="727.00" cy="385.00" rx="3.00" ry="3.00" shape-rendering="auto" />
</g>
<g style="stroke-width:1; stroke-linecap:round; stroke-linejoin:round; fill:#000000; fill-opacity:1.00; stroke:#FFFFFF; stroke-opacity:1.00;" transform="translate(0 0) scale(1.00 1.00)">
  <polygon points="904 406 930 406 917 444 " shape-rendering="auto"   style="fill-rule:evenodd;"/>
</g>
<g style="stroke-width:1; stroke-linecap:round; stroke-linejoin:round; fill:#4CBB17; fill-opacity:1.00; stroke:#000000; stroke-opacity:1.00;" transform="translate(0 0) scale(1.00 1.00)">
  <ellipse cx="917.00" cy="392.00" rx="26.00" ry="26.00" shape-rendering="auto" />
</g>
<g style="stroke-width:1; stroke-linecap:round; stroke-linejoin:round; fill:#2D700D; fill-opacity:1.00; stroke:#2D700D; stroke-opacity:1.00;" transform="translate(0 0) scale(1.00 1.00)">
  <ellipse cx="917.00" cy="392.00" rx="13.00" ry="13.00" shape-rendering="auto" />
</g>
<g style="stroke-width:1; stroke-linecap:round; stroke-linejoin:round; fill:#FFFFFF; fill-opacity:1.00; stroke:#FFFFFF; stroke-opacity:1.00;" transform="translate(0 0) scale(1.00 1.00)">
  <ellipse cx="917.00" cy="392.00" rx="8.00" ry="8.00" shape-rendering="auto" />
</g>
<g style="stroke-width:1; stroke-linecap:round; stroke-linejoin:round; fill:#000000; fill-opacity:1.00; stroke:#FFFFFF; stroke-opacity:1.00;" transform="translate(0 0) scale(1.00 1.00)">
  <polygon points="878 447 902 447 890 482 " shape-rendering="auto"   style="fill-rule:evenodd;"/>
</g>
<g style="stroke-width:1; stroke-linecap:round; stroke-linejoin:round; fill:#4CBB17; fill-opacity:1.00; stroke:#000000; stroke-opacity:1.00;" transform="translate(0 0) scale(1.00 1.00)">
  <ellipse cx="890.00" cy="434.00" rx="24.00" ry="24.00" shape-rendering="auto" />
</g>
<g style="stroke-width:1; stroke-linecap:round; stroke-linejoin:round; fill:#2D700D; fill-opacity:1.00; stroke:#2D700D; stroke-opacity:1.00;" transform="translate(0 0) scale(1.00 1.00)">
  <ellipse cx="890.00" cy="434.00" rx="12.00" ry="12.00" shape-rendering="auto" />
</g>
<g style="stroke-width:1; stroke-linecap:round; stroke-linejoin:round; fill:#FFFFFF; fill-opacity:1.00; stroke:#FFFFFF; stroke-opacity:1.00;" transform="translate(0 0) scale(1.00 1.00)">
  <ellipse cx="890.00" cy="434.00" rx="7.00" ry="7.00" shape-rendering="auto" />
</g>
<g style="stroke-width:1; stroke-linecap:round; stroke-linejoin:round; fill:#000000; fill-opacity:1.00; stroke:#FFFFFF; stroke-opacity:1.00;" transform="translate(0 0) scale(1.00 1.00)">
  <polygon points="442 481 468 481 455 519 " shape-rendering="auto"   style="fill-rule:evenodd;"/>
</g>
<g style="stroke-width:1; stroke-linecap:round; stroke-linejoin:round; fill:#FF6347; fill-opacity:1.00; stroke:#000000; stroke-opacity:1.00;" transform="translate(0 0) scale(1.00 1.00)">
  <ellipse cx="455.00" cy="467.00" rx="26.00" ry="26.00" shape-rendering="auto" />
</g>
<g style="stroke-width:1; stroke-linecap:round; stroke-linejoin:round; fill:#993B2A; fill-opacity:1.00; stroke:#993B2A; stroke-opacity:1.00;" transform="translate(0 0) scale(1.00 1.00)">
  <ellipse cx="455.00" cy="467.00" rx="13.00" ry="13.00" shape-rendering="auto" />
</g>
<g style="stroke-width:1; stroke-linecap:round; stroke-linejoin:round; fill:#FFFFFF; fill-opacity:1.00; stroke:#FFFFFF; stroke-opacity:1.00;" transform="translate(0 0) scale(1.00 1.00)">
  <ellipse cx="455.00" cy="467.00" rx="8.00" ry="8.00" shape-rendering="auto" />
</g>
<g style="stroke-width:1; stroke-linecap:round; stroke-linejoin:round; fill:#000000; fill-opacity:1.00; stroke:#FFFFFF; stroke-opacity:1.00;" transform="translate(0 0) scale(1.00 1.00)">
  <polygon points="1060 498 1100 498 1080 557 " shape-rendering="auto"   style="fill-rule:evenodd;"/>
</g>
<g style="stroke-width:1; stroke-linecap:round; stroke-linejoin:round; fill:#4CBB17; fill-opacity:1.00; stroke:#000000; stroke-opacity:1.00;" transform="translate(0 0) scale(1.00 1.00)">
  <ellipse cx="1080.00" cy="477.00" rx="40.00" ry="40.00" shape-rendering="auto" />
</g>
<g style="stroke-width:1; stroke-linecap:round; stroke-linejoin:round; fill:#2D700D; fill-opacity:1.00; stroke:#2D700D; stroke-opacity:1.00;" transform="translate(0 0) scale(1.00 1.00)">
  <ellipse cx="1080.00" cy="477.00" rx="20.00" ry="20.00" shape-rendering="auto" />
</g>
<g style="stroke-width:1; stroke-linecap:round; stroke-linejoin:round; fill:#FFFFFF; fill-opacity:1.00; stroke:#FFFFFF; stroke-opacity:1.00;" transform="translate(0 0) scale(1.00 1.00)">
  <ellipse cx="1080.00" cy="477.00" rx="13.00" ry="13.00" shape-rendering="auto" />
</g>
<g style="stroke-width:1; stroke-linecap:round; stroke-linejoin:round; fill:#000000; fill-opacity:1.00; stroke:#FFFFFF; stroke-opacity:1.00;" transform="translate(0 0) scale(1.00 1.00)">
  <polygon points="930 553 958 553 944 594 " shape-rendering="auto"   style="fill-rule:evenodd;"/>
</g>
<g style="stroke-width:1; stroke-linecap:round; stroke-linejoin:round; fill:#4CBB17; fill-opacity:1.00; stroke:#000000; stroke-opacity:1.00;" transform="translate(0 0) scale(1.00 1.00)">
  <ellipse cx="944.00" cy="538.00" rx="28.00" ry="28.00" shape-rendering="auto" />
</g>
<g style="stroke-width:1; stroke-linecap:round; stroke-linejoin:round; fill:#2D700D; fill-opacity:1.00; stroke:#2D700D; stroke-opacity:1.00;" transform="translate(0 0) scale(1.00 1.00)">
  <ellipse cx="944.00" cy="538.00" rx="14.00" ry="14.00" shape-rendering="auto" />
</g>
<g style="stroke-width:1; stroke-linecap:round; stroke-linejoin:round; fill:#FFFFFF; fill-opacity:1.00; stroke:#FFFFFF; stroke-opacity:1.00;" transform="translate(0 0) scale(1.00 1.00)">
  <ellipse cx="944.00" cy="538.00" rx="9.00" ry="9.00" shape-rendering="auto" />
</g>
<g style="stroke-width:1; stroke-linecap:round; stroke-linejoin:round; fill:#000000; fill-opacity:1.00; stroke:#000000; stroke-opacity:1.00;" transform="translate(0 0) scale(1.00 1.00)">
  <text x="98.00" y="727.00" textLength="29" style="font-family:Segoe UI; font-weight:700; font-style:normal; font-size:12.96pt; text-decoration: none; fill:#000000; fill-opacity:1.00; stroke:#000000; stroke-opacity:1.00; stroke-width:0; white-space: pre;" xml:space="preserve" transform="rotate(0.00 98.00 727.00)">Key</text>
  <text x="28.00" y="749.00" textLength="185" style="font-family:Segoe UI; font-weight:400; font-style:normal; font-size:10.80pt; text-decoration: none; fill:#000000; fill-opacity:1.00; stroke:#000000; stroke-opacity:1.00; stroke-width:0; white-space: pre;" xml:space="preserve" transform="rotate(0.00 28.00 749.00)">Positively associated with GPA</text>
  <text x="28.00" y="770.00" textLength="192" style="font-family:Segoe UI; font-weight:400; font-style:normal; font-size:10.80pt; text-decoration: none; fill:#000000; fill-opacity:1.00; stroke:#000000; stroke-opacity:1.00; stroke-width:0; white-space: pre;" xml:space="preserve" transform="rotate(0.00 28.00 770.00)">Negatively associated with GPA</text>
</g>
<g style="stroke-width:1; stroke-linecap:round; stroke-linejoin:round; fill:#4CBB17; fill-opacity:1.00; stroke:#000000; stroke-opacity:1.00;" transform="translate(0 0) scale(1.00 1.00)">
  <ellipse cx="16.00" cy="743.00" rx="5.00" ry="5.00" shape-rendering="auto" />
</g>
<g style="stroke-width:1; stroke-linecap:round; stroke-linejoin:round; fill:#999999; fill-opacity:1.00; stroke:#999999; stroke-opacity:1.00;" transform="translate(0 0) scale(1.00 1.00)">
  <ellipse cx="16.00" cy="743.00" rx="2.00" ry="2.00" shape-rendering="auto" />
</g>
<g style="stroke-width:1; stroke-linecap:round; stroke-linejoin:round; fill:#FFFFFF; fill-opacity:1.00; stroke:#FFFFFF; stroke-opacity:1.00;" transform="translate(0 0) scale(1.00 1.00)">
  <ellipse cx="16.00" cy="743.00" rx="1.00" ry="1.00" shape-rendering="auto" />
</g>
<g style="stroke-width:1; stroke-linecap:round; stroke-linejoin:round; fill:#FF6347; fill-opacity:1.00; stroke:#000000; stroke-opacity:1.00;" transform="translate(0 0) scale(1.00 1.00)">
  <ellipse cx="16.00" cy="764.00" rx="5.00" ry="5.00" shape-rendering="auto" />
</g>
<g style="stroke-width:1; stroke-linecap:round; stroke-linejoin:round; fill:#999999; fill-opacity:1.00; stroke:#999999; stroke-opacity:1.00;" transform="translate(0 0) scale(1.00 1.00)">
  <ellipse cx="16.00" cy="764.00" rx="2.00" ry="2.00" shape-rendering="auto" />
</g>
<g style="stroke-width:1; stroke-linecap:round; stroke-linejoin:round; fill:#FFFFFF; fill-opacity:1.00; stroke:#FFFFFF; stroke-opacity:1.00;" transform="translate(0 0) scale(1.00 1.00)">
  <ellipse cx="16.00" cy="764.00" rx="1.00" ry="1.00" shape-rendering="auto" />
</g>
</svg>
