<?xml version="1.0" encoding="UTF-8" standalone="no"?>
<!DOCTYPE svg PUBLIC "-//W3C//DTD SVG 1.0//EN" "http://www.w3.org/TR/2001/REC-SVG-20010904/DTD/svg10.dtd">

<svg xmlns="http://www.w3.org/2000/svg" xmlns:xlink="http://www.w3.org/1999/xlink" width="29.53cm" height="17.64cm" viewBox="0 0 837 500">
<title></title>
<desc>Picture generated by wxSVG v0101</desc>

<g style="fill:black; stroke:black; stroke-width:1">
</g>
<g style="stroke-width:1; stroke-linecap:round; stroke-linejoin:round; fill:#000000; fill-opacity:0.0; stroke:#000000; stroke-opacity:0.0;" transform="translate(0 0) scale(1.00 1.00)">
  <rect x="0" y="0" width="837" height="500" rx="0.00" shape-rendering="auto"  />
</g>
<g style="stroke-width:1; stroke-linecap:round; stroke-linejoin:round; fill:#FFFFFF; fill-opacity:1.00; stroke:#000000; stroke-opacity:1.00;" transform="translate(0 0) scale(1.00 1.00)">
</g>
<g style="stroke-width:1; stroke-linecap:round; stroke-linejoin:round; fill:#FFFFFF; fill-opacity:1.00; stroke:#000000; stroke-opacity:1.00;" transform="translate(0 0) scale(1.00 1.00)">
  <rect x="0" y="0" width="837" height="500" rx="0.00" shape-rendering="auto"  />
</g>
<g style="stroke-width:1; stroke-linecap:round; stroke-linejoin:round; fill:#003F5C; fill-opacity:1.00; stroke:#000000; stroke-opacity:0.0;" transform="translate(0 0) scale(1.00 1.00)">
  <path d="M350.00 184.50 A141.50 141.50 0 0 0 115.13 78.18 L208.50 184.50 z" shape-rendering="auto" />
</g>
<g style="stroke-width:1; stroke-linecap:round; stroke-linejoin:round; fill:#000000; fill-opacity:0.0; stroke:#000000; stroke-opacity:0.0;" transform="translate(0 0) scale(1.00 1.00)">
  <path d="M350.00 184.50 A141.50 141.50 0 0 0 115.13 78.18" shape-rendering="auto" />
</g>
<g style="stroke-width:1; stroke-linecap:round; stroke-linejoin:round; fill:#003F5C; fill-opacity:1.00; stroke:#000000; stroke-opacity:0.0;" transform="translate(0 0) scale(1.00 1.00)">
  <path d="M208 184 L350 184" shape-rendering="auto" />
  <path d="M208 184 L115 78" shape-rendering="auto" />
</g>
<g style="stroke-width:1; stroke-linecap:round; stroke-linejoin:round; fill:#2F4B7C; fill-opacity:1.00; stroke:#000000; stroke-opacity:0.0;" transform="translate(0 0) scale(1.00 1.00)">
  <path d="M115.13 78.18 A141.50 141.50 0 0 0 122.08 296.55 L208.50 184.50 z" shape-rendering="auto" />
</g>
<g style="stroke-width:1; stroke-linecap:round; stroke-linejoin:round; fill:#000000; fill-opacity:0.0; stroke:#000000; stroke-opacity:0.0;" transform="translate(0 0) scale(1.00 1.00)">
  <path d="M115.13 78.18 A141.50 141.50 0 0 0 122.08 296.55" shape-rendering="auto" />
</g>
<g style="stroke-width:1; stroke-linecap:round; stroke-linejoin:round; fill:#2F4B7C; fill-opacity:1.00; stroke:#000000; stroke-opacity:0.0;" transform="translate(0 0) scale(1.00 1.00)">
  <path d="M208 184 L115 78" shape-rendering="auto" />
  <path d="M208 184 L122 296" shape-rendering="auto" />
</g>
<g style="stroke-width:1; stroke-linecap:round; stroke-linejoin:round; fill:#665191; fill-opacity:1.00; stroke:#000000; stroke-opacity:0.0;" transform="translate(0 0) scale(1.00 1.00)">
  <path d="M122.08 296.55 A141.50 141.50 0 0 0 223.59 325.19 L208.50 184.50 z" shape-rendering="auto" />
</g>
<g style="stroke-width:1; stroke-linecap:round; stroke-linejoin:round; fill:#000000; fill-opacity:0.0; stroke:#000000; stroke-opacity:0.0;" transform="translate(0 0) scale(1.00 1.00)">
  <path d="M122.08 296.55 A141.50 141.50 0 0 0 223.59 325.19" shape-rendering="auto" />
</g>
<g style="stroke-width:1; stroke-linecap:round; stroke-linejoin:round; fill:#665191; fill-opacity:1.00; stroke:#000000; stroke-opacity:0.0;" transform="translate(0 0) scale(1.00 1.00)">
  <path d="M208 184 L122 296" shape-rendering="auto" />
  <path d="M208 184 L223 325" shape-rendering="auto" />
</g>
<g style="stroke-width:1; stroke-linecap:round; stroke-linejoin:round; fill:#A05195; fill-opacity:1.00; stroke:#000000; stroke-opacity:0.0;" transform="translate(0 0) scale(1.00 1.00)">
  <path d="M223.59 325.19 A141.50 141.50 0 0 0 350.00 184.50 L208.50 184.50 z" shape-rendering="auto" />
</g>
<g style="stroke-width:1; stroke-linecap:round; stroke-linejoin:round; fill:#000000; fill-opacity:0.0; stroke:#000000; stroke-opacity:0.0;" transform="translate(0 0) scale(1.00 1.00)">
  <path d="M223.59 325.19 A141.50 141.50 0 0 0 350.00 184.50" shape-rendering="auto" />
</g>
<g style="stroke-width:1; stroke-linecap:round; stroke-linejoin:round; fill:#A05195; fill-opacity:1.00; stroke:#000000; stroke-opacity:0.0;" transform="translate(0 0) scale(1.00 1.00)">
  <path d="M208 184 L223 325" shape-rendering="auto" />
  <path d="M208 184 L350 184" shape-rendering="auto" />
</g>
<g style="stroke-width:1; stroke-linecap:round; stroke-linejoin:round; fill:#000000; fill-opacity:1.00; stroke:#000000; stroke-opacity:1.00;" transform="translate(0 0) scale(1.00 1.00)">
  <text x="238.00" y="92.00" textLength="27" style="font-family:Segoe UI; font-weight:400; font-style:normal; font-size:10.76pt; text-decoration: none; fill:#FFFFFF; fill-opacity:1.00; stroke:#FFFFFF; stroke-opacity:1.00; stroke-width:0; white-space: pre;" xml:space="preserve" transform="rotate(0.00 238.00 92.00)">36%</text>
</g>
<g style="stroke-width:1; stroke-linecap:round; stroke-linejoin:round; fill:#000000; fill-opacity:1.00; stroke:#000000; stroke-opacity:1.00;" transform="translate(0 0) scale(1.00 1.00)">
  <text x="89.00" y="192.00" textLength="27" style="font-family:Segoe UI; font-weight:400; font-style:normal; font-size:10.76pt; text-decoration: none; fill:#FFFFFF; fill-opacity:1.00; stroke:#FFFFFF; stroke-opacity:1.00; stroke-width:0; white-space: pre;" xml:space="preserve" transform="rotate(0.00 89.00 192.00)">28%</text>
</g>
<g style="stroke-width:1; stroke-linecap:round; stroke-linejoin:round; fill:#000000; fill-opacity:1.00; stroke:#000000; stroke-opacity:1.00;" transform="translate(0 0) scale(1.00 1.00)">
  <text x="166.00" y="291.00" textLength="27" style="font-family:Segoe UI; font-weight:400; font-style:normal; font-size:10.76pt; text-decoration: none; fill:#FFFFFF; fill-opacity:1.00; stroke:#FFFFFF; stroke-opacity:1.00; stroke-width:0; white-space: pre;" xml:space="preserve" transform="rotate(0.00 166.00 291.00)">12%</text>
</g>
<g style="stroke-width:1; stroke-linecap:round; stroke-linejoin:round; fill:#000000; fill-opacity:1.00; stroke:#000000; stroke-opacity:1.00;" transform="translate(0 0) scale(1.00 1.00)">
  <text x="273.00" y="259.00" textLength="27" style="font-family:Segoe UI; font-weight:400; font-style:normal; font-size:10.76pt; text-decoration: none; fill:#FFFFFF; fill-opacity:1.00; stroke:#FFFFFF; stroke-opacity:1.00; stroke-width:0; white-space: pre;" xml:space="preserve" transform="rotate(0.00 273.00 259.00)">23%</text>
</g>
<g style="stroke-width:1; stroke-linecap:round; stroke-linejoin:round; fill:#000000; fill-opacity:1.00; stroke:#000000; stroke-opacity:1.00;" transform="translate(0 0) scale(1.00 1.00)">
  <text x="270.00" y="47.00" textLength="26" style="font-family:Segoe UI; font-weight:700; font-style:normal; font-size:4.78pt; text-decoration: none; fill:#003F5C; fill-opacity:1.00; stroke:#003F5C; stroke-opacity:1.00; stroke-width:0; white-space: pre;" xml:space="preserve" transform="rotate(0.00 270.00 47.00)">Business</text>
</g>
<g style="stroke-width:1; stroke-linecap:round; stroke-linejoin:round; fill:#000000; fill-opacity:1.00; stroke:#000000; stroke-opacity:1.00;" transform="translate(0 0) scale(1.00 1.00)">
  <text x="9.00" y="199.00" textLength="52" style="font-family:Segoe UI; font-weight:700; font-style:normal; font-size:4.78pt; text-decoration: none; fill:#2F4B7C; fill-opacity:1.00; stroke:#2F4B7C; stroke-opacity:1.00; stroke-width:0; white-space: pre;" xml:space="preserve" transform="rotate(0.00 9.00 199.00)">Computer Science</text>
</g>
<g style="stroke-width:1; stroke-linecap:round; stroke-linejoin:round; fill:#000000; fill-opacity:1.00; stroke:#000000; stroke-opacity:1.00;" transform="translate(0 0) scale(1.00 1.00)">
  <text x="142.00" y="330.00" textLength="22" style="font-family:Segoe UI; font-weight:700; font-style:normal; font-size:4.78pt; text-decoration: none; fill:#665191; fill-opacity:1.00; stroke:#665191; stroke-opacity:1.00; stroke-width:0; white-space: pre;" xml:space="preserve" transform="rotate(0.00 142.00 330.00)">English</text>
</g>
<g style="stroke-width:1; stroke-linecap:round; stroke-linejoin:round; fill:#000000; fill-opacity:1.00; stroke:#000000; stroke-opacity:1.00;" transform="translate(0 0) scale(1.00 1.00)">
  <text x="317.00" y="289.00" textLength="21" style="font-family:Segoe UI; font-weight:700; font-style:normal; font-size:4.78pt; text-decoration: none; fill:#A05195; fill-opacity:1.00; stroke:#A05195; stroke-opacity:1.00; stroke-width:0; white-space: pre;" xml:space="preserve" transform="rotate(0.00 317.00 289.00)">Science</text>
</g>
<g style="stroke-width:1; stroke-linecap:round; stroke-linejoin:round; fill:#FFFFFF; fill-opacity:1.00; stroke:#000000; stroke-opacity:1.00;" transform="translate(0 0) scale(1.00 1.00)">
  <ellipse cx="208.00" cy="184.00" rx="70.00" ry="70.00" shape-rendering="auto" />
</g>
<g style="stroke-width:1; stroke-linecap:round; stroke-linejoin:round; fill:#000000; fill-opacity:1.00; stroke:#000000; stroke-opacity:1.00;" transform="translate(0 0) scale(1.00 1.00)">
  <text x="157.00" y="178.00" textLength="100" style="font-family:Segoe UI; font-weight:400; font-style:normal; font-size:15.60pt; text-decoration: none; fill:#000000; fill-opacity:1.00; stroke:#000000; stroke-opacity:1.00; stroke-width:0; white-space: pre;" xml:space="preserve" transform="rotate(0.00 157.00 178.00)">Enrollment</text>
  <text x="157.00" y="210.00" textLength="129" style="font-family:Segoe UI; font-weight:400; font-style:normal; font-size:15.60pt; text-decoration: none; fill:#000000; fill-opacity:1.00; stroke:#000000; stroke-opacity:1.00; stroke-width:0; white-space: pre;" xml:space="preserve" transform="rotate(0.00 157.00 210.00)">Fall         2023         </text>
</g>
<g style="stroke-width:1; stroke-linecap:round; stroke-linejoin:round; fill:#003F5C; fill-opacity:1.00; stroke:#000000; stroke-opacity:0.0;" transform="translate(0 0) scale(1.00 1.00)">
  <path d="M827.00 243.00 A200.00 200.00 0 0 0 495.03 92.72 L627.00 243.00 z" shape-rendering="auto" />
</g>
<g style="stroke-width:1; stroke-linecap:round; stroke-linejoin:round; fill:#000000; fill-opacity:0.0; stroke:#000000; stroke-opacity:0.0;" transform="translate(0 0) scale(1.00 1.00)">
  <path d="M827.00 243.00 A200.00 200.00 0 0 0 495.03 92.72" shape-rendering="auto" />
</g>
<g style="stroke-width:1; stroke-linecap:round; stroke-linejoin:round; fill:#003F5C; fill-opacity:1.00; stroke:#000000; stroke-opacity:0.0;" transform="translate(0 0) scale(1.00 1.00)">
  <path d="M627 243 L827 243" shape-rendering="auto" />
  <path d="M627 243 L495 92" shape-rendering="auto" />
</g>
<g style="stroke-width:1; stroke-linecap:round; stroke-linejoin:round; fill:#2F4B7C; fill-opacity:1.00; stroke:#000000; stroke-opacity:0.0;" transform="translate(0 0) scale(1.00 1.00)">
  <path d="M495.03 92.72 A200.00 200.00 0 0 0 504.86 401.37 L627.00 243.00 z" shape-rendering="auto" />
</g>
<g style="stroke-width:1; stroke-linecap:round; stroke-linejoin:round; fill:#000000; fill-opacity:0.0; stroke:#000000; stroke-opacity:0.0;" transform="translate(0 0) scale(1.00 1.00)">
  <path d="M495.03 92.72 A200.00 200.00 0 0 0 504.86 401.37" shape-rendering="auto" />
</g>
<g style="stroke-width:1; stroke-linecap:round; stroke-linejoin:round; fill:#2F4B7C; fill-opacity:1.00; stroke:#000000; stroke-opacity:0.0;" transform="translate(0 0) scale(1.00 1.00)">
  <path d="M627 243 L495 92" shape-rendering="auto" />
  <path d="M627 243 L504 401" shape-rendering="auto" />
</g>
<g style="stroke-width:1; stroke-linecap:round; stroke-linejoin:round; fill:#665191; fill-opacity:1.00; stroke:#000000; stroke-opacity:0.0;" transform="translate(0 0) scale(1.00 1.00)">
  <path d="M504.86 401.37 A200.00 200.00 0 0 0 648.33 441.86 L627.00 243.00 z" shape-rendering="auto" />
</g>
<g style="stroke-width:1; stroke-linecap:round; stroke-linejoin:round; fill:#000000; fill-opacity:0.0; stroke:#000000; stroke-opacity:0.0;" transform="translate(0 0) scale(1.00 1.00)">
  <path d="M504.86 401.37 A200.00 200.00 0 0 0 648.33 441.86" shape-rendering="auto" />
</g>
<g style="stroke-width:1; stroke-linecap:round; stroke-linejoin:round; fill:#665191; fill-opacity:1.00; stroke:#000000; stroke-opacity:0.0;" transform="translate(0 0) scale(1.00 1.00)">
  <path d="M627 243 L504 401" shape-rendering="auto" />
  <path d="M627 243 L648 441" shape-rendering="auto" />
</g>
<g style="stroke-width:1; stroke-linecap:round; stroke-linejoin:round; fill:#A05195; fill-opacity:1.00; stroke:#000000; stroke-opacity:0.0;" transform="translate(0 0) scale(1.00 1.00)">
  <path d="M648.33 441.86 A200.00 200.00 0 0 0 827.00 243.00 L627.00 243.00 z" shape-rendering="auto" />
</g>
<g style="stroke-width:1; stroke-linecap:round; stroke-linejoin:round; fill:#000000; fill-opacity:0.0; stroke:#000000; stroke-opacity:0.0;" transform="translate(0 0) scale(1.00 1.00)">
  <path d="M648.33 441.86 A200.00 200.00 0 0 0 827.00 243.00" shape-rendering="auto" />
</g>
<g style="stroke-width:1; stroke-linecap:round; stroke-linejoin:round; fill:#A05195; fill-opacity:1.00; stroke:#000000; stroke-opacity:0.0;" transform="translate(0 0) scale(1.00 1.00)">
  <path d="M627 243 L648 441" shape-rendering="auto" />
  <path d="M627 243 L827 243" shape-rendering="auto" />
</g>
<g style="stroke-width:1; stroke-linecap:round; stroke-linejoin:round; fill:#000000; fill-opacity:1.00; stroke:#000000; stroke-opacity:1.00;" transform="translate(0 0) scale(1.00 1.00)">
  <text x="675.00" y="111.00" textLength="27" style="font-family:Segoe UI; font-weight:400; font-style:normal; font-size:10.76pt; text-decoration: none; fill:#FFFFFF; fill-opacity:1.00; stroke:#FFFFFF; stroke-opacity:1.00; stroke-width:0; white-space: pre;" xml:space="preserve" transform="rotate(0.00 675.00 111.00)">36%</text>
</g>
<g style="stroke-width:1; stroke-linecap:round; stroke-linejoin:round; fill:#000000; fill-opacity:1.00; stroke:#000000; stroke-opacity:1.00;" transform="translate(0 0) scale(1.00 1.00)">
  <text x="464.00" y="252.00" textLength="27" style="font-family:Segoe UI; font-weight:400; font-style:normal; font-size:10.76pt; text-decoration: none; fill:#FFFFFF; fill-opacity:1.00; stroke:#FFFFFF; stroke-opacity:1.00; stroke-width:0; white-space: pre;" xml:space="preserve" transform="rotate(0.00 464.00 252.00)">28%</text>
</g>
<g style="stroke-width:1; stroke-linecap:round; stroke-linejoin:round; fill:#000000; fill-opacity:1.00; stroke:#000000; stroke-opacity:1.00;" transform="translate(0 0) scale(1.00 1.00)">
  <text x="573.00" y="392.00" textLength="27" style="font-family:Segoe UI; font-weight:400; font-style:normal; font-size:10.76pt; text-decoration: none; fill:#FFFFFF; fill-opacity:1.00; stroke:#FFFFFF; stroke-opacity:1.00; stroke-width:0; white-space: pre;" xml:space="preserve" transform="rotate(0.00 573.00 392.00)">12%</text>
</g>
<g style="stroke-width:1; stroke-linecap:round; stroke-linejoin:round; fill:#000000; fill-opacity:1.00; stroke:#000000; stroke-opacity:1.00;" transform="translate(0 0) scale(1.00 1.00)">
  <text x="725.00" y="348.00" textLength="27" style="font-family:Segoe UI; font-weight:400; font-style:normal; font-size:10.76pt; text-decoration: none; fill:#FFFFFF; fill-opacity:1.00; stroke:#FFFFFF; stroke-opacity:1.00; stroke-width:0; white-space: pre;" xml:space="preserve" transform="rotate(0.00 725.00 348.00)">23%</text>
</g>
<g style="stroke-width:1; stroke-linecap:round; stroke-linejoin:round; fill:#19526C; fill-opacity:1.00; stroke:#000000; stroke-opacity:0.0;" transform="translate(0 0) scale(1.00 1.00)">
  <path d="M727.00 243.00 A100.00 100.00 0 0 0 702.29 177.19 L627.00 243.00 z" shape-rendering="auto" />
</g>
<g style="stroke-width:1; stroke-linecap:round; stroke-linejoin:round; fill:#000000; fill-opacity:0.0; stroke:#668B9D; stroke-opacity:1.00;" transform="translate(0 0) scale(1.00 1.00)">
  <path d="M727.00 243.00 A100.00 100.00 0 0 0 702.29 177.19" shape-rendering="auto" />
</g>
<g style="stroke-width:1; stroke-linecap:round; stroke-linejoin:round; fill:#19526C; fill-opacity:1.00; stroke:#668B9D; stroke-opacity:1.00;" transform="translate(0 0) scale(1.00 1.00)">
  <path d="M627 243 L727 243" shape-rendering="auto" />
  <path d="M627 243 L702 177" shape-rendering="auto" />
</g>
<g style="stroke-width:1; stroke-linecap:round; stroke-linejoin:round; fill:#30637A; fill-opacity:1.00; stroke:#000000; stroke-opacity:0.0;" transform="translate(0 0) scale(1.00 1.00)">
  <path d="M702.29 177.19 A100.00 100.00 0 0 0 664.90 150.46 L627.00 243.00 z" shape-rendering="auto" />
</g>
<g style="stroke-width:1; stroke-linecap:round; stroke-linejoin:round; fill:#000000; fill-opacity:0.0; stroke:#668B9D; stroke-opacity:1.00;" transform="translate(0 0) scale(1.00 1.00)">
  <path d="M702.29 177.19 A100.00 100.00 0 0 0 664.90 150.46" shape-rendering="auto" />
</g>
<g style="stroke-width:1; stroke-linecap:round; stroke-linejoin:round; fill:#30637A; fill-opacity:1.00; stroke:#668B9D; stroke-opacity:1.00;" transform="translate(0 0) scale(1.00 1.00)">
  <path d="M627 243 L702 177" shape-rendering="auto" />
  <path d="M627 243 L664 150" shape-rendering="auto" />
</g>
<g style="stroke-width:1; stroke-linecap:round; stroke-linejoin:round; fill:#447287; fill-opacity:1.00; stroke:#000000; stroke-opacity:0.0;" transform="translate(0 0) scale(1.00 1.00)">
  <path d="M664.90 150.46 A100.00 100.00 0 0 0 571.85 159.59 L627.00 243.00 z" shape-rendering="auto" />
</g>
<g style="stroke-width:1; stroke-linecap:round; stroke-linejoin:round; fill:#000000; fill-opacity:0.0; stroke:#668B9D; stroke-opacity:1.00;" transform="translate(0 0) scale(1.00 1.00)">
  <path d="M664.90 150.46 A100.00 100.00 0 0 0 571.85 159.59" shape-rendering="auto" />
</g>
<g style="stroke-width:1; stroke-linecap:round; stroke-linejoin:round; fill:#447287; fill-opacity:1.00; stroke:#668B9D; stroke-opacity:1.00;" transform="translate(0 0) scale(1.00 1.00)">
  <path d="M627 243 L664 150" shape-rendering="auto" />
  <path d="M627 243 L571 159" shape-rendering="auto" />
</g>
<g style="stroke-width:1; stroke-linecap:round; stroke-linejoin:round; fill:#568093; fill-opacity:1.00; stroke:#000000; stroke-opacity:0.0;" transform="translate(0 0) scale(1.00 1.00)">
  <path d="M571.85 159.59 A100.00 100.00 0 0 0 561.02 167.86 L627.00 243.00 z" shape-rendering="auto" />
</g>
<g style="stroke-width:1; stroke-linecap:round; stroke-linejoin:round; fill:#000000; fill-opacity:0.0; stroke:#668B9D; stroke-opacity:1.00;" transform="translate(0 0) scale(1.00 1.00)">
  <path d="M571.85 159.59 A100.00 100.00 0 0 0 561.02 167.86" shape-rendering="auto" />
</g>
<g style="stroke-width:1; stroke-linecap:round; stroke-linejoin:round; fill:#568093; fill-opacity:1.00; stroke:#668B9D; stroke-opacity:1.00;" transform="translate(0 0) scale(1.00 1.00)">
  <path d="M627 243 L571 159" shape-rendering="auto" />
  <path d="M627 243 L561 167" shape-rendering="auto" />
</g>
<g style="stroke-width:1; stroke-linecap:round; stroke-linejoin:round; fill:#586F96; fill-opacity:1.00; stroke:#000000; stroke-opacity:0.0;" transform="translate(0 0) scale(1.00 1.00)">
  <path d="M561.02 167.86 A100.00 100.00 0 0 0 549.65 179.62 L627.00 243.00 z" shape-rendering="auto" />
</g>
<g style="stroke-width:1; stroke-linecap:round; stroke-linejoin:round; fill:#000000; fill-opacity:0.0; stroke:#8293B0; stroke-opacity:1.00;" transform="translate(0 0) scale(1.00 1.00)">
  <path d="M561.02 167.86 A100.00 100.00 0 0 0 549.65 179.62" shape-rendering="auto" />
</g>
<g style="stroke-width:1; stroke-linecap:round; stroke-linejoin:round; fill:#586F96; fill-opacity:1.00; stroke:#8293B0; stroke-opacity:1.00;" transform="translate(0 0) scale(1.00 1.00)">
  <path d="M627 243 L561 167" shape-rendering="auto" />
  <path d="M627 243 L549 179" shape-rendering="auto" />
</g>
<g style="stroke-width:1; stroke-linecap:round; stroke-linejoin:round; fill:#687DA0; fill-opacity:1.00; stroke:#000000; stroke-opacity:0.0;" transform="translate(0 0) scale(1.00 1.00)">
  <path d="M549.65 179.62 A100.00 100.00 0 0 0 530.58 269.50 L627.00 243.00 z" shape-rendering="auto" />
</g>
<g style="stroke-width:1; stroke-linecap:round; stroke-linejoin:round; fill:#000000; fill-opacity:0.0; stroke:#8293B0; stroke-opacity:1.00;" transform="translate(0 0) scale(1.00 1.00)">
  <path d="M549.65 179.62 A100.00 100.00 0 0 0 530.58 269.50" shape-rendering="auto" />
</g>
<g style="stroke-width:1; stroke-linecap:round; stroke-linejoin:round; fill:#687DA0; fill-opacity:1.00; stroke:#8293B0; stroke-opacity:1.00;" transform="translate(0 0) scale(1.00 1.00)">
  <path d="M627 243 L549 179" shape-rendering="auto" />
  <path d="M627 243 L530 269" shape-rendering="auto" />
</g>
<g style="stroke-width:1; stroke-linecap:round; stroke-linejoin:round; fill:#778AA9; fill-opacity:1.00; stroke:#000000; stroke-opacity:0.0;" transform="translate(0 0) scale(1.00 1.00)">
  <path d="M530.58 269.50 A100.00 100.00 0 0 0 549.08 305.68 L627.00 243.00 z" shape-rendering="auto" />
</g>
<g style="stroke-width:1; stroke-linecap:round; stroke-linejoin:round; fill:#000000; fill-opacity:0.0; stroke:#8293B0; stroke-opacity:1.00;" transform="translate(0 0) scale(1.00 1.00)">
  <path d="M530.58 269.50 A100.00 100.00 0 0 0 549.08 305.68" shape-rendering="auto" />
</g>
<g style="stroke-width:1; stroke-linecap:round; stroke-linejoin:round; fill:#778AA9; fill-opacity:1.00; stroke:#8293B0; stroke-opacity:1.00;" transform="translate(0 0) scale(1.00 1.00)">
  <path d="M627 243 L530 269" shape-rendering="auto" />
  <path d="M627 243 L549 305" shape-rendering="auto" />
</g>
<g style="stroke-width:1; stroke-linecap:round; stroke-linejoin:round; fill:#6B7C98; fill-opacity:1.00; stroke:#000000; stroke-opacity:0.0;" transform="translate(0 0) scale(1.00 1.00)">
  <path d="M549.08 305.68 A100.00 100.00 0 0 0 563.09 319.91 L627.00 243.00 z" shape-rendering="auto" />
</g>
<g style="stroke-width:1; stroke-linecap:round; stroke-linejoin:round; fill:#000000; fill-opacity:0.0; stroke:#8293B0; stroke-opacity:1.00;" transform="translate(0 0) scale(1.00 1.00)">
  <path d="M549.08 305.68 A100.00 100.00 0 0 0 563.09 319.91" shape-rendering="auto" />
</g>
<g style="stroke-width:1; stroke-linecap:round; stroke-linejoin:round; fill:#6B7C98; fill-opacity:1.00; stroke:#8293B0; stroke-opacity:1.00;" transform="translate(0 0) scale(1.00 1.00)">
  <path d="M627 243 L549 305" shape-rendering="auto" />
  <path d="M627 243 L563 319" shape-rendering="auto" />
</g>
<g style="stroke-width:1; stroke-linecap:round; stroke-linejoin:round; fill:#7989A2; fill-opacity:1.00; stroke:#000000; stroke-opacity:0.0;" transform="translate(0 0) scale(1.00 1.00)">
  <path d="M563.09 319.91 A100.00 100.00 0 0 0 565.93 322.19 L627.00 243.00 z" shape-rendering="auto" />
</g>
<g style="stroke-width:1; stroke-linecap:round; stroke-linejoin:round; fill:#000000; fill-opacity:0.0; stroke:#8293B0; stroke-opacity:1.00;" transform="translate(0 0) scale(1.00 1.00)">
  <path d="M563.09 319.91 A100.00 100.00 0 0 0 565.93 322.19" shape-rendering="auto" />
</g>
<g style="stroke-width:1; stroke-linecap:round; stroke-linejoin:round; fill:#7989A2; fill-opacity:1.00; stroke:#8293B0; stroke-opacity:1.00;" transform="translate(0 0) scale(1.00 1.00)">
  <path d="M627 243 L563 319" shape-rendering="auto" />
  <path d="M627 243 L565 322" shape-rendering="auto" />
</g>
<g style="stroke-width:1; stroke-linecap:round; stroke-linejoin:round; fill:#FFFFFF; fill-opacity:1.00; stroke:#C4C3D0; stroke-opacity:0.78;" transform="translate(0 0) scale(1.00 1.00)">
  <path d="M564 321 L489 414" shape-rendering="auto" stroke-dasharray="3.333333,2.666667"/>
</g>
<g style="stroke-width:1; stroke-linecap:round; stroke-linejoin:round; fill:#C4C3D0; fill-opacity:0.78; stroke:#000000; stroke-opacity:0.0;" transform="translate(0 0) scale(1.00 1.00)">
  <polygon points="489 414 491 403 499 409 " shape-rendering="auto"   style="fill-rule:evenodd;"/>
</g>
<g style="stroke-width:1; stroke-linecap:round; stroke-linejoin:round; fill:#8473A7; fill-opacity:1.00; stroke:#000000; stroke-opacity:0.0;" transform="translate(0 0) scale(1.00 1.00)">
  <path d="M565.93 322.19 A100.00 100.00 0 0 0 604.24 340.38 L627.00 243.00 z" shape-rendering="auto" />
</g>
<g style="stroke-width:1; stroke-linecap:round; stroke-linejoin:round; fill:#000000; fill-opacity:0.0; stroke:#A396BD; stroke-opacity:1.00;" transform="translate(0 0) scale(1.00 1.00)">
  <path d="M565.93 322.19 A100.00 100.00 0 0 0 604.24 340.38" shape-rendering="auto" />
</g>
<g style="stroke-width:1; stroke-linecap:round; stroke-linejoin:round; fill:#8473A7; fill-opacity:1.00; stroke:#A396BD; stroke-opacity:1.00;" transform="translate(0 0) scale(1.00 1.00)">
  <path d="M627 243 L565 322" shape-rendering="auto" />
  <path d="M627 243 L604 340" shape-rendering="auto" />
</g>
<g style="stroke-width:1; stroke-linecap:round; stroke-linejoin:round; fill:#9081AF; fill-opacity:1.00; stroke:#000000; stroke-opacity:0.0;" transform="translate(0 0) scale(1.00 1.00)">
  <path d="M604.24 340.38 A100.00 100.00 0 0 0 637.66 342.43 L627.00 243.00 z" shape-rendering="auto" />
</g>
<g style="stroke-width:1; stroke-linecap:round; stroke-linejoin:round; fill:#000000; fill-opacity:0.0; stroke:#A396BD; stroke-opacity:1.00;" transform="translate(0 0) scale(1.00 1.00)">
  <path d="M604.24 340.38 A100.00 100.00 0 0 0 637.66 342.43" shape-rendering="auto" />
</g>
<g style="stroke-width:1; stroke-linecap:round; stroke-linejoin:round; fill:#9081AF; fill-opacity:1.00; stroke:#A396BD; stroke-opacity:1.00;" transform="translate(0 0) scale(1.00 1.00)">
  <path d="M627 243 L604 340" shape-rendering="auto" />
  <path d="M627 243 L637 342" shape-rendering="auto" />
</g>
<g style="stroke-width:1; stroke-linecap:round; stroke-linejoin:round; fill:#B373AA; fill-opacity:1.00; stroke:#000000; stroke-opacity:0.0;" transform="translate(0 0) scale(1.00 1.00)">
  <path d="M637.66 342.43 A100.00 100.00 0 0 0 681.77 326.66 L627.00 243.00 z" shape-rendering="auto" />
</g>
<g style="stroke-width:1; stroke-linecap:round; stroke-linejoin:round; fill:#000000; fill-opacity:0.0; stroke:#C696BF; stroke-opacity:1.00;" transform="translate(0 0) scale(1.00 1.00)">
  <path d="M637.66 342.43 A100.00 100.00 0 0 0 681.77 326.66" shape-rendering="auto" />
</g>
<g style="stroke-width:1; stroke-linecap:round; stroke-linejoin:round; fill:#B373AA; fill-opacity:1.00; stroke:#C696BF; stroke-opacity:1.00;" transform="translate(0 0) scale(1.00 1.00)">
  <path d="M627 243 L637 342" shape-rendering="auto" />
  <path d="M627 243 L681 326" shape-rendering="auto" />
</g>
<g style="stroke-width:1; stroke-linecap:round; stroke-linejoin:round; fill:#A16799; fill-opacity:1.00; stroke:#000000; stroke-opacity:0.0;" transform="translate(0 0) scale(1.00 1.00)">
  <path d="M681.77 326.66 A100.00 100.00 0 0 0 725.01 262.87 L627.00 243.00 z" shape-rendering="auto" />
</g>
<g style="stroke-width:1; stroke-linecap:round; stroke-linejoin:round; fill:#000000; fill-opacity:0.0; stroke:#C696BF; stroke-opacity:1.00;" transform="translate(0 0) scale(1.00 1.00)">
  <path d="M681.77 326.66 A100.00 100.00 0 0 0 725.01 262.87" shape-rendering="auto" />
</g>
<g style="stroke-width:1; stroke-linecap:round; stroke-linejoin:round; fill:#A16799; fill-opacity:1.00; stroke:#C696BF; stroke-opacity:1.00;" transform="translate(0 0) scale(1.00 1.00)">
  <path d="M627 243 L681 326" shape-rendering="auto" />
  <path d="M627 243 L725 262" shape-rendering="auto" />
</g>
<g style="stroke-width:1; stroke-linecap:round; stroke-linejoin:round; fill:#AA76A3; fill-opacity:1.00; stroke:#000000; stroke-opacity:0.0;" transform="translate(0 0) scale(1.00 1.00)">
  <path d="M725.01 262.87 A100.00 100.00 0 0 0 727.00 243.00 L627.00 243.00 z" shape-rendering="auto" />
</g>
<g style="stroke-width:1; stroke-linecap:round; stroke-linejoin:round; fill:#000000; fill-opacity:0.0; stroke:#C696BF; stroke-opacity:1.00;" transform="translate(0 0) scale(1.00 1.00)">
  <path d="M725.01 262.87 A100.00 100.00 0 0 0 727.00 243.00" shape-rendering="auto" />
</g>
<g style="stroke-width:1; stroke-linecap:round; stroke-linejoin:round; fill:#AA76A3; fill-opacity:1.00; stroke:#C696BF; stroke-opacity:1.00;" transform="translate(0 0) scale(1.00 1.00)">
  <path d="M627 243 L725 262" shape-rendering="auto" />
  <path d="M627 243 L727 243" shape-rendering="auto" />
</g>
<g style="stroke-width:1; stroke-linecap:round; stroke-linejoin:round; fill:#000000; fill-opacity:1.00; stroke:#000000; stroke-opacity:1.00;" transform="translate(0 0) scale(1.00 1.00)">
  <text x="434.00" y="424.00" textLength="49" style="font-family:Segoe UI; font-weight:700; font-style:normal; font-size:4.78pt; text-decoration: none; fill:#7989A2; fill-opacity:1.00; stroke:#7989A2; stroke-opacity:1.00; stroke-width:0; white-space: pre;" xml:space="preserve" transform="rotate(0.00 434.00 424.00)">Visual Basic.NET</text>
</g>
<g style="stroke-width:1; stroke-linecap:round; stroke-linejoin:round; fill:#000000; fill-opacity:1.00; stroke:#000000; stroke-opacity:1.00;" transform="translate(0 0) scale(1.00 1.00)">
  <text x="664.00" y="229.00" textLength="18" style="font-family:Segoe UI; font-weight:400; font-style:normal; font-size:7.17pt; text-decoration: none; fill:#FFFFFF; fill-opacity:1.00; stroke:#FFFFFF; stroke-opacity:1.00; stroke-width:0; white-space: pre;" xml:space="preserve" transform="rotate(0.00 664.00 229.00)">11%</text>
</g>
<g style="stroke-width:1; stroke-linecap:round; stroke-linejoin:round; fill:#000000; fill-opacity:1.00; stroke:#000000; stroke-opacity:1.00;" transform="translate(0 0) scale(1.00 1.00)">
  <text x="650.00" y="206.00" textLength="13" style="font-family:Segoe UI; font-weight:400; font-style:normal; font-size:7.17pt; text-decoration: none; fill:#FFFFFF; fill-opacity:1.00; stroke:#FFFFFF; stroke-opacity:1.00; stroke-width:0; white-space: pre;" xml:space="preserve" transform="rotate(0.00 650.00 206.00)">7%</text>
</g>
<g style="stroke-width:1; stroke-linecap:round; stroke-linejoin:round; fill:#000000; fill-opacity:1.00; stroke:#000000; stroke-opacity:1.00;" transform="translate(0 0) scale(1.00 1.00)">
  <text x="613.00" y="197.00" textLength="18" style="font-family:Segoe UI; font-weight:400; font-style:normal; font-size:7.17pt; text-decoration: none; fill:#FFFFFF; fill-opacity:1.00; stroke:#FFFFFF; stroke-opacity:1.00; stroke-width:0; white-space: pre;" xml:space="preserve" transform="rotate(0.00 613.00 197.00)">15%</text>
</g>
<g style="stroke-width:1; stroke-linecap:round; stroke-linejoin:round; fill:#000000; fill-opacity:1.00; stroke:#000000; stroke-opacity:1.00;" transform="translate(0 0) scale(1.00 1.00)">
  <text x="569.00" y="236.00" textLength="18" style="font-family:Segoe UI; font-weight:400; font-style:normal; font-size:7.17pt; text-decoration: none; fill:#FFFFFF; fill-opacity:1.00; stroke:#FFFFFF; stroke-opacity:1.00; stroke-width:0; white-space: pre;" xml:space="preserve" transform="rotate(0.00 569.00 236.00)">15%</text>
</g>
<g style="stroke-width:1; stroke-linecap:round; stroke-linejoin:round; fill:#000000; fill-opacity:1.00; stroke:#000000; stroke-opacity:1.00;" transform="translate(0 0) scale(1.00 1.00)">
  <text x="576.00" y="269.00" textLength="13" style="font-family:Segoe UI; font-weight:400; font-style:normal; font-size:7.17pt; text-decoration: none; fill:#000000; fill-opacity:1.00; stroke:#000000; stroke-opacity:1.00; stroke-width:0; white-space: pre;" xml:space="preserve" transform="rotate(0.00 576.00 269.00)">7%</text>
</g>
<g style="stroke-width:1; stroke-linecap:round; stroke-linejoin:round; fill:#000000; fill-opacity:1.00; stroke:#000000; stroke-opacity:1.00;" transform="translate(0 0) scale(1.00 1.00)">
  <text x="599.00" y="292.00" textLength="13" style="font-family:Segoe UI; font-weight:400; font-style:normal; font-size:7.17pt; text-decoration: none; fill:#FFFFFF; fill-opacity:1.00; stroke:#FFFFFF; stroke-opacity:1.00; stroke-width:0; white-space: pre;" xml:space="preserve" transform="rotate(0.00 599.00 292.00)">7%</text>
</g>
<g style="stroke-width:1; stroke-linecap:round; stroke-linejoin:round; fill:#000000; fill-opacity:1.00; stroke:#000000; stroke-opacity:1.00;" transform="translate(0 0) scale(1.00 1.00)">
  <text x="617.00" y="296.00" textLength="13" style="font-family:Segoe UI; font-weight:400; font-style:normal; font-size:7.17pt; text-decoration: none; fill:#000000; fill-opacity:1.00; stroke:#000000; stroke-opacity:1.00; stroke-width:0; white-space: pre;" xml:space="preserve" transform="rotate(0.00 617.00 296.00)">5%</text>
</g>
<g style="stroke-width:1; stroke-linecap:round; stroke-linejoin:round; fill:#000000; fill-opacity:1.00; stroke:#000000; stroke-opacity:1.00;" transform="translate(0 0) scale(1.00 1.00)">
  <text x="637.00" y="294.00" textLength="13" style="font-family:Segoe UI; font-weight:400; font-style:normal; font-size:7.17pt; text-decoration: none; fill:#000000; fill-opacity:1.00; stroke:#000000; stroke-opacity:1.00; stroke-width:0; white-space: pre;" xml:space="preserve" transform="rotate(0.00 637.00 294.00)">8%</text>
</g>
<g style="stroke-width:1; stroke-linecap:round; stroke-linejoin:round; fill:#000000; fill-opacity:1.00; stroke:#000000; stroke-opacity:1.00;" transform="translate(0 0) scale(1.00 1.00)">
  <text x="659.00" y="275.00" textLength="18" style="font-family:Segoe UI; font-weight:400; font-style:normal; font-size:7.17pt; text-decoration: none; fill:#FFFFFF; fill-opacity:1.00; stroke:#FFFFFF; stroke-opacity:1.00; stroke-width:0; white-space: pre;" xml:space="preserve" transform="rotate(0.00 659.00 275.00)">13%</text>
</g>
<g style="stroke-width:1; stroke-linecap:round; stroke-linejoin:round; fill:#000000; fill-opacity:1.00; stroke:#000000; stroke-opacity:1.00;" transform="translate(0 0) scale(1.00 1.00)">
  <text x="4.00" y="402.00" textLength="37" style="font-family:Segoe UI; font-weight:700; font-style:normal; font-size:10.76pt; text-decoration: none; fill:#0000FF; fill-opacity:1.00; stroke:#0000FF; stroke-opacity:1.00; stroke-width:0; white-space: pre;" xml:space="preserve" transform="rotate(0.00 4.00 402.00)">NOTE</text>
  <text x="4.00" y="423.00" textLength="337" style="font-family:Segoe UI; font-weight:400; font-style:normal; font-size:10.76pt; text-decoration: none; fill:#000000; fill-opacity:1.00; stroke:#000000; stroke-opacity:1.00; stroke-width:0; white-space: pre;" xml:space="preserve" transform="rotate(0.00 4.00 423.00)">Should we consider dropping VB.NET from the catalog?</text>
  <text x="4.00" y="444.00" textLength="299" style="font-family:Segoe UI; font-weight:400; font-style:normal; font-size:10.76pt; text-decoration: none; fill:#000000; fill-opacity:1.00; stroke:#000000; stroke-opacity:1.00; stroke-width:0; white-space: pre;" xml:space="preserve" transform="rotate(0.00 4.00 444.00)">Enrollment has been really low the last few years.</text>
</g>
</svg>
