<?xml version="1.0" encoding="UTF-8" standalone="no"?>
<!DOCTYPE svg PUBLIC "-//W3C//DTD SVG 1.0//EN" "http://www.w3.org/TR/2001/REC-SVG-20010904/DTD/svg10.dtd">

<svg xmlns="http://www.w3.org/2000/svg" xmlns:xlink="http://www.w3.org/1999/xlink" width="38.91cm" height="22.79cm" viewBox="0 0 1103 646">
<title>panel</title>
<desc>Picture generated by wxSVG v0101</desc>

<g style="fill:black; stroke:black; stroke-width:1">
</g>
<g style="stroke-width:1; stroke-linecap:round; stroke-linejoin:round; fill:#000000; fill-opacity:0.0; stroke:#000000; stroke-opacity:0.0;" transform="translate(0 0) scale(1.00 1.00)">
  <rect x="0" y="0" width="1103" height="646" rx="0.00" shape-rendering="auto"  />
</g>
<g style="stroke-width:1; stroke-linecap:round; stroke-linejoin:round; fill:#FFFFFF; fill-opacity:1.00; stroke:#000000; stroke-opacity:1.00;" transform="translate(0 0) scale(1.00 1.00)">
</g>
<g style="stroke-width:1; stroke-linecap:round; stroke-linejoin:round; fill:#FFFFFF; fill-opacity:1.00; stroke:#000000; stroke-opacity:1.00;" transform="translate(0 0) scale(1.00 1.00)">
  <rect x="0" y="0" width="1103" height="646" rx="0.00" shape-rendering="auto"  />
</g>
<g style="stroke-width:1; stroke-linecap:round; stroke-linejoin:round; fill:#003F5C; fill-opacity:1.00; stroke:#000000; stroke-opacity:0.0;" transform="translate(0 0) scale(1.00 1.00)">
  <path d="M472.00 262.50 A196.50 196.50 0 0 0 145.84 114.85 L275.50 262.50 z" shape-rendering="auto" />
</g>
<g style="stroke-width:1; stroke-linecap:round; stroke-linejoin:round; fill:#000000; fill-opacity:0.0; stroke:#000000; stroke-opacity:0.0;" transform="translate(0 0) scale(1.00 1.00)">
  <path d="M472.00 262.50 A196.50 196.50 0 0 0 145.84 114.85" shape-rendering="auto" />
</g>
<g style="stroke-width:1; stroke-linecap:round; stroke-linejoin:round; fill:#003F5C; fill-opacity:1.00; stroke:#000000; stroke-opacity:0.0;" transform="translate(0 0) scale(1.00 1.00)">
  <path d="M275 262 L472 262" shape-rendering="auto" />
  <path d="M275 262 L145 114" shape-rendering="auto" />
</g>
<g style="stroke-width:1; stroke-linecap:round; stroke-linejoin:round; fill:#2F4B7C; fill-opacity:1.00; stroke:#000000; stroke-opacity:0.0;" transform="translate(0 0) scale(1.00 1.00)">
  <path d="M145.84 114.85 A196.50 196.50 0 0 0 155.49 418.10 L275.50 262.50 z" shape-rendering="auto" />
</g>
<g style="stroke-width:1; stroke-linecap:round; stroke-linejoin:round; fill:#000000; fill-opacity:0.0; stroke:#000000; stroke-opacity:0.0;" transform="translate(0 0) scale(1.00 1.00)">
  <path d="M145.84 114.85 A196.50 196.50 0 0 0 155.49 418.10" shape-rendering="auto" />
</g>
<g style="stroke-width:1; stroke-linecap:round; stroke-linejoin:round; fill:#2F4B7C; fill-opacity:1.00; stroke:#000000; stroke-opacity:0.0;" transform="translate(0 0) scale(1.00 1.00)">
  <path d="M275 262 L145 114" shape-rendering="auto" />
  <path d="M275 262 L155 418" shape-rendering="auto" />
</g>
<g style="stroke-width:1; stroke-linecap:round; stroke-linejoin:round; fill:#665191; fill-opacity:1.00; stroke:#000000; stroke-opacity:0.0;" transform="translate(0 0) scale(1.00 1.00)">
  <path d="M155.49 418.10 A196.50 196.50 0 0 0 296.45 457.88 L275.50 262.50 z" shape-rendering="auto" />
</g>
<g style="stroke-width:1; stroke-linecap:round; stroke-linejoin:round; fill:#000000; fill-opacity:0.0; stroke:#000000; stroke-opacity:0.0;" transform="translate(0 0) scale(1.00 1.00)">
  <path d="M155.49 418.10 A196.50 196.50 0 0 0 296.45 457.88" shape-rendering="auto" />
</g>
<g style="stroke-width:1; stroke-linecap:round; stroke-linejoin:round; fill:#665191; fill-opacity:1.00; stroke:#000000; stroke-opacity:0.0;" transform="translate(0 0) scale(1.00 1.00)">
  <path d="M275 262 L155 418" shape-rendering="auto" />
  <path d="M275 262 L296 457" shape-rendering="auto" />
</g>
<g style="stroke-width:1; stroke-linecap:round; stroke-linejoin:round; fill:#A05195; fill-opacity:1.00; stroke:#000000; stroke-opacity:0.0;" transform="translate(0 0) scale(1.00 1.00)">
  <path d="M296.45 457.88 A196.50 196.50 0 0 0 472.00 262.50 L275.50 262.50 z" shape-rendering="auto" />
</g>
<g style="stroke-width:1; stroke-linecap:round; stroke-linejoin:round; fill:#000000; fill-opacity:0.0; stroke:#000000; stroke-opacity:0.0;" transform="translate(0 0) scale(1.00 1.00)">
  <path d="M296.45 457.88 A196.50 196.50 0 0 0 472.00 262.50" shape-rendering="auto" />
</g>
<g style="stroke-width:1; stroke-linecap:round; stroke-linejoin:round; fill:#A05195; fill-opacity:1.00; stroke:#000000; stroke-opacity:0.0;" transform="translate(0 0) scale(1.00 1.00)">
  <path d="M275 262 L296 457" shape-rendering="auto" />
  <path d="M275 262 L472 262" shape-rendering="auto" />
</g>
<g style="stroke-width:1; stroke-linecap:round; stroke-linejoin:round; fill:#000000; fill-opacity:1.00; stroke:#000000; stroke-opacity:1.00;" transform="translate(0 0) scale(1.00 1.00)">
  <text x="321.00" y="134.00" textLength="28" style="font-family:Segoe UI; font-weight:400; font-style:normal; font-size:11.03pt; text-decoration: none; fill:#FFFFFF; fill-opacity:1.00; stroke:#FFFFFF; stroke-opacity:1.00; stroke-width:0; white-space: pre;" xml:space="preserve" transform="rotate(0.00 321.00 134.00)">36%</text>
</g>
<g style="stroke-width:1; stroke-linecap:round; stroke-linejoin:round; fill:#000000; fill-opacity:1.00; stroke:#000000; stroke-opacity:1.00;" transform="translate(0 0) scale(1.00 1.00)">
  <text x="114.00" y="272.00" textLength="28" style="font-family:Segoe UI; font-weight:400; font-style:normal; font-size:11.03pt; text-decoration: none; fill:#FFFFFF; fill-opacity:1.00; stroke:#FFFFFF; stroke-opacity:1.00; stroke-width:0; white-space: pre;" xml:space="preserve" transform="rotate(0.00 114.00 272.00)">28%</text>
</g>
<g style="stroke-width:1; stroke-linecap:round; stroke-linejoin:round; fill:#000000; fill-opacity:1.00; stroke:#000000; stroke-opacity:1.00;" transform="translate(0 0) scale(1.00 1.00)">
  <text x="221.00" y="409.00" textLength="28" style="font-family:Segoe UI; font-weight:400; font-style:normal; font-size:11.03pt; text-decoration: none; fill:#FFFFFF; fill-opacity:1.00; stroke:#FFFFFF; stroke-opacity:1.00; stroke-width:0; white-space: pre;" xml:space="preserve" transform="rotate(0.00 221.00 409.00)">12%</text>
</g>
<g style="stroke-width:1; stroke-linecap:round; stroke-linejoin:round; fill:#000000; fill-opacity:1.00; stroke:#000000; stroke-opacity:1.00;" transform="translate(0 0) scale(1.00 1.00)">
  <text x="370.00" y="366.00" textLength="28" style="font-family:Segoe UI; font-weight:400; font-style:normal; font-size:11.03pt; text-decoration: none; fill:#FFFFFF; fill-opacity:1.00; stroke:#FFFFFF; stroke-opacity:1.00; stroke-width:0; white-space: pre;" xml:space="preserve" transform="rotate(0.00 370.00 366.00)">23%</text>
</g>
<g style="stroke-width:1; stroke-linecap:round; stroke-linejoin:round; fill:#000000; fill-opacity:1.00; stroke:#000000; stroke-opacity:1.00;" transform="translate(0 0) scale(1.00 1.00)">
  <text x="6.00" y="455.00" textLength="27" style="font-family:Segoe UI; font-weight:700; font-style:normal; font-size:6.30pt; text-decoration: none; fill:#665191; fill-opacity:1.00; stroke:#665191; stroke-opacity:1.00; stroke-width:0; white-space: pre;" xml:space="preserve" transform="rotate(0.00 6.00 455.00)">English</text>
</g>
<g style="stroke-width:2; stroke-linecap:round; stroke-linejoin:round; fill:#FFFFFF; fill-opacity:1.00; stroke:#B2BEB5; stroke-opacity:0.78;" transform="translate(0 0) scale(1.00 1.00)">
  <path d="M222 451 L222 451" shape-rendering="auto" stroke-dasharray="6.666667,5.333333"/>
  <path d="M222 451 L39 451" shape-rendering="auto" stroke-dasharray="6.666667,5.333333"/>
</g>
<g style="stroke-width:1; stroke-linecap:round; stroke-linejoin:round; fill:#000000; fill-opacity:1.00; stroke:#000000; stroke-opacity:1.00;" transform="translate(0 0) scale(1.00 1.00)">
  <text x="6.00" y="272.00" textLength="66" style="font-family:Segoe UI; font-weight:700; font-style:normal; font-size:6.30pt; text-decoration: none; fill:#2F4B7C; fill-opacity:1.00; stroke:#2F4B7C; stroke-opacity:1.00; stroke-width:0; white-space: pre;" xml:space="preserve" transform="rotate(0.00 6.00 272.00)">Computer Science</text>
</g>
<g style="stroke-width:2; stroke-linecap:round; stroke-linejoin:round; fill:#FFFFFF; fill-opacity:1.00; stroke:#B2BEB5; stroke-opacity:0.78;" transform="translate(0 0) scale(1.00 1.00)">
  <path d="M79 268 L79 268" shape-rendering="auto" stroke-dasharray="6.666667,5.333333"/>
  <path d="M79 268 L78 268" shape-rendering="auto" stroke-dasharray="6.666667,5.333333"/>
</g>
<g style="stroke-width:1; stroke-linecap:round; stroke-linejoin:round; fill:#000000; fill-opacity:1.00; stroke:#000000; stroke-opacity:1.00;" transform="translate(0 0) scale(1.00 1.00)">
  <text x="510.00" y="86.00" textLength="33" style="font-family:Segoe UI; font-weight:700; font-style:normal; font-size:6.30pt; text-decoration: none; fill:#003F5C; fill-opacity:1.00; stroke:#003F5C; stroke-opacity:1.00; stroke-width:0; white-space: pre;" xml:space="preserve" transform="rotate(0.00 510.00 86.00)">Business</text>
</g>
<g style="stroke-width:2; stroke-linecap:round; stroke-linejoin:round; fill:#FFFFFF; fill-opacity:1.00; stroke:#B2BEB5; stroke-opacity:0.78;" transform="translate(0 0) scale(1.00 1.00)">
  <path d="M356 83 L356 83" shape-rendering="auto" stroke-dasharray="6.666667,5.333333"/>
  <path d="M356 83 L504 82" shape-rendering="auto" stroke-dasharray="6.666667,5.333333"/>
</g>
<g style="stroke-width:1; stroke-linecap:round; stroke-linejoin:round; fill:#000000; fill-opacity:1.00; stroke:#000000; stroke-opacity:1.00;" transform="translate(0 0) scale(1.00 1.00)">
  <text x="516.00" y="397.00" textLength="27" style="font-family:Segoe UI; font-weight:700; font-style:normal; font-size:6.30pt; text-decoration: none; fill:#A05195; fill-opacity:1.00; stroke:#A05195; stroke-opacity:1.00; stroke-width:0; white-space: pre;" xml:space="preserve" transform="rotate(0.00 516.00 397.00)">Science</text>
</g>
<g style="stroke-width:2; stroke-linecap:round; stroke-linejoin:round; fill:#FFFFFF; fill-opacity:1.00; stroke:#B2BEB5; stroke-opacity:0.78;" transform="translate(0 0) scale(1.00 1.00)">
  <path d="M421 393 L421 393" shape-rendering="auto" stroke-dasharray="6.666667,5.333333"/>
  <path d="M421 393 L510 393" shape-rendering="auto" stroke-dasharray="6.666667,5.333333"/>
</g>
<g style="stroke-width:1; stroke-linecap:round; stroke-linejoin:round; fill:#FFFFFF; fill-opacity:1.00; stroke:#000000; stroke-opacity:0.0;" transform="translate(0 0) scale(1.00 1.00)">
  <ellipse cx="275.00" cy="262.00" rx="98.00" ry="98.00" shape-rendering="auto" />
</g>
<g style="stroke-width:1; stroke-linecap:round; stroke-linejoin:round; fill:#000000; fill-opacity:1.00; stroke:#000000; stroke-opacity:1.00;" transform="translate(0 0) scale(1.00 1.00)">
  <text x="199.00" y="251.00" textLength="151" style="font-family:Segoe UI; font-weight:400; font-style:normal; font-size:23.00pt; text-decoration: none; fill:#000000; fill-opacity:1.00; stroke:#000000; stroke-opacity:1.00; stroke-width:0; white-space: pre;" xml:space="preserve" transform="rotate(0.00 199.00 251.00)">Enrollment</text>
  <text x="199.00" y="296.00" textLength="187" style="font-family:Segoe UI; font-weight:400; font-style:normal; font-size:23.00pt; text-decoration: none; fill:#000000; fill-opacity:1.00; stroke:#000000; stroke-opacity:1.00; stroke-width:0; white-space: pre;" xml:space="preserve" transform="rotate(0.00 199.00 296.00)">Fall         2023         </text>
</g>
<g style="stroke-width:1; stroke-linecap:round; stroke-linejoin:round; fill:#003F5C; fill-opacity:1.00; stroke:#000000; stroke-opacity:0.0;" transform="translate(0 0) scale(1.00 1.00)">
  <path d="M1031.00 322.50 A205.50 205.50 0 0 0 689.90 168.09 L825.50 322.50 z" shape-rendering="auto" />
</g>
<g style="stroke-width:1; stroke-linecap:round; stroke-linejoin:round; fill:#000000; fill-opacity:0.0; stroke:#000000; stroke-opacity:0.0;" transform="translate(0 0) scale(1.00 1.00)">
  <path d="M1031.00 322.50 A205.50 205.50 0 0 0 689.90 168.09" shape-rendering="auto" />
</g>
<g style="stroke-width:1; stroke-linecap:round; stroke-linejoin:round; fill:#003F5C; fill-opacity:1.00; stroke:#000000; stroke-opacity:0.0;" transform="translate(0 0) scale(1.00 1.00)">
  <path d="M825 322 L1031 322" shape-rendering="auto" />
  <path d="M825 322 L689 168" shape-rendering="auto" />
</g>
<g style="stroke-width:1; stroke-linecap:round; stroke-linejoin:round; fill:#2F4B7C; fill-opacity:1.00; stroke:#000000; stroke-opacity:0.0;" transform="translate(0 0) scale(1.00 1.00)">
  <path d="M689.90 168.09 A205.50 205.50 0 0 0 700.00 485.23 L825.50 322.50 z" shape-rendering="auto" />
</g>
<g style="stroke-width:1; stroke-linecap:round; stroke-linejoin:round; fill:#000000; fill-opacity:0.0; stroke:#000000; stroke-opacity:0.0;" transform="translate(0 0) scale(1.00 1.00)">
  <path d="M689.90 168.09 A205.50 205.50 0 0 0 700.00 485.23" shape-rendering="auto" />
</g>
<g style="stroke-width:1; stroke-linecap:round; stroke-linejoin:round; fill:#2F4B7C; fill-opacity:1.00; stroke:#000000; stroke-opacity:0.0;" transform="translate(0 0) scale(1.00 1.00)">
  <path d="M825 322 L689 168" shape-rendering="auto" />
  <path d="M825 322 L699 485" shape-rendering="auto" />
</g>
<g style="stroke-width:1; stroke-linecap:round; stroke-linejoin:round; fill:#665191; fill-opacity:1.00; stroke:#000000; stroke-opacity:0.0;" transform="translate(0 0) scale(1.00 1.00)">
  <path d="M700.00 485.23 A205.50 205.50 0 0 0 847.41 526.83 L825.50 322.50 z" shape-rendering="auto" />
</g>
<g style="stroke-width:1; stroke-linecap:round; stroke-linejoin:round; fill:#000000; fill-opacity:0.0; stroke:#000000; stroke-opacity:0.0;" transform="translate(0 0) scale(1.00 1.00)">
  <path d="M700.00 485.23 A205.50 205.50 0 0 0 847.41 526.83" shape-rendering="auto" />
</g>
<g style="stroke-width:1; stroke-linecap:round; stroke-linejoin:round; fill:#665191; fill-opacity:1.00; stroke:#000000; stroke-opacity:0.0;" transform="translate(0 0) scale(1.00 1.00)">
  <path d="M825 322 L699 485" shape-rendering="auto" />
  <path d="M825 322 L847 526" shape-rendering="auto" />
</g>
<g style="stroke-width:1; stroke-linecap:round; stroke-linejoin:round; fill:#A05195; fill-opacity:1.00; stroke:#000000; stroke-opacity:0.0;" transform="translate(0 0) scale(1.00 1.00)">
  <path d="M847.41 526.83 A205.50 205.50 0 0 0 1031.00 322.50 L825.50 322.50 z" shape-rendering="auto" />
</g>
<g style="stroke-width:1; stroke-linecap:round; stroke-linejoin:round; fill:#000000; fill-opacity:0.0; stroke:#000000; stroke-opacity:0.0;" transform="translate(0 0) scale(1.00 1.00)">
  <path d="M847.41 526.83 A205.50 205.50 0 0 0 1031.00 322.50" shape-rendering="auto" />
</g>
<g style="stroke-width:1; stroke-linecap:round; stroke-linejoin:round; fill:#A05195; fill-opacity:1.00; stroke:#000000; stroke-opacity:0.0;" transform="translate(0 0) scale(1.00 1.00)">
  <path d="M825 322 L847 526" shape-rendering="auto" />
  <path d="M825 322 L1031 322" shape-rendering="auto" />
</g>
<g style="stroke-width:1; stroke-linecap:round; stroke-linejoin:round; fill:#000000; fill-opacity:1.00; stroke:#000000; stroke-opacity:1.00;" transform="translate(0 0) scale(1.00 1.00)">
  <text x="874.00" y="187.00" textLength="28" style="font-family:Segoe UI; font-weight:400; font-style:normal; font-size:11.03pt; text-decoration: none; fill:#FFFFFF; fill-opacity:1.00; stroke:#FFFFFF; stroke-opacity:1.00; stroke-width:0; white-space: pre;" xml:space="preserve" transform="rotate(0.00 874.00 187.00)">36%</text>
</g>
<g style="stroke-width:1; stroke-linecap:round; stroke-linejoin:round; fill:#000000; fill-opacity:1.00; stroke:#000000; stroke-opacity:1.00;" transform="translate(0 0) scale(1.00 1.00)">
  <text x="657.00" y="332.00" textLength="28" style="font-family:Segoe UI; font-weight:400; font-style:normal; font-size:11.03pt; text-decoration: none; fill:#FFFFFF; fill-opacity:1.00; stroke:#FFFFFF; stroke-opacity:1.00; stroke-width:0; white-space: pre;" xml:space="preserve" transform="rotate(0.00 657.00 332.00)">28%</text>
</g>
<g style="stroke-width:1; stroke-linecap:round; stroke-linejoin:round; fill:#000000; fill-opacity:1.00; stroke:#000000; stroke-opacity:1.00;" transform="translate(0 0) scale(1.00 1.00)">
  <text x="769.00" y="476.00" textLength="28" style="font-family:Segoe UI; font-weight:400; font-style:normal; font-size:11.03pt; text-decoration: none; fill:#FFFFFF; fill-opacity:1.00; stroke:#FFFFFF; stroke-opacity:1.00; stroke-width:0; white-space: pre;" xml:space="preserve" transform="rotate(0.00 769.00 476.00)">12%</text>
</g>
<g style="stroke-width:1; stroke-linecap:round; stroke-linejoin:round; fill:#000000; fill-opacity:1.00; stroke:#000000; stroke-opacity:1.00;" transform="translate(0 0) scale(1.00 1.00)">
  <text x="925.00" y="430.00" textLength="28" style="font-family:Segoe UI; font-weight:400; font-style:normal; font-size:11.03pt; text-decoration: none; fill:#FFFFFF; fill-opacity:1.00; stroke:#FFFFFF; stroke-opacity:1.00; stroke-width:0; white-space: pre;" xml:space="preserve" transform="rotate(0.00 925.00 430.00)">23%</text>
</g>
<g style="stroke-width:1; stroke-linecap:round; stroke-linejoin:round; fill:#19526C; fill-opacity:1.00; stroke:#000000; stroke-opacity:0.0;" transform="translate(0 0) scale(1.00 1.00)">
  <path d="M928.00 322.50 A102.50 102.50 0 0 0 902.67 255.04 L825.50 322.50 z" shape-rendering="auto" />
</g>
<g style="stroke-width:1; stroke-linecap:round; stroke-linejoin:round; fill:#000000; fill-opacity:0.0; stroke:#668B9D; stroke-opacity:1.00;" transform="translate(0 0) scale(1.00 1.00)">
  <path d="M928.00 322.50 A102.50 102.50 0 0 0 902.67 255.04" shape-rendering="auto" />
</g>
<g style="stroke-width:1; stroke-linecap:round; stroke-linejoin:round; fill:#19526C; fill-opacity:1.00; stroke:#668B9D; stroke-opacity:1.00;" transform="translate(0 0) scale(1.00 1.00)">
  <path d="M825 322 L928 322" shape-rendering="auto" />
  <path d="M825 322 L902 255" shape-rendering="auto" />
</g>
<g style="stroke-width:1; stroke-linecap:round; stroke-linejoin:round; fill:#30637A; fill-opacity:1.00; stroke:#000000; stroke-opacity:0.0;" transform="translate(0 0) scale(1.00 1.00)">
  <path d="M902.67 255.04 A102.50 102.50 0 0 0 864.35 227.65 L825.50 322.50 z" shape-rendering="auto" />
</g>
<g style="stroke-width:1; stroke-linecap:round; stroke-linejoin:round; fill:#000000; fill-opacity:0.0; stroke:#668B9D; stroke-opacity:1.00;" transform="translate(0 0) scale(1.00 1.00)">
  <path d="M902.67 255.04 A102.50 102.50 0 0 0 864.35 227.65" shape-rendering="auto" />
</g>
<g style="stroke-width:1; stroke-linecap:round; stroke-linejoin:round; fill:#30637A; fill-opacity:1.00; stroke:#668B9D; stroke-opacity:1.00;" transform="translate(0 0) scale(1.00 1.00)">
  <path d="M825 322 L902 255" shape-rendering="auto" />
  <path d="M825 322 L864 227" shape-rendering="auto" />
</g>
<g style="stroke-width:1; stroke-linecap:round; stroke-linejoin:round; fill:#447287; fill-opacity:1.00; stroke:#000000; stroke-opacity:0.0;" transform="translate(0 0) scale(1.00 1.00)">
  <path d="M864.35 227.65 A102.50 102.50 0 0 0 768.97 237.00 L825.50 322.50 z" shape-rendering="auto" />
</g>
<g style="stroke-width:1; stroke-linecap:round; stroke-linejoin:round; fill:#000000; fill-opacity:0.0; stroke:#668B9D; stroke-opacity:1.00;" transform="translate(0 0) scale(1.00 1.00)">
  <path d="M864.35 227.65 A102.50 102.50 0 0 0 768.97 237.00" shape-rendering="auto" />
</g>
<g style="stroke-width:1; stroke-linecap:round; stroke-linejoin:round; fill:#447287; fill-opacity:1.00; stroke:#668B9D; stroke-opacity:1.00;" transform="translate(0 0) scale(1.00 1.00)">
  <path d="M825 322 L864 227" shape-rendering="auto" />
  <path d="M825 322 L768 237" shape-rendering="auto" />
</g>
<g style="stroke-width:1; stroke-linecap:round; stroke-linejoin:round; fill:#568093; fill-opacity:1.00; stroke:#000000; stroke-opacity:0.0;" transform="translate(0 0) scale(1.00 1.00)">
  <path d="M768.97 237.00 A102.50 102.50 0 0 0 757.87 245.48 L825.50 322.50 z" shape-rendering="auto" />
</g>
<g style="stroke-width:1; stroke-linecap:round; stroke-linejoin:round; fill:#000000; fill-opacity:0.0; stroke:#668B9D; stroke-opacity:1.00;" transform="translate(0 0) scale(1.00 1.00)">
  <path d="M768.97 237.00 A102.50 102.50 0 0 0 757.87 245.48" shape-rendering="auto" />
</g>
<g style="stroke-width:1; stroke-linecap:round; stroke-linejoin:round; fill:#568093; fill-opacity:1.00; stroke:#668B9D; stroke-opacity:1.00;" transform="translate(0 0) scale(1.00 1.00)">
  <path d="M825 322 L768 237" shape-rendering="auto" />
  <path d="M825 322 L757 245" shape-rendering="auto" />
</g>
<g style="stroke-width:1; stroke-linecap:round; stroke-linejoin:round; fill:#586F96; fill-opacity:1.00; stroke:#000000; stroke-opacity:0.0;" transform="translate(0 0) scale(1.00 1.00)">
  <path d="M757.87 245.48 A102.50 102.50 0 0 0 746.22 257.53 L825.50 322.50 z" shape-rendering="auto" />
</g>
<g style="stroke-width:1; stroke-linecap:round; stroke-linejoin:round; fill:#000000; fill-opacity:0.0; stroke:#8293B0; stroke-opacity:1.00;" transform="translate(0 0) scale(1.00 1.00)">
  <path d="M757.87 245.48 A102.50 102.50 0 0 0 746.22 257.53" shape-rendering="auto" />
</g>
<g style="stroke-width:1; stroke-linecap:round; stroke-linejoin:round; fill:#586F96; fill-opacity:1.00; stroke:#8293B0; stroke-opacity:1.00;" transform="translate(0 0) scale(1.00 1.00)">
  <path d="M825 322 L757 245" shape-rendering="auto" />
  <path d="M825 322 L746 257" shape-rendering="auto" />
</g>
<g style="stroke-width:1; stroke-linecap:round; stroke-linejoin:round; fill:#687DA0; fill-opacity:1.00; stroke:#000000; stroke-opacity:0.0;" transform="translate(0 0) scale(1.00 1.00)">
  <path d="M746.22 257.53 A102.50 102.50 0 0 0 726.67 349.67 L825.50 322.50 z" shape-rendering="auto" />
</g>
<g style="stroke-width:1; stroke-linecap:round; stroke-linejoin:round; fill:#000000; fill-opacity:0.0; stroke:#8293B0; stroke-opacity:1.00;" transform="translate(0 0) scale(1.00 1.00)">
  <path d="M746.22 257.53 A102.50 102.50 0 0 0 726.67 349.67" shape-rendering="auto" />
</g>
<g style="stroke-width:1; stroke-linecap:round; stroke-linejoin:round; fill:#687DA0; fill-opacity:1.00; stroke:#8293B0; stroke-opacity:1.00;" transform="translate(0 0) scale(1.00 1.00)">
  <path d="M825 322 L746 257" shape-rendering="auto" />
  <path d="M825 322 L726 349" shape-rendering="auto" />
</g>
<g style="stroke-width:1; stroke-linecap:round; stroke-linejoin:round; fill:#778AA9; fill-opacity:1.00; stroke:#000000; stroke-opacity:0.0;" transform="translate(0 0) scale(1.00 1.00)">
  <path d="M726.67 349.67 A102.50 102.50 0 0 0 745.63 386.75 L825.50 322.50 z" shape-rendering="auto" />
</g>
<g style="stroke-width:1; stroke-linecap:round; stroke-linejoin:round; fill:#000000; fill-opacity:0.0; stroke:#8293B0; stroke-opacity:1.00;" transform="translate(0 0) scale(1.00 1.00)">
  <path d="M726.67 349.67 A102.50 102.50 0 0 0 745.63 386.75" shape-rendering="auto" />
</g>
<g style="stroke-width:1; stroke-linecap:round; stroke-linejoin:round; fill:#778AA9; fill-opacity:1.00; stroke:#8293B0; stroke-opacity:1.00;" transform="translate(0 0) scale(1.00 1.00)">
  <path d="M825 322 L726 349" shape-rendering="auto" />
  <path d="M825 322 L745 386" shape-rendering="auto" />
</g>
<g style="stroke-width:1; stroke-linecap:round; stroke-linejoin:round; fill:#6B7C98; fill-opacity:1.00; stroke:#000000; stroke-opacity:0.0;" transform="translate(0 0) scale(1.00 1.00)">
  <path d="M745.63 386.75 A102.50 102.50 0 0 0 759.99 401.33 L825.50 322.50 z" shape-rendering="auto" />
</g>
<g style="stroke-width:1; stroke-linecap:round; stroke-linejoin:round; fill:#000000; fill-opacity:0.0; stroke:#8293B0; stroke-opacity:1.00;" transform="translate(0 0) scale(1.00 1.00)">
  <path d="M745.63 386.75 A102.50 102.50 0 0 0 759.99 401.33" shape-rendering="auto" />
</g>
<g style="stroke-width:1; stroke-linecap:round; stroke-linejoin:round; fill:#6B7C98; fill-opacity:1.00; stroke:#8293B0; stroke-opacity:1.00;" transform="translate(0 0) scale(1.00 1.00)">
  <path d="M825 322 L745 386" shape-rendering="auto" />
  <path d="M825 322 L759 401" shape-rendering="auto" />
</g>
<g style="stroke-width:1; stroke-linecap:round; stroke-linejoin:round; fill:#7989A2; fill-opacity:1.00; stroke:#000000; stroke-opacity:0.0;" transform="translate(0 0) scale(1.00 1.00)">
  <path d="M759.99 401.33 A102.50 102.50 0 0 0 762.90 403.66 L825.50 322.50 z" shape-rendering="auto" />
</g>
<g style="stroke-width:1; stroke-linecap:round; stroke-linejoin:round; fill:#000000; fill-opacity:0.0; stroke:#8293B0; stroke-opacity:1.00;" transform="translate(0 0) scale(1.00 1.00)">
  <path d="M759.99 401.33 A102.50 102.50 0 0 0 762.90 403.66" shape-rendering="auto" />
</g>
<g style="stroke-width:1; stroke-linecap:round; stroke-linejoin:round; fill:#7989A2; fill-opacity:1.00; stroke:#8293B0; stroke-opacity:1.00;" transform="translate(0 0) scale(1.00 1.00)">
  <path d="M825 322 L759 401" shape-rendering="auto" />
  <path d="M825 322 L762 403" shape-rendering="auto" />
</g>
<g style="stroke-width:1; stroke-linecap:round; stroke-linejoin:round; fill:#8473A7; fill-opacity:1.00; stroke:#000000; stroke-opacity:0.0;" transform="translate(0 0) scale(1.00 1.00)">
  <path d="M762.90 403.66 A102.50 102.50 0 0 0 802.17 422.31 L825.50 322.50 z" shape-rendering="auto" />
</g>
<g style="stroke-width:1; stroke-linecap:round; stroke-linejoin:round; fill:#000000; fill-opacity:0.0; stroke:#A396BD; stroke-opacity:1.00;" transform="translate(0 0) scale(1.00 1.00)">
  <path d="M762.90 403.66 A102.50 102.50 0 0 0 802.17 422.31" shape-rendering="auto" />
</g>
<g style="stroke-width:1; stroke-linecap:round; stroke-linejoin:round; fill:#8473A7; fill-opacity:1.00; stroke:#A396BD; stroke-opacity:1.00;" transform="translate(0 0) scale(1.00 1.00)">
  <path d="M825 322 L762 403" shape-rendering="auto" />
  <path d="M825 322 L802 422" shape-rendering="auto" />
</g>
<g style="stroke-width:1; stroke-linecap:round; stroke-linejoin:round; fill:#9081AF; fill-opacity:1.00; stroke:#000000; stroke-opacity:0.0;" transform="translate(0 0) scale(1.00 1.00)">
  <path d="M802.17 422.31 A102.50 102.50 0 0 0 836.43 424.42 L825.50 322.50 z" shape-rendering="auto" />
</g>
<g style="stroke-width:1; stroke-linecap:round; stroke-linejoin:round; fill:#000000; fill-opacity:0.0; stroke:#A396BD; stroke-opacity:1.00;" transform="translate(0 0) scale(1.00 1.00)">
  <path d="M802.17 422.31 A102.50 102.50 0 0 0 836.43 424.42" shape-rendering="auto" />
</g>
<g style="stroke-width:1; stroke-linecap:round; stroke-linejoin:round; fill:#9081AF; fill-opacity:1.00; stroke:#A396BD; stroke-opacity:1.00;" transform="translate(0 0) scale(1.00 1.00)">
  <path d="M825 322 L802 422" shape-rendering="auto" />
  <path d="M825 322 L836 424" shape-rendering="auto" />
</g>
<g style="stroke-width:1; stroke-linecap:round; stroke-linejoin:round; fill:#B373AA; fill-opacity:1.00; stroke:#000000; stroke-opacity:0.0;" transform="translate(0 0) scale(1.00 1.00)">
  <path d="M836.43 424.42 A102.50 102.50 0 0 0 881.64 408.26 L825.50 322.50 z" shape-rendering="auto" />
</g>
<g style="stroke-width:1; stroke-linecap:round; stroke-linejoin:round; fill:#000000; fill-opacity:0.0; stroke:#C696BF; stroke-opacity:1.00;" transform="translate(0 0) scale(1.00 1.00)">
  <path d="M836.43 424.42 A102.50 102.50 0 0 0 881.64 408.26" shape-rendering="auto" />
</g>
<g style="stroke-width:1; stroke-linecap:round; stroke-linejoin:round; fill:#B373AA; fill-opacity:1.00; stroke:#C696BF; stroke-opacity:1.00;" transform="translate(0 0) scale(1.00 1.00)">
  <path d="M825 322 L836 424" shape-rendering="auto" />
  <path d="M825 322 L881 408" shape-rendering="auto" />
</g>
<g style="stroke-width:1; stroke-linecap:round; stroke-linejoin:round; fill:#A16799; fill-opacity:1.00; stroke:#000000; stroke-opacity:0.0;" transform="translate(0 0) scale(1.00 1.00)">
  <path d="M881.64 408.26 A102.50 102.50 0 0 0 925.96 342.87 L825.50 322.50 z" shape-rendering="auto" />
</g>
<g style="stroke-width:1; stroke-linecap:round; stroke-linejoin:round; fill:#000000; fill-opacity:0.0; stroke:#C696BF; stroke-opacity:1.00;" transform="translate(0 0) scale(1.00 1.00)">
  <path d="M881.64 408.26 A102.50 102.50 0 0 0 925.96 342.87" shape-rendering="auto" />
</g>
<g style="stroke-width:1; stroke-linecap:round; stroke-linejoin:round; fill:#A16799; fill-opacity:1.00; stroke:#C696BF; stroke-opacity:1.00;" transform="translate(0 0) scale(1.00 1.00)">
  <path d="M825 322 L881 408" shape-rendering="auto" />
  <path d="M825 322 L925 342" shape-rendering="auto" />
</g>
<g style="stroke-width:1; stroke-linecap:round; stroke-linejoin:round; fill:#AA76A3; fill-opacity:1.00; stroke:#000000; stroke-opacity:0.0;" transform="translate(0 0) scale(1.00 1.00)">
  <path d="M925.96 342.87 A102.50 102.50 0 0 0 928.00 322.50 L825.50 322.50 z" shape-rendering="auto" />
</g>
<g style="stroke-width:1; stroke-linecap:round; stroke-linejoin:round; fill:#000000; fill-opacity:0.0; stroke:#C696BF; stroke-opacity:1.00;" transform="translate(0 0) scale(1.00 1.00)">
  <path d="M925.96 342.87 A102.50 102.50 0 0 0 928.00 322.50" shape-rendering="auto" />
</g>
<g style="stroke-width:1; stroke-linecap:round; stroke-linejoin:round; fill:#AA76A3; fill-opacity:1.00; stroke:#C696BF; stroke-opacity:1.00;" transform="translate(0 0) scale(1.00 1.00)">
  <path d="M825 322 L925 342" shape-rendering="auto" />
  <path d="M825 322 L928 322" shape-rendering="auto" />
</g>
<g style="stroke-width:1; stroke-linecap:round; stroke-linejoin:round; fill:#000000; fill-opacity:1.00; stroke:#000000; stroke-opacity:1.00;" transform="translate(0 0) scale(1.00 1.00)">
  <text x="562.00" y="521.00" textLength="115" style="font-family:Segoe UI; font-weight:700; font-style:normal; font-size:11.03pt; text-decoration: none; fill:#7989A2; fill-opacity:1.00; stroke:#7989A2; stroke-opacity:1.00; stroke-width:0; white-space: pre;" xml:space="preserve" transform="rotate(0.00 562.00 521.00)">Visual Basic.NET</text>
</g>
<g style="stroke-width:2; stroke-linecap:round; stroke-linejoin:round; fill:#FFFFFF; fill-opacity:1.00; stroke:#B2BEB5; stroke-opacity:0.78;" transform="translate(0 0) scale(1.00 1.00)">
  <path d="M761 402 L684 499" shape-rendering="auto" stroke-dasharray="6.666667,5.333333"/>
</g>
<g style="stroke-width:1; stroke-linecap:round; stroke-linejoin:round; fill:#B2BEB5; fill-opacity:0.78; stroke:#000000; stroke-opacity:0.0;" transform="translate(0 0) scale(1.00 1.00)">
  <polygon points="684 499 686 488 694 494 " shape-rendering="auto"   style="fill-rule:evenodd;"/>
</g>
<g style="stroke-width:1; stroke-linecap:round; stroke-linejoin:round; fill:#000000; fill-opacity:1.00; stroke:#000000; stroke-opacity:1.00;" transform="translate(0 0) scale(1.00 1.00)">
  <text x="862.00" y="309.00" textLength="21" style="font-family:Segoe UI; font-weight:400; font-style:normal; font-size:7.88pt; text-decoration: none; fill:#FFFFFF; fill-opacity:1.00; stroke:#FFFFFF; stroke-opacity:1.00; stroke-width:0; white-space: pre;" xml:space="preserve" transform="rotate(0.00 862.00 309.00)">11%</text>
</g>
<g style="stroke-width:1; stroke-linecap:round; stroke-linejoin:round; fill:#000000; fill-opacity:1.00; stroke:#000000; stroke-opacity:1.00;" transform="translate(0 0) scale(1.00 1.00)">
  <text x="847.00" y="285.00" textLength="15" style="font-family:Segoe UI; font-weight:400; font-style:normal; font-size:7.88pt; text-decoration: none; fill:#FFFFFF; fill-opacity:1.00; stroke:#FFFFFF; stroke-opacity:1.00; stroke-width:0; white-space: pre;" xml:space="preserve" transform="rotate(0.00 847.00 285.00)">7%</text>
</g>
<g style="stroke-width:1; stroke-linecap:round; stroke-linejoin:round; fill:#000000; fill-opacity:1.00; stroke:#000000; stroke-opacity:1.00;" transform="translate(0 0) scale(1.00 1.00)">
  <text x="810.00" y="276.00" textLength="21" style="font-family:Segoe UI; font-weight:400; font-style:normal; font-size:7.88pt; text-decoration: none; fill:#FFFFFF; fill-opacity:1.00; stroke:#FFFFFF; stroke-opacity:1.00; stroke-width:0; white-space: pre;" xml:space="preserve" transform="rotate(0.00 810.00 276.00)">15%</text>
</g>
<g style="stroke-width:1; stroke-linecap:round; stroke-linejoin:round; fill:#000000; fill-opacity:1.00; stroke:#000000; stroke-opacity:1.00;" transform="translate(0 0) scale(1.00 1.00)">
  <text x="765.00" y="316.00" textLength="21" style="font-family:Segoe UI; font-weight:400; font-style:normal; font-size:7.88pt; text-decoration: none; fill:#FFFFFF; fill-opacity:1.00; stroke:#FFFFFF; stroke-opacity:1.00; stroke-width:0; white-space: pre;" xml:space="preserve" transform="rotate(0.00 765.00 316.00)">15%</text>
</g>
<g style="stroke-width:1; stroke-linecap:round; stroke-linejoin:round; fill:#000000; fill-opacity:1.00; stroke:#000000; stroke-opacity:1.00;" transform="translate(0 0) scale(1.00 1.00)">
  <text x="772.00" y="350.00" textLength="15" style="font-family:Segoe UI; font-weight:400; font-style:normal; font-size:7.88pt; text-decoration: none; fill:#000000; fill-opacity:1.00; stroke:#000000; stroke-opacity:1.00; stroke-width:0; white-space: pre;" xml:space="preserve" transform="rotate(0.00 772.00 350.00)">7%</text>
</g>
<g style="stroke-width:1; stroke-linecap:round; stroke-linejoin:round; fill:#000000; fill-opacity:1.00; stroke:#000000; stroke-opacity:1.00;" transform="translate(0 0) scale(1.00 1.00)">
  <text x="796.00" y="373.00" textLength="15" style="font-family:Segoe UI; font-weight:400; font-style:normal; font-size:7.88pt; text-decoration: none; fill:#FFFFFF; fill-opacity:1.00; stroke:#FFFFFF; stroke-opacity:1.00; stroke-width:0; white-space: pre;" xml:space="preserve" transform="rotate(0.00 796.00 373.00)">7%</text>
</g>
<g style="stroke-width:1; stroke-linecap:round; stroke-linejoin:round; fill:#000000; fill-opacity:1.00; stroke:#000000; stroke-opacity:1.00;" transform="translate(0 0) scale(1.00 1.00)">
  <text x="814.00" y="377.00" textLength="15" style="font-family:Segoe UI; font-weight:400; font-style:normal; font-size:7.88pt; text-decoration: none; fill:#000000; fill-opacity:1.00; stroke:#000000; stroke-opacity:1.00; stroke-width:0; white-space: pre;" xml:space="preserve" transform="rotate(0.00 814.00 377.00)">5%</text>
</g>
<g style="stroke-width:1; stroke-linecap:round; stroke-linejoin:round; fill:#000000; fill-opacity:1.00; stroke:#000000; stroke-opacity:1.00;" transform="translate(0 0) scale(1.00 1.00)">
  <text x="835.00" y="375.00" textLength="15" style="font-family:Segoe UI; font-weight:400; font-style:normal; font-size:7.88pt; text-decoration: none; fill:#000000; fill-opacity:1.00; stroke:#000000; stroke-opacity:1.00; stroke-width:0; white-space: pre;" xml:space="preserve" transform="rotate(0.00 835.00 375.00)">8%</text>
</g>
<g style="stroke-width:1; stroke-linecap:round; stroke-linejoin:round; fill:#000000; fill-opacity:1.00; stroke:#000000; stroke-opacity:1.00;" transform="translate(0 0) scale(1.00 1.00)">
  <text x="857.00" y="355.00" textLength="21" style="font-family:Segoe UI; font-weight:400; font-style:normal; font-size:7.88pt; text-decoration: none; fill:#FFFFFF; fill-opacity:1.00; stroke:#FFFFFF; stroke-opacity:1.00; stroke-width:0; white-space: pre;" xml:space="preserve" transform="rotate(0.00 857.00 355.00)">13%</text>
</g>
<g style="stroke-width:1; stroke-linecap:round; stroke-linejoin:round; fill:#000000; fill-opacity:1.00; stroke:#000000; stroke-opacity:1.00;" transform="translate(0 0) scale(1.00 1.00)">
  <text x="10.00" y="566.00" textLength="71" style="font-family:Segoe UI; font-weight:700; font-style:normal; font-size:20.28pt; text-decoration: none; fill:#0000FF; fill-opacity:1.00; stroke:#0000FF; stroke-opacity:1.00; stroke-width:0; white-space: pre;" xml:space="preserve" transform="rotate(0.00 10.00 566.00)">NOTE</text>
  <text x="10.00" y="601.00" textLength="565" style="font-family:Segoe UI; font-weight:400; font-style:normal; font-size:16.90pt; text-decoration: none; fill:#000000; fill-opacity:1.00; stroke:#000000; stroke-opacity:1.00; stroke-width:0; white-space: pre;" xml:space="preserve" transform="rotate(0.00 10.00 601.00)">Should we consider dropping VB.NET from the catalog?</text>
  <text x="10.00" y="635.00" textLength="499" style="font-family:Segoe UI; font-weight:400; font-style:normal; font-size:16.90pt; text-decoration: none; fill:#000000; fill-opacity:1.00; stroke:#000000; stroke-opacity:1.00; stroke-width:0; white-space: pre;" xml:space="preserve" transform="rotate(0.00 10.00 635.00)">Enrollment has been really low the last few years.</text>
</g>
</svg>
