<?xml version="1.0" encoding="UTF-8" standalone="no"?>
<!DOCTYPE svg PUBLIC "-//W3C//DTD SVG 1.0//EN" "http://www.w3.org/TR/2001/REC-SVG-20010904/DTD/svg10.dtd">

<svg xmlns="http://www.w3.org/2000/svg" xmlns:xlink="http://www.w3.org/1999/xlink" width="29.95cm" height="18.34cm" viewBox="0 0 849 520">
<title></title>
<desc>Picture generated by wxSVG v0101</desc>

<g style="fill:black; stroke:black; stroke-width:1">
</g>
<g style="stroke-width:1; stroke-linecap:round; stroke-linejoin:round; fill:#000000; fill-opacity:0.0; stroke:#000000; stroke-opacity:0.0;" transform="translate(0 0) scale(1.00 1.00)">
  <rect x="0" y="0" width="849" height="520" rx="0.00" shape-rendering="auto"  />
</g>
<g style="stroke-width:1; stroke-linecap:round; stroke-linejoin:round; fill:#FFFFFF; fill-opacity:1.00; stroke:#000000; stroke-opacity:1.00;" transform="translate(0 0) scale(1.00 1.00)">
</g>
<g style="stroke-width:1; stroke-linecap:round; stroke-linejoin:round; fill:#FFFFFF; fill-opacity:1.00; stroke:#000000; stroke-opacity:1.00;" transform="translate(0 0) scale(1.00 1.00)">
  <rect x="0" y="0" width="849" height="520" rx="0.00" shape-rendering="auto"  />
</g>
<g style="stroke-width:1; stroke-linecap:round; stroke-linejoin:round; fill:#BA969B; fill-opacity:1.00; stroke:#000000; stroke-opacity:0.0;" transform="translate(0 0) scale(1.00 1.00)">
  <path d="M360.00 191.00 A148.00 148.00 0 0 0 114.34 79.79 L212.00 191.00 z" shape-rendering="auto" />
</g>
<g style="stroke-width:1; stroke-linecap:round; stroke-linejoin:round; fill:#000000; fill-opacity:0.0; stroke:#000000; stroke-opacity:0.0;" transform="translate(0 0) scale(1.00 1.00)">
  <path d="M360.00 191.00 A148.00 148.00 0 0 0 114.34 79.79" shape-rendering="auto" />
</g>
<g style="stroke-width:1; stroke-linecap:round; stroke-linejoin:round; fill:#BA969B; fill-opacity:1.00; stroke:#000000; stroke-opacity:0.0;" transform="translate(0 0) scale(1.00 1.00)">
  <path d="M212 191 L360 191" shape-rendering="auto" />
  <path d="M212 191 L114 79" shape-rendering="auto" />
</g>
<g style="stroke-width:1; stroke-linecap:round; stroke-linejoin:round; fill:#6E5045; fill-opacity:1.00; stroke:#000000; stroke-opacity:0.0;" transform="translate(0 0) scale(1.00 1.00)">
  <path d="M114.34 79.79 A148.00 148.00 0 0 0 121.61 308.19 L212.00 191.00 z" shape-rendering="auto" />
</g>
<g style="stroke-width:1; stroke-linecap:round; stroke-linejoin:round; fill:#000000; fill-opacity:0.0; stroke:#000000; stroke-opacity:0.0;" transform="translate(0 0) scale(1.00 1.00)">
  <path d="M114.34 79.79 A148.00 148.00 0 0 0 121.61 308.19" shape-rendering="auto" />
</g>
<g style="stroke-width:1; stroke-linecap:round; stroke-linejoin:round; fill:#6E5045; fill-opacity:1.00; stroke:#000000; stroke-opacity:0.0;" transform="translate(0 0) scale(1.00 1.00)">
  <path d="M212 191 L114 79" shape-rendering="auto" />
  <path d="M212 191 L121 308" shape-rendering="auto" />
</g>
<g style="stroke-width:1; stroke-linecap:round; stroke-linejoin:round; fill:#CA5045; fill-opacity:1.00; stroke:#000000; stroke-opacity:0.0;" transform="translate(0 0) scale(1.00 1.00)">
  <path d="M121.61 308.19 A148.00 148.00 0 0 0 227.78 338.16 L212.00 191.00 z" shape-rendering="auto" />
</g>
<g style="stroke-width:1; stroke-linecap:round; stroke-linejoin:round; fill:#000000; fill-opacity:0.0; stroke:#000000; stroke-opacity:0.0;" transform="translate(0 0) scale(1.00 1.00)">
  <path d="M121.61 308.19 A148.00 148.00 0 0 0 227.78 338.16" shape-rendering="auto" />
</g>
<g style="stroke-width:1; stroke-linecap:round; stroke-linejoin:round; fill:#CA5045; fill-opacity:1.00; stroke:#000000; stroke-opacity:0.0;" transform="translate(0 0) scale(1.00 1.00)">
  <path d="M212 191 L121 308" shape-rendering="auto" />
  <path d="M212 191 L227 338" shape-rendering="auto" />
</g>
<g style="stroke-width:1; stroke-linecap:round; stroke-linejoin:round; fill:#668391; fill-opacity:1.00; stroke:#000000; stroke-opacity:0.0;" transform="translate(0 0) scale(1.00 1.00)">
  <path d="M227.78 338.16 A148.00 148.00 0 0 0 360.00 191.00 L212.00 191.00 z" shape-rendering="auto" />
</g>
<g style="stroke-width:1; stroke-linecap:round; stroke-linejoin:round; fill:#000000; fill-opacity:0.0; stroke:#000000; stroke-opacity:0.0;" transform="translate(0 0) scale(1.00 1.00)">
  <path d="M227.78 338.16 A148.00 148.00 0 0 0 360.00 191.00" shape-rendering="auto" />
</g>
<g style="stroke-width:1; stroke-linecap:round; stroke-linejoin:round; fill:#668391; fill-opacity:1.00; stroke:#000000; stroke-opacity:0.0;" transform="translate(0 0) scale(1.00 1.00)">
  <path d="M212 191 L227 338" shape-rendering="auto" />
  <path d="M212 191 L360 191" shape-rendering="auto" />
</g>
<g style="stroke-width:1; stroke-linecap:round; stroke-linejoin:round; fill:#000000; fill-opacity:1.00; stroke:#000000; stroke-opacity:1.00;" transform="translate(0 0) scale(1.00 1.00)">
  <text x="243.00" y="95.00" textLength="28" style="font-family:Segoe UI; font-weight:400; font-style:normal; font-size:10.92pt; text-decoration: none; fill:#000000; fill-opacity:1.00; stroke:#000000; stroke-opacity:1.00; stroke-width:0; white-space: pre;" xml:space="preserve" transform="rotate(0.00 243.00 95.00)">36%</text>
</g>
<g style="stroke-width:1; stroke-linecap:round; stroke-linejoin:round; fill:#000000; fill-opacity:1.00; stroke:#000000; stroke-opacity:1.00;" transform="translate(0 0) scale(1.00 1.00)">
  <text x="87.00" y="200.00" textLength="28" style="font-family:Segoe UI; font-weight:400; font-style:normal; font-size:10.92pt; text-decoration: none; fill:#FFFFFF; fill-opacity:1.00; stroke:#FFFFFF; stroke-opacity:1.00; stroke-width:0; white-space: pre;" xml:space="preserve" transform="rotate(0.00 87.00 200.00)">28%</text>
</g>
<g style="stroke-width:1; stroke-linecap:round; stroke-linejoin:round; fill:#000000; fill-opacity:1.00; stroke:#000000; stroke-opacity:1.00;" transform="translate(0 0) scale(1.00 1.00)">
  <text x="167.00" y="303.00" textLength="28" style="font-family:Segoe UI; font-weight:400; font-style:normal; font-size:10.92pt; text-decoration: none; fill:#FFFFFF; fill-opacity:1.00; stroke:#FFFFFF; stroke-opacity:1.00; stroke-width:0; white-space: pre;" xml:space="preserve" transform="rotate(0.00 167.00 303.00)">12%</text>
</g>
<g style="stroke-width:1; stroke-linecap:round; stroke-linejoin:round; fill:#000000; fill-opacity:1.00; stroke:#000000; stroke-opacity:1.00;" transform="translate(0 0) scale(1.00 1.00)">
  <text x="280.00" y="271.00" textLength="28" style="font-family:Segoe UI; font-weight:400; font-style:normal; font-size:10.92pt; text-decoration: none; fill:#FFFFFF; fill-opacity:1.00; stroke:#FFFFFF; stroke-opacity:1.00; stroke-width:0; white-space: pre;" xml:space="preserve" transform="rotate(0.00 280.00 271.00)">23%</text>
</g>
<g style="stroke-width:1; stroke-linecap:round; stroke-linejoin:round; fill:#000000; fill-opacity:1.00; stroke:#000000; stroke-opacity:1.00;" transform="translate(0 0) scale(1.00 1.00)">
  <text x="277.00" y="48.00" textLength="26" style="font-family:Segoe UI; font-weight:700; font-style:normal; font-size:4.85pt; text-decoration: none; fill:#BA969B; fill-opacity:1.00; stroke:#BA969B; stroke-opacity:1.00; stroke-width:0; white-space: pre;" xml:space="preserve" transform="rotate(0.00 277.00 48.00)">Business</text>
</g>
<g style="stroke-width:1; stroke-linecap:round; stroke-linejoin:round; fill:#000000; fill-opacity:1.00; stroke:#000000; stroke-opacity:1.00;" transform="translate(0 0) scale(1.00 1.00)">
  <text x="6.00" y="205.00" textLength="52" style="font-family:Segoe UI; font-weight:700; font-style:normal; font-size:4.85pt; text-decoration: none; fill:#6E5045; fill-opacity:1.00; stroke:#6E5045; stroke-opacity:1.00; stroke-width:0; white-space: pre;" xml:space="preserve" transform="rotate(0.00 6.00 205.00)">Computer Science</text>
</g>
<g style="stroke-width:1; stroke-linecap:round; stroke-linejoin:round; fill:#000000; fill-opacity:1.00; stroke:#000000; stroke-opacity:1.00;" transform="translate(0 0) scale(1.00 1.00)">
  <text x="143.00" y="343.00" textLength="22" style="font-family:Segoe UI; font-weight:700; font-style:normal; font-size:4.85pt; text-decoration: none; fill:#CA5045; fill-opacity:1.00; stroke:#CA5045; stroke-opacity:1.00; stroke-width:0; white-space: pre;" xml:space="preserve" transform="rotate(0.00 143.00 343.00)">English</text>
</g>
<g style="stroke-width:1; stroke-linecap:round; stroke-linejoin:round; fill:#000000; fill-opacity:1.00; stroke:#000000; stroke-opacity:1.00;" transform="translate(0 0) scale(1.00 1.00)">
  <text x="326.00" y="299.00" textLength="21" style="font-family:Segoe UI; font-weight:700; font-style:normal; font-size:4.85pt; text-decoration: none; fill:#668391; fill-opacity:1.00; stroke:#668391; stroke-opacity:1.00; stroke-width:0; white-space: pre;" xml:space="preserve" transform="rotate(0.00 326.00 299.00)">Science</text>
</g>
<g style="stroke-width:1; stroke-linecap:round; stroke-linejoin:round; fill:#FFFFFF; fill-opacity:1.00; stroke:#000000; stroke-opacity:1.00;" transform="translate(0 0) scale(1.00 1.00)">
  <ellipse cx="212.00" cy="191.00" rx="74.00" ry="74.00" shape-rendering="auto" />
</g>
<g style="stroke-width:1; stroke-linecap:round; stroke-linejoin:round; fill:#000000; fill-opacity:1.00; stroke:#000000; stroke-opacity:1.00;" transform="translate(0 0) scale(1.00 1.00)">
  <text x="159.00" y="184.00" textLength="100" style="font-family:Segoe UI; font-weight:400; font-style:normal; font-size:15.99pt; text-decoration: none; fill:#000000; fill-opacity:1.00; stroke:#000000; stroke-opacity:1.00; stroke-width:0; white-space: pre;" xml:space="preserve" transform="rotate(0.00 159.00 184.00)">Enrollment</text>
  <text x="159.00" y="216.00" textLength="135" style="font-family:Segoe UI; font-weight:400; font-style:normal; font-size:15.99pt; text-decoration: none; fill:#000000; fill-opacity:1.00; stroke:#000000; stroke-opacity:1.00; stroke-width:0; white-space: pre;" xml:space="preserve" transform="rotate(0.00 159.00 216.00)">Fall     2023     </text>
</g>
<g style="stroke-width:1; stroke-linecap:round; stroke-linejoin:round; fill:#BA969B; fill-opacity:1.00; stroke:#000000; stroke-opacity:0.0;" transform="translate(0 0) scale(1.00 1.00)">
  <path d="M845.00 252.00 A209.00 209.00 0 0 0 498.09 94.96 L636.00 252.00 z" shape-rendering="auto" />
</g>
<g style="stroke-width:1; stroke-linecap:round; stroke-linejoin:round; fill:#000000; fill-opacity:0.0; stroke:#000000; stroke-opacity:0.0;" transform="translate(0 0) scale(1.00 1.00)">
  <path d="M845.00 252.00 A209.00 209.00 0 0 0 498.09 94.96" shape-rendering="auto" />
</g>
<g style="stroke-width:1; stroke-linecap:round; stroke-linejoin:round; fill:#BA969B; fill-opacity:1.00; stroke:#000000; stroke-opacity:0.0;" transform="translate(0 0) scale(1.00 1.00)">
  <path d="M636 252 L845 252" shape-rendering="auto" />
  <path d="M636 252 L498 94" shape-rendering="auto" />
</g>
<g style="stroke-width:1; stroke-linecap:round; stroke-linejoin:round; fill:#6E5045; fill-opacity:1.00; stroke:#000000; stroke-opacity:0.0;" transform="translate(0 0) scale(1.00 1.00)">
  <path d="M498.09 94.96 A209.00 209.00 0 0 0 508.36 417.50 L636.00 252.00 z" shape-rendering="auto" />
</g>
<g style="stroke-width:1; stroke-linecap:round; stroke-linejoin:round; fill:#000000; fill-opacity:0.0; stroke:#000000; stroke-opacity:0.0;" transform="translate(0 0) scale(1.00 1.00)">
  <path d="M498.09 94.96 A209.00 209.00 0 0 0 508.36 417.50" shape-rendering="auto" />
</g>
<g style="stroke-width:1; stroke-linecap:round; stroke-linejoin:round; fill:#6E5045; fill-opacity:1.00; stroke:#000000; stroke-opacity:0.0;" transform="translate(0 0) scale(1.00 1.00)">
  <path d="M636 252 L498 94" shape-rendering="auto" />
  <path d="M636 252 L508 417" shape-rendering="auto" />
</g>
<g style="stroke-width:1; stroke-linecap:round; stroke-linejoin:round; fill:#CA5045; fill-opacity:1.00; stroke:#000000; stroke-opacity:0.0;" transform="translate(0 0) scale(1.00 1.00)">
  <path d="M508.36 417.50 A209.00 209.00 0 0 0 658.29 459.81 L636.00 252.00 z" shape-rendering="auto" />
</g>
<g style="stroke-width:1; stroke-linecap:round; stroke-linejoin:round; fill:#000000; fill-opacity:0.0; stroke:#000000; stroke-opacity:0.0;" transform="translate(0 0) scale(1.00 1.00)">
  <path d="M508.36 417.50 A209.00 209.00 0 0 0 658.29 459.81" shape-rendering="auto" />
</g>
<g style="stroke-width:1; stroke-linecap:round; stroke-linejoin:round; fill:#CA5045; fill-opacity:1.00; stroke:#000000; stroke-opacity:0.0;" transform="translate(0 0) scale(1.00 1.00)">
  <path d="M636 252 L508 417" shape-rendering="auto" />
  <path d="M636 252 L658 459" shape-rendering="auto" />
</g>
<g style="stroke-width:1; stroke-linecap:round; stroke-linejoin:round; fill:#668391; fill-opacity:1.00; stroke:#000000; stroke-opacity:0.0;" transform="translate(0 0) scale(1.00 1.00)">
  <path d="M658.29 459.81 A209.00 209.00 0 0 0 845.00 252.00 L636.00 252.00 z" shape-rendering="auto" />
</g>
<g style="stroke-width:1; stroke-linecap:round; stroke-linejoin:round; fill:#000000; fill-opacity:0.0; stroke:#000000; stroke-opacity:0.0;" transform="translate(0 0) scale(1.00 1.00)">
  <path d="M658.29 459.81 A209.00 209.00 0 0 0 845.00 252.00" shape-rendering="auto" />
</g>
<g style="stroke-width:1; stroke-linecap:round; stroke-linejoin:round; fill:#668391; fill-opacity:1.00; stroke:#000000; stroke-opacity:0.0;" transform="translate(0 0) scale(1.00 1.00)">
  <path d="M636 252 L658 459" shape-rendering="auto" />
  <path d="M636 252 L845 252" shape-rendering="auto" />
</g>
<g style="stroke-width:1; stroke-linecap:round; stroke-linejoin:round; fill:#000000; fill-opacity:1.00; stroke:#000000; stroke-opacity:1.00;" transform="translate(0 0) scale(1.00 1.00)">
  <text x="686.00" y="114.00" textLength="28" style="font-family:Segoe UI; font-weight:400; font-style:normal; font-size:10.92pt; text-decoration: none; fill:#000000; fill-opacity:1.00; stroke:#000000; stroke-opacity:1.00; stroke-width:0; white-space: pre;" xml:space="preserve" transform="rotate(0.00 686.00 114.00)">36%</text>
</g>
<g style="stroke-width:1; stroke-linecap:round; stroke-linejoin:round; fill:#000000; fill-opacity:1.00; stroke:#000000; stroke-opacity:1.00;" transform="translate(0 0) scale(1.00 1.00)">
  <text x="465.00" y="262.00" textLength="28" style="font-family:Segoe UI; font-weight:400; font-style:normal; font-size:10.92pt; text-decoration: none; fill:#FFFFFF; fill-opacity:1.00; stroke:#FFFFFF; stroke-opacity:1.00; stroke-width:0; white-space: pre;" xml:space="preserve" transform="rotate(0.00 465.00 262.00)">28%</text>
</g>
<g style="stroke-width:1; stroke-linecap:round; stroke-linejoin:round; fill:#000000; fill-opacity:1.00; stroke:#000000; stroke-opacity:1.00;" transform="translate(0 0) scale(1.00 1.00)">
  <text x="578.00" y="408.00" textLength="28" style="font-family:Segoe UI; font-weight:400; font-style:normal; font-size:10.92pt; text-decoration: none; fill:#FFFFFF; fill-opacity:1.00; stroke:#FFFFFF; stroke-opacity:1.00; stroke-width:0; white-space: pre;" xml:space="preserve" transform="rotate(0.00 578.00 408.00)">12%</text>
</g>
<g style="stroke-width:1; stroke-linecap:round; stroke-linejoin:round; fill:#000000; fill-opacity:1.00; stroke:#000000; stroke-opacity:1.00;" transform="translate(0 0) scale(1.00 1.00)">
  <text x="737.00" y="362.00" textLength="28" style="font-family:Segoe UI; font-weight:400; font-style:normal; font-size:10.92pt; text-decoration: none; fill:#FFFFFF; fill-opacity:1.00; stroke:#FFFFFF; stroke-opacity:1.00; stroke-width:0; white-space: pre;" xml:space="preserve" transform="rotate(0.00 737.00 362.00)">23%</text>
</g>
<g style="stroke-width:1; stroke-linecap:round; stroke-linejoin:round; fill:#A7878B; fill-opacity:1.00; stroke:#000000; stroke-opacity:0.0;" transform="translate(0 0) scale(1.00 1.00)">
  <path d="M740.00 251.50 A104.50 104.50 0 0 0 714.18 182.72 L635.50 251.50 z" shape-rendering="auto" />
</g>
<g style="stroke-width:1; stroke-linecap:round; stroke-linejoin:round; fill:#000000; fill-opacity:0.0; stroke:#6F5A5D; stroke-opacity:1.00;" transform="translate(0 0) scale(1.00 1.00)">
  <path d="M740.00 251.50 A104.50 104.50 0 0 0 714.18 182.72" shape-rendering="auto" />
</g>
<g style="stroke-width:1; stroke-linecap:round; stroke-linejoin:round; fill:#A7878B; fill-opacity:1.00; stroke:#6F5A5D; stroke-opacity:1.00;" transform="translate(0 0) scale(1.00 1.00)">
  <path d="M635 251 L740 251" shape-rendering="auto" />
  <path d="M635 251 L714 182" shape-rendering="auto" />
</g>
<g style="stroke-width:1; stroke-linecap:round; stroke-linejoin:round; fill:#96797D; fill-opacity:1.00; stroke:#000000; stroke-opacity:0.0;" transform="translate(0 0) scale(1.00 1.00)">
  <path d="M714.18 182.72 A104.50 104.50 0 0 0 675.11 154.80 L635.50 251.50 z" shape-rendering="auto" />
</g>
<g style="stroke-width:1; stroke-linecap:round; stroke-linejoin:round; fill:#000000; fill-opacity:0.0; stroke:#6F5A5D; stroke-opacity:1.00;" transform="translate(0 0) scale(1.00 1.00)">
  <path d="M714.18 182.72 A104.50 104.50 0 0 0 675.11 154.80" shape-rendering="auto" />
</g>
<g style="stroke-width:1; stroke-linecap:round; stroke-linejoin:round; fill:#96797D; fill-opacity:1.00; stroke:#6F5A5D; stroke-opacity:1.00;" transform="translate(0 0) scale(1.00 1.00)">
  <path d="M635 251 L714 182" shape-rendering="auto" />
  <path d="M635 251 L675 154" shape-rendering="auto" />
</g>
<g style="stroke-width:1; stroke-linecap:round; stroke-linejoin:round; fill:#876C70; fill-opacity:1.00; stroke:#000000; stroke-opacity:0.0;" transform="translate(0 0) scale(1.00 1.00)">
  <path d="M675.11 154.80 A104.50 104.50 0 0 0 577.86 164.33 L635.50 251.50 z" shape-rendering="auto" />
</g>
<g style="stroke-width:1; stroke-linecap:round; stroke-linejoin:round; fill:#000000; fill-opacity:0.0; stroke:#6F5A5D; stroke-opacity:1.00;" transform="translate(0 0) scale(1.00 1.00)">
  <path d="M675.11 154.80 A104.50 104.50 0 0 0 577.86 164.33" shape-rendering="auto" />
</g>
<g style="stroke-width:1; stroke-linecap:round; stroke-linejoin:round; fill:#876C70; fill-opacity:1.00; stroke:#6F5A5D; stroke-opacity:1.00;" transform="translate(0 0) scale(1.00 1.00)">
  <path d="M635 251 L675 154" shape-rendering="auto" />
  <path d="M635 251 L577 164" shape-rendering="auto" />
</g>
<g style="stroke-width:1; stroke-linecap:round; stroke-linejoin:round; fill:#937A7E; fill-opacity:1.00; stroke:#000000; stroke-opacity:0.0;" transform="translate(0 0) scale(1.00 1.00)">
  <path d="M577.86 164.33 A104.50 104.50 0 0 0 566.55 172.98 L635.50 251.50 z" shape-rendering="auto" />
</g>
<g style="stroke-width:1; stroke-linecap:round; stroke-linejoin:round; fill:#000000; fill-opacity:0.0; stroke:#6F5A5D; stroke-opacity:1.00;" transform="translate(0 0) scale(1.00 1.00)">
  <path d="M577.86 164.33 A104.50 104.50 0 0 0 566.55 172.98" shape-rendering="auto" />
</g>
<g style="stroke-width:1; stroke-linecap:round; stroke-linejoin:round; fill:#937A7E; fill-opacity:1.00; stroke:#6F5A5D; stroke-opacity:1.00;" transform="translate(0 0) scale(1.00 1.00)">
  <path d="M635 251 L577 164" shape-rendering="auto" />
  <path d="M635 251 L566 172" shape-rendering="auto" />
</g>
<g style="stroke-width:1; stroke-linecap:round; stroke-linejoin:round; fill:#8B736A; fill-opacity:1.00; stroke:#000000; stroke-opacity:0.0;" transform="translate(0 0) scale(1.00 1.00)">
  <path d="M566.55 172.98 A104.50 104.50 0 0 0 554.67 185.26 L635.50 251.50 z" shape-rendering="auto" />
</g>
<g style="stroke-width:1; stroke-linecap:round; stroke-linejoin:round; fill:#000000; fill-opacity:0.0; stroke:#A8968F; stroke-opacity:1.00;" transform="translate(0 0) scale(1.00 1.00)">
  <path d="M566.55 172.98 A104.50 104.50 0 0 0 554.67 185.26" shape-rendering="auto" />
</g>
<g style="stroke-width:1; stroke-linecap:round; stroke-linejoin:round; fill:#8B736A; fill-opacity:1.00; stroke:#A8968F; stroke-opacity:1.00;" transform="translate(0 0) scale(1.00 1.00)">
  <path d="M635 251 L566 172" shape-rendering="auto" />
  <path d="M635 251 L554 185" shape-rendering="auto" />
</g>
<g style="stroke-width:1; stroke-linecap:round; stroke-linejoin:round; fill:#968178; fill-opacity:1.00; stroke:#000000; stroke-opacity:0.0;" transform="translate(0 0) scale(1.00 1.00)">
  <path d="M554.67 185.26 A104.50 104.50 0 0 0 534.74 279.20 L635.50 251.50 z" shape-rendering="auto" />
</g>
<g style="stroke-width:1; stroke-linecap:round; stroke-linejoin:round; fill:#000000; fill-opacity:0.0; stroke:#A8968F; stroke-opacity:1.00;" transform="translate(0 0) scale(1.00 1.00)">
  <path d="M554.67 185.26 A104.50 104.50 0 0 0 534.74 279.20" shape-rendering="auto" />
</g>
<g style="stroke-width:1; stroke-linecap:round; stroke-linejoin:round; fill:#968178; fill-opacity:1.00; stroke:#A8968F; stroke-opacity:1.00;" transform="translate(0 0) scale(1.00 1.00)">
  <path d="M635 251 L554 185" shape-rendering="auto" />
  <path d="M635 251 L534 279" shape-rendering="auto" />
</g>
<g style="stroke-width:1; stroke-linecap:round; stroke-linejoin:round; fill:#87746C; fill-opacity:1.00; stroke:#000000; stroke-opacity:0.0;" transform="translate(0 0) scale(1.00 1.00)">
  <path d="M534.74 279.20 A104.50 104.50 0 0 0 554.07 317.00 L635.50 251.50 z" shape-rendering="auto" />
</g>
<g style="stroke-width:1; stroke-linecap:round; stroke-linejoin:round; fill:#000000; fill-opacity:0.0; stroke:#A8968F; stroke-opacity:1.00;" transform="translate(0 0) scale(1.00 1.00)">
  <path d="M534.74 279.20 A104.50 104.50 0 0 0 554.07 317.00" shape-rendering="auto" />
</g>
<g style="stroke-width:1; stroke-linecap:round; stroke-linejoin:round; fill:#87746C; fill-opacity:1.00; stroke:#A8968F; stroke-opacity:1.00;" transform="translate(0 0) scale(1.00 1.00)">
  <path d="M635 251 L534 279" shape-rendering="auto" />
  <path d="M635 251 L554 316" shape-rendering="auto" />
</g>
<g style="stroke-width:1; stroke-linecap:round; stroke-linejoin:round; fill:#93817A; fill-opacity:1.00; stroke:#000000; stroke-opacity:0.0;" transform="translate(0 0) scale(1.00 1.00)">
  <path d="M554.07 317.00 A104.50 104.50 0 0 0 568.71 331.87 L635.50 251.50 z" shape-rendering="auto" />
</g>
<g style="stroke-width:1; stroke-linecap:round; stroke-linejoin:round; fill:#000000; fill-opacity:0.0; stroke:#A8968F; stroke-opacity:1.00;" transform="translate(0 0) scale(1.00 1.00)">
  <path d="M554.07 317.00 A104.50 104.50 0 0 0 568.71 331.87" shape-rendering="auto" />
</g>
<g style="stroke-width:1; stroke-linecap:round; stroke-linejoin:round; fill:#93817A; fill-opacity:1.00; stroke:#A8968F; stroke-opacity:1.00;" transform="translate(0 0) scale(1.00 1.00)">
  <path d="M635 251 L554 316" shape-rendering="auto" />
  <path d="M635 251 L568 331" shape-rendering="auto" />
</g>
<g style="stroke-width:1; stroke-linecap:round; stroke-linejoin:round; fill:#84746D; fill-opacity:1.00; stroke:#000000; stroke-opacity:0.0;" transform="translate(0 0) scale(1.00 1.00)">
  <path d="M568.71 331.87 A104.50 104.50 0 0 0 571.68 334.25 L635.50 251.50 z" shape-rendering="auto" />
</g>
<g style="stroke-width:1; stroke-linecap:round; stroke-linejoin:round; fill:#000000; fill-opacity:0.0; stroke:#A8968F; stroke-opacity:1.00;" transform="translate(0 0) scale(1.00 1.00)">
  <path d="M568.71 331.87 A104.50 104.50 0 0 0 571.68 334.25" shape-rendering="auto" />
</g>
<g style="stroke-width:1; stroke-linecap:round; stroke-linejoin:round; fill:#84746D; fill-opacity:1.00; stroke:#A8968F; stroke-opacity:1.00;" transform="translate(0 0) scale(1.00 1.00)">
  <path d="M635 251 L568 331" shape-rendering="auto" />
  <path d="M635 251 L571 334" shape-rendering="auto" />
</g>
<g style="stroke-width:1; stroke-linecap:round; stroke-linejoin:round; fill:#FFFFFF; fill-opacity:1.00; stroke:#C4C3D0; stroke-opacity:0.78;" transform="translate(0 0) scale(1.00 1.00)">
  <path d="M570 333 L493 431" shape-rendering="auto" stroke-dasharray="3.333333,2.666667"/>
</g>
<g style="stroke-width:1; stroke-linecap:round; stroke-linejoin:round; fill:#C4C3D0; fill-opacity:0.78; stroke:#000000; stroke-opacity:0.0;" transform="translate(0 0) scale(1.00 1.00)">
  <polygon points="493 431 495 420 503 426 " shape-rendering="auto"   style="fill-rule:evenodd;"/>
</g>
<g style="stroke-width:1; stroke-linecap:round; stroke-linejoin:round; fill:#FFFFFF; fill-opacity:1.00; stroke:#000000; stroke-opacity:1.00;" transform="translate(0 0) scale(1.00 1.00)">
  <ellipse cx="570.00" cy="333.00" rx="0.00" ry="0.00" shape-rendering="auto" />
</g>
<g style="stroke-width:1; stroke-linecap:round; stroke-linejoin:round; fill:#FFFFFF; fill-opacity:1.00; stroke:#000000; stroke-opacity:1.00;" transform="translate(0 0) scale(1.00 1.00)">
  <ellipse cx="493.00" cy="431.00" rx="0.00" ry="0.00" shape-rendering="auto" />
</g>
<g style="stroke-width:1; stroke-linecap:round; stroke-linejoin:round; fill:#D4736A; fill-opacity:1.00; stroke:#000000; stroke-opacity:0.0;" transform="translate(0 0) scale(1.00 1.00)">
  <path d="M571.68 334.25 A104.50 104.50 0 0 0 611.72 353.26 L635.50 251.50 z" shape-rendering="auto" />
</g>
<g style="stroke-width:1; stroke-linecap:round; stroke-linejoin:round; fill:#000000; fill-opacity:0.0; stroke:#DF968F; stroke-opacity:1.00;" transform="translate(0 0) scale(1.00 1.00)">
  <path d="M571.68 334.25 A104.50 104.50 0 0 0 611.72 353.26" shape-rendering="auto" />
</g>
<g style="stroke-width:1; stroke-linecap:round; stroke-linejoin:round; fill:#D4736A; fill-opacity:1.00; stroke:#DF968F; stroke-opacity:1.00;" transform="translate(0 0) scale(1.00 1.00)">
  <path d="M635 251 L571 334" shape-rendering="auto" />
  <path d="M635 251 L611 353" shape-rendering="auto" />
</g>
<g style="stroke-width:1; stroke-linecap:round; stroke-linejoin:round; fill:#BE675F; fill-opacity:1.00; stroke:#000000; stroke-opacity:0.0;" transform="translate(0 0) scale(1.00 1.00)">
  <path d="M611.72 353.26 A104.50 104.50 0 0 0 646.64 355.40 L635.50 251.50 z" shape-rendering="auto" />
</g>
<g style="stroke-width:1; stroke-linecap:round; stroke-linejoin:round; fill:#000000; fill-opacity:0.0; stroke:#DF968F; stroke-opacity:1.00;" transform="translate(0 0) scale(1.00 1.00)">
  <path d="M611.72 353.26 A104.50 104.50 0 0 0 646.64 355.40" shape-rendering="auto" />
</g>
<g style="stroke-width:1; stroke-linecap:round; stroke-linejoin:round; fill:#BE675F; fill-opacity:1.00; stroke:#DF968F; stroke-opacity:1.00;" transform="translate(0 0) scale(1.00 1.00)">
  <path d="M635 251 L611 353" shape-rendering="auto" />
  <path d="M635 251 L646 355" shape-rendering="auto" />
</g>
<g style="stroke-width:1; stroke-linecap:round; stroke-linejoin:round; fill:#849BA7; fill-opacity:1.00; stroke:#000000; stroke-opacity:0.0;" transform="translate(0 0) scale(1.00 1.00)">
  <path d="M646.64 355.40 A104.50 104.50 0 0 0 692.74 338.93 L635.50 251.50 z" shape-rendering="auto" />
</g>
<g style="stroke-width:1; stroke-linecap:round; stroke-linejoin:round; fill:#000000; fill-opacity:0.0; stroke:#A3B4BD; stroke-opacity:1.00;" transform="translate(0 0) scale(1.00 1.00)">
  <path d="M646.64 355.40 A104.50 104.50 0 0 0 692.74 338.93" shape-rendering="auto" />
</g>
<g style="stroke-width:1; stroke-linecap:round; stroke-linejoin:round; fill:#849BA7; fill-opacity:1.00; stroke:#A3B4BD; stroke-opacity:1.00;" transform="translate(0 0) scale(1.00 1.00)">
  <path d="M635 251 L646 355" shape-rendering="auto" />
  <path d="M635 251 L692 338" shape-rendering="auto" />
</g>
<g style="stroke-width:1; stroke-linecap:round; stroke-linejoin:round; fill:#768B96; fill-opacity:1.00; stroke:#000000; stroke-opacity:0.0;" transform="translate(0 0) scale(1.00 1.00)">
  <path d="M692.74 338.93 A104.50 104.50 0 0 0 737.92 272.27 L635.50 251.50 z" shape-rendering="auto" />
</g>
<g style="stroke-width:1; stroke-linecap:round; stroke-linejoin:round; fill:#000000; fill-opacity:0.0; stroke:#A3B4BD; stroke-opacity:1.00;" transform="translate(0 0) scale(1.00 1.00)">
  <path d="M692.74 338.93 A104.50 104.50 0 0 0 737.92 272.27" shape-rendering="auto" />
</g>
<g style="stroke-width:1; stroke-linecap:round; stroke-linejoin:round; fill:#768B96; fill-opacity:1.00; stroke:#A3B4BD; stroke-opacity:1.00;" transform="translate(0 0) scale(1.00 1.00)">
  <path d="M635 251 L692 338" shape-rendering="auto" />
  <path d="M635 251 L737 272" shape-rendering="auto" />
</g>
<g style="stroke-width:1; stroke-linecap:round; stroke-linejoin:round; fill:#6A7D87; fill-opacity:1.00; stroke:#000000; stroke-opacity:0.0;" transform="translate(0 0) scale(1.00 1.00)">
  <path d="M737.92 272.27 A104.50 104.50 0 0 0 740.00 251.50 L635.50 251.50 z" shape-rendering="auto" />
</g>
<g style="stroke-width:1; stroke-linecap:round; stroke-linejoin:round; fill:#000000; fill-opacity:0.0; stroke:#A3B4BD; stroke-opacity:1.00;" transform="translate(0 0) scale(1.00 1.00)">
  <path d="M737.92 272.27 A104.50 104.50 0 0 0 740.00 251.50" shape-rendering="auto" />
</g>
<g style="stroke-width:1; stroke-linecap:round; stroke-linejoin:round; fill:#6A7D87; fill-opacity:1.00; stroke:#A3B4BD; stroke-opacity:1.00;" transform="translate(0 0) scale(1.00 1.00)">
  <path d="M635 251 L737 272" shape-rendering="auto" />
  <path d="M635 251 L740 251" shape-rendering="auto" />
</g>
<g style="stroke-width:1; stroke-linecap:round; stroke-linejoin:round; fill:#000000; fill-opacity:1.00; stroke:#000000; stroke-opacity:1.00;" transform="translate(0 0) scale(1.00 1.00)">
  <text x="438.00" y="441.00" textLength="49" style="font-family:Segoe UI; font-weight:700; font-style:normal; font-size:4.85pt; text-decoration: none; fill:#84746D; fill-opacity:1.00; stroke:#84746D; stroke-opacity:1.00; stroke-width:0; white-space: pre;" xml:space="preserve" transform="rotate(0.00 438.00 441.00)">Visual Basic.NET</text>
</g>
<g style="stroke-width:1; stroke-linecap:round; stroke-linejoin:round; fill:#000000; fill-opacity:1.00; stroke:#000000; stroke-opacity:1.00;" transform="translate(0 0) scale(1.00 1.00)">
  <text x="674.00" y="236.00" textLength="18" style="font-family:Segoe UI; font-weight:400; font-style:normal; font-size:7.28pt; text-decoration: none; fill:#000000; fill-opacity:1.00; stroke:#000000; stroke-opacity:1.00; stroke-width:0; white-space: pre;" xml:space="preserve" transform="rotate(0.00 674.00 236.00)">11%</text>
</g>
<g style="stroke-width:1; stroke-linecap:round; stroke-linejoin:round; fill:#000000; fill-opacity:1.00; stroke:#000000; stroke-opacity:1.00;" transform="translate(0 0) scale(1.00 1.00)">
  <text x="659.00" y="212.00" textLength="13" style="font-family:Segoe UI; font-weight:400; font-style:normal; font-size:7.28pt; text-decoration: none; fill:#000000; fill-opacity:1.00; stroke:#000000; stroke-opacity:1.00; stroke-width:0; white-space: pre;" xml:space="preserve" transform="rotate(0.00 659.00 212.00)">7%</text>
</g>
<g style="stroke-width:1; stroke-linecap:round; stroke-linejoin:round; fill:#000000; fill-opacity:1.00; stroke:#000000; stroke-opacity:1.00;" transform="translate(0 0) scale(1.00 1.00)">
  <text x="620.00" y="203.00" textLength="18" style="font-family:Segoe UI; font-weight:400; font-style:normal; font-size:7.28pt; text-decoration: none; fill:#FFFFFF; fill-opacity:1.00; stroke:#FFFFFF; stroke-opacity:1.00; stroke-width:0; white-space: pre;" xml:space="preserve" transform="rotate(0.00 620.00 203.00)">15%</text>
</g>
<g style="stroke-width:1; stroke-linecap:round; stroke-linejoin:round; fill:#000000; fill-opacity:1.00; stroke:#000000; stroke-opacity:1.00;" transform="translate(0 0) scale(1.00 1.00)">
  <text x="575.00" y="244.00" textLength="18" style="font-family:Segoe UI; font-weight:400; font-style:normal; font-size:7.28pt; text-decoration: none; fill:#000000; fill-opacity:1.00; stroke:#000000; stroke-opacity:1.00; stroke-width:0; white-space: pre;" xml:space="preserve" transform="rotate(0.00 575.00 244.00)">15%</text>
</g>
<g style="stroke-width:1; stroke-linecap:round; stroke-linejoin:round; fill:#000000; fill-opacity:1.00; stroke:#000000; stroke-opacity:1.00;" transform="translate(0 0) scale(1.00 1.00)">
  <text x="582.00" y="278.00" textLength="13" style="font-family:Segoe UI; font-weight:400; font-style:normal; font-size:7.28pt; text-decoration: none; fill:#FFFFFF; fill-opacity:1.00; stroke:#FFFFFF; stroke-opacity:1.00; stroke-width:0; white-space: pre;" xml:space="preserve" transform="rotate(0.00 582.00 278.00)">7%</text>
</g>
<g style="stroke-width:1; stroke-linecap:round; stroke-linejoin:round; fill:#000000; fill-opacity:1.00; stroke:#000000; stroke-opacity:1.00;" transform="translate(0 0) scale(1.00 1.00)">
  <text x="606.00" y="301.00" textLength="13" style="font-family:Segoe UI; font-weight:400; font-style:normal; font-size:7.28pt; text-decoration: none; fill:#000000; fill-opacity:1.00; stroke:#000000; stroke-opacity:1.00; stroke-width:0; white-space: pre;" xml:space="preserve" transform="rotate(0.00 606.00 301.00)">7%</text>
</g>
<g style="stroke-width:1; stroke-linecap:round; stroke-linejoin:round; fill:#000000; fill-opacity:1.00; stroke:#000000; stroke-opacity:1.00;" transform="translate(0 0) scale(1.00 1.00)">
  <text x="625.00" y="306.00" textLength="13" style="font-family:Segoe UI; font-weight:400; font-style:normal; font-size:7.28pt; text-decoration: none; fill:#000000; fill-opacity:1.00; stroke:#000000; stroke-opacity:1.00; stroke-width:0; white-space: pre;" xml:space="preserve" transform="rotate(0.00 625.00 306.00)">5%</text>
</g>
<g style="stroke-width:1; stroke-linecap:round; stroke-linejoin:round; fill:#000000; fill-opacity:1.00; stroke:#000000; stroke-opacity:1.00;" transform="translate(0 0) scale(1.00 1.00)">
  <text x="646.00" y="303.00" textLength="13" style="font-family:Segoe UI; font-weight:400; font-style:normal; font-size:7.28pt; text-decoration: none; fill:#000000; fill-opacity:1.00; stroke:#000000; stroke-opacity:1.00; stroke-width:0; white-space: pre;" xml:space="preserve" transform="rotate(0.00 646.00 303.00)">8%</text>
</g>
<g style="stroke-width:1; stroke-linecap:round; stroke-linejoin:round; fill:#000000; fill-opacity:1.00; stroke:#000000; stroke-opacity:1.00;" transform="translate(0 0) scale(1.00 1.00)">
  <text x="669.00" y="284.00" textLength="18" style="font-family:Segoe UI; font-weight:400; font-style:normal; font-size:7.28pt; text-decoration: none; fill:#000000; fill-opacity:1.00; stroke:#000000; stroke-opacity:1.00; stroke-width:0; white-space: pre;" xml:space="preserve" transform="rotate(0.00 669.00 284.00)">13%</text>
</g>
<g style="stroke-width:1; stroke-linecap:round; stroke-linejoin:round; fill:#000000; fill-opacity:1.00; stroke:#000000; stroke-opacity:1.00;" transform="translate(0 0) scale(1.00 1.00)">
  <text x="4.00" y="418.00" textLength="40" style="font-family:Segoe UI; font-weight:700; font-style:normal; font-size:10.92pt; text-decoration: none; fill:#0000FF; fill-opacity:1.00; stroke:#0000FF; stroke-opacity:1.00; stroke-width:0; white-space: pre;" xml:space="preserve" transform="rotate(0.00 4.00 418.00)">NOTE</text>
  <text x="4.00" y="440.00" textLength="369" style="font-family:Segoe UI; font-weight:400; font-style:normal; font-size:10.92pt; text-decoration: none; fill:#000000; fill-opacity:1.00; stroke:#000000; stroke-opacity:1.00; stroke-width:0; white-space: pre;" xml:space="preserve" transform="rotate(0.00 4.00 440.00)">Should we consider dropping VB.NET from the catalog?</text>
  <text x="4.00" y="462.00" textLength="324" style="font-family:Segoe UI; font-weight:400; font-style:normal; font-size:10.92pt; text-decoration: none; fill:#000000; fill-opacity:1.00; stroke:#000000; stroke-opacity:1.00; stroke-width:0; white-space: pre;" xml:space="preserve" transform="rotate(0.00 4.00 462.00)">Enrollment has been really low the last few years.</text>
</g>
</svg>
