<?xml version="1.0" encoding="UTF-8" standalone="no"?>
<!DOCTYPE svg PUBLIC "-//W3C//DTD SVG 1.0//EN" "http://www.w3.org/TR/2001/REC-SVG-20010904/DTD/svg10.dtd">

<svg xmlns="http://www.w3.org/2000/svg" xmlns:xlink="http://www.w3.org/1999/xlink" width="25.15cm" height="17.64cm" viewBox="0 0 713 500">
<title></title>
<desc>Picture generated by wxSVG v0101</desc>

<g style="fill:black; stroke:black; stroke-width:1">
</g>
<g style="stroke-width:1; stroke-linecap:round; stroke-linejoin:round; fill:#000000; fill-opacity:0.0; stroke:#000000; stroke-opacity:0.0;" transform="translate(0 0) scale(1.00 1.00)">
  <rect x="0" y="0" width="713" height="500" rx="0.00" shape-rendering="auto"  />
</g>
<g style="stroke-width:1; stroke-linecap:round; stroke-linejoin:round; fill:#FFFFFF; fill-opacity:1.00; stroke:#000000; stroke-opacity:1.00;" transform="translate(0 0) scale(1.00 1.00)">
</g>
<g style="stroke-width:1; stroke-linecap:round; stroke-linejoin:round; fill:#FFFFFF; fill-opacity:1.00; stroke:#000000; stroke-opacity:1.00;" transform="translate(0 0) scale(1.00 1.00)">
  <rect x="0" y="0" width="713" height="500" rx="0.00" shape-rendering="auto"  />
</g>
<g style="stroke-width:1; stroke-linecap:round; stroke-linejoin:round; fill:#BA969B; fill-opacity:1.00; stroke:#000000; stroke-opacity:0.0;" transform="translate(0 0) scale(1.00 1.00)">
  <path d="M477.00 243.00 A206.00 206.00 0 0 0 135.07 88.21 L271.00 243.00 z" shape-rendering="auto" />
</g>
<g style="stroke-width:1; stroke-linecap:round; stroke-linejoin:round; fill:#000000; fill-opacity:0.0; stroke:#000000; stroke-opacity:0.0;" transform="translate(0 0) scale(1.00 1.00)">
  <path d="M477.00 243.00 A206.00 206.00 0 0 0 135.07 88.21" shape-rendering="auto" />
</g>
<g style="stroke-width:1; stroke-linecap:round; stroke-linejoin:round; fill:#BA969B; fill-opacity:1.00; stroke:#000000; stroke-opacity:0.0;" transform="translate(0 0) scale(1.00 1.00)">
  <path d="M271 243 L477 243" shape-rendering="auto" />
  <path d="M271 243 L135 88" shape-rendering="auto" />
</g>
<g style="stroke-width:1; stroke-linecap:round; stroke-linejoin:round; fill:#6E5045; fill-opacity:1.00; stroke:#000000; stroke-opacity:0.0;" transform="translate(0 0) scale(1.00 1.00)">
  <path d="M135.07 88.21 A206.00 206.00 0 0 0 145.19 406.12 L271.00 243.00 z" shape-rendering="auto" />
</g>
<g style="stroke-width:1; stroke-linecap:round; stroke-linejoin:round; fill:#000000; fill-opacity:0.0; stroke:#000000; stroke-opacity:0.0;" transform="translate(0 0) scale(1.00 1.00)">
  <path d="M135.07 88.21 A206.00 206.00 0 0 0 145.19 406.12" shape-rendering="auto" />
</g>
<g style="stroke-width:1; stroke-linecap:round; stroke-linejoin:round; fill:#6E5045; fill-opacity:1.00; stroke:#000000; stroke-opacity:0.0;" transform="translate(0 0) scale(1.00 1.00)">
  <path d="M271 243 L135 88" shape-rendering="auto" />
  <path d="M271 243 L145 406" shape-rendering="auto" />
</g>
<g style="stroke-width:1; stroke-linecap:round; stroke-linejoin:round; fill:#CA5045; fill-opacity:1.00; stroke:#000000; stroke-opacity:0.0;" transform="translate(0 0) scale(1.00 1.00)">
  <path d="M145.19 406.12 A206.00 206.00 0 0 0 292.97 447.83 L271.00 243.00 z" shape-rendering="auto" />
</g>
<g style="stroke-width:1; stroke-linecap:round; stroke-linejoin:round; fill:#000000; fill-opacity:0.0; stroke:#000000; stroke-opacity:0.0;" transform="translate(0 0) scale(1.00 1.00)">
  <path d="M145.19 406.12 A206.00 206.00 0 0 0 292.97 447.83" shape-rendering="auto" />
</g>
<g style="stroke-width:1; stroke-linecap:round; stroke-linejoin:round; fill:#CA5045; fill-opacity:1.00; stroke:#000000; stroke-opacity:0.0;" transform="translate(0 0) scale(1.00 1.00)">
  <path d="M271 243 L145 406" shape-rendering="auto" />
  <path d="M271 243 L292 447" shape-rendering="auto" />
</g>
<g style="stroke-width:1; stroke-linecap:round; stroke-linejoin:round; fill:#668391; fill-opacity:1.00; stroke:#000000; stroke-opacity:0.0;" transform="translate(0 0) scale(1.00 1.00)">
  <path d="M292.97 447.83 A206.00 206.00 0 0 0 477.00 243.00 L271.00 243.00 z" shape-rendering="auto" />
</g>
<g style="stroke-width:1; stroke-linecap:round; stroke-linejoin:round; fill:#000000; fill-opacity:0.0; stroke:#000000; stroke-opacity:0.0;" transform="translate(0 0) scale(1.00 1.00)">
  <path d="M292.97 447.83 A206.00 206.00 0 0 0 477.00 243.00" shape-rendering="auto" />
</g>
<g style="stroke-width:1; stroke-linecap:round; stroke-linejoin:round; fill:#668391; fill-opacity:1.00; stroke:#000000; stroke-opacity:0.0;" transform="translate(0 0) scale(1.00 1.00)">
  <path d="M271 243 L292 447" shape-rendering="auto" />
  <path d="M271 243 L477 243" shape-rendering="auto" />
</g>
<g style="stroke-width:1; stroke-linecap:round; stroke-linejoin:round; fill:#000000; fill-opacity:1.00; stroke:#000000; stroke-opacity:1.00;" transform="translate(0 0) scale(1.00 1.00)">
  <text x="323.00" y="105.00" textLength="22" style="font-family:Segoe UI; font-weight:400; font-style:normal; font-size:9.17pt; text-decoration: none; fill:#000000; fill-opacity:1.00; stroke:#000000; stroke-opacity:1.00; stroke-width:0; white-space: pre;" xml:space="preserve" transform="rotate(0.00 323.00 105.00)">36%</text>
</g>
<g style="stroke-width:1; stroke-linecap:round; stroke-linejoin:round; fill:#000000; fill-opacity:1.00; stroke:#000000; stroke-opacity:1.00;" transform="translate(0 0) scale(1.00 1.00)">
  <text x="105.00" y="251.00" textLength="22" style="font-family:Segoe UI; font-weight:400; font-style:normal; font-size:9.17pt; text-decoration: none; fill:#FFFFFF; fill-opacity:1.00; stroke:#FFFFFF; stroke-opacity:1.00; stroke-width:0; white-space: pre;" xml:space="preserve" transform="rotate(0.00 105.00 251.00)">28%</text>
</g>
<g style="stroke-width:1; stroke-linecap:round; stroke-linejoin:round; fill:#000000; fill-opacity:1.00; stroke:#000000; stroke-opacity:1.00;" transform="translate(0 0) scale(1.00 1.00)">
  <text x="217.00" y="395.00" textLength="22" style="font-family:Segoe UI; font-weight:400; font-style:normal; font-size:9.17pt; text-decoration: none; fill:#FFFFFF; fill-opacity:1.00; stroke:#FFFFFF; stroke-opacity:1.00; stroke-width:0; white-space: pre;" xml:space="preserve" transform="rotate(0.00 217.00 395.00)">12%</text>
</g>
<g style="stroke-width:1; stroke-linecap:round; stroke-linejoin:round; fill:#000000; fill-opacity:1.00; stroke:#000000; stroke-opacity:1.00;" transform="translate(0 0) scale(1.00 1.00)">
  <text x="374.00" y="349.00" textLength="22" style="font-family:Segoe UI; font-weight:400; font-style:normal; font-size:9.17pt; text-decoration: none; fill:#FFFFFF; fill-opacity:1.00; stroke:#FFFFFF; stroke-opacity:1.00; stroke-width:0; white-space: pre;" xml:space="preserve" transform="rotate(0.00 374.00 349.00)">23%</text>
</g>
<g style="stroke-width:1; stroke-linecap:round; stroke-linejoin:round; fill:#A7878B; fill-opacity:1.00; stroke:#000000; stroke-opacity:0.0;" transform="translate(0 0) scale(1.00 1.00)">
  <path d="M374.00 243.00 A103.00 103.00 0 0 0 348.55 175.21 L271.00 243.00 z" shape-rendering="auto" />
</g>
<g style="stroke-width:1; stroke-linecap:round; stroke-linejoin:round; fill:#000000; fill-opacity:0.0; stroke:#6F5A5D; stroke-opacity:1.00;" transform="translate(0 0) scale(1.00 1.00)">
  <path d="M374.00 243.00 A103.00 103.00 0 0 0 348.55 175.21" shape-rendering="auto" />
</g>
<g style="stroke-width:1; stroke-linecap:round; stroke-linejoin:round; fill:#A7878B; fill-opacity:1.00; stroke:#6F5A5D; stroke-opacity:1.00;" transform="translate(0 0) scale(1.00 1.00)">
  <path d="M271 243 L374 243" shape-rendering="auto" />
  <path d="M271 243 L348 175" shape-rendering="auto" />
</g>
<g style="stroke-width:1; stroke-linecap:round; stroke-linejoin:round; fill:#96797D; fill-opacity:1.00; stroke:#000000; stroke-opacity:0.0;" transform="translate(0 0) scale(1.00 1.00)">
  <path d="M348.55 175.21 A103.00 103.00 0 0 0 310.04 147.68 L271.00 243.00 z" shape-rendering="auto" />
</g>
<g style="stroke-width:1; stroke-linecap:round; stroke-linejoin:round; fill:#000000; fill-opacity:0.0; stroke:#6F5A5D; stroke-opacity:1.00;" transform="translate(0 0) scale(1.00 1.00)">
  <path d="M348.55 175.21 A103.00 103.00 0 0 0 310.04 147.68" shape-rendering="auto" />
</g>
<g style="stroke-width:1; stroke-linecap:round; stroke-linejoin:round; fill:#96797D; fill-opacity:1.00; stroke:#6F5A5D; stroke-opacity:1.00;" transform="translate(0 0) scale(1.00 1.00)">
  <path d="M271 243 L348 175" shape-rendering="auto" />
  <path d="M271 243 L310 147" shape-rendering="auto" />
</g>
<g style="stroke-width:1; stroke-linecap:round; stroke-linejoin:round; fill:#876C70; fill-opacity:1.00; stroke:#000000; stroke-opacity:0.0;" transform="translate(0 0) scale(1.00 1.00)">
  <path d="M310.04 147.68 A103.00 103.00 0 0 0 214.19 157.08 L271.00 243.00 z" shape-rendering="auto" />
</g>
<g style="stroke-width:1; stroke-linecap:round; stroke-linejoin:round; fill:#000000; fill-opacity:0.0; stroke:#6F5A5D; stroke-opacity:1.00;" transform="translate(0 0) scale(1.00 1.00)">
  <path d="M310.04 147.68 A103.00 103.00 0 0 0 214.19 157.08" shape-rendering="auto" />
</g>
<g style="stroke-width:1; stroke-linecap:round; stroke-linejoin:round; fill:#876C70; fill-opacity:1.00; stroke:#6F5A5D; stroke-opacity:1.00;" transform="translate(0 0) scale(1.00 1.00)">
  <path d="M271 243 L310 147" shape-rendering="auto" />
  <path d="M271 243 L214 157" shape-rendering="auto" />
</g>
<g style="stroke-width:1; stroke-linecap:round; stroke-linejoin:round; fill:#937A7E; fill-opacity:1.00; stroke:#000000; stroke-opacity:0.0;" transform="translate(0 0) scale(1.00 1.00)">
  <path d="M214.19 157.08 A103.00 103.00 0 0 0 203.04 165.61 L271.00 243.00 z" shape-rendering="auto" />
</g>
<g style="stroke-width:1; stroke-linecap:round; stroke-linejoin:round; fill:#000000; fill-opacity:0.0; stroke:#6F5A5D; stroke-opacity:1.00;" transform="translate(0 0) scale(1.00 1.00)">
  <path d="M214.19 157.08 A103.00 103.00 0 0 0 203.04 165.61" shape-rendering="auto" />
</g>
<g style="stroke-width:1; stroke-linecap:round; stroke-linejoin:round; fill:#937A7E; fill-opacity:1.00; stroke:#6F5A5D; stroke-opacity:1.00;" transform="translate(0 0) scale(1.00 1.00)">
  <path d="M271 243 L214 157" shape-rendering="auto" />
  <path d="M271 243 L203 165" shape-rendering="auto" />
</g>
<g style="stroke-width:1; stroke-linecap:round; stroke-linejoin:round; fill:#8B736A; fill-opacity:1.00; stroke:#000000; stroke-opacity:0.0;" transform="translate(0 0) scale(1.00 1.00)">
  <path d="M203.04 165.61 A103.00 103.00 0 0 0 191.33 177.71 L271.00 243.00 z" shape-rendering="auto" />
</g>
<g style="stroke-width:1; stroke-linecap:round; stroke-linejoin:round; fill:#000000; fill-opacity:0.0; stroke:#A8968F; stroke-opacity:1.00;" transform="translate(0 0) scale(1.00 1.00)">
  <path d="M203.04 165.61 A103.00 103.00 0 0 0 191.33 177.71" shape-rendering="auto" />
</g>
<g style="stroke-width:1; stroke-linecap:round; stroke-linejoin:round; fill:#8B736A; fill-opacity:1.00; stroke:#A8968F; stroke-opacity:1.00;" transform="translate(0 0) scale(1.00 1.00)">
  <path d="M271 243 L203 165" shape-rendering="auto" />
  <path d="M271 243 L191 177" shape-rendering="auto" />
</g>
<g style="stroke-width:1; stroke-linecap:round; stroke-linejoin:round; fill:#968178; fill-opacity:1.00; stroke:#000000; stroke-opacity:0.0;" transform="translate(0 0) scale(1.00 1.00)">
  <path d="M191.33 177.71 A103.00 103.00 0 0 0 171.68 270.30 L271.00 243.00 z" shape-rendering="auto" />
</g>
<g style="stroke-width:1; stroke-linecap:round; stroke-linejoin:round; fill:#000000; fill-opacity:0.0; stroke:#A8968F; stroke-opacity:1.00;" transform="translate(0 0) scale(1.00 1.00)">
  <path d="M191.33 177.71 A103.00 103.00 0 0 0 171.68 270.30" shape-rendering="auto" />
</g>
<g style="stroke-width:1; stroke-linecap:round; stroke-linejoin:round; fill:#968178; fill-opacity:1.00; stroke:#A8968F; stroke-opacity:1.00;" transform="translate(0 0) scale(1.00 1.00)">
  <path d="M271 243 L191 177" shape-rendering="auto" />
  <path d="M271 243 L171 270" shape-rendering="auto" />
</g>
<g style="stroke-width:1; stroke-linecap:round; stroke-linejoin:round; fill:#87746C; fill-opacity:1.00; stroke:#000000; stroke-opacity:0.0;" transform="translate(0 0) scale(1.00 1.00)">
  <path d="M171.68 270.30 A103.00 103.00 0 0 0 190.74 307.56 L271.00 243.00 z" shape-rendering="auto" />
</g>
<g style="stroke-width:1; stroke-linecap:round; stroke-linejoin:round; fill:#000000; fill-opacity:0.0; stroke:#A8968F; stroke-opacity:1.00;" transform="translate(0 0) scale(1.00 1.00)">
  <path d="M171.68 270.30 A103.00 103.00 0 0 0 190.74 307.56" shape-rendering="auto" />
</g>
<g style="stroke-width:1; stroke-linecap:round; stroke-linejoin:round; fill:#87746C; fill-opacity:1.00; stroke:#A8968F; stroke-opacity:1.00;" transform="translate(0 0) scale(1.00 1.00)">
  <path d="M271 243 L171 270" shape-rendering="auto" />
  <path d="M271 243 L190 307" shape-rendering="auto" />
</g>
<g style="stroke-width:1; stroke-linecap:round; stroke-linejoin:round; fill:#93817A; fill-opacity:1.00; stroke:#000000; stroke-opacity:0.0;" transform="translate(0 0) scale(1.00 1.00)">
  <path d="M190.74 307.56 A103.00 103.00 0 0 0 205.17 322.22 L271.00 243.00 z" shape-rendering="auto" />
</g>
<g style="stroke-width:1; stroke-linecap:round; stroke-linejoin:round; fill:#000000; fill-opacity:0.0; stroke:#A8968F; stroke-opacity:1.00;" transform="translate(0 0) scale(1.00 1.00)">
  <path d="M190.74 307.56 A103.00 103.00 0 0 0 205.17 322.22" shape-rendering="auto" />
</g>
<g style="stroke-width:1; stroke-linecap:round; stroke-linejoin:round; fill:#93817A; fill-opacity:1.00; stroke:#A8968F; stroke-opacity:1.00;" transform="translate(0 0) scale(1.00 1.00)">
  <path d="M271 243 L190 307" shape-rendering="auto" />
  <path d="M271 243 L205 322" shape-rendering="auto" />
</g>
<g style="stroke-width:1; stroke-linecap:round; stroke-linejoin:round; fill:#84746D; fill-opacity:1.00; stroke:#000000; stroke-opacity:0.0;" transform="translate(0 0) scale(1.00 1.00)">
  <path d="M205.17 322.22 A103.00 103.00 0 0 0 208.10 324.56 L271.00 243.00 z" shape-rendering="auto" />
</g>
<g style="stroke-width:1; stroke-linecap:round; stroke-linejoin:round; fill:#000000; fill-opacity:0.0; stroke:#A8968F; stroke-opacity:1.00;" transform="translate(0 0) scale(1.00 1.00)">
  <path d="M205.17 322.22 A103.00 103.00 0 0 0 208.10 324.56" shape-rendering="auto" />
</g>
<g style="stroke-width:1; stroke-linecap:round; stroke-linejoin:round; fill:#84746D; fill-opacity:1.00; stroke:#A8968F; stroke-opacity:1.00;" transform="translate(0 0) scale(1.00 1.00)">
  <path d="M271 243 L205 322" shape-rendering="auto" />
  <path d="M271 243 L208 324" shape-rendering="auto" />
</g>
<g style="stroke-width:1; stroke-linecap:round; stroke-linejoin:round; fill:#FFFFFF; fill-opacity:1.00; stroke:#C4C3D0; stroke-opacity:0.78;" transform="translate(0 0) scale(1.00 1.00)">
  <path d="M206 323 L129 420" shape-rendering="auto" stroke-dasharray="3.333333,2.666667"/>
</g>
<g style="stroke-width:1; stroke-linecap:round; stroke-linejoin:round; fill:#C4C3D0; fill-opacity:0.78; stroke:#000000; stroke-opacity:0.0;" transform="translate(0 0) scale(1.00 1.00)">
  <polygon points="129 420 131 409 139 415 " shape-rendering="auto"   style="fill-rule:evenodd;"/>
</g>
<g style="stroke-width:1; stroke-linecap:round; stroke-linejoin:round; fill:#FFFFFF; fill-opacity:1.00; stroke:#000000; stroke-opacity:1.00;" transform="translate(0 0) scale(1.00 1.00)">
  <ellipse cx="206.00" cy="323.00" rx="0.00" ry="0.00" shape-rendering="auto" />
</g>
<g style="stroke-width:1; stroke-linecap:round; stroke-linejoin:round; fill:#FFFFFF; fill-opacity:1.00; stroke:#000000; stroke-opacity:1.00;" transform="translate(0 0) scale(1.00 1.00)">
  <ellipse cx="129.00" cy="420.00" rx="0.00" ry="0.00" shape-rendering="auto" />
</g>
<g style="stroke-width:1; stroke-linecap:round; stroke-linejoin:round; fill:#D4736A; fill-opacity:1.00; stroke:#000000; stroke-opacity:0.0;" transform="translate(0 0) scale(1.00 1.00)">
  <path d="M208.10 324.56 A103.00 103.00 0 0 0 247.56 343.30 L271.00 243.00 z" shape-rendering="auto" />
</g>
<g style="stroke-width:1; stroke-linecap:round; stroke-linejoin:round; fill:#000000; fill-opacity:0.0; stroke:#DF968F; stroke-opacity:1.00;" transform="translate(0 0) scale(1.00 1.00)">
  <path d="M208.10 324.56 A103.00 103.00 0 0 0 247.56 343.30" shape-rendering="auto" />
</g>
<g style="stroke-width:1; stroke-linecap:round; stroke-linejoin:round; fill:#D4736A; fill-opacity:1.00; stroke:#DF968F; stroke-opacity:1.00;" transform="translate(0 0) scale(1.00 1.00)">
  <path d="M271 243 L208 324" shape-rendering="auto" />
  <path d="M271 243 L247 343" shape-rendering="auto" />
</g>
<g style="stroke-width:1; stroke-linecap:round; stroke-linejoin:round; fill:#BE675F; fill-opacity:1.00; stroke:#000000; stroke-opacity:0.0;" transform="translate(0 0) scale(1.00 1.00)">
  <path d="M247.56 343.30 A103.00 103.00 0 0 0 281.98 345.41 L271.00 243.00 z" shape-rendering="auto" />
</g>
<g style="stroke-width:1; stroke-linecap:round; stroke-linejoin:round; fill:#000000; fill-opacity:0.0; stroke:#DF968F; stroke-opacity:1.00;" transform="translate(0 0) scale(1.00 1.00)">
  <path d="M247.56 343.30 A103.00 103.00 0 0 0 281.98 345.41" shape-rendering="auto" />
</g>
<g style="stroke-width:1; stroke-linecap:round; stroke-linejoin:round; fill:#BE675F; fill-opacity:1.00; stroke:#DF968F; stroke-opacity:1.00;" transform="translate(0 0) scale(1.00 1.00)">
  <path d="M271 243 L247 343" shape-rendering="auto" />
  <path d="M271 243 L281 345" shape-rendering="auto" />
</g>
<g style="stroke-width:1; stroke-linecap:round; stroke-linejoin:round; fill:#849BA7; fill-opacity:1.00; stroke:#000000; stroke-opacity:0.0;" transform="translate(0 0) scale(1.00 1.00)">
  <path d="M281.98 345.41 A103.00 103.00 0 0 0 327.42 329.17 L271.00 243.00 z" shape-rendering="auto" />
</g>
<g style="stroke-width:1; stroke-linecap:round; stroke-linejoin:round; fill:#000000; fill-opacity:0.0; stroke:#A3B4BD; stroke-opacity:1.00;" transform="translate(0 0) scale(1.00 1.00)">
  <path d="M281.98 345.41 A103.00 103.00 0 0 0 327.42 329.17" shape-rendering="auto" />
</g>
<g style="stroke-width:1; stroke-linecap:round; stroke-linejoin:round; fill:#849BA7; fill-opacity:1.00; stroke:#A3B4BD; stroke-opacity:1.00;" transform="translate(0 0) scale(1.00 1.00)">
  <path d="M271 243 L281 345" shape-rendering="auto" />
  <path d="M271 243 L327 329" shape-rendering="auto" />
</g>
<g style="stroke-width:1; stroke-linecap:round; stroke-linejoin:round; fill:#768B96; fill-opacity:1.00; stroke:#000000; stroke-opacity:0.0;" transform="translate(0 0) scale(1.00 1.00)">
  <path d="M327.42 329.17 A103.00 103.00 0 0 0 371.95 263.47 L271.00 243.00 z" shape-rendering="auto" />
</g>
<g style="stroke-width:1; stroke-linecap:round; stroke-linejoin:round; fill:#000000; fill-opacity:0.0; stroke:#A3B4BD; stroke-opacity:1.00;" transform="translate(0 0) scale(1.00 1.00)">
  <path d="M327.42 329.17 A103.00 103.00 0 0 0 371.95 263.47" shape-rendering="auto" />
</g>
<g style="stroke-width:1; stroke-linecap:round; stroke-linejoin:round; fill:#768B96; fill-opacity:1.00; stroke:#A3B4BD; stroke-opacity:1.00;" transform="translate(0 0) scale(1.00 1.00)">
  <path d="M271 243 L327 329" shape-rendering="auto" />
  <path d="M271 243 L371 263" shape-rendering="auto" />
</g>
<g style="stroke-width:1; stroke-linecap:round; stroke-linejoin:round; fill:#6A7D87; fill-opacity:1.00; stroke:#000000; stroke-opacity:0.0;" transform="translate(0 0) scale(1.00 1.00)">
  <path d="M371.95 263.47 A103.00 103.00 0 0 0 374.00 243.00 L271.00 243.00 z" shape-rendering="auto" />
</g>
<g style="stroke-width:1; stroke-linecap:round; stroke-linejoin:round; fill:#000000; fill-opacity:0.0; stroke:#A3B4BD; stroke-opacity:1.00;" transform="translate(0 0) scale(1.00 1.00)">
  <path d="M371.95 263.47 A103.00 103.00 0 0 0 374.00 243.00" shape-rendering="auto" />
</g>
<g style="stroke-width:1; stroke-linecap:round; stroke-linejoin:round; fill:#6A7D87; fill-opacity:1.00; stroke:#A3B4BD; stroke-opacity:1.00;" transform="translate(0 0) scale(1.00 1.00)">
  <path d="M271 243 L371 263" shape-rendering="auto" />
  <path d="M271 243 L374 243" shape-rendering="auto" />
</g>
<g style="stroke-width:1; stroke-linecap:round; stroke-linejoin:round; fill:#000000; fill-opacity:1.00; stroke:#000000; stroke-opacity:1.00;" transform="translate(0 0) scale(1.00 1.00)">
  <text x="359.00" y="48.00" textLength="19" style="font-family:Segoe UI; font-weight:700; font-style:normal; font-size:4.07pt; text-decoration: none; fill:#BA969B; fill-opacity:1.00; stroke:#BA969B; stroke-opacity:1.00; stroke-width:0; white-space: pre;" xml:space="preserve" transform="rotate(0.00 359.00 48.00)">Business</text>
</g>
<g style="stroke-width:1; stroke-linecap:round; stroke-linejoin:round; fill:#000000; fill-opacity:1.00; stroke:#000000; stroke-opacity:1.00;" transform="translate(0 0) scale(1.00 1.00)">
  <text x="18.00" y="258.00" textLength="42" style="font-family:Segoe UI; font-weight:700; font-style:normal; font-size:4.07pt; text-decoration: none; fill:#6E5045; fill-opacity:1.00; stroke:#6E5045; stroke-opacity:1.00; stroke-width:0; white-space: pre;" xml:space="preserve" transform="rotate(0.00 18.00 258.00)">Computer Science</text>
</g>
<g style="stroke-width:1; stroke-linecap:round; stroke-linejoin:round; fill:#000000; fill-opacity:1.00; stroke:#000000; stroke-opacity:1.00;" transform="translate(0 0) scale(1.00 1.00)">
  <text x="194.00" y="450.00" textLength="16" style="font-family:Segoe UI; font-weight:700; font-style:normal; font-size:4.07pt; text-decoration: none; fill:#CA5045; fill-opacity:1.00; stroke:#CA5045; stroke-opacity:1.00; stroke-width:0; white-space: pre;" xml:space="preserve" transform="rotate(0.00 194.00 450.00)">English</text>
  <text x="107.00" y="458.00" textLength="103" style="font-family:Segoe UI; font-weight:400; font-style:normal; font-size:4.07pt; text-decoration: none; fill:#666666; fill-opacity:1.00; stroke:#666666; stroke-opacity:1.00; stroke-width:0; white-space: pre;" xml:space="preserve" transform="rotate(0.00 107.00 458.00)">Includes both literary and composition courses</text>
</g>
<g style="stroke-width:1; stroke-linecap:round; stroke-linejoin:round; fill:#000000; fill-opacity:1.00; stroke:#000000; stroke-opacity:1.00;" transform="translate(0 0) scale(1.00 1.00)">
  <text x="428.00" y="389.00" textLength="17" style="font-family:Segoe UI; font-weight:700; font-style:normal; font-size:4.07pt; text-decoration: none; fill:#668391; fill-opacity:1.00; stroke:#668391; stroke-opacity:1.00; stroke-width:0; white-space: pre;" xml:space="preserve" transform="rotate(0.00 428.00 389.00)">Science</text>
</g>
<g style="stroke-width:1; stroke-linecap:round; stroke-linejoin:round; fill:#000000; fill-opacity:1.00; stroke:#000000; stroke-opacity:1.00;" transform="translate(0 0) scale(1.00 1.00)">
  <text x="88.00" y="429.00" textLength="36" style="font-family:Segoe UI; font-weight:700; font-style:normal; font-size:4.07pt; text-decoration: none; fill:#84746D; fill-opacity:1.00; stroke:#84746D; stroke-opacity:1.00; stroke-width:0; white-space: pre;" xml:space="preserve" transform="rotate(0.00 88.00 429.00)">Visual Basic.NET</text>
</g>
<g style="stroke-width:1; stroke-linecap:round; stroke-linejoin:round; fill:#000000; fill-opacity:1.00; stroke:#000000; stroke-opacity:1.00;" transform="translate(0 0) scale(1.00 1.00)">
  <text x="311.00" y="227.00" textLength="14" style="font-family:Segoe UI; font-weight:400; font-style:normal; font-size:5.09pt; text-decoration: none; fill:#000000; fill-opacity:1.00; stroke:#000000; stroke-opacity:1.00; stroke-width:0; white-space: pre;" xml:space="preserve" transform="rotate(0.00 311.00 227.00)">11%</text>
</g>
<g style="stroke-width:1; stroke-linecap:round; stroke-linejoin:round; fill:#000000; fill-opacity:1.00; stroke:#000000; stroke-opacity:1.00;" transform="translate(0 0) scale(1.00 1.00)">
  <text x="295.00" y="203.00" textLength="10" style="font-family:Segoe UI; font-weight:400; font-style:normal; font-size:5.09pt; text-decoration: none; fill:#000000; fill-opacity:1.00; stroke:#000000; stroke-opacity:1.00; stroke-width:0; white-space: pre;" xml:space="preserve" transform="rotate(0.00 295.00 203.00)">7%</text>
</g>
<g style="stroke-width:1; stroke-linecap:round; stroke-linejoin:round; fill:#000000; fill-opacity:1.00; stroke:#000000; stroke-opacity:1.00;" transform="translate(0 0) scale(1.00 1.00)">
  <text x="258.00" y="194.00" textLength="14" style="font-family:Segoe UI; font-weight:400; font-style:normal; font-size:5.09pt; text-decoration: none; fill:#FFFFFF; fill-opacity:1.00; stroke:#FFFFFF; stroke-opacity:1.00; stroke-width:0; white-space: pre;" xml:space="preserve" transform="rotate(0.00 258.00 194.00)">15%</text>
</g>
<g style="stroke-width:1; stroke-linecap:round; stroke-linejoin:round; fill:#000000; fill-opacity:1.00; stroke:#000000; stroke-opacity:1.00;" transform="translate(0 0) scale(1.00 1.00)">
  <text x="213.00" y="234.00" textLength="14" style="font-family:Segoe UI; font-weight:400; font-style:normal; font-size:5.09pt; text-decoration: none; fill:#000000; fill-opacity:1.00; stroke:#000000; stroke-opacity:1.00; stroke-width:0; white-space: pre;" xml:space="preserve" transform="rotate(0.00 213.00 234.00)">15%</text>
</g>
<g style="stroke-width:1; stroke-linecap:round; stroke-linejoin:round; fill:#000000; fill-opacity:1.00; stroke:#000000; stroke-opacity:1.00;" transform="translate(0 0) scale(1.00 1.00)">
  <text x="219.00" y="268.00" textLength="10" style="font-family:Segoe UI; font-weight:400; font-style:normal; font-size:5.09pt; text-decoration: none; fill:#FFFFFF; fill-opacity:1.00; stroke:#FFFFFF; stroke-opacity:1.00; stroke-width:0; white-space: pre;" xml:space="preserve" transform="rotate(0.00 219.00 268.00)">7%</text>
</g>
<g style="stroke-width:1; stroke-linecap:round; stroke-linejoin:round; fill:#000000; fill-opacity:1.00; stroke:#000000; stroke-opacity:1.00;" transform="translate(0 0) scale(1.00 1.00)">
  <text x="243.00" y="292.00" textLength="10" style="font-family:Segoe UI; font-weight:400; font-style:normal; font-size:5.09pt; text-decoration: none; fill:#000000; fill-opacity:1.00; stroke:#000000; stroke-opacity:1.00; stroke-width:0; white-space: pre;" xml:space="preserve" transform="rotate(0.00 243.00 292.00)">7%</text>
</g>
<g style="stroke-width:1; stroke-linecap:round; stroke-linejoin:round; fill:#000000; fill-opacity:1.00; stroke:#000000; stroke-opacity:1.00;" transform="translate(0 0) scale(1.00 1.00)">
  <text x="262.00" y="296.00" textLength="10" style="font-family:Segoe UI; font-weight:400; font-style:normal; font-size:5.09pt; text-decoration: none; fill:#000000; fill-opacity:1.00; stroke:#000000; stroke-opacity:1.00; stroke-width:0; white-space: pre;" xml:space="preserve" transform="rotate(0.00 262.00 296.00)">5%</text>
</g>
<g style="stroke-width:1; stroke-linecap:round; stroke-linejoin:round; fill:#000000; fill-opacity:1.00; stroke:#000000; stroke-opacity:1.00;" transform="translate(0 0) scale(1.00 1.00)">
  <text x="282.00" y="293.00" textLength="10" style="font-family:Segoe UI; font-weight:400; font-style:normal; font-size:5.09pt; text-decoration: none; fill:#000000; fill-opacity:1.00; stroke:#000000; stroke-opacity:1.00; stroke-width:0; white-space: pre;" xml:space="preserve" transform="rotate(0.00 282.00 293.00)">8%</text>
</g>
<g style="stroke-width:1; stroke-linecap:round; stroke-linejoin:round; fill:#000000; fill-opacity:1.00; stroke:#000000; stroke-opacity:1.00;" transform="translate(0 0) scale(1.00 1.00)">
  <text x="306.00" y="274.00" textLength="14" style="font-family:Segoe UI; font-weight:400; font-style:normal; font-size:5.09pt; text-decoration: none; fill:#000000; fill-opacity:1.00; stroke:#000000; stroke-opacity:1.00; stroke-width:0; white-space: pre;" xml:space="preserve" transform="rotate(0.00 306.00 274.00)">13%</text>
</g>
<g style="stroke-width:1; stroke-linecap:round; stroke-linejoin:round; fill:#000000; fill-opacity:1.00; stroke:#000000; stroke-opacity:1.00;" transform="translate(0 0) scale(1.00 1.00)">
  <text x="316.00" y="250.00" textLength="10" style="font-family:Segoe UI; font-weight:400; font-style:normal; font-size:5.09pt; text-decoration: none; fill:#FFFFFF; fill-opacity:1.00; stroke:#FFFFFF; stroke-opacity:1.00; stroke-width:0; white-space: pre;" xml:space="preserve" transform="rotate(0.00 316.00 250.00)">3%</text>
</g>
<g style="stroke-width:1; stroke-linecap:round; stroke-linejoin:round; fill:#000000; fill-opacity:1.00; stroke:#000000; stroke-opacity:1.00;" transform="translate(0 0) scale(1.00 1.00)">
  <text x="542.00" y="20.00" textLength="45" style="font-family:Segoe UI; font-weight:400; font-style:normal; font-size:9.11pt; text-decoration: none; fill:#000000; fill-opacity:1.00; stroke:#000000; stroke-opacity:1.00; stroke-width:0; white-space: pre;" xml:space="preserve" transform="rotate(0.00 542.00 20.00)">Business</text>
  <text x="560.00" y="37.00" textLength="3" style="font-family:Segoe UI; font-weight:400; font-style:normal; font-size:9.11pt; text-decoration: none; fill:#000000; fill-opacity:1.00; stroke:#000000; stroke-opacity:1.00; stroke-width:0; white-space: pre;" xml:space="preserve" transform="rotate(0.00 560.00 37.00)"> </text>
  <text x="560.00" y="54.00" textLength="135" style="font-family:Segoe UI; font-weight:400; font-style:normal; font-size:9.11pt; text-decoration: none; fill:#000000; fill-opacity:1.00; stroke:#000000; stroke-opacity:1.00; stroke-width:0; white-space: pre;" xml:space="preserve" transform="rotate(0.00 560.00 54.00)">Business Communication</text>
  <text x="560.00" y="71.00" textLength="79" style="font-family:Segoe UI; font-weight:400; font-style:normal; font-size:9.11pt; text-decoration: none; fill:#000000; fill-opacity:1.00; stroke:#000000; stroke-opacity:1.00; stroke-width:0; white-space: pre;" xml:space="preserve" transform="rotate(0.00 560.00 71.00)">Business Ethics</text>
  <text x="560.00" y="88.00" textLength="141" style="font-family:Segoe UI; font-weight:400; font-style:normal; font-size:9.11pt; text-decoration: none; fill:#000000; fill-opacity:1.00; stroke:#000000; stroke-opacity:1.00; stroke-width:0; white-space: pre;" xml:space="preserve" transform="rotate(0.00 560.00 88.00)">Introduction to Economics</text>
  <text x="560.00" y="105.00" textLength="77" style="font-family:Segoe UI; font-weight:400; font-style:normal; font-size:9.11pt; text-decoration: none; fill:#000000; fill-opacity:1.00; stroke:#000000; stroke-opacity:1.00; stroke-width:0; white-space: pre;" xml:space="preserve" transform="rotate(0.00 560.00 105.00)">Report Writing</text>
  <text x="542.00" y="122.00" textLength="97" style="font-family:Segoe UI; font-weight:400; font-style:normal; font-size:9.11pt; text-decoration: none; fill:#000000; fill-opacity:1.00; stroke:#000000; stroke-opacity:1.00; stroke-width:0; white-space: pre;" xml:space="preserve" transform="rotate(0.00 542.00 122.00)">Computer Science</text>
  <text x="560.00" y="139.00" textLength="3" style="font-family:Segoe UI; font-weight:400; font-style:normal; font-size:9.11pt; text-decoration: none; fill:#000000; fill-opacity:1.00; stroke:#000000; stroke-opacity:1.00; stroke-width:0; white-space: pre;" xml:space="preserve" transform="rotate(0.00 560.00 139.00)"> </text>
  <text x="560.00" y="156.00" textLength="80" style="font-family:Segoe UI; font-weight:400; font-style:normal; font-size:9.11pt; text-decoration: none; fill:#000000; fill-opacity:1.00; stroke:#000000; stroke-opacity:1.00; stroke-width:0; white-space: pre;" xml:space="preserve" transform="rotate(0.00 560.00 156.00)">Advanced C++</text>
  <text x="560.00" y="173.00" textLength="24" style="font-family:Segoe UI; font-weight:400; font-style:normal; font-size:9.11pt; text-decoration: none; fill:#000000; fill-opacity:1.00; stroke:#000000; stroke-opacity:1.00; stroke-width:0; white-space: pre;" xml:space="preserve" transform="rotate(0.00 560.00 173.00)">C++</text>
  <text x="560.00" y="190.00" textLength="39" style="font-family:Segoe UI; font-weight:400; font-style:normal; font-size:9.11pt; text-decoration: none; fill:#000000; fill-opacity:1.00; stroke:#000000; stroke-opacity:1.00; stroke-width:0; white-space: pre;" xml:space="preserve" transform="rotate(0.00 560.00 190.00)">COBOL</text>
  <text x="560.00" y="207.00" textLength="141" style="font-family:Segoe UI; font-weight:400; font-style:normal; font-size:9.11pt; text-decoration: none; fill:#000000; fill-opacity:1.00; stroke:#000000; stroke-opacity:1.00; stroke-width:0; white-space: pre;" xml:space="preserve" transform="rotate(0.00 560.00 207.00)">Introduction to wxWidgets</text>
  <text x="560.00" y="224.00" textLength="85" style="font-family:Segoe UI; font-weight:400; font-style:normal; font-size:9.11pt; text-decoration: none; fill:#000000; fill-opacity:1.00; stroke:#000000; stroke-opacity:1.00; stroke-width:0; white-space: pre;" xml:space="preserve" transform="rotate(0.00 560.00 224.00)">Visual Basic.NET</text>
  <text x="542.00" y="241.00" textLength="38" style="font-family:Segoe UI; font-weight:400; font-style:normal; font-size:9.11pt; text-decoration: none; fill:#000000; fill-opacity:1.00; stroke:#000000; stroke-opacity:1.00; stroke-width:0; white-space: pre;" xml:space="preserve" transform="rotate(0.00 542.00 241.00)">English</text>
  <text x="560.00" y="258.00" textLength="3" style="font-family:Segoe UI; font-weight:400; font-style:normal; font-size:9.11pt; text-decoration: none; fill:#000000; fill-opacity:1.00; stroke:#000000; stroke-opacity:1.00; stroke-width:0; white-space: pre;" xml:space="preserve" transform="rotate(0.00 560.00 258.00)"> </text>
  <text x="560.00" y="275.00" textLength="85" style="font-family:Segoe UI; font-weight:400; font-style:normal; font-size:9.11pt; text-decoration: none; fill:#000000; fill-opacity:1.00; stroke:#000000; stroke-opacity:1.00; stroke-width:0; white-space: pre;" xml:space="preserve" transform="rotate(0.00 560.00 275.00)">Creative Writing</text>
  <text x="560.00" y="292.00" textLength="96" style="font-family:Segoe UI; font-weight:400; font-style:normal; font-size:9.11pt; text-decoration: none; fill:#000000; fill-opacity:1.00; stroke:#000000; stroke-opacity:1.00; stroke-width:0; white-space: pre;" xml:space="preserve" transform="rotate(0.00 560.00 292.00)">Western Literature</text>
  <text x="542.00" y="309.00" textLength="40" style="font-family:Segoe UI; font-weight:400; font-style:normal; font-size:9.11pt; text-decoration: none; fill:#000000; fill-opacity:1.00; stroke:#000000; stroke-opacity:1.00; stroke-width:0; white-space: pre;" xml:space="preserve" transform="rotate(0.00 542.00 309.00)">Science</text>
  <text x="560.00" y="326.00" textLength="3" style="font-family:Segoe UI; font-weight:400; font-style:normal; font-size:9.11pt; text-decoration: none; fill:#000000; fill-opacity:1.00; stroke:#000000; stroke-opacity:1.00; stroke-width:0; white-space: pre;" xml:space="preserve" transform="rotate(0.00 560.00 326.00)"> </text>
  <text x="560.00" y="343.00" textLength="129" style="font-family:Segoe UI; font-weight:400; font-style:normal; font-size:9.11pt; text-decoration: none; fill:#000000; fill-opacity:1.00; stroke:#000000; stroke-opacity:1.00; stroke-width:0; white-space: pre;" xml:space="preserve" transform="rotate(0.00 560.00 343.00)">Anatomy &amp; Physiology I</text>
  <text x="560.00" y="360.00" textLength="105" style="font-family:Segoe UI; font-weight:400; font-style:normal; font-size:9.11pt; text-decoration: none; fill:#000000; fill-opacity:1.00; stroke:#000000; stroke-opacity:1.00; stroke-width:0; white-space: pre;" xml:space="preserve" transform="rotate(0.00 560.00 360.00)">Organic Chemistry I</text>
  <text x="560.00" y="377.00" textLength="108" style="font-family:Segoe UI; font-weight:400; font-style:normal; font-size:9.11pt; text-decoration: none; fill:#000000; fill-opacity:1.00; stroke:#000000; stroke-opacity:1.00; stroke-width:0; white-space: pre;" xml:space="preserve" transform="rotate(0.00 560.00 377.00)">Organic Chemistry II</text>
</g>
<g style="stroke-width:1; stroke-linecap:round; stroke-linejoin:round; fill:#000000; fill-opacity:1.00; stroke:#000000; stroke-opacity:1.00;" transform="translate(0 0) scale(1.00 1.00)">
  <path d="M544 32 L710 32" shape-rendering="auto" />
</g>
<g style="stroke-width:1; stroke-linecap:round; stroke-linejoin:round; fill:#A7878B; fill-opacity:1.00; stroke:#000000; stroke-opacity:1.00;" transform="translate(0 0) scale(1.00 1.00)">
  <polygon points="553 49 545 53 545 45 " shape-rendering="auto"   style="fill-rule:evenodd;"/>
</g>
<g style="stroke-width:1; stroke-linecap:round; stroke-linejoin:round; fill:#96797D; fill-opacity:1.00; stroke:#000000; stroke-opacity:1.00;" transform="translate(0 0) scale(1.00 1.00)">
  <polygon points="553 66 545 70 545 62 " shape-rendering="auto"   style="fill-rule:evenodd;"/>
</g>
<g style="stroke-width:1; stroke-linecap:round; stroke-linejoin:round; fill:#876C70; fill-opacity:1.00; stroke:#000000; stroke-opacity:1.00;" transform="translate(0 0) scale(1.00 1.00)">
  <polygon points="553 83 545 87 545 79 " shape-rendering="auto"   style="fill-rule:evenodd;"/>
</g>
<g style="stroke-width:1; stroke-linecap:round; stroke-linejoin:round; fill:#937A7E; fill-opacity:1.00; stroke:#000000; stroke-opacity:1.00;" transform="translate(0 0) scale(1.00 1.00)">
  <polygon points="553 100 545 104 545 96 " shape-rendering="auto"   style="fill-rule:evenodd;"/>
</g>
<g style="stroke-width:1; stroke-linecap:round; stroke-linejoin:round; fill:#000000; fill-opacity:1.00; stroke:#000000; stroke-opacity:1.00;" transform="translate(0 0) scale(1.00 1.00)">
  <path d="M544 134 L710 134" shape-rendering="auto" />
</g>
<g style="stroke-width:1; stroke-linecap:round; stroke-linejoin:round; fill:#8B736A; fill-opacity:1.00; stroke:#000000; stroke-opacity:1.00;" transform="translate(0 0) scale(1.00 1.00)">
  <polygon points="553 151 545 155 545 147 " shape-rendering="auto"   style="fill-rule:evenodd;"/>
</g>
<g style="stroke-width:1; stroke-linecap:round; stroke-linejoin:round; fill:#968178; fill-opacity:1.00; stroke:#000000; stroke-opacity:1.00;" transform="translate(0 0) scale(1.00 1.00)">
  <polygon points="553 168 545 172 545 164 " shape-rendering="auto"   style="fill-rule:evenodd;"/>
</g>
<g style="stroke-width:1; stroke-linecap:round; stroke-linejoin:round; fill:#87746C; fill-opacity:1.00; stroke:#000000; stroke-opacity:1.00;" transform="translate(0 0) scale(1.00 1.00)">
  <polygon points="553 185 545 189 545 181 " shape-rendering="auto"   style="fill-rule:evenodd;"/>
</g>
<g style="stroke-width:1; stroke-linecap:round; stroke-linejoin:round; fill:#93817A; fill-opacity:1.00; stroke:#000000; stroke-opacity:1.00;" transform="translate(0 0) scale(1.00 1.00)">
  <polygon points="553 202 545 206 545 198 " shape-rendering="auto"   style="fill-rule:evenodd;"/>
</g>
<g style="stroke-width:1; stroke-linecap:round; stroke-linejoin:round; fill:#84746D; fill-opacity:1.00; stroke:#000000; stroke-opacity:1.00;" transform="translate(0 0) scale(1.00 1.00)">
  <polygon points="553 219 545 223 545 215 " shape-rendering="auto"   style="fill-rule:evenodd;"/>
</g>
<g style="stroke-width:1; stroke-linecap:round; stroke-linejoin:round; fill:#000000; fill-opacity:1.00; stroke:#000000; stroke-opacity:1.00;" transform="translate(0 0) scale(1.00 1.00)">
  <path d="M544 253 L710 253" shape-rendering="auto" />
</g>
<g style="stroke-width:1; stroke-linecap:round; stroke-linejoin:round; fill:#D4736A; fill-opacity:1.00; stroke:#000000; stroke-opacity:1.00;" transform="translate(0 0) scale(1.00 1.00)">
  <polygon points="553 270 545 274 545 266 " shape-rendering="auto"   style="fill-rule:evenodd;"/>
</g>
<g style="stroke-width:1; stroke-linecap:round; stroke-linejoin:round; fill:#BE675F; fill-opacity:1.00; stroke:#000000; stroke-opacity:1.00;" transform="translate(0 0) scale(1.00 1.00)">
  <polygon points="553 287 545 291 545 283 " shape-rendering="auto"   style="fill-rule:evenodd;"/>
</g>
<g style="stroke-width:1; stroke-linecap:round; stroke-linejoin:round; fill:#000000; fill-opacity:1.00; stroke:#000000; stroke-opacity:1.00;" transform="translate(0 0) scale(1.00 1.00)">
  <path d="M544 321 L710 321" shape-rendering="auto" />
</g>
<g style="stroke-width:1; stroke-linecap:round; stroke-linejoin:round; fill:#849BA7; fill-opacity:1.00; stroke:#000000; stroke-opacity:1.00;" transform="translate(0 0) scale(1.00 1.00)">
  <polygon points="553 338 545 342 545 334 " shape-rendering="auto"   style="fill-rule:evenodd;"/>
</g>
<g style="stroke-width:1; stroke-linecap:round; stroke-linejoin:round; fill:#768B96; fill-opacity:1.00; stroke:#000000; stroke-opacity:1.00;" transform="translate(0 0) scale(1.00 1.00)">
  <polygon points="553 355 545 359 545 351 " shape-rendering="auto"   style="fill-rule:evenodd;"/>
</g>
<g style="stroke-width:1; stroke-linecap:round; stroke-linejoin:round; fill:#6A7D87; fill-opacity:1.00; stroke:#000000; stroke-opacity:1.00;" transform="translate(0 0) scale(1.00 1.00)">
  <polygon points="553 372 545 376 545 368 " shape-rendering="auto"   style="fill-rule:evenodd;"/>
</g>
</svg>
