<?xml version="1.0" encoding="UTF-8" standalone="no"?>
<!DOCTYPE svg PUBLIC "-//W3C//DTD SVG 1.0//EN" "http://www.w3.org/TR/2001/REC-SVG-20010904/DTD/svg10.dtd">

<svg xmlns="http://www.w3.org/2000/svg" xmlns:xlink="http://www.w3.org/1999/xlink" width="35.74cm" height="22.33cm" viewBox="0 0 1013 633">
<title>panel</title>
<desc>Picture generated by wxSVG v0101</desc>

<g style="fill:black; stroke:black; stroke-width:1">
</g>
<g style="stroke-width:1; stroke-linecap:round; stroke-linejoin:round; fill:#000000; fill-opacity:0.0; stroke:#000000; stroke-opacity:0.0;" transform="translate(0 0) scale(1.00 1.00)">
  <rect x="0" y="0" width="1013" height="633" rx="0.00" shape-rendering="auto"  />
</g>
<g style="stroke-width:1; stroke-linecap:round; stroke-linejoin:round; fill:#FFFFFF; fill-opacity:1.00; stroke:#000000; stroke-opacity:1.00;" transform="translate(0 0) scale(1.00 1.00)">
</g>
<g style="stroke-width:1; stroke-linecap:round; stroke-linejoin:round; fill:#FFFFFF; fill-opacity:1.00; stroke:#000000; stroke-opacity:1.00;" transform="translate(0 0) scale(1.00 1.00)">
  <rect x="0" y="0" width="1013" height="633" rx="0.00" shape-rendering="auto"  />
</g>
<g style="stroke-width:1; stroke-linecap:round; stroke-linejoin:round; fill:#003F5C; fill-opacity:1.00; stroke:#000000; stroke-opacity:0.0;" transform="translate(0 0) scale(1.00 1.00)">
  <path d="M627.00 315.50 A236.50 236.50 0 0 0 234.45 137.79 L390.50 315.50 z" shape-rendering="auto" />
</g>
<g style="stroke-width:1; stroke-linecap:round; stroke-linejoin:round; fill:#000000; fill-opacity:0.0; stroke:#000000; stroke-opacity:0.0;" transform="translate(0 0) scale(1.00 1.00)">
  <path d="M627.00 315.50 A236.50 236.50 0 0 0 234.45 137.79" shape-rendering="auto" />
</g>
<g style="stroke-width:1; stroke-linecap:round; stroke-linejoin:round; fill:#003F5C; fill-opacity:1.00; stroke:#000000; stroke-opacity:0.0;" transform="translate(0 0) scale(1.00 1.00)">
  <path d="M390 315 L627 315" shape-rendering="auto" />
  <path d="M390 315 L234 137" shape-rendering="auto" />
</g>
<g style="stroke-width:1; stroke-linecap:round; stroke-linejoin:round; fill:#2F4B7C; fill-opacity:1.00; stroke:#000000; stroke-opacity:0.0;" transform="translate(0 0) scale(1.00 1.00)">
  <path d="M234.45 137.79 A236.50 236.50 0 0 0 246.07 502.77 L390.50 315.50 z" shape-rendering="auto" />
</g>
<g style="stroke-width:1; stroke-linecap:round; stroke-linejoin:round; fill:#000000; fill-opacity:0.0; stroke:#000000; stroke-opacity:0.0;" transform="translate(0 0) scale(1.00 1.00)">
  <path d="M234.45 137.79 A236.50 236.50 0 0 0 246.07 502.77" shape-rendering="auto" />
</g>
<g style="stroke-width:1; stroke-linecap:round; stroke-linejoin:round; fill:#2F4B7C; fill-opacity:1.00; stroke:#000000; stroke-opacity:0.0;" transform="translate(0 0) scale(1.00 1.00)">
  <path d="M390 315 L234 137" shape-rendering="auto" />
  <path d="M390 315 L246 502" shape-rendering="auto" />
</g>
<g style="stroke-width:1; stroke-linecap:round; stroke-linejoin:round; fill:#665191; fill-opacity:1.00; stroke:#000000; stroke-opacity:0.0;" transform="translate(0 0) scale(1.00 1.00)">
  <path d="M246.07 502.77 A236.50 236.50 0 0 0 415.72 550.65 L390.50 315.50 z" shape-rendering="auto" />
</g>
<g style="stroke-width:1; stroke-linecap:round; stroke-linejoin:round; fill:#000000; fill-opacity:0.0; stroke:#000000; stroke-opacity:0.0;" transform="translate(0 0) scale(1.00 1.00)">
  <path d="M246.07 502.77 A236.50 236.50 0 0 0 415.72 550.65" shape-rendering="auto" />
</g>
<g style="stroke-width:1; stroke-linecap:round; stroke-linejoin:round; fill:#665191; fill-opacity:1.00; stroke:#000000; stroke-opacity:0.0;" transform="translate(0 0) scale(1.00 1.00)">
  <path d="M390 315 L246 502" shape-rendering="auto" />
  <path d="M390 315 L415 550" shape-rendering="auto" />
</g>
<g style="stroke-width:1; stroke-linecap:round; stroke-linejoin:round; fill:#A05195; fill-opacity:1.00; stroke:#000000; stroke-opacity:0.0;" transform="translate(0 0) scale(1.00 1.00)">
  <path d="M415.72 550.65 A236.50 236.50 0 0 0 627.00 315.50 L390.50 315.50 z" shape-rendering="auto" />
</g>
<g style="stroke-width:1; stroke-linecap:round; stroke-linejoin:round; fill:#000000; fill-opacity:0.0; stroke:#000000; stroke-opacity:0.0;" transform="translate(0 0) scale(1.00 1.00)">
  <path d="M415.72 550.65 A236.50 236.50 0 0 0 627.00 315.50" shape-rendering="auto" />
</g>
<g style="stroke-width:1; stroke-linecap:round; stroke-linejoin:round; fill:#A05195; fill-opacity:1.00; stroke:#000000; stroke-opacity:0.0;" transform="translate(0 0) scale(1.00 1.00)">
  <path d="M390 315 L415 550" shape-rendering="auto" />
  <path d="M390 315 L627 315" shape-rendering="auto" />
</g>
<g style="stroke-width:1; stroke-linecap:round; stroke-linejoin:round; fill:#000000; fill-opacity:1.00; stroke:#000000; stroke-opacity:1.00;" transform="translate(0 0) scale(1.00 1.00)">
  <text x="449.00" y="159.00" textLength="27" style="font-family:Segoe UI; font-weight:400; font-style:normal; font-size:10.13pt; text-decoration: none; fill:#FFFFFF; fill-opacity:1.00; stroke:#FFFFFF; stroke-opacity:1.00; stroke-width:0; white-space: pre;" xml:space="preserve" transform="rotate(0.00 449.00 159.00)">36%</text>
</g>
<g style="stroke-width:1; stroke-linecap:round; stroke-linejoin:round; fill:#000000; fill-opacity:1.00; stroke:#000000; stroke-opacity:1.00;" transform="translate(0 0) scale(1.00 1.00)">
  <text x="200.00" y="326.00" textLength="27" style="font-family:Segoe UI; font-weight:400; font-style:normal; font-size:10.13pt; text-decoration: none; fill:#FFFFFF; fill-opacity:1.00; stroke:#FFFFFF; stroke-opacity:1.00; stroke-width:0; white-space: pre;" xml:space="preserve" transform="rotate(0.00 200.00 326.00)">28%</text>
</g>
<g style="stroke-width:1; stroke-linecap:round; stroke-linejoin:round; fill:#000000; fill-opacity:1.00; stroke:#000000; stroke-opacity:1.00;" transform="translate(0 0) scale(1.00 1.00)">
  <text x="328.00" y="491.00" textLength="27" style="font-family:Segoe UI; font-weight:400; font-style:normal; font-size:10.13pt; text-decoration: none; fill:#FFFFFF; fill-opacity:1.00; stroke:#FFFFFF; stroke-opacity:1.00; stroke-width:0; white-space: pre;" xml:space="preserve" transform="rotate(0.00 328.00 491.00)">12%</text>
</g>
<g style="stroke-width:1; stroke-linecap:round; stroke-linejoin:round; fill:#000000; fill-opacity:1.00; stroke:#000000; stroke-opacity:1.00;" transform="translate(0 0) scale(1.00 1.00)">
  <text x="508.00" y="439.00" textLength="27" style="font-family:Segoe UI; font-weight:400; font-style:normal; font-size:10.13pt; text-decoration: none; fill:#FFFFFF; fill-opacity:1.00; stroke:#FFFFFF; stroke-opacity:1.00; stroke-width:0; white-space: pre;" xml:space="preserve" transform="rotate(0.00 508.00 439.00)">23%</text>
</g>
<g style="stroke-width:1; stroke-linecap:round; stroke-linejoin:round; fill:#19526C; fill-opacity:1.00; stroke:#000000; stroke-opacity:0.0;" transform="translate(0 0) scale(1.00 1.00)">
  <path d="M508.00 315.00 A118.00 118.00 0 0 0 478.84 237.34 L390.00 315.00 z" shape-rendering="auto" />
</g>
<g style="stroke-width:1; stroke-linecap:round; stroke-linejoin:round; fill:#000000; fill-opacity:0.0; stroke:#668B9D; stroke-opacity:1.00;" transform="translate(0 0) scale(1.00 1.00)">
  <path d="M508.00 315.00 A118.00 118.00 0 0 0 478.84 237.34" shape-rendering="auto" />
</g>
<g style="stroke-width:1; stroke-linecap:round; stroke-linejoin:round; fill:#19526C; fill-opacity:1.00; stroke:#668B9D; stroke-opacity:1.00;" transform="translate(0 0) scale(1.00 1.00)">
  <path d="M390 315 L508 315" shape-rendering="auto" />
  <path d="M390 315 L478 237" shape-rendering="auto" />
</g>
<g style="stroke-width:1; stroke-linecap:round; stroke-linejoin:round; fill:#30637A; fill-opacity:1.00; stroke:#000000; stroke-opacity:0.0;" transform="translate(0 0) scale(1.00 1.00)">
  <path d="M478.84 237.34 A118.00 118.00 0 0 0 434.72 205.80 L390.00 315.00 z" shape-rendering="auto" />
</g>
<g style="stroke-width:1; stroke-linecap:round; stroke-linejoin:round; fill:#000000; fill-opacity:0.0; stroke:#668B9D; stroke-opacity:1.00;" transform="translate(0 0) scale(1.00 1.00)">
  <path d="M478.84 237.34 A118.00 118.00 0 0 0 434.72 205.80" shape-rendering="auto" />
</g>
<g style="stroke-width:1; stroke-linecap:round; stroke-linejoin:round; fill:#30637A; fill-opacity:1.00; stroke:#668B9D; stroke-opacity:1.00;" transform="translate(0 0) scale(1.00 1.00)">
  <path d="M390 315 L478 237" shape-rendering="auto" />
  <path d="M390 315 L434 205" shape-rendering="auto" />
</g>
<g style="stroke-width:1; stroke-linecap:round; stroke-linejoin:round; fill:#447287; fill-opacity:1.00; stroke:#000000; stroke-opacity:0.0;" transform="translate(0 0) scale(1.00 1.00)">
  <path d="M434.72 205.80 A118.00 118.00 0 0 0 324.92 216.57 L390.00 315.00 z" shape-rendering="auto" />
</g>
<g style="stroke-width:1; stroke-linecap:round; stroke-linejoin:round; fill:#000000; fill-opacity:0.0; stroke:#668B9D; stroke-opacity:1.00;" transform="translate(0 0) scale(1.00 1.00)">
  <path d="M434.72 205.80 A118.00 118.00 0 0 0 324.92 216.57" shape-rendering="auto" />
</g>
<g style="stroke-width:1; stroke-linecap:round; stroke-linejoin:round; fill:#447287; fill-opacity:1.00; stroke:#668B9D; stroke-opacity:1.00;" transform="translate(0 0) scale(1.00 1.00)">
  <path d="M390 315 L434 205" shape-rendering="auto" />
  <path d="M390 315 L324 216" shape-rendering="auto" />
</g>
<g style="stroke-width:1; stroke-linecap:round; stroke-linejoin:round; fill:#568093; fill-opacity:1.00; stroke:#000000; stroke-opacity:0.0;" transform="translate(0 0) scale(1.00 1.00)">
  <path d="M324.92 216.57 A118.00 118.00 0 0 0 312.14 226.33 L390.00 315.00 z" shape-rendering="auto" />
</g>
<g style="stroke-width:1; stroke-linecap:round; stroke-linejoin:round; fill:#000000; fill-opacity:0.0; stroke:#668B9D; stroke-opacity:1.00;" transform="translate(0 0) scale(1.00 1.00)">
  <path d="M324.92 216.57 A118.00 118.00 0 0 0 312.14 226.33" shape-rendering="auto" />
</g>
<g style="stroke-width:1; stroke-linecap:round; stroke-linejoin:round; fill:#568093; fill-opacity:1.00; stroke:#668B9D; stroke-opacity:1.00;" transform="translate(0 0) scale(1.00 1.00)">
  <path d="M390 315 L324 216" shape-rendering="auto" />
  <path d="M390 315 L312 226" shape-rendering="auto" />
</g>
<g style="stroke-width:1; stroke-linecap:round; stroke-linejoin:round; fill:#586F96; fill-opacity:1.00; stroke:#000000; stroke-opacity:0.0;" transform="translate(0 0) scale(1.00 1.00)">
  <path d="M312.14 226.33 A118.00 118.00 0 0 0 298.73 240.21 L390.00 315.00 z" shape-rendering="auto" />
</g>
<g style="stroke-width:1; stroke-linecap:round; stroke-linejoin:round; fill:#000000; fill-opacity:0.0; stroke:#8293B0; stroke-opacity:1.00;" transform="translate(0 0) scale(1.00 1.00)">
  <path d="M312.14 226.33 A118.00 118.00 0 0 0 298.73 240.21" shape-rendering="auto" />
</g>
<g style="stroke-width:1; stroke-linecap:round; stroke-linejoin:round; fill:#586F96; fill-opacity:1.00; stroke:#8293B0; stroke-opacity:1.00;" transform="translate(0 0) scale(1.00 1.00)">
  <path d="M390 315 L312 226" shape-rendering="auto" />
  <path d="M390 315 L298 240" shape-rendering="auto" />
</g>
<g style="stroke-width:1; stroke-linecap:round; stroke-linejoin:round; fill:#687DA0; fill-opacity:1.00; stroke:#000000; stroke-opacity:0.0;" transform="translate(0 0) scale(1.00 1.00)">
  <path d="M298.73 240.21 A118.00 118.00 0 0 0 276.22 346.27 L390.00 315.00 z" shape-rendering="auto" />
</g>
<g style="stroke-width:1; stroke-linecap:round; stroke-linejoin:round; fill:#000000; fill-opacity:0.0; stroke:#8293B0; stroke-opacity:1.00;" transform="translate(0 0) scale(1.00 1.00)">
  <path d="M298.73 240.21 A118.00 118.00 0 0 0 276.22 346.27" shape-rendering="auto" />
</g>
<g style="stroke-width:1; stroke-linecap:round; stroke-linejoin:round; fill:#687DA0; fill-opacity:1.00; stroke:#8293B0; stroke-opacity:1.00;" transform="translate(0 0) scale(1.00 1.00)">
  <path d="M390 315 L298 240" shape-rendering="auto" />
  <path d="M390 315 L276 346" shape-rendering="auto" />
</g>
<g style="stroke-width:1; stroke-linecap:round; stroke-linejoin:round; fill:#778AA9; fill-opacity:1.00; stroke:#000000; stroke-opacity:0.0;" transform="translate(0 0) scale(1.00 1.00)">
  <path d="M276.22 346.27 A118.00 118.00 0 0 0 298.06 388.96 L390.00 315.00 z" shape-rendering="auto" />
</g>
<g style="stroke-width:1; stroke-linecap:round; stroke-linejoin:round; fill:#000000; fill-opacity:0.0; stroke:#8293B0; stroke-opacity:1.00;" transform="translate(0 0) scale(1.00 1.00)">
  <path d="M276.22 346.27 A118.00 118.00 0 0 0 298.06 388.96" shape-rendering="auto" />
</g>
<g style="stroke-width:1; stroke-linecap:round; stroke-linejoin:round; fill:#778AA9; fill-opacity:1.00; stroke:#8293B0; stroke-opacity:1.00;" transform="translate(0 0) scale(1.00 1.00)">
  <path d="M390 315 L276 346" shape-rendering="auto" />
  <path d="M390 315 L298 388" shape-rendering="auto" />
</g>
<g style="stroke-width:1; stroke-linecap:round; stroke-linejoin:round; fill:#6B7C98; fill-opacity:1.00; stroke:#000000; stroke-opacity:0.0;" transform="translate(0 0) scale(1.00 1.00)">
  <path d="M298.06 388.96 A118.00 118.00 0 0 0 314.59 405.76 L390.00 315.00 z" shape-rendering="auto" />
</g>
<g style="stroke-width:1; stroke-linecap:round; stroke-linejoin:round; fill:#000000; fill-opacity:0.0; stroke:#8293B0; stroke-opacity:1.00;" transform="translate(0 0) scale(1.00 1.00)">
  <path d="M298.06 388.96 A118.00 118.00 0 0 0 314.59 405.76" shape-rendering="auto" />
</g>
<g style="stroke-width:1; stroke-linecap:round; stroke-linejoin:round; fill:#6B7C98; fill-opacity:1.00; stroke:#8293B0; stroke-opacity:1.00;" transform="translate(0 0) scale(1.00 1.00)">
  <path d="M390 315 L298 388" shape-rendering="auto" />
  <path d="M390 315 L314 405" shape-rendering="auto" />
</g>
<g style="stroke-width:1; stroke-linecap:round; stroke-linejoin:round; fill:#7989A2; fill-opacity:1.00; stroke:#000000; stroke-opacity:0.0;" transform="translate(0 0) scale(1.00 1.00)">
  <path d="M314.59 405.76 A118.00 118.00 0 0 0 317.94 408.44 L390.00 315.00 z" shape-rendering="auto" />
</g>
<g style="stroke-width:1; stroke-linecap:round; stroke-linejoin:round; fill:#000000; fill-opacity:0.0; stroke:#8293B0; stroke-opacity:1.00;" transform="translate(0 0) scale(1.00 1.00)">
  <path d="M314.59 405.76 A118.00 118.00 0 0 0 317.94 408.44" shape-rendering="auto" />
</g>
<g style="stroke-width:1; stroke-linecap:round; stroke-linejoin:round; fill:#7989A2; fill-opacity:1.00; stroke:#8293B0; stroke-opacity:1.00;" transform="translate(0 0) scale(1.00 1.00)">
  <path d="M390 315 L314 405" shape-rendering="auto" />
  <path d="M390 315 L317 408" shape-rendering="auto" />
</g>
<g style="stroke-width:1; stroke-linecap:round; stroke-linejoin:round; fill:#8473A7; fill-opacity:1.00; stroke:#000000; stroke-opacity:0.0;" transform="translate(0 0) scale(1.00 1.00)">
  <path d="M317.94 408.44 A118.00 118.00 0 0 0 363.15 429.90 L390.00 315.00 z" shape-rendering="auto" />
</g>
<g style="stroke-width:1; stroke-linecap:round; stroke-linejoin:round; fill:#000000; fill-opacity:0.0; stroke:#A396BD; stroke-opacity:1.00;" transform="translate(0 0) scale(1.00 1.00)">
  <path d="M317.94 408.44 A118.00 118.00 0 0 0 363.15 429.90" shape-rendering="auto" />
</g>
<g style="stroke-width:1; stroke-linecap:round; stroke-linejoin:round; fill:#8473A7; fill-opacity:1.00; stroke:#A396BD; stroke-opacity:1.00;" transform="translate(0 0) scale(1.00 1.00)">
  <path d="M390 315 L317 408" shape-rendering="auto" />
  <path d="M390 315 L363 429" shape-rendering="auto" />
</g>
<g style="stroke-width:1; stroke-linecap:round; stroke-linejoin:round; fill:#9081AF; fill-opacity:1.00; stroke:#000000; stroke-opacity:0.0;" transform="translate(0 0) scale(1.00 1.00)">
  <path d="M363.15 429.90 A118.00 118.00 0 0 0 402.58 432.33 L390.00 315.00 z" shape-rendering="auto" />
</g>
<g style="stroke-width:1; stroke-linecap:round; stroke-linejoin:round; fill:#000000; fill-opacity:0.0; stroke:#A396BD; stroke-opacity:1.00;" transform="translate(0 0) scale(1.00 1.00)">
  <path d="M363.15 429.90 A118.00 118.00 0 0 0 402.58 432.33" shape-rendering="auto" />
</g>
<g style="stroke-width:1; stroke-linecap:round; stroke-linejoin:round; fill:#9081AF; fill-opacity:1.00; stroke:#A396BD; stroke-opacity:1.00;" transform="translate(0 0) scale(1.00 1.00)">
  <path d="M390 315 L363 429" shape-rendering="auto" />
  <path d="M390 315 L402 432" shape-rendering="auto" />
</g>
<g style="stroke-width:1; stroke-linecap:round; stroke-linejoin:round; fill:#B373AA; fill-opacity:1.00; stroke:#000000; stroke-opacity:0.0;" transform="translate(0 0) scale(1.00 1.00)">
  <path d="M402.58 432.33 A118.00 118.00 0 0 0 454.63 413.72 L390.00 315.00 z" shape-rendering="auto" />
</g>
<g style="stroke-width:1; stroke-linecap:round; stroke-linejoin:round; fill:#000000; fill-opacity:0.0; stroke:#C696BF; stroke-opacity:1.00;" transform="translate(0 0) scale(1.00 1.00)">
  <path d="M402.58 432.33 A118.00 118.00 0 0 0 454.63 413.72" shape-rendering="auto" />
</g>
<g style="stroke-width:1; stroke-linecap:round; stroke-linejoin:round; fill:#B373AA; fill-opacity:1.00; stroke:#C696BF; stroke-opacity:1.00;" transform="translate(0 0) scale(1.00 1.00)">
  <path d="M390 315 L402 432" shape-rendering="auto" />
  <path d="M390 315 L454 413" shape-rendering="auto" />
</g>
<g style="stroke-width:1; stroke-linecap:round; stroke-linejoin:round; fill:#A16799; fill-opacity:1.00; stroke:#000000; stroke-opacity:0.0;" transform="translate(0 0) scale(1.00 1.00)">
  <path d="M454.63 413.72 A118.00 118.00 0 0 0 505.65 338.45 L390.00 315.00 z" shape-rendering="auto" />
</g>
<g style="stroke-width:1; stroke-linecap:round; stroke-linejoin:round; fill:#000000; fill-opacity:0.0; stroke:#C696BF; stroke-opacity:1.00;" transform="translate(0 0) scale(1.00 1.00)">
  <path d="M454.63 413.72 A118.00 118.00 0 0 0 505.65 338.45" shape-rendering="auto" />
</g>
<g style="stroke-width:1; stroke-linecap:round; stroke-linejoin:round; fill:#A16799; fill-opacity:1.00; stroke:#C696BF; stroke-opacity:1.00;" transform="translate(0 0) scale(1.00 1.00)">
  <path d="M390 315 L454 413" shape-rendering="auto" />
  <path d="M390 315 L505 338" shape-rendering="auto" />
</g>
<g style="stroke-width:1; stroke-linecap:round; stroke-linejoin:round; fill:#AA76A3; fill-opacity:1.00; stroke:#000000; stroke-opacity:0.0;" transform="translate(0 0) scale(1.00 1.00)">
  <path d="M505.65 338.45 A118.00 118.00 0 0 0 508.00 315.00 L390.00 315.00 z" shape-rendering="auto" />
</g>
<g style="stroke-width:1; stroke-linecap:round; stroke-linejoin:round; fill:#000000; fill-opacity:0.0; stroke:#C696BF; stroke-opacity:1.00;" transform="translate(0 0) scale(1.00 1.00)">
  <path d="M505.65 338.45 A118.00 118.00 0 0 0 508.00 315.00" shape-rendering="auto" />
</g>
<g style="stroke-width:1; stroke-linecap:round; stroke-linejoin:round; fill:#AA76A3; fill-opacity:1.00; stroke:#C696BF; stroke-opacity:1.00;" transform="translate(0 0) scale(1.00 1.00)">
  <path d="M390 315 L505 338" shape-rendering="auto" />
  <path d="M390 315 L508 315" shape-rendering="auto" />
</g>
<g style="stroke-width:1; stroke-linecap:round; stroke-linejoin:round; fill:#000000; fill-opacity:1.00; stroke:#000000; stroke-opacity:1.00;" transform="translate(0 0) scale(1.00 1.00)">
  <text x="6.00" y="600.00" textLength="46" style="font-family:Segoe UI; font-weight:700; font-style:normal; font-size:10.13pt; text-decoration: none; fill:#665191; fill-opacity:1.00; stroke:#665191; stroke-opacity:1.00; stroke-width:0; white-space: pre;" xml:space="preserve" transform="rotate(0.00 6.00 600.00)">English</text>
  <text x="5.00" y="621.00" textLength="285" style="font-family:Segoe UI; font-weight:400; font-style:normal; font-size:10.13pt; text-decoration: none; fill:#666666; fill-opacity:1.00; stroke:#666666; stroke-opacity:1.00; stroke-width:0; white-space: pre;" xml:space="preserve" transform="rotate(0.00 5.00 621.00)">Includes both literary and composition courses</text>
</g>
<g style="stroke-width:2; stroke-linecap:round; stroke-linejoin:round; fill:#FFFFFF; fill-opacity:1.00; stroke:#B2BEB5; stroke-opacity:0.78;" transform="translate(0 0) scale(1.00 1.00)">
  <path d="M326 543 L326 605" shape-rendering="auto" stroke-dasharray="6.666667,5.333333"/>
  <path d="M326 605 L296 605" shape-rendering="auto" stroke-dasharray="6.666667,5.333333"/>
</g>
<g style="stroke-width:1; stroke-linecap:round; stroke-linejoin:round; fill:#000000; fill-opacity:1.00; stroke:#000000; stroke-opacity:1.00;" transform="translate(0 0) scale(1.00 1.00)">
  <text x="5.00" y="523.00" textLength="107" style="font-family:Segoe UI; font-weight:700; font-style:normal; font-size:10.13pt; text-decoration: none; fill:#7989A2; fill-opacity:1.00; stroke:#7989A2; stroke-opacity:1.00; stroke-width:0; white-space: pre;" xml:space="preserve" transform="rotate(0.00 5.00 523.00)">Visual Basic.NET</text>
</g>
<g style="stroke-width:2; stroke-linecap:round; stroke-linejoin:round; fill:#FFFFFF; fill-opacity:1.00; stroke:#B2BEB5; stroke-opacity:0.78;" transform="translate(0 0) scale(1.00 1.00)">
  <path d="M316 407 L228 518" shape-rendering="auto" stroke-dasharray="6.666667,5.333333"/>
  <path d="M228 518 L118 518" shape-rendering="auto" stroke-dasharray="6.666667,5.333333"/>
</g>
<g style="stroke-width:1; stroke-linecap:round; stroke-linejoin:round; fill:#000000; fill-opacity:1.00; stroke:#000000; stroke-opacity:1.00;" transform="translate(0 0) scale(1.00 1.00)">
  <text x="5.00" y="328.00" textLength="121" style="font-family:Segoe UI; font-weight:700; font-style:normal; font-size:10.13pt; text-decoration: none; fill:#2F4B7C; fill-opacity:1.00; stroke:#2F4B7C; stroke-opacity:1.00; stroke-width:0; white-space: pre;" xml:space="preserve" transform="rotate(0.00 5.00 328.00)">Computer Science</text>
</g>
<g style="stroke-width:2; stroke-linecap:round; stroke-linejoin:round; fill:#FFFFFF; fill-opacity:1.00; stroke:#B2BEB5; stroke-opacity:0.78;" transform="translate(0 0) scale(1.00 1.00)">
  <path d="M154 323 L154 323" shape-rendering="auto" stroke-dasharray="6.666667,5.333333"/>
  <path d="M154 323 L132 323" shape-rendering="auto" stroke-dasharray="6.666667,5.333333"/>
</g>
<g style="stroke-width:1; stroke-linecap:round; stroke-linejoin:round; fill:#000000; fill-opacity:1.00; stroke:#000000; stroke-opacity:1.00;" transform="translate(0 0) scale(1.00 1.00)">
  <text x="719.00" y="105.00" textLength="55" style="font-family:Segoe UI; font-weight:700; font-style:normal; font-size:10.13pt; text-decoration: none; fill:#003F5C; fill-opacity:1.00; stroke:#003F5C; stroke-opacity:1.00; stroke-width:0; white-space: pre;" xml:space="preserve" transform="rotate(0.00 719.00 105.00)">Business</text>
</g>
<g style="stroke-width:2; stroke-linecap:round; stroke-linejoin:round; fill:#FFFFFF; fill-opacity:1.00; stroke:#B2BEB5; stroke-opacity:0.78;" transform="translate(0 0) scale(1.00 1.00)">
  <path d="M488 100 L488 100" shape-rendering="auto" stroke-dasharray="6.666667,5.333333"/>
  <path d="M488 100 L714 100" shape-rendering="auto" stroke-dasharray="6.666667,5.333333"/>
</g>
<g style="stroke-width:1; stroke-linecap:round; stroke-linejoin:round; fill:#000000; fill-opacity:1.00; stroke:#000000; stroke-opacity:1.00;" transform="translate(0 0) scale(1.00 1.00)">
  <text x="724.00" y="478.00" textLength="50" style="font-family:Segoe UI; font-weight:700; font-style:normal; font-size:10.13pt; text-decoration: none; fill:#A05195; fill-opacity:1.00; stroke:#A05195; stroke-opacity:1.00; stroke-width:0; white-space: pre;" xml:space="preserve" transform="rotate(0.00 724.00 478.00)">Science</text>
</g>
<g style="stroke-width:2; stroke-linecap:round; stroke-linejoin:round; fill:#FFFFFF; fill-opacity:1.00; stroke:#B2BEB5; stroke-opacity:0.78;" transform="translate(0 0) scale(1.00 1.00)">
  <path d="M566 473 L566 473" shape-rendering="auto" stroke-dasharray="6.666667,5.333333"/>
  <path d="M566 473 L719 473" shape-rendering="auto" stroke-dasharray="6.666667,5.333333"/>
</g>
<g style="stroke-width:1; stroke-linecap:round; stroke-linejoin:round; fill:#000000; fill-opacity:1.00; stroke:#000000; stroke-opacity:1.00;" transform="translate(0 0) scale(1.00 1.00)">
  <text x="434.00" y="299.00" textLength="22" style="font-family:Segoe UI; font-weight:400; font-style:normal; font-size:8.68pt; text-decoration: none; fill:#FFFFFF; fill-opacity:1.00; stroke:#FFFFFF; stroke-opacity:1.00; stroke-width:0; white-space: pre;" xml:space="preserve" transform="rotate(0.00 434.00 299.00)">11%</text>
</g>
<g style="stroke-width:1; stroke-linecap:round; stroke-linejoin:round; fill:#000000; fill-opacity:1.00; stroke:#000000; stroke-opacity:1.00;" transform="translate(0 0) scale(1.00 1.00)">
  <text x="416.00" y="272.00" textLength="16" style="font-family:Segoe UI; font-weight:400; font-style:normal; font-size:8.68pt; text-decoration: none; fill:#FFFFFF; fill-opacity:1.00; stroke:#FFFFFF; stroke-opacity:1.00; stroke-width:0; white-space: pre;" xml:space="preserve" transform="rotate(0.00 416.00 272.00)">7%</text>
</g>
<g style="stroke-width:1; stroke-linecap:round; stroke-linejoin:round; fill:#000000; fill-opacity:1.00; stroke:#000000; stroke-opacity:1.00;" transform="translate(0 0) scale(1.00 1.00)">
  <text x="373.00" y="261.00" textLength="22" style="font-family:Segoe UI; font-weight:400; font-style:normal; font-size:8.68pt; text-decoration: none; fill:#FFFFFF; fill-opacity:1.00; stroke:#FFFFFF; stroke-opacity:1.00; stroke-width:0; white-space: pre;" xml:space="preserve" transform="rotate(0.00 373.00 261.00)">15%</text>
</g>
<g style="stroke-width:1; stroke-linecap:round; stroke-linejoin:round; fill:#000000; fill-opacity:1.00; stroke:#000000; stroke-opacity:1.00;" transform="translate(0 0) scale(1.00 1.00)">
  <text x="321.00" y="307.00" textLength="22" style="font-family:Segoe UI; font-weight:400; font-style:normal; font-size:8.68pt; text-decoration: none; fill:#FFFFFF; fill-opacity:1.00; stroke:#FFFFFF; stroke-opacity:1.00; stroke-width:0; white-space: pre;" xml:space="preserve" transform="rotate(0.00 321.00 307.00)">15%</text>
</g>
<g style="stroke-width:1; stroke-linecap:round; stroke-linejoin:round; fill:#000000; fill-opacity:1.00; stroke:#000000; stroke-opacity:1.00;" transform="translate(0 0) scale(1.00 1.00)">
  <text x="329.00" y="346.00" textLength="16" style="font-family:Segoe UI; font-weight:400; font-style:normal; font-size:8.68pt; text-decoration: none; fill:#000000; fill-opacity:1.00; stroke:#000000; stroke-opacity:1.00; stroke-width:0; white-space: pre;" xml:space="preserve" transform="rotate(0.00 329.00 346.00)">7%</text>
</g>
<g style="stroke-width:1; stroke-linecap:round; stroke-linejoin:round; fill:#000000; fill-opacity:1.00; stroke:#000000; stroke-opacity:1.00;" transform="translate(0 0) scale(1.00 1.00)">
  <text x="356.00" y="373.00" textLength="16" style="font-family:Segoe UI; font-weight:400; font-style:normal; font-size:8.68pt; text-decoration: none; fill:#FFFFFF; fill-opacity:1.00; stroke:#FFFFFF; stroke-opacity:1.00; stroke-width:0; white-space: pre;" xml:space="preserve" transform="rotate(0.00 356.00 373.00)">7%</text>
</g>
<g style="stroke-width:1; stroke-linecap:round; stroke-linejoin:round; fill:#000000; fill-opacity:1.00; stroke:#000000; stroke-opacity:1.00;" transform="translate(0 0) scale(1.00 1.00)">
  <text x="378.00" y="378.00" textLength="16" style="font-family:Segoe UI; font-weight:400; font-style:normal; font-size:8.68pt; text-decoration: none; fill:#000000; fill-opacity:1.00; stroke:#000000; stroke-opacity:1.00; stroke-width:0; white-space: pre;" xml:space="preserve" transform="rotate(0.00 378.00 378.00)">5%</text>
</g>
<g style="stroke-width:1; stroke-linecap:round; stroke-linejoin:round; fill:#000000; fill-opacity:1.00; stroke:#000000; stroke-opacity:1.00;" transform="translate(0 0) scale(1.00 1.00)">
  <text x="401.00" y="375.00" textLength="16" style="font-family:Segoe UI; font-weight:400; font-style:normal; font-size:8.68pt; text-decoration: none; fill:#000000; fill-opacity:1.00; stroke:#000000; stroke-opacity:1.00; stroke-width:0; white-space: pre;" xml:space="preserve" transform="rotate(0.00 401.00 375.00)">8%</text>
</g>
<g style="stroke-width:1; stroke-linecap:round; stroke-linejoin:round; fill:#000000; fill-opacity:1.00; stroke:#000000; stroke-opacity:1.00;" transform="translate(0 0) scale(1.00 1.00)">
  <text x="427.00" y="353.00" textLength="22" style="font-family:Segoe UI; font-weight:400; font-style:normal; font-size:8.68pt; text-decoration: none; fill:#FFFFFF; fill-opacity:1.00; stroke:#FFFFFF; stroke-opacity:1.00; stroke-width:0; white-space: pre;" xml:space="preserve" transform="rotate(0.00 427.00 353.00)">13%</text>
</g>
<g style="stroke-width:1; stroke-linecap:round; stroke-linejoin:round; fill:#000000; fill-opacity:1.00; stroke:#000000; stroke-opacity:1.00;" transform="translate(0 0) scale(1.00 1.00)">
  <text x="794.00" y="21.00" textLength="55" style="font-family:Segoe UI; font-weight:400; font-style:normal; font-size:11.47pt; text-decoration: none; fill:#000000; fill-opacity:1.00; stroke:#000000; stroke-opacity:1.00; stroke-width:0; white-space: pre;" xml:space="preserve" transform="rotate(0.00 794.00 21.00)">Business</text>
  <text x="829.00" y="43.00" textLength="4" style="font-family:Segoe UI; font-weight:400; font-style:normal; font-size:11.47pt; text-decoration: none; fill:#000000; fill-opacity:1.00; stroke:#000000; stroke-opacity:1.00; stroke-width:0; white-space: pre;" xml:space="preserve" transform="rotate(0.00 829.00 43.00)"> </text>
  <text x="829.00" y="65.00" textLength="164" style="font-family:Segoe UI; font-weight:400; font-style:normal; font-size:11.47pt; text-decoration: none; fill:#000000; fill-opacity:1.00; stroke:#000000; stroke-opacity:1.00; stroke-width:0; white-space: pre;" xml:space="preserve" transform="rotate(0.00 829.00 65.00)">Business Communication</text>
  <text x="829.00" y="87.00" textLength="97" style="font-family:Segoe UI; font-weight:400; font-style:normal; font-size:11.47pt; text-decoration: none; fill:#000000; fill-opacity:1.00; stroke:#000000; stroke-opacity:1.00; stroke-width:0; white-space: pre;" xml:space="preserve" transform="rotate(0.00 829.00 87.00)">Business Ethics</text>
  <text x="829.00" y="109.00" textLength="174" style="font-family:Segoe UI; font-weight:400; font-style:normal; font-size:11.47pt; text-decoration: none; fill:#000000; fill-opacity:1.00; stroke:#000000; stroke-opacity:1.00; stroke-width:0; white-space: pre;" xml:space="preserve" transform="rotate(0.00 829.00 109.00)">Introduction to Economics</text>
  <text x="829.00" y="131.00" textLength="98" style="font-family:Segoe UI; font-weight:400; font-style:normal; font-size:11.47pt; text-decoration: none; fill:#000000; fill-opacity:1.00; stroke:#000000; stroke-opacity:1.00; stroke-width:0; white-space: pre;" xml:space="preserve" transform="rotate(0.00 829.00 131.00)">Report Writing</text>
  <text x="794.00" y="153.00" textLength="120" style="font-family:Segoe UI; font-weight:400; font-style:normal; font-size:11.47pt; text-decoration: none; fill:#000000; fill-opacity:1.00; stroke:#000000; stroke-opacity:1.00; stroke-width:0; white-space: pre;" xml:space="preserve" transform="rotate(0.00 794.00 153.00)">Computer Science</text>
  <text x="829.00" y="175.00" textLength="4" style="font-family:Segoe UI; font-weight:400; font-style:normal; font-size:11.47pt; text-decoration: none; fill:#000000; fill-opacity:1.00; stroke:#000000; stroke-opacity:1.00; stroke-width:0; white-space: pre;" xml:space="preserve" transform="rotate(0.00 829.00 175.00)"> </text>
  <text x="829.00" y="197.00" textLength="99" style="font-family:Segoe UI; font-weight:400; font-style:normal; font-size:11.47pt; text-decoration: none; fill:#000000; fill-opacity:1.00; stroke:#000000; stroke-opacity:1.00; stroke-width:0; white-space: pre;" xml:space="preserve" transform="rotate(0.00 829.00 197.00)">Advanced C++</text>
  <text x="829.00" y="219.00" textLength="29" style="font-family:Segoe UI; font-weight:400; font-style:normal; font-size:11.47pt; text-decoration: none; fill:#000000; fill-opacity:1.00; stroke:#000000; stroke-opacity:1.00; stroke-width:0; white-space: pre;" xml:space="preserve" transform="rotate(0.00 829.00 219.00)">C++</text>
  <text x="829.00" y="241.00" textLength="47" style="font-family:Segoe UI; font-weight:400; font-style:normal; font-size:11.47pt; text-decoration: none; fill:#000000; fill-opacity:1.00; stroke:#000000; stroke-opacity:1.00; stroke-width:0; white-space: pre;" xml:space="preserve" transform="rotate(0.00 829.00 241.00)">COBOL</text>
  <text x="829.00" y="263.00" textLength="176" style="font-family:Segoe UI; font-weight:400; font-style:normal; font-size:11.47pt; text-decoration: none; fill:#000000; fill-opacity:1.00; stroke:#000000; stroke-opacity:1.00; stroke-width:0; white-space: pre;" xml:space="preserve" transform="rotate(0.00 829.00 263.00)">Introduction to wxWidgets</text>
  <text x="829.00" y="285.00" textLength="107" style="font-family:Segoe UI; font-weight:400; font-style:normal; font-size:11.47pt; text-decoration: none; fill:#000000; fill-opacity:1.00; stroke:#000000; stroke-opacity:1.00; stroke-width:0; white-space: pre;" xml:space="preserve" transform="rotate(0.00 829.00 285.00)">Visual Basic.NET</text>
  <text x="794.00" y="307.00" textLength="47" style="font-family:Segoe UI; font-weight:400; font-style:normal; font-size:11.47pt; text-decoration: none; fill:#000000; fill-opacity:1.00; stroke:#000000; stroke-opacity:1.00; stroke-width:0; white-space: pre;" xml:space="preserve" transform="rotate(0.00 794.00 307.00)">English</text>
  <text x="829.00" y="329.00" textLength="4" style="font-family:Segoe UI; font-weight:400; font-style:normal; font-size:11.47pt; text-decoration: none; fill:#000000; fill-opacity:1.00; stroke:#000000; stroke-opacity:1.00; stroke-width:0; white-space: pre;" xml:space="preserve" transform="rotate(0.00 829.00 329.00)"> </text>
  <text x="829.00" y="351.00" textLength="107" style="font-family:Segoe UI; font-weight:400; font-style:normal; font-size:11.47pt; text-decoration: none; fill:#000000; fill-opacity:1.00; stroke:#000000; stroke-opacity:1.00; stroke-width:0; white-space: pre;" xml:space="preserve" transform="rotate(0.00 829.00 351.00)">Creative Writing</text>
  <text x="829.00" y="373.00" textLength="121" style="font-family:Segoe UI; font-weight:400; font-style:normal; font-size:11.47pt; text-decoration: none; fill:#000000; fill-opacity:1.00; stroke:#000000; stroke-opacity:1.00; stroke-width:0; white-space: pre;" xml:space="preserve" transform="rotate(0.00 829.00 373.00)">Western Literature</text>
  <text x="794.00" y="395.00" textLength="50" style="font-family:Segoe UI; font-weight:400; font-style:normal; font-size:11.47pt; text-decoration: none; fill:#000000; fill-opacity:1.00; stroke:#000000; stroke-opacity:1.00; stroke-width:0; white-space: pre;" xml:space="preserve" transform="rotate(0.00 794.00 395.00)">Science</text>
  <text x="829.00" y="417.00" textLength="4" style="font-family:Segoe UI; font-weight:400; font-style:normal; font-size:11.47pt; text-decoration: none; fill:#000000; fill-opacity:1.00; stroke:#000000; stroke-opacity:1.00; stroke-width:0; white-space: pre;" xml:space="preserve" transform="rotate(0.00 829.00 417.00)"> </text>
  <text x="829.00" y="439.00" textLength="159" style="font-family:Segoe UI; font-weight:400; font-style:normal; font-size:11.47pt; text-decoration: none; fill:#000000; fill-opacity:1.00; stroke:#000000; stroke-opacity:1.00; stroke-width:0; white-space: pre;" xml:space="preserve" transform="rotate(0.00 829.00 439.00)">Anatomy &amp; Physiology I</text>
  <text x="829.00" y="461.00" textLength="129" style="font-family:Segoe UI; font-weight:400; font-style:normal; font-size:11.47pt; text-decoration: none; fill:#000000; fill-opacity:1.00; stroke:#000000; stroke-opacity:1.00; stroke-width:0; white-space: pre;" xml:space="preserve" transform="rotate(0.00 829.00 461.00)">Organic Chemistry I</text>
  <text x="829.00" y="483.00" textLength="133" style="font-family:Segoe UI; font-weight:400; font-style:normal; font-size:11.47pt; text-decoration: none; fill:#000000; fill-opacity:1.00; stroke:#000000; stroke-opacity:1.00; stroke-width:0; white-space: pre;" xml:space="preserve" transform="rotate(0.00 829.00 483.00)">Organic Chemistry II</text>
</g>
<g style="stroke-width:1; stroke-linecap:round; stroke-linejoin:round; fill:#000000; fill-opacity:1.00; stroke:#000000; stroke-opacity:1.00;" transform="translate(0 0) scale(1.00 1.00)">
  <path d="M805 37 L1001 37" shape-rendering="auto" />
</g>
<g style="stroke-width:1; stroke-linecap:round; stroke-linejoin:round; fill:#19526C; fill-opacity:1.00; stroke:#000000; stroke-opacity:1.00;" transform="translate(0 0) scale(1.00 1.00)">
  <polygon points="818 59 806 65 806 53 " shape-rendering="auto"   style="fill-rule:evenodd;"/>
</g>
<g style="stroke-width:1; stroke-linecap:round; stroke-linejoin:round; fill:#30637A; fill-opacity:1.00; stroke:#000000; stroke-opacity:1.00;" transform="translate(0 0) scale(1.00 1.00)">
  <polygon points="818 81 806 87 806 75 " shape-rendering="auto"   style="fill-rule:evenodd;"/>
</g>
<g style="stroke-width:1; stroke-linecap:round; stroke-linejoin:round; fill:#447287; fill-opacity:1.00; stroke:#000000; stroke-opacity:1.00;" transform="translate(0 0) scale(1.00 1.00)">
  <polygon points="818 103 806 109 806 97 " shape-rendering="auto"   style="fill-rule:evenodd;"/>
</g>
<g style="stroke-width:1; stroke-linecap:round; stroke-linejoin:round; fill:#568093; fill-opacity:1.00; stroke:#000000; stroke-opacity:1.00;" transform="translate(0 0) scale(1.00 1.00)">
  <polygon points="818 125 806 131 806 119 " shape-rendering="auto"   style="fill-rule:evenodd;"/>
</g>
<g style="stroke-width:1; stroke-linecap:round; stroke-linejoin:round; fill:#000000; fill-opacity:1.00; stroke:#000000; stroke-opacity:1.00;" transform="translate(0 0) scale(1.00 1.00)">
  <path d="M805 169 L1001 169" shape-rendering="auto" />
</g>
<g style="stroke-width:1; stroke-linecap:round; stroke-linejoin:round; fill:#586F96; fill-opacity:1.00; stroke:#000000; stroke-opacity:1.00;" transform="translate(0 0) scale(1.00 1.00)">
  <polygon points="818 191 806 197 806 185 " shape-rendering="auto"   style="fill-rule:evenodd;"/>
</g>
<g style="stroke-width:1; stroke-linecap:round; stroke-linejoin:round; fill:#687DA0; fill-opacity:1.00; stroke:#000000; stroke-opacity:1.00;" transform="translate(0 0) scale(1.00 1.00)">
  <polygon points="818 213 806 219 806 207 " shape-rendering="auto"   style="fill-rule:evenodd;"/>
</g>
<g style="stroke-width:1; stroke-linecap:round; stroke-linejoin:round; fill:#778AA9; fill-opacity:1.00; stroke:#000000; stroke-opacity:1.00;" transform="translate(0 0) scale(1.00 1.00)">
  <polygon points="818 235 806 241 806 229 " shape-rendering="auto"   style="fill-rule:evenodd;"/>
</g>
<g style="stroke-width:1; stroke-linecap:round; stroke-linejoin:round; fill:#6B7C98; fill-opacity:1.00; stroke:#000000; stroke-opacity:1.00;" transform="translate(0 0) scale(1.00 1.00)">
  <polygon points="818 257 806 263 806 251 " shape-rendering="auto"   style="fill-rule:evenodd;"/>
</g>
<g style="stroke-width:1; stroke-linecap:round; stroke-linejoin:round; fill:#7989A2; fill-opacity:1.00; stroke:#000000; stroke-opacity:1.00;" transform="translate(0 0) scale(1.00 1.00)">
  <polygon points="818 279 806 285 806 273 " shape-rendering="auto"   style="fill-rule:evenodd;"/>
</g>
<g style="stroke-width:1; stroke-linecap:round; stroke-linejoin:round; fill:#000000; fill-opacity:1.00; stroke:#000000; stroke-opacity:1.00;" transform="translate(0 0) scale(1.00 1.00)">
  <path d="M805 323 L1001 323" shape-rendering="auto" />
</g>
<g style="stroke-width:1; stroke-linecap:round; stroke-linejoin:round; fill:#8473A7; fill-opacity:1.00; stroke:#000000; stroke-opacity:1.00;" transform="translate(0 0) scale(1.00 1.00)">
  <polygon points="818 345 806 351 806 339 " shape-rendering="auto"   style="fill-rule:evenodd;"/>
</g>
<g style="stroke-width:1; stroke-linecap:round; stroke-linejoin:round; fill:#9081AF; fill-opacity:1.00; stroke:#000000; stroke-opacity:1.00;" transform="translate(0 0) scale(1.00 1.00)">
  <polygon points="818 367 806 373 806 361 " shape-rendering="auto"   style="fill-rule:evenodd;"/>
</g>
<g style="stroke-width:1; stroke-linecap:round; stroke-linejoin:round; fill:#000000; fill-opacity:1.00; stroke:#000000; stroke-opacity:1.00;" transform="translate(0 0) scale(1.00 1.00)">
  <path d="M805 411 L1001 411" shape-rendering="auto" />
</g>
<g style="stroke-width:1; stroke-linecap:round; stroke-linejoin:round; fill:#B373AA; fill-opacity:1.00; stroke:#000000; stroke-opacity:1.00;" transform="translate(0 0) scale(1.00 1.00)">
  <polygon points="818 433 806 439 806 427 " shape-rendering="auto"   style="fill-rule:evenodd;"/>
</g>
<g style="stroke-width:1; stroke-linecap:round; stroke-linejoin:round; fill:#A16799; fill-opacity:1.00; stroke:#000000; stroke-opacity:1.00;" transform="translate(0 0) scale(1.00 1.00)">
  <polygon points="818 455 806 461 806 449 " shape-rendering="auto"   style="fill-rule:evenodd;"/>
</g>
<g style="stroke-width:1; stroke-linecap:round; stroke-linejoin:round; fill:#AA76A3; fill-opacity:1.00; stroke:#000000; stroke-opacity:1.00;" transform="translate(0 0) scale(1.00 1.00)">
  <polygon points="818 477 806 483 806 471 " shape-rendering="auto"   style="fill-rule:evenodd;"/>
</g>
</svg>
