<svg xmlns="http://www.w3.org/2000/svg" viewBox="0 0 24 24"><g font-family="sans-serif" letter-spacing="0" word-spacing="0"><g aria-label="WORD" style="line-height:1.25" font-weight="400" font-size="40" stroke-width=".265"><path d="M8.473 9.447l-.89 3.42h-.511l-.72-2.839-.702 2.84h-.501l-.905-3.42h.466l.72 2.843.707-2.844h.461l.715 2.871.714-2.87zM11.69 9.84q.21.23.32.563.112.333.112.755 0 .423-.114.758-.113.333-.317.556-.212.232-.501.35-.287.116-.657.116-.36 0-.657-.119-.294-.12-.5-.347-.207-.227-.32-.558-.11-.33-.11-.756 0-.418.11-.748.11-.334.322-.57.202-.225.5-.345.301-.12.655-.12.367 0 .66.123.293.12.498.342zm-.04 1.318q0-.666-.3-1.026-.298-.363-.815-.363-.521 0-.82.363-.296.36-.296 1.026 0 .673.303 1.032.303.356.813.356t.811-.356q.303-.359.303-1.032zM15.674 12.867h-.59l-1.145-1.36h-.64v1.36h-.455v-3.42h.958q.31 0 .516.041.207.04.372.143.186.117.29.296.106.177.106.45 0 .37-.187.62-.186.249-.512.375zM14.61 10.41q0-.148-.053-.26-.05-.115-.17-.193-.099-.067-.234-.092-.136-.027-.32-.027h-.535v1.29h.46q.216 0 .377-.036.16-.04.273-.143.103-.096.152-.22.05-.127.05-.32zM19.004 11.16q0 .467-.204.846-.202.379-.54.588-.234.145-.524.209-.287.064-.758.064h-.863v-3.42h.854q.5 0 .795.074.296.07.5.197.35.218.545.581.195.363.195.862zm-.475-.006q0-.402-.14-.678t-.419-.434q-.202-.115-.43-.158-.226-.046-.543-.046h-.428v2.639h.428q.328 0 .571-.048.246-.049.45-.18.256-.163.382-.43.129-.266.129-.665z"/></g><text transform="matrix(.09956 0 0 .09956 -8.08 -61.315)" y="686.404" x="179.803" style="line-height:1.25" font-weight="400" font-size="401.757" stroke-width="2.657" aria-label="Hello"><tspan style="-inkscape-font-specification:'Bauhaus 93, Normal';font-variant-ligatures:normal;font-variant-caps:normal;font-variant-numeric:normal;font-feature-settings:normal;text-align:start" y="686.404" x="179.803" font-size="53.568" font-family="Bauhaus 93">Info</tspan></text><g aria-label="cloud" style="line-height:1.25" font-weight="400" font-size="40" fill="#b3b3b3" stroke-width=".265"><path d="M14.233 17.747q-.215.103-.41.16-.194.058-.412.058-.278 0-.51-.08-.232-.083-.397-.249-.168-.165-.26-.418-.092-.252-.092-.59 0-.63.345-.988.347-.358.914-.358.22 0 .432.062.214.062.39.152v.48h-.023q-.197-.154-.408-.237-.21-.083-.41-.083-.367 0-.58.248-.212.246-.212.724 0 .464.207.714.21.248.586.248.13 0 .266-.034.136-.035.244-.09.094-.048.177-.1.082-.056.13-.095h.023zM15.226 17.907h-.432v-3.574h.432zM18.271 16.626q0 .627-.321.99-.322.363-.861.363-.545 0-.866-.363-.32-.363-.32-.99t.32-.99q.321-.366.866-.366.54 0 .86.366.322.363.322.99zm-.445 0q0-.499-.195-.74-.196-.243-.542-.243-.352 0-.547.243-.193.241-.193.74 0 .482.195.732.195.248.545.248.344 0 .54-.245.197-.248.197-.735zM21.07 17.907h-.433v-.284q-.218.172-.418.264-.2.092-.44.092-.405 0-.63-.246-.225-.248-.225-.726v-1.665h.432v1.46q0 .196.018.336.018.138.078.236.062.102.16.147.1.046.288.046.168 0 .365-.087.2-.087.372-.223v-1.915h.432zM24 17.907h-.432v-.268q-.186.16-.388.25t-.439.09q-.46 0-.73-.354-.269-.354-.269-.981 0-.326.092-.581.094-.255.253-.434.156-.175.363-.267.209-.092.431-.092.203 0 .359.044.156.041.328.131v-1.112H24zm-.432-.631v-1.473q-.174-.078-.312-.108t-.301-.03q-.363 0-.565.253-.202.253-.202.717 0 .457.156.696.156.236.5.236.184 0 .373-.08.188-.083.351-.211z"/></g><g aria-label="text" style="line-height:1.25" font-weight="400" font-size="40" fill="#2b0101" stroke-width=".265"><path d="M20.712 4.653q-.031-.122-.05-.267-.02-.142-.02-.255.002-.393.215-.596.212-.203.678-.2l1.365.007.001-.291.363.002-.001.292.737.004-.003.432-.737-.005-.005.892-.363-.003.005-.89-1.169-.008q-.202 0-.317.008-.112.008-.212.063-.092.05-.136.137-.042.09-.043.27 0 .106.029.221.031.115.052.166v.023zM21.912 7.331l.01-1.89q-.236-.002-.413.069-.175.07-.288.193-.111.119-.167.282-.056.165-.057.362-.002.262.1.527.104.267.204.38v.023l-.47-.003q-.091-.218-.152-.446-.06-.228-.06-.478.005-.639.351-.995.349-.356.985-.353.63.004.997.348.368.347.365.907-.003.52-.308.798-.305.28-.863.277zm.333-.418q.34 0 .527-.17.187-.166.19-.51.001-.347-.202-.555-.203-.206-.506-.235zM20.657 10.2l.003-.545.99-.722-.981-.739.003-.503 1.273 1.01 1.292-.985-.003.544-.973.718.965.731-.003.506-1.258-1.016zM20.67 12.095q-.032-.122-.052-.267-.02-.143-.02-.255.003-.393.215-.596.213-.203.68-.2l1.364.007.001-.291.363.002-.002.291.738.005-.003.432-.737-.005-.005.892-.363-.003.005-.89-1.17-.008q-.201 0-.316.008-.113.008-.212.063-.092.05-.136.137-.042.09-.043.27 0 .106.029.221.031.115.051.166v.023z"/></g><g aria-label="data" style="line-height:1.25" font-weight="400" font-size="40" stroke-width=".265"><path d="M16.47 22.275h-.431v-.268q-.186.16-.388.25t-.44.09q-.458 0-.73-.354-.268-.354-.268-.98 0-.327.092-.582.094-.255.252-.434.156-.175.363-.267.21-.091.432-.091.202 0 .358.043.157.042.329.131v-1.112h.432zm-.431-.631V20.17q-.175-.078-.313-.107-.137-.03-.3-.03-.363 0-.566.252-.202.253-.202.717 0 .457.157.696.156.237.5.237.184 0 .372-.08.189-.084.352-.212zM19.314 22.275h-.43v-.273l-.155.11q-.097.07-.189.11-.108.053-.248.088-.14.037-.328.037-.347 0-.588-.23-.242-.23-.242-.586 0-.291.124-.47.127-.182.359-.285.234-.104.563-.14.328-.037.705-.056v-.066q0-.147-.053-.244-.05-.096-.147-.151-.092-.053-.22-.072-.13-.018-.27-.018-.17 0-.378.046-.21.044-.432.129h-.023v-.44q.126-.034.365-.075.239-.041.47-.041.272 0 .472.046.202.043.349.151.145.106.22.274.076.167.076.415zm-.43-.631v-.715q-.197.012-.466.035-.266.023-.422.067-.186.052-.301.165-.115.11-.115.305 0 .22.133.333.134.11.407.11.227 0 .416-.087.188-.09.349-.213zM21.483 22.253q-.122.032-.267.052-.142.021-.255.021-.393 0-.597-.211-.204-.212-.204-.678v-1.364h-.292v-.363h.292v-.738h.431v.738h.892v.363h-.892v1.169q0 .202.01.317.009.112.064.211.05.092.138.136.09.041.27.041.106 0 .221-.03.115-.032.166-.053h.023zM24 22.275h-.43v-.273l-.156.11q-.096.07-.188.11-.108.053-.248.088-.14.037-.329.037-.346 0-.588-.23-.24-.23-.24-.586 0-.291.123-.47.127-.182.359-.285.234-.104.562-.14.329-.037.705-.056v-.066q0-.147-.052-.244-.05-.096-.147-.151-.092-.053-.22-.072-.13-.018-.27-.018-.17 0-.379.046-.209.044-.431.129h-.023v-.44q.126-.034.365-.075.239-.041.47-.041.272 0 .472.046.202.043.349.151.144.106.22.274.076.167.076.415zm-.43-.631v-.715q-.197.012-.466.035-.266.023-.422.067-.186.052-.301.165-.115.11-.115.305 0 .22.133.333.133.11.407.11.227 0 .415-.087.189-.09.35-.213z"/></g><g style="line-height:1.25" aria-label="Analysis" font-weight="700" font-size="1.206" fill="#999" stroke-width=".07"><path style="-inkscape-font-specification:'sans-serif, Bold';font-variant-ligatures:normal;font-variant-caps:normal;font-variant-numeric:normal;font-feature-settings:normal;text-align:start" d="M3.346 19.877v.914l-.647.238v1.27l.647.238v.892L.144 22.162v-1.018zm-1.234 1.365l-1.149.422 1.149.421zM3.346 16.827v.834H2.148q-.146 0-.29.016-.146.015-.215.055-.08.046-.116.136-.037.087-.037.246 0 .113.035.23.034.115.11.252h1.711v.829H.931v-.83h.267q-.162-.22-.248-.423-.086-.205-.086-.454 0-.42.228-.654.228-.237.682-.237zM2.716 14.497h-.503q.013.168.036.363.022.196.052.298.037.124.108.191.068.065.182.065.076 0 .123-.016t.09-.07q.043-.052.065-.126.02-.074.02-.23 0-.125-.048-.252-.048-.129-.125-.225zm.374 0q.048.067.114.166.067.099.106.186.051.122.075.254.026.131.026.287 0 .369-.213.618-.213.248-.544.248-.265 0-.432-.126-.168-.127-.265-.36-.097-.23-.138-.57-.04-.342-.06-.708h-.013q-.2 0-.275.175-.077.175-.077.516 0 .205.069.437.066.233.103.334v.076H.983q-.032-.131-.075-.426-.045-.297-.045-.594 0-.707.204-1.02.202-.316.636-.316h1.643v.822zM3.346 12.083v.83H0v-.83zM2.492 10.132l-1.56-.59v-.851l3.3 1.437v.898l-.903-.41L.93 11.622v-.87zM2.58 5.984q.375 0 .605.36.228.359.228.983 0 .346-.06.627-.06.28-.134.451h-.636V8.33l.09-.142q.047-.083.103-.233.05-.13.086-.293.035-.163.035-.35 0-.244-.05-.361-.052-.118-.15-.118-.089 0-.127.07-.041.069-.078.262-.02.092-.04.251-.024.157-.057.286-.086.352-.266.523-.183.17-.454.17-.348 0-.578-.352-.233-.355-.233-.968 0-.29.056-.555.054-.267.116-.417h.611v.072q-.118.184-.191.421-.076.235-.076.477 0 .2.052.338.052.136.146.136.086 0 .131-.062.046-.062.09-.293.025-.127.048-.272.022-.147.056-.295.08-.327.252-.483.17-.157.425-.157zM3.346 4.603v.829H.931v-.83zM.587 4.579v.875H0V4.58zM2.58 1.572q.375 0 .605.36.228.359.228.983 0 .345-.06.626-.06.28-.134.451h-.636v-.075l.09-.143q.047-.083.103-.233.05-.129.086-.292.035-.164.035-.35 0-.245-.05-.362-.052-.117-.15-.117-.089 0-.127.069-.041.07-.078.262-.02.093-.04.251-.024.157-.057.286-.086.352-.266.523-.183.17-.454.17-.348 0-.578-.352-.233-.355-.233-.967 0-.29.056-.555.054-.268.116-.417h.611v.071q-.118.185-.191.422-.076.235-.076.477 0 .2.052.338.052.136.146.136.086 0 .131-.062.046-.062.09-.293.025-.127.048-.272.022-.147.056-.295.08-.327.252-.483.17-.157.425-.157z"/></g></g></svg>