<?xml version="1.0" encoding="UTF-8" standalone="no"?>
<!DOCTYPE svg PUBLIC "-//W3C//DTD SVG 1.1//EN" "http://www.w3.org/Graphics/SVG/1.1/DTD/svg11.dtd">

<svg xmlns="http://www.w3.org/2000/svg" xmlns:xlink="http://www.w3.org/1999/xlink" width="24.69cm" height="21.17cm" viewBox="0 0 700 600">
<title>panel</title>
<desc>Created with wxWidgets 3.3.2</desc>

<g fill="black" stroke="black" stroke-width="1">
</g>
<g stroke-width="1" stroke-linecap="round" stroke-linejoin="round" fill="#000000" fill-opacity="0.0" stroke="#000000" stroke-opacity="0.0" transform="translate(0 0) scale(1.00 1.00)">
  <rect x="0" y="0" width="700" height="600" rx="0.00" shape-rendering="auto"  />
</g>
<g stroke-width="1" stroke-linecap="round" stroke-linejoin="round" fill="#FFFFFF" fill-opacity="1.00" stroke="#000000" stroke-opacity="1.00" transform="translate(0 0) scale(1.00 1.00)">
</g>
<g stroke-width="1" stroke-linecap="round" stroke-linejoin="round" fill="#FFFFFF" fill-opacity="1.00" stroke="#000000" stroke-opacity="1.00" transform="translate(0 0) scale(1.00 1.00)">
  <rect x="0" y="0" width="700" height="600" rx="0.00" shape-rendering="auto"  />
</g>
<g stroke-width="1" stroke-linecap="round" stroke-linejoin="round" fill="#FFFFFF" fill-opacity="1.00" stroke="#000000" stroke-opacity="1.00" transform="translate(0 0) scale(1.00 1.00)">
  <text x="0.00" y="13.00" textLength="94" font-family="Segoe UI" font-weight="400" font-style="normal" font-size="9.00pt" text-decoration=" none" fill="#000000" fill-opacity="1.00" stroke="#000000" stroke-opacity="1.00" stroke-width="0" xml:space="preserve" style="white-space: pre;"  transform="rotate(0.00 0.00 13.00)"> Describe Yourself</text>
</g>
<g stroke-width="1" stroke-linecap="round" stroke-linejoin="round" fill="#B2BEB5" fill-opacity="1.00" stroke="#000000" stroke-opacity="0.0" transform="translate(0 0) scale(1.00 1.00)">
  <path d="M567.00 307.50 A217.50 217.50 0 0 0 523.23 176.64 L349.50 307.50 z" shape-rendering="auto" />
</g>
<g stroke-width="1" stroke-linecap="round" stroke-linejoin="round" fill="#000000" fill-opacity="0.0" stroke="#000000" stroke-opacity="1.00" transform="translate(0 0) scale(1.00 1.00)">
  <path d="M567.00 307.50 A217.50 217.50 0 0 0 523.23 176.64" shape-rendering="auto" />
</g>
<g stroke-width="1" stroke-linecap="round" stroke-linejoin="round" fill="#B2BEB5" fill-opacity="1.00" stroke="#000000" stroke-opacity="0.0" transform="translate(0 0) scale(1.00 1.00)">
  <path d="M567.00 307.50 A217.50 217.50 0 0 0 523.23 176.64 L349.50 307.50 z" shape-rendering="auto" />
</g>
<g stroke-width="1" stroke-linecap="round" stroke-linejoin="round" fill="#000000" fill-opacity="0.0" stroke="#000000" stroke-opacity="1.00" transform="translate(0 0) scale(1.00 1.00)">
  <path d="M567.00 307.50 A217.50 217.50 0 0 0 523.23 176.64" shape-rendering="auto" />
</g>
<g stroke-width="1" stroke-linecap="round" stroke-linejoin="round" fill="#FFFFFF" fill-opacity="1.00" stroke="#000000" stroke-opacity="1.00" transform="translate(0 0) scale(1.00 1.00)">
  <path d="M349 307 L567 307" shape-rendering="auto" />
</g>
<g stroke-width="1" stroke-linecap="round" stroke-linejoin="round" fill="#FFFFFF" fill-opacity="1.00" stroke="#000000" stroke-opacity="1.00" transform="translate(0 0) scale(1.00 1.00)">
  <path d="M349 307 L523 176" shape-rendering="auto" />
</g>
<g stroke-width="1" stroke-linecap="round" stroke-linejoin="round" fill="#FAEBD7" fill-opacity="1.00" stroke="#000000" stroke-opacity="0.0" transform="translate(0 0) scale(1.00 1.00)">
  <path d="M523.23 176.64 A217.50 217.50 0 1 0 567.00 307.50 L349.50 307.50 z" shape-rendering="auto" />
</g>
<g stroke-width="1" stroke-linecap="round" stroke-linejoin="round" fill="#000000" fill-opacity="0.0" stroke="#000000" stroke-opacity="1.00" transform="translate(0 0) scale(1.00 1.00)">
  <path d="M523.23 176.64 A217.50 217.50 0 1 0 567.00 307.50" shape-rendering="auto" />
</g>
<g stroke-width="1" stroke-linecap="round" stroke-linejoin="round" fill="#FFFFFF" fill-opacity="1.00" stroke="#000000" stroke-opacity="0.0" transform="translate(0 0) scale(1.00 1.00)">
  <path d="M523.23 176.64 A217.50 217.50 0 1 0 567.00 307.50 L349.50 307.50 z" shape-rendering="auto" />
</g>
<g stroke-width="1" stroke-linecap="round" stroke-linejoin="round" fill="#000000" fill-opacity="0.0" stroke="#000000" stroke-opacity="1.00" transform="translate(0 0) scale(1.00 1.00)">
  <path d="M523.23 176.64 A217.50 217.50 0 1 0 567.00 307.50" shape-rendering="auto" />
</g>
<g stroke-width="1" stroke-linecap="round" stroke-linejoin="round" fill="#FFFFFF" fill-opacity="1.00" stroke="#000000" stroke-opacity="1.00" transform="translate(0 0) scale(1.00 1.00)">
  <path d="M349 307 L523 176" shape-rendering="auto" />
</g>
<g stroke-width="1" stroke-linecap="round" stroke-linejoin="round" fill="#FFFFFF" fill-opacity="1.00" stroke="#000000" stroke-opacity="1.00" transform="translate(0 0) scale(1.00 1.00)">
  <path d="M349 307 L567 307" shape-rendering="auto" />
</g>
<g stroke-width="1" stroke-linecap="round" stroke-linejoin="round" fill="#FFFFFF" fill-opacity="1.00" stroke="#B2BEB5" stroke-opacity="1.00" transform="translate(0 0) scale(1.00 1.00)">
  <path d="M143 376 L143 376" shape-rendering="auto" stroke-dasharray="3.333333,2.666667"/>
  <path d="M143 376 L89 376" shape-rendering="auto" stroke-dasharray="3.333333,2.666667"/>
</g>
<g stroke-width="1" stroke-linecap="round" stroke-linejoin="round" fill="#FFFFFF" fill-opacity="1.00" stroke="#000000" stroke-opacity="1.00" transform="translate(0 0) scale(1.00 1.00)">
  <text x="5.00" y="380.00" textLength="81" font-family="Segoe UI" font-weight="700" font-style="normal" font-size="7.50pt" text-decoration=" none" fill="#000000" fill-opacity="1.00" stroke="#000000" stroke-opacity="1.00" stroke-width="0" xml:space="preserve" style="white-space: pre;"  transform="rotate(0.00 5.00 380.00)">Night Owl (90%)</text>
</g>
<g stroke-width="1" stroke-linecap="round" stroke-linejoin="round" fill="#FFFFFF" fill-opacity="1.00" stroke="#B2BEB5" stroke-opacity="1.00" transform="translate(0 0) scale(1.00 1.00)">
  <path d="M555 238 L555 238" shape-rendering="auto" stroke-dasharray="3.333333,2.666667"/>
  <path d="M555 238 L583 238" shape-rendering="auto" stroke-dasharray="3.333333,2.666667"/>
</g>
<g stroke-width="1" stroke-linecap="round" stroke-linejoin="round" fill="#FFFFFF" fill-opacity="1.00" stroke="#000000" stroke-opacity="1.00" transform="translate(0 0) scale(1.00 1.00)">
  <text x="587.00" y="242.00" textLength="107" font-family="Segoe UI" font-weight="700" font-style="normal" font-size="7.50pt" text-decoration=" none" fill="#000000" fill-opacity="1.00" stroke="#000000" stroke-opacity="1.00" stroke-width="0" xml:space="preserve" style="white-space: pre;"  transform="rotate(0.00 587.00 242.00)">Morning Person (10%)</text>
</g>
<g stroke-width="1" stroke-linecap="round" stroke-linejoin="round" fill="#000000" fill-opacity="0.29" stroke="#000000" stroke-opacity="0.00" transform="translate(0 0) scale(1.00 1.00)">
  <polygon points="547 305 547 309 566 309 566 305 " shape-rendering="auto"   fill-rule="evenodd"/>
</g>
<g stroke-width="1" stroke-linecap="round" stroke-linejoin="round" fill="#000000" fill-opacity="0.29" stroke="#000000" stroke-opacity="0.00" transform="translate(0 0) scale(1.00 1.00)">
  <polygon points="351 505 347 505 347 524 351 524 " shape-rendering="auto"   fill-rule="evenodd"/>
</g>
<g stroke-width="1" stroke-linecap="round" stroke-linejoin="round" fill="#000000" fill-opacity="0.29" stroke="#000000" stroke-opacity="0.00" transform="translate(0 0) scale(1.00 1.00)">
  <polygon points="151 309 151 305 133 305 133 309 " shape-rendering="auto"   fill-rule="evenodd"/>
</g>
<g stroke-width="1" stroke-linecap="round" stroke-linejoin="round" fill="#000000" fill-opacity="0.29" stroke="#000000" stroke-opacity="0.00" transform="translate(0 0) scale(1.00 1.00)">
  <polygon points="347 109 351 109 351 91 347 91 " shape-rendering="auto"   fill-rule="evenodd"/>
</g>
<g stroke-width="1" stroke-linecap="round" stroke-linejoin="round" fill="#000000" fill-opacity="0.29" stroke="#000000" stroke-opacity="0.00" transform="translate(0 0) scale(1.00 1.00)">
  <polygon points="528 409 527 410 535 415 536 414 " shape-rendering="auto"   fill-rule="evenodd"/>
</g>
<g stroke-width="1" stroke-linecap="round" stroke-linejoin="round" fill="#000000" fill-opacity="0.29" stroke="#000000" stroke-opacity="0.00" transform="translate(0 0) scale(1.00 1.00)">
  <polygon points="452 485 451 486 456 494 457 493 " shape-rendering="auto"   fill-rule="evenodd"/>
</g>
<g stroke-width="1" stroke-linecap="round" stroke-linejoin="round" fill="#000000" fill-opacity="0.29" stroke="#000000" stroke-opacity="0.00" transform="translate(0 0) scale(1.00 1.00)">
  <polygon points="246 486 245 485 240 493 241 494 " shape-rendering="auto"   fill-rule="evenodd"/>
</g>
<g stroke-width="1" stroke-linecap="round" stroke-linejoin="round" fill="#000000" fill-opacity="0.29" stroke="#000000" stroke-opacity="0.00" transform="translate(0 0) scale(1.00 1.00)">
  <polygon points="170 410 169 409 161 414 162 415 " shape-rendering="auto"   fill-rule="evenodd"/>
</g>
<g stroke-width="1" stroke-linecap="round" stroke-linejoin="round" fill="#000000" fill-opacity="0.29" stroke="#000000" stroke-opacity="0.00" transform="translate(0 0) scale(1.00 1.00)">
  <polygon points="169 204 170 203 162 198 161 199 " shape-rendering="auto"   fill-rule="evenodd"/>
</g>
<g stroke-width="1" stroke-linecap="round" stroke-linejoin="round" fill="#000000" fill-opacity="0.29" stroke="#000000" stroke-opacity="0.00" transform="translate(0 0) scale(1.00 1.00)">
  <polygon points="245 128 246 127 241 119 240 120 " shape-rendering="auto"   fill-rule="evenodd"/>
</g>
<g stroke-width="1" stroke-linecap="round" stroke-linejoin="round" fill="#000000" fill-opacity="0.29" stroke="#000000" stroke-opacity="0.00" transform="translate(0 0) scale(1.00 1.00)">
  <polygon points="451 127 452 128 457 120 456 119 " shape-rendering="auto"   fill-rule="evenodd"/>
</g>
<g stroke-width="1" stroke-linecap="round" stroke-linejoin="round" fill="#000000" fill-opacity="0.29" stroke="#000000" stroke-opacity="0.00" transform="translate(0 0) scale(1.00 1.00)">
  <polygon points="527 203 528 204 536 199 535 198 " shape-rendering="auto"   fill-rule="evenodd"/>
</g>
<g stroke-width="1" stroke-linecap="round" stroke-linejoin="round" fill="#000000" fill-opacity="1.00" stroke="#000000" stroke-opacity="1.00" transform="translate(0 0) scale(1.00 1.00)">
  <polygon points="469 305 382 304 327 304 327 310 382 310 469 308 " shape-rendering="auto"   fill-rule="evenodd"/>
</g>
<g stroke-width="1" stroke-linecap="round" stroke-linejoin="round" fill="#FFFFFF" fill-opacity="1.00" stroke="#FFFFFF" stroke-opacity="0.47" transform="translate(0 0) scale(1.00 1.00)">
  <path d="M327 306 L469 306" shape-rendering="auto" />
</g>
<g stroke-width="1" stroke-linecap="round" stroke-linejoin="round" fill="#FFFFFF" fill-opacity="1.00" stroke="#FFFFFF" stroke-opacity="0.29" transform="translate(0 0) scale(1.00 1.00)">
  <path d="M327 305 L469 305" shape-rendering="auto" />
</g>
<g stroke-width="1" stroke-linecap="round" stroke-linejoin="round" fill="#FFFFFF" fill-opacity="1.00" stroke="#FFFFFF" stroke-opacity="0.12" transform="translate(0 0) scale(1.00 1.00)">
  <path d="M327 304 L469 304" shape-rendering="auto" />
</g>
<g stroke-width="1" stroke-linecap="round" stroke-linejoin="round" fill="#000000" fill-opacity="1.00" stroke="#000000" stroke-opacity="1.00" transform="translate(0 0) scale(1.00 1.00)">
  <polygon points="487 200 372 283 329 316 334 323 377 290 488 203 " shape-rendering="auto"   fill-rule="evenodd"/>
</g>
<g stroke-width="1" stroke-linecap="round" stroke-linejoin="round" fill="#FFFFFF" fill-opacity="1.00" stroke="#FFFFFF" stroke-opacity="0.47" transform="translate(0 0) scale(1.00 1.00)">
  <path d="M331 319 L487 201" shape-rendering="auto" />
</g>
<g stroke-width="1" stroke-linecap="round" stroke-linejoin="round" fill="#FFFFFF" fill-opacity="1.00" stroke="#FFFFFF" stroke-opacity="0.29" transform="translate(0 0) scale(1.00 1.00)">
  <path d="M331 319 L487 201" shape-rendering="auto" />
</g>
<g stroke-width="1" stroke-linecap="round" stroke-linejoin="round" fill="#FFFFFF" fill-opacity="1.00" stroke="#FFFFFF" stroke-opacity="0.12" transform="translate(0 0) scale(1.00 1.00)">
  <path d="M330 318 L486 200" shape-rendering="auto" />
</g>
<g stroke-width="1" stroke-linecap="round" stroke-linejoin="round" fill="#000000" fill-opacity="1.00" stroke="#000000" stroke-opacity="1.00" transform="translate(0 0) scale(1.00 1.00)">
  <ellipse cx="349.00" cy="307.00" rx="6.00" ry="6.00" shape-rendering="auto" />
</g>
<g stroke-width="1" stroke-linecap="round" stroke-linejoin="round" fill="#FFFFFF" fill-opacity="1.00" stroke="#FFFFFF" stroke-opacity="1.00" transform="translate(0 0) scale(1.00 1.00)">
  <ellipse cx="349.00" cy="307.00" rx="3.00" ry="3.00" shape-rendering="auto" />
</g>
</svg>
