<?xml version="1.0" encoding="UTF-8" standalone="no"?>
<!DOCTYPE svg PUBLIC "-//W3C//DTD SVG 1.1//EN" "http://www.w3.org/Graphics/SVG/1.1/DTD/svg11.dtd">

<svg xmlns="http://www.w3.org/2000/svg" xmlns:xlink="http://www.w3.org/1999/xlink" width="25.36cm" height="19.40cm" viewBox="0 0 719 550">
<title>panel</title>
<desc>Created with wxWidgets 3.3.2</desc>

<g fill="black" stroke="black" stroke-width="1">
</g>
<g stroke-width="1" stroke-linecap="round" stroke-linejoin="round" fill="#000000" fill-opacity="0.0" stroke="#000000" stroke-opacity="0.0" transform="translate(0 0) scale(1.00 1.00)">
  <rect x="0" y="0" width="719" height="550" rx="0.00" shape-rendering="auto"  />
</g>
<g stroke-width="1" stroke-linecap="round" stroke-linejoin="round" fill="#FFFFFF" fill-opacity="1.00" stroke="#000000" stroke-opacity="1.00" transform="translate(0 0) scale(1.00 1.00)">
</g>
<g stroke-width="1" stroke-linecap="round" stroke-linejoin="round" fill="#FFFFFF" fill-opacity="1.00" stroke="#000000" stroke-opacity="1.00" transform="translate(0 0) scale(1.00 1.00)">
  <rect x="0" y="0" width="719" height="550" rx="0.00" shape-rendering="auto"  />
</g>
<g stroke-width="1" stroke-linecap="round" stroke-linejoin="round" fill="#FFFFFF" fill-opacity="1.00" stroke="#000000" stroke-opacity="1.00" transform="translate(0 0) scale(1.00 1.00)">
  <text x="0.00" y="13.00" textLength="113" font-family="Segoe UI" font-weight="400" font-style="normal" font-size="9.00pt" text-decoration=" none" fill="#000000" fill-opacity="1.00" stroke="#000000" stroke-opacity="1.00" stroke-width="0" xml:space="preserve" style="white-space: pre;"  transform="rotate(0.00 0.00 13.00)"> Favorite Coffee Shop</text>
</g>
<g stroke-width="1" stroke-linecap="round" stroke-linejoin="round" fill="#FFFFFF" fill-opacity="1.00" stroke="#000000" stroke-opacity="0.0" transform="translate(0 0) scale(1.00 1.00)">
  <path d="M557.00 282.50 A198.50 198.50 0 0 0 320.38 87.69 L358.50 282.50 z" shape-rendering="auto" />
</g>
<g stroke-width="1" stroke-linecap="round" stroke-linejoin="round" fill="#000000" fill-opacity="0.0" stroke="#000000" stroke-opacity="1.00" transform="translate(0 0) scale(1.00 1.00)">
  <path d="M557.00 282.50 A198.50 198.50 0 0 0 320.38 87.69" shape-rendering="auto" />
</g>
<g stroke-width="1" stroke-linecap="round" stroke-linejoin="round" fill="#FFFFFF" fill-opacity="1.00" stroke="#000000" stroke-opacity="1.00" transform="translate(0 0) scale(1.00 1.00)">
  <path d="M358 282 L557 282" shape-rendering="auto" />
</g>
<g stroke-width="1" stroke-linecap="round" stroke-linejoin="round" fill="#FFFFFF" fill-opacity="1.00" stroke="#000000" stroke-opacity="1.00" transform="translate(0 0) scale(1.00 1.00)">
  <path d="M358 282 L320 87" shape-rendering="auto" />
</g>
<g stroke-width="1" stroke-linecap="round" stroke-linejoin="round" fill="#FFFFFF" fill-opacity="1.00" stroke="#000000" stroke-opacity="0.0" transform="translate(0 0) scale(1.00 1.00)">
  <path d="M320.38 87.69 A198.50 198.50 0 0 0 160.74 299.63 L358.50 282.50 z" shape-rendering="auto" />
</g>
<g stroke-width="1" stroke-linecap="round" stroke-linejoin="round" fill="#000000" fill-opacity="0.0" stroke="#000000" stroke-opacity="1.00" transform="translate(0 0) scale(1.00 1.00)">
  <path d="M320.38 87.69 A198.50 198.50 0 0 0 160.74 299.63" shape-rendering="auto" />
</g>
<g stroke-width="1" stroke-linecap="round" stroke-linejoin="round" fill="#FFFFFF" fill-opacity="1.00" stroke="#000000" stroke-opacity="1.00" transform="translate(0 0) scale(1.00 1.00)">
  <path d="M358 282 L320 87" shape-rendering="auto" />
</g>
<g stroke-width="1" stroke-linecap="round" stroke-linejoin="round" fill="#FFFFFF" fill-opacity="1.00" stroke="#000000" stroke-opacity="1.00" transform="translate(0 0) scale(1.00 1.00)">
  <path d="M358 282 L160 299" shape-rendering="auto" />
</g>
<g stroke-width="1" stroke-linecap="round" stroke-linejoin="round" fill="#FFFFFF" fill-opacity="1.00" stroke="#000000" stroke-opacity="0.0" transform="translate(0 0) scale(1.00 1.00)">
  <path d="M160.74 299.63 A198.50 198.50 0 0 0 557.00 282.50 L358.50 282.50 z" shape-rendering="auto" />
</g>
<g stroke-width="1" stroke-linecap="round" stroke-linejoin="round" fill="#000000" fill-opacity="0.0" stroke="#000000" stroke-opacity="1.00" transform="translate(0 0) scale(1.00 1.00)">
  <path d="M160.74 299.63 A198.50 198.50 0 0 0 557.00 282.50" shape-rendering="auto" />
</g>
<g stroke-width="1" stroke-linecap="round" stroke-linejoin="round" fill="#FFFFFF" fill-opacity="1.00" stroke="#000000" stroke-opacity="1.00" transform="translate(0 0) scale(1.00 1.00)">
  <path d="M358 282 L160 299" shape-rendering="auto" />
</g>
<g stroke-width="1" stroke-linecap="round" stroke-linejoin="round" fill="#FFFFFF" fill-opacity="1.00" stroke="#000000" stroke-opacity="1.00" transform="translate(0 0) scale(1.00 1.00)">
  <path d="M358 282 L557 282" shape-rendering="auto" />
</g>
<g stroke-width="1" stroke-linecap="round" stroke-linejoin="round" fill="#FFFFFF" fill-opacity="1.00" stroke="#000000" stroke-opacity="1.00" transform="translate(0 0) scale(1.00 1.00)">
  <text x="411.00" y="209.00" textLength="18" font-family="Segoe UI" font-weight="400" font-style="normal" font-size="7.70pt" text-decoration=" none" fill="#000000" fill-opacity="1.00" stroke="#000000" stroke-opacity="1.00" stroke-width="0" xml:space="preserve" style="white-space: pre;"  transform="rotate(0.00 411.00 209.00)">28%</text>
  <text x="269.00" y="226.00" textLength="18" font-family="Segoe UI" font-weight="400" font-style="normal" font-size="7.70pt" text-decoration=" none" fill="#000000" fill-opacity="1.00" stroke="#000000" stroke-opacity="1.00" stroke-width="0" xml:space="preserve" style="white-space: pre;"  transform="rotate(0.00 269.00 226.00)">23%</text>
  <text x="353.00" y="384.00" textLength="18" font-family="Segoe UI" font-weight="400" font-style="normal" font-size="7.70pt" text-decoration=" none" fill="#000000" fill-opacity="1.00" stroke="#000000" stroke-opacity="1.00" stroke-width="0" xml:space="preserve" style="white-space: pre;"  transform="rotate(0.00 353.00 384.00)">49%</text>
</g>
<g stroke-width="1" stroke-linecap="round" stroke-linejoin="round" fill="#FFFFFF" fill-opacity="1.00" stroke="#B2BEB5" stroke-opacity="1.00" transform="translate(0 0) scale(1.00 1.00)">
  <path d="M199 163 L199 163" shape-rendering="auto" stroke-dasharray="3.333333,2.666667"/>
  <path d="M199 163 L68 163" shape-rendering="auto" stroke-dasharray="3.333333,2.666667"/>
</g>
<g stroke-width="1" stroke-linecap="round" stroke-linejoin="round" fill="#FFFFFF" fill-opacity="1.00" stroke="#000000" stroke-opacity="1.00" transform="translate(0 0) scale(1.00 1.00)">
  <text x="4.00" y="167.00" textLength="60" font-family="Segoe UI" font-weight="700" font-style="normal" font-size="7.70pt" text-decoration=" none" fill="#000000" fill-opacity="1.00" stroke="#000000" stroke-opacity="1.00" stroke-width="0" xml:space="preserve" style="white-space: pre;"  transform="rotate(0.00 4.00 167.00)">Warehouse 4</text>
</g>
<g stroke-width="1" stroke-linecap="round" stroke-linejoin="round" fill="#FFFFFF" fill-opacity="1.00" stroke="#B2BEB5" stroke-opacity="1.00" transform="translate(0 0) scale(1.00 1.00)">
  <path d="M484 129 L484 129" shape-rendering="auto" stroke-dasharray="3.333333,2.666667"/>
  <path d="M484 129 L660 129" shape-rendering="auto" stroke-dasharray="3.333333,2.666667"/>
</g>
<g stroke-width="1" stroke-linecap="round" stroke-linejoin="round" fill="#FFFFFF" fill-opacity="1.00" stroke="#000000" stroke-opacity="1.00" transform="translate(0 0) scale(1.00 1.00)">
  <text x="664.00" y="133.00" textLength="49" font-family="Segoe UI" font-weight="700" font-style="normal" font-size="7.70pt" text-decoration=" none" fill="#000000" fill-opacity="1.00" stroke="#000000" stroke-opacity="1.00" stroke-width="0" xml:space="preserve" style="white-space: pre;"  transform="rotate(0.00 664.00 133.00)">Ghostlight</text>
</g>
<g stroke-width="1" stroke-linecap="round" stroke-linejoin="round" fill="#FFFFFF" fill-opacity="1.00" stroke="#B2BEB5" stroke-opacity="1.00" transform="translate(0 0) scale(1.00 1.00)">
  <path d="M367 480 L367 480" shape-rendering="auto" stroke-dasharray="3.333333,2.666667"/>
  <path d="M367 480 L675 480" shape-rendering="auto" stroke-dasharray="3.333333,2.666667"/>
</g>
<g stroke-width="1" stroke-linecap="round" stroke-linejoin="round" fill="#FFFFFF" fill-opacity="1.00" stroke="#000000" stroke-opacity="1.00" transform="translate(0 0) scale(1.00 1.00)">
  <text x="679.00" y="484.00" textLength="34" font-family="Segoe UI" font-weight="700" font-style="normal" font-size="7.70pt" text-decoration=" none" fill="#000000" fill-opacity="1.00" stroke="#000000" stroke-opacity="1.00" stroke-width="0" xml:space="preserve" style="white-space: pre;"  transform="rotate(0.00 679.00 484.00)">Winans</text>
</g>
<g stroke-width="1" stroke-linecap="round" stroke-linejoin="round" fill="#E8CDA0" fill-opacity="0.86" stroke="#966E46" stroke-opacity="0.35" transform="translate(0 0) scale(1.00 1.00)">
  <polygon points="566 284 566 291 565 298 565 305 564 312 563 319 561 326 561 334 559 341 556 347 554 354 552 361 548 367 546 374 542 380 538 387 535 393 531 399 526 404 521 410 517 416 512 421 507 426 502 431 497 436 492 441 486 445 480 450 474 454 468 458 462 461 456 465 450 468 443 471 436 474 430 477 423 480 416 481 409 483 402 485 395 486 388 487 381 488 374 488 367 489 360 488 352 488 345 487 338 487 331 485 324 483 317 482 311 480 304 478 297 476 291 473 284 470 278 468 271 465 265 461 259 458 253 454 247 450 241 447 235 442 230 438 225 433 219 429 215 423 209 419 204 414 200 408 195 403 191 397 187 391 183 385 179 380 176 373 173 367 170 360 167 353 165 347 163 340 160 333 159 326 158 319 156 312 156 305 155 298 155 291 155 284 155 276 155 269 156 262 157 255 158 248 159 241 161 234 162 227 164 220 166 213 169 207 171 200 174 193 177 187 181 180 184 174 187 167 192 162 196 156 201 150 205 145 210 139 215 134 221 129 226 125 232 120 238 116 244 112 250 108 256 105 263 101 269 98 276 96 283 94 289 90 296 89 303 87 310 86 317 84 324 83 331 82 338 81 345 81 352 81 359 81 367 81 374 81 381 81 388 82 395 84 402 84 409 86 415 89 422 90 429 92 436 95 442 98 449 101 455 104 461 107 467 111 473 115 479 119 484 124 490 128 495 133 500 138 505 143 510 148 514 154 518 159 523 164 527 171 530 177 535 182 538 188 541 195 544 201 547 208 550 214 552 221 555 227 557 234 559 241 561 248 562 255 563 262 564 269 565 276 565 283 555 283 555 277 555 270 554 263 553 256 552 250 551 243 549 236 547 230 544 223 542 217 540 211 537 204 534 198 531 192 528 186 524 180 521 175 517 169 513 164 508 158 504 153 499 148 495 144 490 139 485 135 479 130 474 125 469 121 463 118 457 114 451 111 445 108 439 105 433 102 426 100 420 98 413 97 407 94 400 92 393 92 387 90 380 90 373 89 366 89 359 89 353 89 346 89 339 89 332 90 326 91 319 92 312 94 306 96 299 98 293 100 286 102 280 105 273 107 267 110 261 113 255 117 250 121 244 125 239 129 233 133 228 137 223 142 218 147 213 152 209 157 205 163 201 168 197 174 193 179 189 185 186 191 183 197 180 204 177 210 176 217 174 223 172 230 170 236 168 243 167 250 166 256 165 263 164 270 164 277 164 284 164 290 164 297 165 304 166 311 167 317 168 324 170 331 172 337 174 344 176 350 178 357 181 363 184 369 187 375 190 381 194 387 197 393 201 398 206 403 211 409 215 414 220 419 224 423 229 428 234 432 240 437 245 441 251 445 256 448 262 452 268 455 274 458 280 461 287 464 293 466 299 468 306 470 312 472 319 474 326 475 332 477 339 478 346 479 353 479 360 479 366 479 373 479 380 478 387 477 393 476 400 476 407 474 413 471 420 470 426 467 433 465 439 463 445 459 451 456 457 453 463 449 469 446 474 442 480 438 485 433 490 429 495 424 500 419 505 414 510 410 514 404 518 398 522 393 526 388 530 382 533 376 536 370 539 363 542 357 544 351 546 344 548 338 550 331 552 324 553 318 554 311 555 304 556 297 556 290 556 284 " shape-rendering="auto"   fill-rule="evenodd"/>
</g>
<g stroke-width="1" stroke-linecap="round" stroke-linejoin="round" fill="#B07846" fill-opacity="0.35" stroke="#966E46" stroke-opacity="0.16" transform="translate(0 0) scale(1.00 1.00)">
  <polygon points="566 284 565 291 564 298 564 305 563 312 562 319 561 326 559 333 557 340 555 347 554 354 551 361 547 367 545 374 542 380 538 387 535 393 532 400 527 405 522 411 518 417 514 422 509 428 504 433 498 438 493 442 487 447 481 451 475 455 469 459 463 462 456 465 450 468 443 471 436 473 429 476 423 478 416 479 409 481 402 482 395 483 388 484 381 485 374 486 367 485 360 485 352 485 345 485 338 484 331 483 325 482 318 481 311 479 304 478 297 476 290 474 284 471 277 468 271 466 264 462 258 460 252 456 246 452 240 448 234 444 229 439 223 435 218 430 214 424 208 420 204 414 200 408 195 403 192 397 188 391 184 385 181 379 177 372 175 366 171 360 169 353 166 346 164 340 161 333 160 326 158 319 156 312 156 305 155 298 153 291 153 284 153 276 153 269 153 262 154 255 155 247 157 240 157 233 159 226 161 219 164 212 166 205 169 199 172 192 176 186 180 180 184 174 187 167 192 162 197 156 201 151 207 146 212 141 217 136 223 132 228 127 234 122 239 118 245 114 251 110 257 106 263 103 270 100 276 97 283 94 289 90 296 89 303 87 310 85 317 82 324 82 331 81 338 79 345 79 352 79 359 79 367 80 374 80 381 81 388 82 395 84 402 85 408 87 415 90 422 92 428 94 435 98 441 100 448 102 454 106 460 110 466 113 472 117 477 121 483 126 488 130 494 134 499 139 504 144 510 148 515 153 519 159 524 164 528 170 532 176 537 181 540 187 543 194 547 200 550 207 553 213 555 220 558 227 560 234 561 241 563 248 564 255 564 262 565 269 565 276 565 283 555 283 556 277 556 270 554 263 554 256 553 249 551 243 550 236 548 229 545 223 543 217 541 210 538 204 535 198 532 192 529 186 525 180 522 174 518 169 513 164 508 158 504 153 499 148 495 144 490 139 485 135 479 130 474 126 468 122 463 119 457 115 451 112 445 109 439 106 432 103 426 101 420 99 413 97 407 95 400 93 393 92 387 90 380 89 373 88 366 88 359 88 353 88 346 88 339 89 332 90 326 91 319 92 312 94 306 96 299 98 293 100 286 102 280 105 274 108 268 111 262 114 256 118 250 121 245 125 239 129 234 134 229 138 224 143 219 148 214 153 209 157 205 163 201 168 197 174 193 179 189 185 186 191 183 197 180 204 177 210 175 216 173 223 171 229 169 236 167 243 166 249 165 256 164 263 163 270 163 277 163 284 163 290 164 297 165 304 166 311 167 317 168 324 170 331 172 337 175 344 177 350 179 356 182 363 185 369 188 375 191 381 195 387 198 392 201 398 206 403 211 409 214 414 220 419 224 424 229 429 234 433 239 438 245 442 251 445 256 449 262 453 268 455 274 458 280 461 287 464 293 466 299 468 306 470 312 472 319 474 326 475 332 476 339 477 346 478 353 478 360 478 366 478 373 478 380 477 387 476 393 475 400 474 407 473 413 471 420 469 426 467 433 465 439 462 445 459 451 456 458 454 464 450 469 446 475 442 480 438 486 434 491 430 496 425 501 420 506 415 510 410 514 404 518 399 522 393 526 388 530 382 533 376 536 370 538 363 542 357 544 351 545 344 547 337 550 331 551 324 552 317 553 311 554 304 555 297 555 290 556 284 " shape-rendering="auto"   fill-rule="evenodd"/>
</g>
<g stroke-width="1" stroke-linecap="round" stroke-linejoin="round" fill="#B07846" fill-opacity="0.35" stroke="#966E46" stroke-opacity="0.16" transform="translate(0 0) scale(1.00 1.00)">
  <polygon points="562 282 563 289 562 296 562 303 561 310 560 317 559 324 556 331 555 338 553 345 550 351 547 358 545 365 541 371 538 378 535 384 531 390 528 396 524 402 519 408 515 414 510 419 505 424 500 429 496 435 490 440 485 444 479 449 473 453 467 457 461 460 454 464 448 467 441 470 435 473 428 476 421 477 414 479 407 481 400 483 393 484 386 485 379 485 372 486 365 486 358 486 350 485 343 485 336 484 329 483 322 482 315 481 308 479 302 476 295 474 288 473 282 469 275 466 268 464 262 461 256 458 250 454 244 450 238 446 232 442 227 437 221 433 216 428 210 424 206 418 202 412 197 407 193 401 189 395 185 389 181 383 178 377 175 371 172 364 169 358 166 351 164 344 162 338 160 331 158 324 157 317 156 310 155 303 154 296 154 289 153 282 153 274 153 267 154 260 155 253 156 246 156 239 158 232 160 225 162 218 163 211 166 204 169 198 172 191 175 185 179 178 182 172 186 166 190 160 195 154 199 149 204 143 209 138 215 134 219 128 225 123 231 120 237 115 243 111 249 108 255 104 261 100 268 98 274 95 281 92 288 89 294 87 301 85 308 83 315 81 322 80 329 79 336 78 343 77 350 77 357 77 365 76 372 77 379 78 386 79 393 80 400 81 407 83 414 85 421 87 427 90 434 92 440 96 447 99 453 102 459 105 465 110 471 113 477 118 482 122 488 126 493 131 498 136 503 141 508 146 513 151 517 157 521 162 525 168 529 174 533 180 537 186 540 192 543 199 546 205 549 212 552 218 554 225 556 232 558 239 559 246 561 253 562 260 562 267 563 274 563 281 552 281 552 275 552 268 551 261 550 254 549 248 548 241 546 234 544 228 542 221 540 215 538 209 535 202 532 196 528 191 525 185 522 179 518 173 514 168 510 162 506 157 501 152 497 147 492 142 487 138 482 133 477 129 471 125 466 120 460 117 455 113 449 110 443 107 437 104 430 101 424 99 418 97 411 95 405 93 398 91 391 90 385 89 378 88 371 87 364 87 357 87 351 87 344 87 337 88 330 89 324 90 317 91 310 93 304 95 297 97 291 99 285 101 278 104 272 107 266 110 260 113 254 117 249 120 243 124 238 128 232 132 227 136 222 141 217 146 212 151 208 156 203 161 199 167 195 172 192 178 188 184 185 190 182 196 179 202 176 208 174 215 173 221 171 228 169 234 167 241 166 248 165 254 164 261 163 268 163 275 163 282 163 288 163 295 164 302 165 309 166 315 167 322 169 329 171 335 173 342 175 348 177 354 180 361 183 367 186 373 189 379 193 385 196 390 200 396 204 401 209 407 213 412 218 417 222 421 227 426 232 430 238 435 243 439 249 443 254 446 260 450 266 453 272 456 279 458 285 461 291 463 298 466 304 468 310 470 317 472 324 473 330 474 337 475 344 476 351 476 358 476 364 476 371 476 378 475 385 474 391 473 398 472 405 470 411 469 418 466 424 465 431 463 437 460 443 457 449 454 455 451 461 447 467 444 472 440 478 436 483 431 488 427 493 421 497 417 502 412 506 407 511 401 515 396 519 390 522 385 526 379 529 373 532 367 535 361 538 354 540 348 542 342 544 335 546 329 548 322 549 315 550 309 551 302 552 295 552 288 552 282 " shape-rendering="auto"   fill-rule="evenodd"/>
</g>
<g stroke-width="1" stroke-linecap="round" stroke-linejoin="round" fill="#B07846" fill-opacity="0.35" stroke="#966E46" stroke-opacity="0.16" transform="translate(0 0) scale(1.00 1.00)">
  <polygon points="564 283 564 290 563 297 563 304 562 311 561 318 559 325 558 332 556 339 554 346 552 353 549 360 546 366 543 373 540 379 535 385 533 392 528 397 524 403 519 409 515 415 510 420 505 425 500 430 495 435 489 439 484 444 478 449 472 453 466 457 460 460 454 464 448 467 441 470 434 473 428 476 421 478 414 480 407 482 400 484 393 485 386 486 379 487 372 487 365 487 358 487 350 487 343 486 336 485 329 484 322 482 315 481 309 479 302 477 295 475 289 472 282 470 275 467 269 464 263 460 257 457 251 453 245 450 238 446 233 442 227 438 222 433 217 428 212 423 206 419 202 413 197 408 192 403 188 397 184 391 180 385 177 379 174 372 171 366 168 359 165 352 163 346 161 339 159 332 157 325 156 318 155 311 154 304 153 297 153 290 153 283 153 275 153 268 154 261 155 254 156 247 157 240 159 233 160 226 162 219 164 212 167 206 169 199 172 192 175 186 179 179 182 173 186 167 190 161 194 155 199 149 204 144 208 138 213 133 219 129 225 124 230 120 236 115 242 111 248 107 255 105 261 101 267 98 274 95 281 93 288 90 294 88 301 87 308 85 315 83 322 82 329 81 336 80 343 80 350 80 357 79 365 80 372 79 379 80 386 81 393 82 400 83 407 85 414 87 420 89 427 91 434 94 440 97 447 100 453 103 459 106 465 110 471 114 477 118 483 122 488 127 494 131 498 137 503 142 508 147 513 152 517 158 521 163 525 169 529 175 533 181 536 187 540 194 543 200 546 206 549 213 551 220 553 226 555 233 558 240 559 247 560 254 561 261 562 268 563 275 563 282 552 282 552 276 552 269 551 262 550 255 549 249 548 242 546 235 544 229 542 222 540 216 538 210 534 204 531 198 528 192 525 186 522 180 518 174 514 169 510 163 506 158 501 153 497 148 492 143 488 138 482 134 477 129 472 125 466 121 461 118 455 114 449 111 443 108 437 105 430 102 424 100 418 98 411 96 405 94 398 92 391 91 385 90 378 89 371 88 364 89 357 88 351 89 344 89 337 89 330 90 324 91 317 92 310 94 304 96 297 98 291 100 285 102 278 105 272 108 266 111 260 114 254 117 248 120 243 124 237 128 232 133 227 137 222 142 217 147 212 152 208 157 203 162 199 168 195 173 192 179 188 185 185 191 182 197 179 203 177 210 175 216 173 222 171 229 169 235 167 242 166 249 165 255 164 262 163 269 163 276 163 283 163 289 163 296 164 303 165 310 166 316 167 323 169 330 171 336 173 343 175 349 177 355 180 362 183 368 186 374 189 380 193 386 196 391 200 397 204 402 209 408 213 413 218 417 223 422 228 426 233 431 238 435 244 439 249 443 255 447 261 450 267 453 273 456 279 459 285 462 291 464 298 467 304 469 311 470 317 472 324 473 330 475 337 476 344 477 351 477 358 477 364 477 371 477 378 476 385 475 391 474 398 473 405 471 411 469 418 467 424 465 430 463 437 460 443 457 449 454 455 451 461 447 466 444 472 440 477 436 483 431 488 427 493 422 497 418 502 413 506 408 511 402 515 397 519 391 523 386 527 380 530 374 533 368 536 362 539 356 541 349 543 343 545 336 547 330 549 323 550 316 551 310 552 303 553 296 553 289 553 283 " shape-rendering="auto"   fill-rule="evenodd"/>
</g>
<g stroke-width="1" stroke-linecap="round" stroke-linejoin="round" fill="#B4966E" fill-opacity="0.24" stroke="#000000" stroke-opacity="0.00" transform="translate(0 0) scale(1.00 1.00)">
  <polygon points="188 418 183 415 180 411 176 407 173 403 169 399 166 394 162 390 159 386 156 381 154 377 151 372 149 367 146 362 144 357 142 353 140 348 138 342 136 337 135 332 133 327 132 322 131 316 129 311 129 306 128 300 127 295 127 290 126 284 126 279 126 274 126 268 126 263 127 257 127 252 128 247 129 241 129 236 131 231 132 225 133 220 134 215 135 209 137 204 139 199 141 194 143 189 145 184 148 179 150 174 153 170 155 165 158 160 161 155 164 151 167 147 170 142 174 138 178 134 181 130 185 126 185 126 181 130 178 134 175 139 171 143 169 148 167 153 164 158 162 162 159 168 157 172 155 177 152 182 151 187 148 192 146 196 144 201 143 206 141 211 139 216 138 221 137 226 135 232 134 237 133 242 133 247 132 252 132 258 131 263 131 268 131 274 131 279 131 284 132 289 132 295 133 300 133 305 134 310 135 315 137 321 138 326 139 331 141 336 143 341 144 346 146 351 148 355 151 360 153 365 155 370 158 374 160 379 163 384 165 389 168 393 170 398 174 402 176 407 180 411 183 415 188 418 " shape-rendering="auto"   fill-rule="evenodd"/>
</g>
<g stroke-width="1" stroke-linecap="round" stroke-linejoin="round" fill="#B4966E" fill-opacity="0.10" stroke="#000000" stroke-opacity="0.00" transform="translate(0 0) scale(1.00 1.00)">
  <polygon points="189 420 185 416 181 413 177 409 174 405 170 401 167 396 164 392 161 387 158 383 156 378 152 374 150 369 147 364 145 359 143 355 141 350 139 344 137 339 136 334 134 329 133 324 132 318 130 313 130 308 129 302 128 297 128 292 127 286 127 281 127 276 127 270 127 265 128 259 128 254 129 249 130 243 130 238 132 233 133 227 134 222 136 217 137 212 139 207 141 201 143 196 144 191 146 186 149 181 151 176 154 172 157 167 159 162 162 158 166 154 169 149 171 144 175 140 179 136 182 132 186 128 186 128 182 132 179 136 176 141 173 146 171 151 169 156 166 161 164 166 162 170 161 176 159 181 157 185 154 190 152 195 150 200 148 204 146 209 145 214 143 219 142 224 140 229 139 234 138 239 137 244 137 250 136 255 136 260 135 265 135 270 135 276 135 281 135 286 136 291 136 296 137 301 137 307 138 312 139 317 140 322 142 327 143 332 145 337 146 342 148 347 150 351 152 356 154 361 157 366 159 370 162 375 163 380 166 385 168 389 170 394 173 399 176 404 178 408 181 413 185 416 189 420 " shape-rendering="auto"   fill-rule="evenodd"/>
</g>
<g stroke-width="1" stroke-linecap="round" stroke-linejoin="round" fill="#B4966E" fill-opacity="0.10" stroke="#000000" stroke-opacity="0.00" transform="translate(0 0) scale(1.00 1.00)">
  <polygon points="189 420 185 416 182 412 178 408 175 404 171 400 168 395 165 391 162 386 159 382 157 377 154 373 151 368 149 363 146 358 145 353 143 348 140 343 138 338 137 333 135 328 134 323 133 317 130 312 130 307 129 302 128 296 128 291 127 285 127 280 126 275 126 269 126 264 127 258 127 253 128 247 129 242 129 237 131 231 132 226 133 221 135 215 136 210 138 205 140 200 143 195 145 190 147 185 150 180 152 175 155 171 158 166 160 161 163 157 167 153 170 148 174 145 177 140 180 136 185 132 188 128 188 128 185 132 180 136 178 141 175 146 172 150 170 155 167 160 165 165 163 169 162 175 158 179 157 184 154 188 151 193 149 198 147 203 146 208 144 213 142 218 141 223 140 228 138 233 137 238 136 243 136 248 135 254 135 259 134 264 134 269 134 275 134 280 135 285 135 290 136 295 137 301 137 306 138 311 139 316 141 321 142 326 143 331 145 336 146 341 148 346 150 351 152 356 154 360 157 365 159 370 162 374 163 379 166 384 168 388 171 394 173 399 176 403 179 407 182 412 185 416 189 420 " shape-rendering="auto"   fill-rule="evenodd"/>
</g>
<g stroke-width="1" stroke-linecap="round" stroke-linejoin="round" fill="#A5875F" fill-opacity="0.18" stroke="#000000" stroke-opacity="0.00" transform="translate(0 0) scale(1.00 1.00)">
  <polygon points="550 160 553 163 555 166 558 170 560 173 562 177 565 180 567 184 570 188 572 191 574 195 576 199 578 203 580 207 581 210 583 214 585 218 587 222 589 226 590 230 591 234 592 238 593 242 594 247 595 251 596 255 597 259 598 263 598 268 599 272 599 276 600 280 600 285 601 289 601 293 601 298 600 302 600 306 599 310 600 315 600 319 599 323 597 327 597 332 597 336 595 340 595 344 593 348 592 353 591 357 589 361 589 365 586 369 585 373 583 377 582 381 580 385 579 389 576 392 574 396 572 400 572 400 574 396 576 392 578 389 579 385 581 380 582 376 582 372 584 368 585 363 586 359 587 355 588 351 589 347 590 343 591 339 592 335 593 331 593 327 594 323 595 318 595 314 595 310 596 306 596 302 596 298 596 293 596 289 596 285 596 281 595 277 595 272 594 268 594 264 593 260 592 256 591 252 591 247 590 243 588 239 587 235 586 231 585 227 583 223 582 219 580 215 579 212 577 208 575 204 573 200 571 196 569 193 568 189 566 185 564 181 561 178 560 174 558 170 555 166 553 163 550 160 " shape-rendering="auto"   fill-rule="evenodd"/>
</g>
<g stroke-width="1" stroke-linecap="round" stroke-linejoin="round" fill="#A5875F" fill-opacity="0.07" stroke="#000000" stroke-opacity="0.00" transform="translate(0 0) scale(1.00 1.00)">
  <polygon points="549 159 552 162 554 165 557 169 559 172 562 176 564 179 566 183 569 187 571 190 573 194 575 198 577 202 579 206 580 209 582 213 584 217 585 221 587 225 588 229 589 233 590 238 591 242 592 246 594 250 594 254 596 258 597 262 597 267 598 271 598 275 599 279 599 284 599 288 600 292 600 297 600 301 600 305 599 309 599 314 599 318 598 322 597 327 597 331 596 335 595 339 594 343 593 348 592 352 591 356 589 360 588 364 586 368 585 372 583 376 581 380 580 384 578 388 576 392 574 395 572 399 572 399 574 395 576 392 577 388 579 384 580 379 581 375 582 371 583 367 584 362 585 358 586 354 587 350 588 346 589 342 590 338 591 334 592 330 592 326 593 322 594 317 594 313 594 309 595 305 595 301 595 297 595 292 595 288 595 284 595 280 594 276 594 271 593 267 593 263 592 259 591 255 590 251 590 246 589 242 587 238 586 234 585 230 584 226 582 222 581 218 579 214 578 211 576 207 574 203 572 199 570 195 568 192 567 188 565 184 563 180 561 177 559 173 557 169 554 165 552 162 549 159 " shape-rendering="auto"   fill-rule="evenodd"/>
</g>
<g stroke-width="1" stroke-linecap="round" stroke-linejoin="round" fill="#B9A07D" fill-opacity="0.20" stroke="#000000" stroke-opacity="0.00" transform="translate(0 0) scale(1.00 1.00)">
  <polygon points="195 318 192 327 188 336 185 344 182 352 178 361 174 370 168 378 160 384 151 389 142 392 132 392 122 392 112 391 103 390 93 388 83 385 74 380 66 374 59 366 54 357 51 348 48 338 46 328 44 318 44 308 45 297 48 287 53 278 59 270 67 263 75 256 83 250 91 243 100 236 110 230 122 226 134 225 146 227 158 232 167 240 176 248 183 257 188 267 193 277 196 287 198 298 197 308 " shape-rendering="auto"   fill-rule="evenodd"/>
</g>
<g stroke-width="1" stroke-linecap="round" stroke-linejoin="round" fill="#D2B996" fill-opacity="0.23" stroke="#000000" stroke-opacity="0.00" transform="translate(0 0) scale(1.00 1.00)">
  <polygon points="395 176 395 179 394 181 393 184 393 186 392 189 390 191 389 194 386 196 384 197 381 197 378 197 375 197 372 197 370 196 367 195 365 194 363 192 361 190 359 188 358 186 358 183 357 181 357 178 357 176 357 174 357 171 358 169 359 167 361 165 362 163 364 162 366 160 368 159 370 157 372 155 375 154 378 154 381 154 384 155 386 157 388 158 391 160 392 163 394 165 395 168 396 170 396 173 " shape-rendering="auto"   fill-rule="evenodd"/>
</g>
<g stroke-width="1" stroke-linecap="round" stroke-linejoin="round" fill="#B9A07D" fill-opacity="0.25" stroke="#000000" stroke-opacity="0.00" transform="translate(0 0) scale(1.00 1.00)">
  <polygon points="407 153 406 156 405 158 404 161 403 163 401 165 399 167 398 169 395 171 393 172 390 173 388 173 385 173 382 172 380 172 377 171 375 170 372 169 370 168 368 166 367 163 366 161 366 158 366 155 367 153 367 151 368 148 369 146 370 144 371 143 373 141 375 140 376 138 378 137 380 135 382 134 385 132 388 132 391 132 394 132 396 134 398 135 400 138 402 140 404 142 405 145 406 147 406 150 " shape-rendering="auto"   fill-rule="evenodd"/>
</g>
<g stroke-width="1" stroke-linecap="round" stroke-linejoin="round" fill="#D2B996" fill-opacity="0.23" stroke="#000000" stroke-opacity="0.00" transform="translate(0 0) scale(1.00 1.00)">
  <polygon points="314 230 314 232 314 235 314 237 313 239 312 242 311 244 309 245 307 247 305 248 302 249 300 249 297 248 295 247 293 246 291 245 289 243 288 242 286 241 285 239 284 238 282 236 281 234 281 232 280 230 280 228 280 226 281 223 281 221 282 219 283 216 285 215 287 213 290 212 292 211 294 210 297 210 300 210 302 210 305 211 307 212 309 214 311 216 312 219 312 221 313 223 313 226 314 228 " shape-rendering="auto"   fill-rule="evenodd"/>
</g>
<g stroke-width="1" stroke-linecap="round" stroke-linejoin="round" fill="#AF9673" fill-opacity="0.28" stroke="#000000" stroke-opacity="0.00" transform="translate(0 0) scale(1.00 1.00)">
  <polygon points="374 199 375 201 375 204 375 206 374 209 373 211 371 213 370 215 367 217 365 218 362 219 360 219 357 219 355 217 352 216 351 214 349 213 348 211 346 210 345 208 343 207 342 205 342 203 341 201 341 199 341 197 341 195 342 193 342 191 343 188 344 186 346 185 348 183 350 182 352 181 355 181 357 180 360 180 362 180 365 181 367 182 369 184 370 186 371 188 372 190 373 193 373 195 374 197 " shape-rendering="auto"   fill-rule="evenodd"/>
</g>
<g stroke-width="1" stroke-linecap="round" stroke-linejoin="round" fill="#C3AF91" fill-opacity="0.25" stroke="#000000" stroke-opacity="0.00" transform="translate(0 0) scale(1.00 1.00)">
  <polygon points="349 61 349 64 349 66 348 69 347 71 346 73 344 75 341 76 339 77 337 77 335 78 332 78 330 79 328 78 326 77 324 76 322 74 321 73 320 71 319 69 318 68 317 66 315 65 314 63 313 61 313 59 313 56 314 54 314 52 315 50 317 48 319 46 321 45 323 44 325 44 328 44 330 45 332 46 334 47 336 47 338 47 340 48 342 49 345 50 346 52 348 54 349 56 349 58 " shape-rendering="auto"   fill-rule="evenodd"/>
</g>
<g stroke-width="1" stroke-linecap="round" stroke-linejoin="round" fill="#B9A07D" fill-opacity="0.25" stroke="#000000" stroke-opacity="0.00" transform="translate(0 0) scale(1.00 1.00)">
  <polygon points="273 145 272 148 271 151 269 154 267 156 265 158 262 159 260 160 257 160 254 160 252 160 250 160 248 160 246 161 244 161 241 162 239 161 236 161 234 159 232 157 231 155 230 153 229 150 228 148 228 145 228 142 229 140 229 137 231 135 233 133 234 131 236 130 238 128 240 127 243 126 245 125 248 125 251 126 253 127 255 128 257 129 259 130 262 131 265 132 267 134 270 136 271 139 272 142 " shape-rendering="auto"   fill-rule="evenodd"/>
</g>
</svg>
