<?xml version="1.0" encoding="UTF-8" standalone="no"?>
<!DOCTYPE svg PUBLIC "-//W3C//DTD SVG 1.0//EN" "http://www.w3.org/TR/2001/REC-SVG-20010904/DTD/svg10.dtd">

<svg xmlns="http://www.w3.org/2000/svg" xmlns:xlink="http://www.w3.org/1999/xlink" width="35.74cm" height="22.33cm" viewBox="0 0 1013 633">
<title>panel</title>
<desc>Picture generated by wxSVG v0101</desc>

<g style="fill:black; stroke:black; stroke-width:1">
</g>
<g style="stroke-width:1; stroke-linecap:round; stroke-linejoin:round; fill:#000000; fill-opacity:0.0; stroke:#000000; stroke-opacity:0.0;" transform="translate(0 0) scale(1.00 1.00)">
  <rect x="0" y="0" width="1013" height="633" rx="0.00" shape-rendering="auto"  />
</g>
<g style="stroke-width:1; stroke-linecap:round; stroke-linejoin:round; fill:#FFFFFF; fill-opacity:1.00; stroke:#000000; stroke-opacity:1.00;" transform="translate(0 0) scale(1.00 1.00)">
</g>
<g style="stroke-width:1; stroke-linecap:round; stroke-linejoin:round; fill:#FFFFFF; fill-opacity:1.00; stroke:#000000; stroke-opacity:1.00;" transform="translate(0 0) scale(1.00 1.00)">
  <rect x="0" y="0" width="1013" height="633" rx="0.00" shape-rendering="auto"  />
</g>
<g style="stroke-width:1; stroke-linecap:round; stroke-linejoin:round; fill:#003F5C; fill-opacity:1.00; stroke:#000000; stroke-opacity:0.0;" transform="translate(0 0) scale(1.00 1.00)">
  <path d="M742.00 315.50 A236.50 236.50 0 0 0 349.45 137.79 L505.50 315.50 z" shape-rendering="auto" />
</g>
<g style="stroke-width:1; stroke-linecap:round; stroke-linejoin:round; fill:#000000; fill-opacity:0.0; stroke:#000000; stroke-opacity:0.0;" transform="translate(0 0) scale(1.00 1.00)">
  <path d="M742.00 315.50 A236.50 236.50 0 0 0 349.45 137.79" shape-rendering="auto" />
</g>
<g style="stroke-width:1; stroke-linecap:round; stroke-linejoin:round; fill:#003F5C; fill-opacity:1.00; stroke:#000000; stroke-opacity:0.0;" transform="translate(0 0) scale(1.00 1.00)">
  <path d="M505 315 L742 315" shape-rendering="auto" />
  <path d="M505 315 L349 137" shape-rendering="auto" />
</g>
<g style="stroke-width:1; stroke-linecap:round; stroke-linejoin:round; fill:#2F4B7C; fill-opacity:1.00; stroke:#000000; stroke-opacity:0.0;" transform="translate(0 0) scale(1.00 1.00)">
  <path d="M349.45 137.79 A236.50 236.50 0 0 0 361.07 502.77 L505.50 315.50 z" shape-rendering="auto" />
</g>
<g style="stroke-width:1; stroke-linecap:round; stroke-linejoin:round; fill:#000000; fill-opacity:0.0; stroke:#000000; stroke-opacity:0.0;" transform="translate(0 0) scale(1.00 1.00)">
  <path d="M349.45 137.79 A236.50 236.50 0 0 0 361.07 502.77" shape-rendering="auto" />
</g>
<g style="stroke-width:1; stroke-linecap:round; stroke-linejoin:round; fill:#2F4B7C; fill-opacity:1.00; stroke:#000000; stroke-opacity:0.0;" transform="translate(0 0) scale(1.00 1.00)">
  <path d="M505 315 L349 137" shape-rendering="auto" />
  <path d="M505 315 L361 502" shape-rendering="auto" />
</g>
<g style="stroke-width:1; stroke-linecap:round; stroke-linejoin:round; fill:#665191; fill-opacity:1.00; stroke:#000000; stroke-opacity:0.0;" transform="translate(0 0) scale(1.00 1.00)">
  <path d="M361.07 502.77 A236.50 236.50 0 0 0 530.72 550.65 L505.50 315.50 z" shape-rendering="auto" />
</g>
<g style="stroke-width:1; stroke-linecap:round; stroke-linejoin:round; fill:#000000; fill-opacity:0.0; stroke:#000000; stroke-opacity:0.0;" transform="translate(0 0) scale(1.00 1.00)">
  <path d="M361.07 502.77 A236.50 236.50 0 0 0 530.72 550.65" shape-rendering="auto" />
</g>
<g style="stroke-width:1; stroke-linecap:round; stroke-linejoin:round; fill:#665191; fill-opacity:1.00; stroke:#000000; stroke-opacity:0.0;" transform="translate(0 0) scale(1.00 1.00)">
  <path d="M505 315 L361 502" shape-rendering="auto" />
  <path d="M505 315 L530 550" shape-rendering="auto" />
</g>
<g style="stroke-width:1; stroke-linecap:round; stroke-linejoin:round; fill:#A05195; fill-opacity:1.00; stroke:#000000; stroke-opacity:0.0;" transform="translate(0 0) scale(1.00 1.00)">
  <path d="M530.72 550.65 A236.50 236.50 0 0 0 742.00 315.50 L505.50 315.50 z" shape-rendering="auto" />
</g>
<g style="stroke-width:1; stroke-linecap:round; stroke-linejoin:round; fill:#000000; fill-opacity:0.0; stroke:#000000; stroke-opacity:0.0;" transform="translate(0 0) scale(1.00 1.00)">
  <path d="M530.72 550.65 A236.50 236.50 0 0 0 742.00 315.50" shape-rendering="auto" />
</g>
<g style="stroke-width:1; stroke-linecap:round; stroke-linejoin:round; fill:#A05195; fill-opacity:1.00; stroke:#000000; stroke-opacity:0.0;" transform="translate(0 0) scale(1.00 1.00)">
  <path d="M505 315 L530 550" shape-rendering="auto" />
  <path d="M505 315 L742 315" shape-rendering="auto" />
</g>
<g style="stroke-width:1; stroke-linecap:round; stroke-linejoin:round; fill:#000000; fill-opacity:1.00; stroke:#000000; stroke-opacity:1.00;" transform="translate(0 0) scale(1.00 1.00)">
  <text x="540.00" y="213.00" textLength="27" style="font-family:Segoe UI; font-weight:400; font-style:normal; font-size:10.13pt; text-decoration: none; fill:#FFFFFF; fill-opacity:1.00; stroke:#FFFFFF; stroke-opacity:1.00; stroke-width:0; white-space: pre;" xml:space="preserve" transform="rotate(0.00 540.00 213.00)">36%</text>
</g>
<g style="stroke-width:1; stroke-linecap:round; stroke-linejoin:round; fill:#000000; fill-opacity:1.00; stroke:#000000; stroke-opacity:1.00;" transform="translate(0 0) scale(1.00 1.00)">
  <text x="374.00" y="324.00" textLength="27" style="font-family:Segoe UI; font-weight:400; font-style:normal; font-size:10.13pt; text-decoration: none; fill:#FFFFFF; fill-opacity:1.00; stroke:#FFFFFF; stroke-opacity:1.00; stroke-width:0; white-space: pre;" xml:space="preserve" transform="rotate(0.00 374.00 324.00)">28%</text>
</g>
<g style="stroke-width:1; stroke-linecap:round; stroke-linejoin:round; fill:#000000; fill-opacity:1.00; stroke:#000000; stroke-opacity:1.00;" transform="translate(0 0) scale(1.00 1.00)">
  <text x="459.00" y="434.00" textLength="27" style="font-family:Segoe UI; font-weight:400; font-style:normal; font-size:10.13pt; text-decoration: none; fill:#FFFFFF; fill-opacity:1.00; stroke:#FFFFFF; stroke-opacity:1.00; stroke-width:0; white-space: pre;" xml:space="preserve" transform="rotate(0.00 459.00 434.00)">12%</text>
</g>
<g style="stroke-width:1; stroke-linecap:round; stroke-linejoin:round; fill:#000000; fill-opacity:1.00; stroke:#000000; stroke-opacity:1.00;" transform="translate(0 0) scale(1.00 1.00)">
  <text x="579.00" y="399.00" textLength="27" style="font-family:Segoe UI; font-weight:400; font-style:normal; font-size:10.13pt; text-decoration: none; fill:#FFFFFF; fill-opacity:1.00; stroke:#FFFFFF; stroke-opacity:1.00; stroke-width:0; white-space: pre;" xml:space="preserve" transform="rotate(0.00 579.00 399.00)">23%</text>
</g>
<g style="stroke-width:1; stroke-linecap:round; stroke-linejoin:round; fill:#000000; fill-opacity:1.00; stroke:#000000; stroke-opacity:1.00;" transform="translate(0 0) scale(1.00 1.00)">
  <text x="6.00" y="538.00" textLength="46" style="font-family:Segoe UI; font-weight:700; font-style:normal; font-size:10.13pt; text-decoration: none; fill:#665191; fill-opacity:1.00; stroke:#665191; stroke-opacity:1.00; stroke-width:0; white-space: pre;" xml:space="preserve" transform="rotate(0.00 6.00 538.00)">English</text>
  <text x="5.00" y="559.00" textLength="285" style="font-family:Segoe UI; font-weight:400; font-style:normal; font-size:10.13pt; text-decoration: none; fill:#666666; fill-opacity:1.00; stroke:#666666; stroke-opacity:1.00; stroke-width:0; white-space: pre;" xml:space="preserve" transform="rotate(0.00 5.00 559.00)">Includes both literary and composition courses</text>
</g>
<g style="stroke-width:2; stroke-linecap:round; stroke-linejoin:round; fill:#FFFFFF; fill-opacity:1.00; stroke:#B2BEB5; stroke-opacity:0.78;" transform="translate(0 0) scale(1.00 1.00)">
  <path d="M441 543 L441 543" shape-rendering="auto" stroke-dasharray="6.666667,5.333333"/>
  <path d="M441 543 L296 543" shape-rendering="auto" stroke-dasharray="6.666667,5.333333"/>
</g>
<g style="stroke-width:1; stroke-linecap:round; stroke-linejoin:round; fill:#000000; fill-opacity:1.00; stroke:#000000; stroke-opacity:1.00;" transform="translate(0 0) scale(1.00 1.00)">
  <text x="5.00" y="328.00" textLength="121" style="font-family:Segoe UI; font-weight:700; font-style:normal; font-size:10.13pt; text-decoration: none; fill:#2F4B7C; fill-opacity:1.00; stroke:#2F4B7C; stroke-opacity:1.00; stroke-width:0; white-space: pre;" xml:space="preserve" transform="rotate(0.00 5.00 328.00)">Computer Science</text>
</g>
<g style="stroke-width:2; stroke-linecap:round; stroke-linejoin:round; fill:#FFFFFF; fill-opacity:1.00; stroke:#B2BEB5; stroke-opacity:0.78;" transform="translate(0 0) scale(1.00 1.00)">
  <path d="M269 323 L269 323" shape-rendering="auto" stroke-dasharray="6.666667,5.333333"/>
  <path d="M269 323 L132 323" shape-rendering="auto" stroke-dasharray="6.666667,5.333333"/>
</g>
<g style="stroke-width:1; stroke-linecap:round; stroke-linejoin:round; fill:#000000; fill-opacity:1.00; stroke:#000000; stroke-opacity:1.00;" transform="translate(0 0) scale(1.00 1.00)">
  <text x="950.00" y="105.00" textLength="55" style="font-family:Segoe UI; font-weight:700; font-style:normal; font-size:10.13pt; text-decoration: none; fill:#003F5C; fill-opacity:1.00; stroke:#003F5C; stroke-opacity:1.00; stroke-width:0; white-space: pre;" xml:space="preserve" transform="rotate(0.00 950.00 105.00)">Business</text>
</g>
<g style="stroke-width:2; stroke-linecap:round; stroke-linejoin:round; fill:#FFFFFF; fill-opacity:1.00; stroke:#B2BEB5; stroke-opacity:0.78;" transform="translate(0 0) scale(1.00 1.00)">
  <path d="M603 100 L603 100" shape-rendering="auto" stroke-dasharray="6.666667,5.333333"/>
  <path d="M603 100 L945 100" shape-rendering="auto" stroke-dasharray="6.666667,5.333333"/>
</g>
<g style="stroke-width:1; stroke-linecap:round; stroke-linejoin:round; fill:#000000; fill-opacity:1.00; stroke:#000000; stroke-opacity:1.00;" transform="translate(0 0) scale(1.00 1.00)">
  <text x="955.00" y="478.00" textLength="50" style="font-family:Segoe UI; font-weight:700; font-style:normal; font-size:10.13pt; text-decoration: none; fill:#A05195; fill-opacity:1.00; stroke:#A05195; stroke-opacity:1.00; stroke-width:0; white-space: pre;" xml:space="preserve" transform="rotate(0.00 955.00 478.00)">Science</text>
</g>
<g style="stroke-width:2; stroke-linecap:round; stroke-linejoin:round; fill:#FFFFFF; fill-opacity:1.00; stroke:#B2BEB5; stroke-opacity:0.78;" transform="translate(0 0) scale(1.00 1.00)">
  <path d="M681 473 L681 473" shape-rendering="auto" stroke-dasharray="6.666667,5.333333"/>
  <path d="M681 473 L950 473" shape-rendering="auto" stroke-dasharray="6.666667,5.333333"/>
</g>
</svg>
