<?xml version="1.0" encoding="UTF-8" standalone="no"?>
<!DOCTYPE svg PUBLIC "-//W3C//DTD SVG 1.0//EN" "http://www.w3.org/TR/2001/REC-SVG-20010904/DTD/svg10.dtd">

<svg xmlns="http://www.w3.org/2000/svg" xmlns:xlink="http://www.w3.org/1999/xlink" width="27.23cm" height="17.64cm" viewBox="0 0 772 500">
<title></title>
<desc>Picture generated by wxSVG v0101</desc>

<g style="fill:black; stroke:black; stroke-width:1">
</g>
<g style="stroke-width:1; stroke-linecap:round; stroke-linejoin:round; fill:#000000; fill-opacity:0.0; stroke:#000000; stroke-opacity:0.0;" transform="translate(0 0) scale(1.00 1.00)">
  <rect x="0" y="0" width="772" height="500" rx="0.00" shape-rendering="auto"  />
</g>
<g style="stroke-width:1; stroke-linecap:round; stroke-linejoin:round; fill:#FFFFFF; fill-opacity:1.00; stroke:#000000; stroke-opacity:1.00;" transform="translate(0 0) scale(1.00 1.00)">
</g>
<g style="stroke-width:1; stroke-linecap:round; stroke-linejoin:round; fill:#FFFFFF; fill-opacity:1.00; stroke:#000000; stroke-opacity:1.00;" transform="translate(0 0) scale(1.00 1.00)">
  <rect x="0" y="0" width="772" height="500" rx="0.00" shape-rendering="auto"  />
</g>
<g style="stroke-width:2; stroke-linecap:round; stroke-linejoin:round; fill:#FFFFFF; fill-opacity:1.00; stroke:#000000; stroke-opacity:1.00;" transform="translate(0 0) scale(1.00 1.00)">
  <path d="M30 467 L611 467" shape-rendering="auto" />
</g>
<g style="stroke-width:1; stroke-linecap:round; stroke-linejoin:round; fill:#000000; fill-opacity:1.00; stroke:#000000; stroke-opacity:0.0;" transform="translate(0 0) scale(1.00 1.00)">
  <polygon points="621 467 610 473 610 462 " shape-rendering="auto"   style="fill-rule:evenodd;"/>
</g>
<g style="stroke-width:1; stroke-linecap:round; stroke-linejoin:round; fill:#000000; fill-opacity:1.00; stroke:#000000; stroke-opacity:1.00;" transform="translate(0 0) scale(1.00 1.00)">
  <text x="312.00" y="489.00" textLength="29" style="font-family:Segoe UI; font-weight:400; font-style:normal; font-size:9.93pt; text-decoration: none; fill:#000000; fill-opacity:1.00; stroke:#000000; stroke-opacity:1.00; stroke-width:0; white-space: pre;" xml:space="preserve" transform="rotate(0.00 312.00 489.00)">TIME</text>
</g>
<g style="stroke-width:1; stroke-linecap:round; stroke-linejoin:round; fill:#000000; fill-opacity:1.00; stroke:#000000; stroke-opacity:1.00;" transform="translate(0 0) scale(1.00 1.00)">
  <text x="186.00" y="19.00" textLength="354" style="font-family:Segoe UI; font-weight:400; font-style:normal; font-size:9.93pt; text-decoration: none; fill:#000000; fill-opacity:1.00; stroke:#000000; stroke-opacity:1.00; stroke-width:0; white-space: pre;" xml:space="preserve" transform="rotate(0.00 186.00 19.00)">THE TRANSITION OF FOUR STUDENTS USING THE W-CURVE</text>
</g>
<g style="stroke-width:1; stroke-linecap:round; stroke-linejoin:round; fill:#000000; fill-opacity:1.00; stroke:#000000; stroke-opacity:0.0;" transform="translate(0 0) scale(1.00 1.00)">
  <rect x="30" y="29" width="194" height="25" rx="0.00" shape-rendering="auto"  />
</g>
<g style="stroke-width:1; stroke-linecap:round; stroke-linejoin:round; fill:#000000; fill-opacity:1.00; stroke:#000000; stroke-opacity:1.00;" transform="translate(0 0) scale(1.00 1.00)">
  <text x="34.00" y="47.00" textLength="53" style="font-family:Segoe UI; font-weight:400; font-style:normal; font-size:9.93pt; text-decoration: none; fill:#FFFFFF; fill-opacity:1.00; stroke:#FFFFFF; stroke-opacity:1.00; stroke-width:0; white-space: pre;" xml:space="preserve" transform="rotate(0.00 34.00 47.00)">First year</text>
</g>
<g style="stroke-width:1; stroke-linecap:round; stroke-linejoin:round; fill:#000000; fill-opacity:1.00; stroke:#000000; stroke-opacity:0.0;" transform="translate(0 0) scale(1.00 1.00)">
  <rect x="227" y="29" width="194" height="25" rx="0.00" shape-rendering="auto"  />
</g>
<g style="stroke-width:1; stroke-linecap:round; stroke-linejoin:round; fill:#000000; fill-opacity:1.00; stroke:#000000; stroke-opacity:1.00;" transform="translate(0 0) scale(1.00 1.00)">
  <text x="231.00" y="47.00" textLength="72" style="font-family:Segoe UI; font-weight:400; font-style:normal; font-size:9.93pt; text-decoration: none; fill:#FFFFFF; fill-opacity:1.00; stroke:#FFFFFF; stroke-opacity:1.00; stroke-width:0; white-space: pre;" xml:space="preserve" transform="rotate(0.00 231.00 47.00)">Second year</text>
</g>
<g style="stroke-width:1; stroke-linecap:round; stroke-linejoin:round; fill:#000000; fill-opacity:1.00; stroke:#000000; stroke-opacity:0.0;" transform="translate(0 0) scale(1.00 1.00)">
  <rect x="424" y="29" width="194" height="25" rx="0.00" shape-rendering="auto"  />
</g>
<g style="stroke-width:1; stroke-linecap:round; stroke-linejoin:round; fill:#000000; fill-opacity:1.00; stroke:#000000; stroke-opacity:1.00;" transform="translate(0 0) scale(1.00 1.00)">
  <text x="428.00" y="47.00" textLength="59" style="font-family:Segoe UI; font-weight:400; font-style:normal; font-size:9.93pt; text-decoration: none; fill:#FFFFFF; fill-opacity:1.00; stroke:#FFFFFF; stroke-opacity:1.00; stroke-width:0; white-space: pre;" xml:space="preserve" transform="rotate(0.00 428.00 47.00)">Third year</text>
</g>
<g style="stroke-width:1; stroke-linecap:round; stroke-linejoin:round; fill:#000000; fill-opacity:1.00; stroke:#000000; stroke-opacity:0.0;" transform="translate(0 0) scale(1.00 1.00)">
  <rect x="621" y="29" width="74" height="25" rx="0.00" shape-rendering="auto"  />
</g>
<g style="stroke-width:1; stroke-linecap:round; stroke-linejoin:round; fill:#000000; fill-opacity:1.00; stroke:#000000; stroke-opacity:1.00;" transform="translate(0 0) scale(1.00 1.00)">
  <text x="625.00" y="47.00" textLength="66" style="font-family:Segoe UI; font-weight:400; font-style:normal; font-size:9.93pt; text-decoration: none; fill:#FFFFFF; fill-opacity:1.00; stroke:#FFFFFF; stroke-opacity:1.00; stroke-width:0; white-space: pre;" xml:space="preserve" transform="rotate(0.00 625.00 47.00)">Fourth year</text>
</g>
<g style="stroke-width:2; stroke-linecap:round; stroke-linejoin:round; fill:#FFFFFF; fill-opacity:1.00; stroke:#000000; stroke-opacity:1.00;" transform="translate(0 0) scale(1.00 1.00)">
  <path d="M30 467 L30 60" shape-rendering="auto" />
</g>
<g style="stroke-width:1; stroke-linecap:round; stroke-linejoin:round; fill:#000000; fill-opacity:1.00; stroke:#000000; stroke-opacity:0.0;" transform="translate(0 0) scale(1.00 1.00)">
  <polygon points="30 60 36 71 25 71 " shape-rendering="auto"   style="fill-rule:evenodd;"/>
</g>
<g style="stroke-width:1; stroke-linecap:round; stroke-linejoin:round; fill:#000000; fill-opacity:1.00; stroke:#000000; stroke-opacity:1.00;" transform="translate(0 0) scale(1.00 1.00)">
  <text x="19.00" y="399.00" textLength="269" style="font-family:Segoe UI; font-weight:400; font-style:normal; font-size:9.93pt; text-decoration: none; fill:#000000; fill-opacity:1.00; stroke:#000000; stroke-opacity:1.00; stroke-width:0; white-space: pre;" xml:space="preserve" transform="rotate(-90.00 19.00 399.00)">Level of control, satisfaction, and effectiveness</text>
</g>
<g style="stroke-width:2; stroke-linecap:round; stroke-linejoin:round; fill:#FFFFFF; fill-opacity:1.00; stroke:#668391; stroke-opacity:1.00;" transform="translate(0 0) scale(1.00 1.00)">
  <path d="M 30.00 127.00 L 39.50 136.00 C 45.83 142.00, 62.17 147.83, 88.50 153.50 C 114.83 159.17, 119.83 167.50, 103.50 178.50 C 87.17 189.50, 74.00 192.17, 64.00 186.50 C 54.00 180.83, 54.00 176.33, 64.00 173.00 C 74.00 169.67, 87.17 178.33, 103.50 199.00 C 119.83 219.67, 119.83 235.50, 103.50 246.50 C 87.17 257.50, 74.00 260.17, 64.00 254.50 C 54.00 248.83, 54.00 244.33, 64.00 241.00 C 74.00 237.67, 103.67 251.83, 153.00 283.50 C 202.33 315.17, 243.33 325.33, 276.00 314.00 C 308.67 302.67, 341.50 291.33, 374.50 280.00 C 407.50 268.67, 440.33 257.50, 473.00 246.50 C 505.67 235.50, 538.50 224.17, 571.50 212.50 L 621.00 195.00" style="fill:none" shape-rendering="auto" stroke-dasharray="6.666667,5.333333"/>
</g>
<g style="stroke-width:2; stroke-linecap:round; stroke-linejoin:round; fill:#FFFFFF; fill-opacity:1.00; stroke:#BA969B; stroke-opacity:1.00;" transform="translate(0 0) scale(1.00 1.00)">
  <path d="M30 60 L128 127" shape-rendering="auto" />
</g>
<g style="stroke-width:1; stroke-linecap:round; stroke-linejoin:round; fill:#BA969B; fill-opacity:1.00; stroke:#000000; stroke-opacity:0.0;" transform="translate(0 0) scale(1.00 1.00)">
  <polygon points="128 127 116 125 122 116 " shape-rendering="auto"   style="fill-rule:evenodd;"/>
</g>
<g style="stroke-width:2; stroke-linecap:round; stroke-linejoin:round; fill:#FFFFFF; fill-opacity:1.00; stroke:#BA969B; stroke-opacity:1.00;" transform="translate(0 0) scale(1.00 1.00)">
  <path d="M128 127 L177 263" shape-rendering="auto" />
</g>
<g style="stroke-width:1; stroke-linecap:round; stroke-linejoin:round; fill:#BA969B; fill-opacity:1.00; stroke:#000000; stroke-opacity:0.0;" transform="translate(0 0) scale(1.00 1.00)">
  <polygon points="177 263 168 255 178 251 " shape-rendering="auto"   style="fill-rule:evenodd;"/>
</g>
<g style="stroke-width:2; stroke-linecap:round; stroke-linejoin:round; fill:#FFFFFF; fill-opacity:1.00; stroke:#BA969B; stroke-opacity:1.00;" transform="translate(0 0) scale(1.00 1.00)">
  <path d="M177 263 L227 331" shape-rendering="auto" />
</g>
<g style="stroke-width:1; stroke-linecap:round; stroke-linejoin:round; fill:#BA969B; fill-opacity:1.00; stroke:#000000; stroke-opacity:0.0;" transform="translate(0 0) scale(1.00 1.00)">
  <polygon points="227 331 216 325 225 319 " shape-rendering="auto"   style="fill-rule:evenodd;"/>
</g>
<g style="stroke-width:2; stroke-linecap:round; stroke-linejoin:round; fill:#FFFFFF; fill-opacity:1.00; stroke:#BA969B; stroke-opacity:1.00;" transform="translate(0 0) scale(1.00 1.00)">
  <path d="M227 331 L424 127" shape-rendering="auto" />
</g>
<g style="stroke-width:1; stroke-linecap:round; stroke-linejoin:round; fill:#BA969B; fill-opacity:1.00; stroke:#000000; stroke-opacity:0.0;" transform="translate(0 0) scale(1.00 1.00)">
  <polygon points="424 127 420 139 412 131 " shape-rendering="auto"   style="fill-rule:evenodd;"/>
</g>
<g style="stroke-width:2; stroke-linecap:round; stroke-linejoin:round; fill:#FFFFFF; fill-opacity:1.00; stroke:#BA969B; stroke-opacity:1.00;" transform="translate(0 0) scale(1.00 1.00)">
  <path d="M424 127 L611 127" shape-rendering="auto" />
</g>
<g style="stroke-width:1; stroke-linecap:round; stroke-linejoin:round; fill:#BA969B; fill-opacity:1.00; stroke:#000000; stroke-opacity:0.0;" transform="translate(0 0) scale(1.00 1.00)">
  <polygon points="621 127 610 133 610 122 " shape-rendering="auto"   style="fill-rule:evenodd;"/>
</g>
<g style="stroke-width:2; stroke-linecap:round; stroke-linejoin:round; fill:#FFFFFF; fill-opacity:1.00; stroke:#CA5045; stroke-opacity:1.00;" transform="translate(0 0) scale(1.00 1.00)">
  <path d="M30 77 L227 399" shape-rendering="auto" stroke-dasharray="1.333333,3.333333"/>
</g>
<g style="stroke-width:1; stroke-linecap:round; stroke-linejoin:round; fill:#CA5045; fill-opacity:1.00; stroke:#000000; stroke-opacity:0.0;" transform="translate(0 0) scale(1.00 1.00)">
  <polygon points="227 399 217 392 226 387 " shape-rendering="auto"   style="fill-rule:evenodd;"/>
</g>
<g style="stroke-width:2; stroke-linecap:round; stroke-linejoin:round; fill:#FFFFFF; fill-opacity:1.00; stroke:#CA5045; stroke-opacity:1.00;" transform="translate(0 0) scale(1.00 1.00)">
  <path d="M227 399 L424 195" shape-rendering="auto" stroke-dasharray="1.333333,3.333333"/>
</g>
<g style="stroke-width:1; stroke-linecap:round; stroke-linejoin:round; fill:#CA5045; fill-opacity:1.00; stroke:#000000; stroke-opacity:0.0;" transform="translate(0 0) scale(1.00 1.00)">
  <polygon points="424 195 420 207 412 199 " shape-rendering="auto"   style="fill-rule:evenodd;"/>
</g>
<g style="stroke-width:2; stroke-linecap:round; stroke-linejoin:round; fill:#FFFFFF; fill-opacity:1.00; stroke:#CA5045; stroke-opacity:1.00;" transform="translate(0 0) scale(1.00 1.00)">
  <path d="M424 195 L621 331" shape-rendering="auto" stroke-dasharray="1.333333,3.333333"/>
</g>
<g style="stroke-width:1; stroke-linecap:round; stroke-linejoin:round; fill:#CA5045; fill-opacity:1.00; stroke:#000000; stroke-opacity:0.0;" transform="translate(0 0) scale(1.00 1.00)">
  <polygon points="621 331 609 329 615 320 " shape-rendering="auto"   style="fill-rule:evenodd;"/>
</g>
<g style="stroke-width:2; stroke-linecap:round; stroke-linejoin:round; fill:#FFFFFF; fill-opacity:1.00; stroke:#6E5045; stroke-opacity:1.00;" transform="translate(0 0) scale(1.00 1.00)">
  <path d="M30 331 L227 297" shape-rendering="auto" stroke-dasharray="10.000000,5.333333"/>
</g>
<g style="stroke-width:1; stroke-linecap:round; stroke-linejoin:round; fill:#6E5045; fill-opacity:1.00; stroke:#000000; stroke-opacity:0.0;" transform="translate(0 0) scale(1.00 1.00)">
  <polygon points="227 297 217 304 215 293 " shape-rendering="auto"   style="fill-rule:evenodd;"/>
</g>
<g style="stroke-width:2; stroke-linecap:round; stroke-linejoin:round; fill:#FFFFFF; fill-opacity:1.00; stroke:#6E5045; stroke-opacity:1.00;" transform="translate(0 0) scale(1.00 1.00)">
  <path d="M227 297 L424 250" shape-rendering="auto" stroke-dasharray="10.000000,5.333333"/>
</g>
<g style="stroke-width:1; stroke-linecap:round; stroke-linejoin:round; fill:#6E5045; fill-opacity:1.00; stroke:#000000; stroke-opacity:0.0;" transform="translate(0 0) scale(1.00 1.00)">
  <polygon points="424 250 415 258 412 247 " shape-rendering="auto"   style="fill-rule:evenodd;"/>
</g>
<g style="stroke-width:2; stroke-linecap:round; stroke-linejoin:round; fill:#FFFFFF; fill-opacity:1.00; stroke:#6E5045; stroke-opacity:1.00;" transform="translate(0 0) scale(1.00 1.00)">
  <path d="M424 250 L621 111" shape-rendering="auto" stroke-dasharray="10.000000,5.333333"/>
</g>
<g style="stroke-width:1; stroke-linecap:round; stroke-linejoin:round; fill:#6E5045; fill-opacity:1.00; stroke:#000000; stroke-opacity:0.0;" transform="translate(0 0) scale(1.00 1.00)">
  <polygon points="621 111 615 122 609 113 " shape-rendering="auto"   style="fill-rule:evenodd;"/>
</g>
<g style="stroke-width:1; stroke-linecap:round; stroke-linejoin:round; fill:#000000; fill-opacity:1.00; stroke:#000000; stroke-opacity:1.00;" transform="translate(0 0) scale(1.00 1.00)">
  <text x="723.00" y="22.00" textLength="31" style="font-family:Segoe UI; font-weight:400; font-style:normal; font-size:9.91pt; text-decoration: none; fill:#000000; fill-opacity:1.00; stroke:#000000; stroke-opacity:1.00; stroke-width:0; white-space: pre;" xml:space="preserve" transform="rotate(0.00 723.00 22.00)">Frank</text>
  <text x="723.00" y="41.00" textLength="36" style="font-family:Segoe UI; font-weight:400; font-style:normal; font-size:9.91pt; text-decoration: none; fill:#000000; fill-opacity:1.00; stroke:#000000; stroke-opacity:1.00; stroke-width:0; white-space: pre;" xml:space="preserve" transform="rotate(0.00 723.00 41.00)">Nancy</text>
  <text x="723.00" y="60.00" textLength="37" style="font-family:Segoe UI; font-weight:400; font-style:normal; font-size:9.91pt; text-decoration: none; fill:#000000; fill-opacity:1.00; stroke:#000000; stroke-opacity:1.00; stroke-width:0; white-space: pre;" xml:space="preserve" transform="rotate(0.00 723.00 60.00)">Sharry</text>
  <text x="723.00" y="79.00" textLength="24" style="font-family:Segoe UI; font-weight:400; font-style:normal; font-size:9.91pt; text-decoration: none; fill:#000000; fill-opacity:1.00; stroke:#000000; stroke-opacity:1.00; stroke-width:0; white-space: pre;" xml:space="preserve" transform="rotate(0.00 723.00 79.00)">Tina</text>
</g>
<g style="stroke-width:2; stroke-linecap:round; stroke-linejoin:round; fill:#668391; fill-opacity:1.00; stroke:#668391; stroke-opacity:1.00;" transform="translate(0 0) scale(1.00 1.00)">
  <path d="M707 16 L717 16" shape-rendering="auto" stroke-dasharray="6.666667,5.333333"/>
</g>
<g style="stroke-width:2; stroke-linecap:round; stroke-linejoin:round; fill:#BA969B; fill-opacity:1.00; stroke:#BA969B; stroke-opacity:1.00;" transform="translate(0 0) scale(1.00 1.00)">
  <path d="M707 35 L717 35" shape-rendering="auto" />
</g>
<g style="stroke-width:2; stroke-linecap:round; stroke-linejoin:round; fill:#CA5045; fill-opacity:1.00; stroke:#CA5045; stroke-opacity:1.00;" transform="translate(0 0) scale(1.00 1.00)">
  <path d="M707 54 L717 54" shape-rendering="auto" stroke-dasharray="1.333333,3.333333"/>
</g>
<g style="stroke-width:2; stroke-linecap:round; stroke-linejoin:round; fill:#6E5045; fill-opacity:1.00; stroke:#6E5045; stroke-opacity:1.00;" transform="translate(0 0) scale(1.00 1.00)">
  <path d="M707 73 L717 73" shape-rendering="auto" stroke-dasharray="10.000000,5.333333"/>
</g>
</svg>
